<svg width="67" height="67" viewBox="0 0 67 67" fill="none" xmlns="http://www.w3.org/2000/svg">
<g opacity="0.35">
<path fill-rule="evenodd" clip-rule="evenodd" d="M40.0789 41.4305C36.8639 43.8077 32.1875 45.0742 28.1541 45.0742C22.5035 45.0742 17.4375 42.9893 13.5795 39.521C13.2872 39.2482 13.5405 38.878 13.9107 39.0923C18.061 41.5085 23.1855 42.9503 28.4854 42.9503C32.0511 42.9503 35.987 42.2099 39.6112 40.6706C40.1568 40.4563 40.605 41.0408 40.0789 41.4305Z" fill="white"/>
<path fill-rule="evenodd" clip-rule="evenodd" d="M41.4235 39.8914C41.0143 39.3653 38.6956 39.6381 37.6629 39.7745C37.3511 39.8134 37.2927 39.5406 37.5849 39.3458C39.436 38.0403 42.4562 38.43 42.8069 38.8587C43.1576 39.2873 42.7095 42.327 40.9753 43.7689C40.7025 43.9832 40.4492 43.8663 40.5661 43.574C40.9558 42.5998 41.8326 40.4369 41.4235 39.8914Z" fill="white"/>
<path fill-rule="evenodd" clip-rule="evenodd" d="M37.7219 30.1875V28.921C37.7219 28.7262 37.8583 28.6093 38.0337 28.6093H43.6843C43.8596 28.6093 44.0155 28.7457 44.0155 28.921V29.9927C44.0155 30.168 43.8596 30.4019 43.5868 30.7916L40.6641 34.9613C41.7553 34.9418 42.9049 35.0977 43.8791 35.6433C44.0934 35.7602 44.1519 35.955 44.1714 36.1304V37.4749C44.1714 37.6697 43.9765 37.884 43.7622 37.7671C42.028 36.8513 39.7094 36.7539 37.7998 37.7866C37.605 37.884 37.3907 37.6892 37.3907 37.4943V36.2083C37.3907 36.0135 37.3907 35.6628 37.605 35.351L40.9953 30.4993H38.0531C37.8778 30.4993 37.7219 30.3629 37.7219 30.1875ZM17.1264 38.0399H15.4118C15.2559 38.0204 15.1195 37.9035 15.1 37.7476V28.9405C15.1 28.7651 15.2559 28.6287 15.4312 28.6287H17.029C17.2044 28.6287 17.3213 28.7651 17.3408 28.921V30.0706H17.3797C17.7889 28.96 18.5878 28.4339 19.64 28.4339C20.7116 28.4339 21.3936 28.96 21.8612 30.0706C22.2704 28.96 23.2252 28.4339 24.2384 28.4339C24.9593 28.4339 25.7387 28.7262 26.2258 29.4081C26.7714 30.1486 26.6545 31.2202 26.6545 32.175V37.7476C26.6545 37.923 26.4986 38.0594 26.3233 38.0594H24.6281C24.4527 38.0399 24.3163 37.9035 24.3163 37.7476V33.0713C24.3163 32.7011 24.3553 31.7658 24.2774 31.4151C24.141 30.8305 23.7708 30.6552 23.2641 30.6552C22.855 30.6552 22.4068 30.928 22.2315 31.3761C22.0561 31.8243 22.0756 32.5647 22.0756 33.0713V37.7476C22.0756 37.923 21.9197 38.0594 21.7443 38.0594H20.0297C19.8543 38.0399 19.7179 37.9035 19.7179 37.7476V33.0713C19.7179 32.097 19.8738 30.6357 18.6657 30.6357C17.4382 30.6357 17.4772 32.0386 17.4772 33.0713V37.7476C17.4577 37.9035 17.3213 38.0399 17.1264 38.0399ZM48.8867 28.4339C51.4392 28.4339 52.8227 30.6162 52.8227 33.4025C52.8227 36.0914 51.3028 38.2348 48.8867 38.2348C46.3927 38.2348 45.0287 36.0525 45.0287 33.3246C45.0092 30.5772 46.3927 28.4339 48.8867 28.4339ZM48.8867 30.246C47.6202 30.246 47.5423 31.9801 47.5423 33.0518C47.5423 34.1235 47.5228 36.4227 48.8672 36.4227C50.1922 36.4227 50.2701 34.5716 50.2701 33.4415C50.2701 32.7011 50.2312 31.8048 50.0168 31.1033C49.822 30.4798 49.4323 30.246 48.8867 30.246ZM56.1156 38.0399H54.4009C54.2256 38.0204 54.0892 37.884 54.0892 37.7282V28.9015C54.1087 28.7457 54.245 28.6093 54.4204 28.6093H56.0182C56.174 28.6093 56.291 28.7262 56.3299 28.8626V30.207H56.3689C56.856 28.999 57.5185 28.4339 58.7071 28.4339C59.467 28.4339 60.2269 28.7067 60.714 29.4666C61.1622 30.168 61.1622 31.3566 61.1622 32.214V37.7671C61.1427 37.923 61.0063 38.0399 60.8309 38.0399H59.1162C58.9604 38.0204 58.824 37.9035 58.8045 37.7671V32.9739C58.8045 31.9996 58.9214 30.5967 57.7328 30.5967C57.3236 30.5967 56.9339 30.8695 56.7391 31.2982C56.5053 31.8437 56.4663 32.3698 56.4663 32.9739V37.7282C56.4468 37.9035 56.291 38.0399 56.1156 38.0399ZM33.2209 33.8312C33.2209 34.4937 33.2404 35.0587 32.9091 35.6628C32.6364 36.1499 32.2077 36.4422 31.7206 36.4422C31.0581 36.4422 30.6684 35.9356 30.6684 35.1951C30.6684 33.7338 31.9739 33.461 33.2209 33.461V33.8312ZM34.9551 38.0204C34.8381 38.1179 34.6823 38.1373 34.5459 38.0594C33.9808 37.5918 33.8639 37.358 33.5521 36.9098C32.6169 37.8646 31.9349 38.1568 30.7268 38.1568C29.285 38.1568 28.1548 37.2605 28.1548 35.4874C28.1548 34.0845 28.9148 33.1492 29.9864 32.6816C30.9217 32.2724 32.2272 32.1945 33.2209 32.0776V31.8632C33.2209 31.454 33.2599 30.9669 33.0066 30.6162C32.7922 30.3044 32.4025 30.168 32.0518 30.168C31.3893 30.168 30.8048 30.4993 30.6684 31.2007C30.6294 31.3566 30.532 31.5125 30.3761 31.5125L28.7199 31.3371C28.5835 31.2982 28.4276 31.2007 28.4666 30.9864C28.8563 28.96 30.6684 28.356 32.3051 28.356C33.143 28.356 34.2341 28.5703 34.8966 29.2133C35.7344 29.9927 35.6565 31.0449 35.6565 32.175V34.8444C35.6565 35.6433 35.9877 35.994 36.2995 36.4422C36.4164 36.598 36.4359 36.7929 36.2995 36.8903C35.9293 37.1826 35.3058 37.7282 34.9551 38.0204ZM10.7159 33.8312C10.7159 34.4937 10.7354 35.0587 10.4042 35.6628C10.1314 36.1499 9.7027 36.4422 9.21558 36.4422C8.5531 36.4422 8.1634 35.9356 8.1634 35.1951C8.1634 33.7338 9.46889 33.461 10.7159 33.461V33.8312ZM12.4306 38.0204C12.3137 38.1179 12.1578 38.1373 12.0214 38.0594C11.4563 37.5918 11.3394 37.358 11.0277 36.9098C10.0924 37.8646 9.41043 38.1568 8.20237 38.1568C6.76049 38.1568 5.63037 37.2605 5.63037 35.4874C5.63037 34.0845 6.39028 33.1492 7.46194 32.6816C8.39722 32.2724 9.7027 32.1945 10.6964 32.0776V31.8632C10.6964 31.454 10.7354 30.9669 10.4821 30.6162C10.2678 30.3044 9.87807 30.168 9.52734 30.168C8.86485 30.168 8.28031 30.4993 8.14391 31.2007C8.10494 31.3566 8.00752 31.5125 7.85164 31.5125L6.19543 31.3371C6.05904 31.2982 5.90316 31.2007 5.94213 30.9864C6.33183 28.96 8.14392 28.356 9.78064 28.356C10.6185 28.356 11.7096 28.5703 12.3721 29.2133C13.21 29.9927 13.132 31.0449 13.132 32.175V34.8444C13.132 35.6433 13.4633 35.994 13.775 36.4422C13.8919 36.598 13.9114 36.7929 13.775 36.8903C13.4048 37.1826 12.7813 37.7282 12.4306 38.0204Z" fill="white"/>
</g>
</svg>
