<svg width="67" height="67" viewBox="0 0 67 67" fill="none" xmlns="http://www.w3.org/2000/svg">
<g opacity="0.35">
<path fill-rule="evenodd" clip-rule="evenodd" d="M64.3981 26.7006C64.6507 26.7006 64.8982 26.7651 65.1395 26.8948C65.3775 27.0221 65.5733 27.2159 65.7028 27.4526C65.837 27.6939 65.9046 27.9462 65.9046 28.2088C65.9046 28.4683 65.8384 28.7182 65.7055 28.9575C65.577 29.193 65.3837 29.3868 65.1484 29.5159C64.9197 29.646 64.6612 29.7146 64.3981 29.715C64.135 29.7145 63.8765 29.646 63.6477 29.5159C63.4121 29.3869 63.2183 29.1931 63.0893 28.9575C62.9589 28.7294 62.8901 28.4715 62.8895 28.2088C62.8895 27.9462 62.9571 27.6939 63.092 27.4526C63.2221 27.2157 63.4185 27.0219 63.657 26.8948C63.8839 26.769 64.1387 26.7022 64.3981 26.7006ZM64.3981 26.9501C64.1863 26.9501 63.9804 27.0047 63.7799 27.1132C63.5794 27.2216 63.4226 27.3771 63.3093 27.5783C63.196 27.7801 63.1397 27.9902 63.1397 28.2088C63.1397 28.4254 63.1953 28.6334 63.3065 28.8325C63.4171 29.0316 63.5726 29.1871 63.7723 29.2983C63.9629 29.4069 64.1784 29.4644 64.3978 29.4651C64.6171 29.4643 64.8325 29.4069 65.0232 29.2983C65.2193 29.1905 65.3806 29.0289 65.4879 28.8325C65.5984 28.6334 65.6534 28.4254 65.6534 28.2088C65.6534 27.9898 65.5978 27.7798 65.4852 27.5783C65.3726 27.3771 65.2157 27.2216 65.0146 27.1132C64.8134 27.0047 64.6082 26.9501 64.3981 26.9501ZM63.737 29.0416V27.42H64.2934C64.4846 27.42 64.6226 27.4344 64.7077 27.4643C64.7928 27.4942 64.8605 27.5467 64.9116 27.6212C64.9617 27.6963 64.9875 27.7753 64.9875 27.8591C64.9875 27.9778 64.9452 28.0808 64.8608 28.1683C64.7757 28.2565 64.6638 28.3053 64.5237 28.3166C64.5814 28.3403 64.6277 28.3688 64.6617 28.4024C64.7266 28.4666 64.8066 28.5737 64.9016 28.7244L65.0994 29.0416H64.7794L64.6353 28.7858C64.522 28.5854 64.4314 28.4594 64.3617 28.4089C64.314 28.3715 64.2436 28.353 64.152 28.353H63.9985V29.0416H63.737ZM63.9985 28.1292H64.3164C64.4678 28.1292 64.5711 28.1058 64.6267 28.0609C64.6536 28.0394 64.6751 28.012 64.6895 27.9808C64.7039 27.9495 64.7108 27.9154 64.7098 27.881C64.71 27.835 64.6959 27.79 64.6696 27.7523C64.6419 27.7139 64.6034 27.6845 64.5591 27.6679C64.5114 27.6486 64.4242 27.6397 64.2955 27.6397H63.9985V28.1292ZM35.3355 26.6014H35.3856V30.0669H31.8844V26.6014H35.3355ZM20.0978 33.9298L28.1955 34.432C28.5322 34.432 28.8075 34.7076 28.8075 35.044C28.8075 35.3804 28.5322 35.6561 28.1955 35.6561H16.655V31.145C17.0096 32.5379 18.2302 33.6772 20.0978 33.9298ZM16.655 39.1411H28.4533C30.173 39.1411 31.617 37.9002 31.9352 36.2698C32.216 37.8948 33.6374 39.1411 35.3359 39.1411H42.874C44.558 39.1411 45.9705 37.915 46.2671 36.3093V39.1411H58.3534C60.3045 39.1411 61.9006 37.545 61.9006 35.5932V35.0911C61.9006 33.14 60.3045 31.5439 58.3534 31.5439L57.6902 31.5147C53.9299 31.3493 50.1809 31.1598 46.4253 30.9658C46.7178 32.4394 47.9614 33.6662 49.9087 33.9298L58.0953 34.432C58.2575 34.4325 58.413 34.4971 58.5278 34.6117C58.6426 34.7264 58.7073 34.8818 58.708 35.044C58.7073 35.2063 58.6426 35.3617 58.5278 35.4763C58.413 35.591 58.2575 35.6556 58.0953 35.6561H46.3248V30.9607L42.8239 30.7801V34.7962C42.8232 35.067 42.7153 35.3265 42.5238 35.518C42.3324 35.7094 42.0729 35.8173 41.8021 35.8181H36.4078C36.137 35.8174 35.8775 35.7096 35.686 35.5181C35.4945 35.3266 35.3866 35.067 35.386 34.7962V30.3964L31.8844 30.2158V34.1969C31.4842 32.691 30.094 31.6053 28.4533 31.6053L13.0333 30.5972V39.1414L16.655 39.1411ZM31.328 30.0686V26.5839H20.0978C18.4399 26.5839 17.0387 27.7362 16.655 29.2798V26.601H9.95158L7.66723 30.0669H16.5517L31.328 30.0686ZM11.5546 30.5114L6.01755 39.1411H1.68604L7.52752 30.279L11.5546 30.5114ZM61.9002 30.0686V26.5839H49.9083C47.9789 26.5839 46.3969 28.1453 46.3618 30.0669L61.9002 30.0686ZM42.8236 30.0669V26.6014H46.3244V30.0669H42.8236Z" fill="white"/>
</g>
</svg>
