<svg width="67" height="67" viewBox="0 0 67 67" fill="none" xmlns="http://www.w3.org/2000/svg">
<g opacity="0.35">
<path fill-rule="evenodd" clip-rule="evenodd" d="M24.6363 32.4799V25.8732H27.0453C27.5562 25.8732 27.8849 25.9826 28.1768 26.0921C28.834 26.4205 29.1256 27.0412 29.1256 27.5885C29.1256 28.2092 28.8702 28.6471 28.359 28.9755C29.1256 29.158 29.5638 29.6692 29.5638 30.472C29.5638 31.3845 29.0161 32.0414 28.1036 32.3336C27.7751 32.4431 27.4102 32.4796 26.8625 32.4796L24.6363 32.4799ZM27.5927 27.0047C27.4102 26.9317 27.2278 26.8952 26.972 26.8952H25.731V28.6106H26.899C27.2275 28.6106 27.4467 28.5741 27.6292 28.4646C27.7524 28.396 27.8548 28.2952 27.9254 28.1731C27.9961 28.051 28.0324 27.9121 28.0306 27.771C28.0306 27.4429 27.8481 27.1507 27.5927 27.0047ZM27.9214 29.7421C27.7754 29.6692 27.5562 29.6327 27.1913 29.6327H25.7313V31.4575H27.0818C27.5197 31.4575 27.7389 31.3845 27.9214 31.3116C28.2498 31.1656 28.3958 30.8734 28.3958 30.5085C28.3958 30.1435 28.2498 29.8884 27.9214 29.7421ZM36.1337 32.4799V25.8732H37.2656V32.4799H36.1337ZM44.3464 32.4799V25.8732H45.4782V32.4799H44.3464ZM49.0918 25.8367C49.8213 25.8367 50.5517 26.0191 50.9534 26.2019L50.9166 27.2969C50.3325 27.005 49.7854 26.8222 49.0921 26.8222C48.4711 26.8222 47.9241 27.0047 47.9241 27.5159C47.9241 28.8664 51.3187 28.3187 51.3187 30.5453C51.3187 31.7863 50.2966 32.5529 48.7637 32.5529C47.7416 32.5529 47.0477 32.261 46.5368 31.9687L47.0115 31.0561C47.4132 31.3116 48.0703 31.567 48.7999 31.567C49.4932 31.567 50.1142 31.3116 50.1142 30.7277C50.1142 29.3039 46.756 29.9246 46.756 27.698C46.7557 26.4938 47.7045 25.8367 49.0918 25.8367ZM56.6473 32.4799V29.633H53.4713V32.4799H52.3401V25.8732H53.4713V28.5744H56.6473V25.8732H57.7785V32.4799H56.6473ZM27.1183 33.6114C27.8116 33.6114 28.3593 33.7574 28.9432 34.0128L28.6147 34.9619C28.2863 34.8156 27.8481 34.6335 27.2278 34.6335C25.9868 34.6335 25.2201 35.692 25.2201 36.9695C25.2201 38.2838 25.9503 39.3421 27.2278 39.3421C27.8481 39.3421 28.2863 39.1596 28.6147 39.0137L28.9432 39.9624C28.359 40.2179 27.8116 40.3641 27.1183 40.3641C25.1472 40.3641 24.0156 38.9772 24.0156 37.006C24.0156 35.1444 25.1472 33.6114 27.1183 33.6114ZM51.793 33.6114C52.5226 33.6114 53.0705 33.7574 53.6176 34.0128L53.2892 34.9619C52.9608 34.8156 52.5226 34.6335 51.9025 34.6335C50.6612 34.6335 49.8949 35.692 49.8949 36.9695C49.8949 38.2838 50.625 39.3421 51.9025 39.3421C52.5229 39.3421 52.9608 39.1596 53.2892 39.0137L53.6176 39.9624C53.0702 40.2179 52.5226 40.3641 51.793 40.3641C49.8216 40.3641 48.6904 38.9772 48.6904 37.006C48.6901 35.1444 49.8216 33.6114 51.793 33.6114ZM35.3671 36.9692C35.3671 38.9404 34.1264 40.3641 32.2648 40.3641C30.4031 40.3641 29.1621 38.9772 29.1621 37.006C29.1621 35.0349 30.4034 33.6114 32.2648 33.6114C34.1629 33.6114 35.3671 34.9984 35.3671 36.9692ZM34.1991 36.9692C34.1991 35.5458 33.3601 34.6332 32.2648 34.6332C31.1697 34.6332 30.3304 35.5458 30.3304 37.0057C30.3304 38.4295 31.17 39.3418 32.2648 39.3418C33.3601 39.3418 34.1991 38.4295 34.1991 36.9692ZM36.1337 37.7723V33.6844H37.2656V37.8088C37.2656 38.9404 37.8498 39.3418 38.7985 39.3418C39.7473 39.3418 40.3315 38.9404 40.3315 37.8088V33.6844H41.4627V37.7723C41.4627 39.561 40.4406 40.3641 38.7985 40.3641C37.1558 40.3641 36.1337 39.561 36.1337 37.7723ZM43.5798 35.4728H43.5436C43.5798 35.6917 43.5798 36.0569 43.5798 36.3489V40.2543H42.4486V33.6844H43.6899L46.7189 38.174H46.7557C46.7189 37.9551 46.7189 37.5899 46.7189 37.298V33.6844H47.8508V40.2543H46.8649L43.5798 35.4728ZM54.494 40.2543V33.6844H55.6252V40.2543H54.494ZM56.6473 40.2543V33.6844H57.7785V39.2326H60.3703V40.2543H56.6473ZM43.4706 25.91H38.1414V26.9317H40.2585V32.4799H41.3903V26.9317H43.4706V25.91ZM34.1267 32.4799C33.1774 30.4723 32.9219 29.9249 32.5205 29.9249H31.462V32.4799H30.3304V25.91H32.557C34.2724 25.91 34.8934 26.7861 34.8934 27.7713C34.8934 28.6839 34.4187 29.2678 33.6885 29.4867C33.9808 29.6692 34.3095 30.2898 35.4045 32.4799H34.1267ZM32.6297 26.8952H31.4617V28.9028H32.5932C33.3963 28.9028 33.7609 28.5014 33.7609 27.8808C33.7612 27.3334 33.4328 26.8952 32.6297 26.8952Z" fill="white"/>
<path fill-rule="evenodd" clip-rule="evenodd" d="M13.5763 29.0487C13.5763 31.1293 11.8609 32.8082 9.78026 32.8082C7.73614 32.8082 6.02075 31.129 6.02075 29.0487C6.02075 26.9684 7.73614 25.2892 9.78026 25.2892C11.8609 25.2892 13.5763 26.9681 13.5763 29.0487ZM21.6065 29.0487C21.6071 29.5426 21.5104 30.0318 21.3217 30.4882C21.133 30.9446 20.8561 31.3594 20.5069 31.7086C20.1576 32.0578 19.7429 32.3347 19.2865 32.5234C18.83 32.7121 18.3408 32.8089 17.8469 32.8082C15.7663 32.8082 14.0874 31.129 14.0874 29.0487C14.0874 26.9684 15.7666 25.2892 17.8469 25.2892C18.3408 25.2885 18.83 25.3853 19.2865 25.574C19.7429 25.7626 20.1576 26.0395 20.5069 26.3888C20.8561 26.738 21.133 27.1527 21.3217 27.6092C21.5104 28.0656 21.6071 28.5548 21.6065 29.0487ZM13.5763 37.1154C13.5763 39.196 11.8609 40.8749 9.78026 40.8749C7.73614 40.8749 6.02075 39.1957 6.02075 37.1154C6.02075 35.0345 7.73614 33.3559 9.78026 33.3559C11.8609 33.3559 13.5763 35.0345 13.5763 37.1154ZM21.6065 37.1154C21.6071 37.6093 21.5104 38.0985 21.3217 38.5549C21.133 39.0113 20.8561 39.4261 20.5069 39.7753C20.1576 40.1245 19.7429 40.4014 19.2865 40.5901C18.83 40.7788 18.3408 40.8756 17.8469 40.8749C17.353 40.8756 16.8639 40.7788 16.4074 40.5901C15.951 40.4014 15.5363 40.1245 15.187 39.7753C14.8378 39.4261 14.5609 39.0113 14.3722 38.5549C14.1835 38.0985 14.0867 37.6093 14.0874 37.1154C14.0867 36.6215 14.1835 36.1323 14.3722 35.6759C14.5609 35.2194 14.8378 34.8047 15.187 34.4555C15.5363 34.1062 15.951 33.8293 16.4074 33.6406C16.8639 33.452 17.353 33.3552 17.8469 33.3559C18.3409 33.3551 18.8301 33.4519 19.2865 33.6406C19.743 33.8292 20.1577 34.1061 20.507 34.4554C20.8562 34.8046 21.1331 35.2194 21.3218 35.6758C21.5104 36.1323 21.6072 36.6215 21.6065 37.1154Z" fill="white"/>
</g>
</svg>
