<svg width="67" height="67" viewBox="0 0 67 67" fill="none" xmlns="http://www.w3.org/2000/svg">
<g opacity="0.35">
<path d="M13.6413 30.9173V24.1071C13.6413 23.8548 13.6665 23.7034 14.0955 23.7034H19.8714C20.8805 23.7034 21.4354 24.5611 21.8391 26.1753L22.1669 27.4619H23.1506C23.3269 23.8047 23.4781 22.2156 23.4781 22.2156C23.4781 22.2156 21.0064 22.4929 19.5434 22.4929H12.1535L8.19287 22.3668V23.4262L9.52997 23.6784C10.4632 23.8551 10.6898 24.0566 10.7661 24.9145C10.7661 24.9145 10.8419 27.4367 10.8419 31.5988C10.8419 35.7602 10.7661 38.2576 10.7661 38.2576C10.7661 39.0141 10.4632 39.2915 9.52997 39.4686L8.19287 39.721V40.7798L12.1535 40.6539H18.762C20.2501 40.6539 23.7056 40.7798 23.7056 40.7798C23.781 39.8716 24.2858 35.7602 24.3615 35.3067H23.4282L22.4445 37.5516C21.6624 39.3168 20.5276 39.4432 19.2662 39.4432H15.5077C14.2464 39.4432 13.641 38.9386 13.641 37.8542V32.1031C13.641 32.1031 16.3903 32.1031 17.3486 32.179C18.055 32.2296 18.4835 32.4313 18.7109 33.4149L19.0137 34.7265H20.0977L20.0223 31.4219L20.1735 28.0928H19.0892L18.7363 29.5556C18.509 30.514 18.358 30.691 17.3741 30.7915C16.2644 30.918 13.6409 30.8927 13.6409 30.8927V30.9177H13.6413V30.9173ZM28.5986 24.8135C28.2454 26.3773 27.8922 27.5879 26.6562 28.3952C25.8997 28.8994 25.1428 29.0758 24.8405 29.1011V30.0595H27.0853V37.8029C27.0853 39.9724 28.5232 41.032 30.4399 41.032C31.9282 41.032 33.4665 40.4014 33.9964 39.0895L33.4665 38.4085C33.2142 38.8375 32.4076 39.4679 31.3985 39.4679C30.2889 39.4679 29.6835 38.711 29.6835 36.7944V29.9591L33.4168 30.2368L33.6183 28.5212L29.6836 28.6727V24.8385L28.5986 24.8135ZM36.5693 36.724L35.6109 36.7492C35.6612 37.3039 35.6867 38.0105 35.6867 38.6662C35.6867 39.3472 35.6615 39.9778 35.6109 40.2804C35.6109 40.2804 37.5279 40.986 39.47 40.986C42.0933 40.986 44.187 39.7249 44.187 37.253C44.187 33.016 37.8307 33.6467 37.8307 30.796C37.8307 29.6107 38.89 29.1565 40.0503 29.1565C40.9583 29.1565 41.7149 29.4844 41.8663 29.9641L42.497 31.8557L43.4304 31.8054C43.5062 30.7963 43.5564 29.636 43.7079 28.7029C42.9005 28.3498 41.2104 28.1476 40.1519 28.1476C37.6794 28.1476 35.6871 29.2324 35.6871 31.6539C35.6871 35.866 41.8917 35.0084 41.8917 38.1113C41.8917 39.2206 41.2104 40.0027 39.6722 40.0027C38.26 40.0027 37.5535 39.2714 37.2766 38.5396L36.5693 36.724ZM51.7718 39.638C50.3116 43.717 48.524 44.7737 46.9128 44.7737C46.2327 44.7737 45.9057 44.4713 45.8046 43.9937L45.427 42.0294L44.3693 42.0797C44.1679 43.2381 43.9665 44.5226 43.6899 45.5797C44.3194 46.0574 45.3763 46.3098 46.2075 46.3098C47.9452 46.3098 50.5885 46.0828 53.0051 40.3427L57.0589 30.7756C57.3865 29.9949 57.5119 29.9194 58.4687 29.5415L58.9975 29.3405V28.4593L56.6055 28.5852L54.0375 28.4593V29.3405L54.6918 29.5415C55.3461 29.7433 55.6488 29.9949 55.6488 30.4482C55.6488 30.6746 55.573 30.9014 55.4468 31.2535C55.0692 32.2109 52.7277 37.9006 52.0989 39.1094L52.7276 38.8824C51.6196 36.1383 49.9335 31.5556 49.6814 30.7758C49.6311 30.6246 49.6059 30.4987 49.6059 30.3723C49.6059 29.9696 49.8828 29.6422 50.4872 29.5165L51.3181 29.3407V28.4594L47.8684 28.5853L45.1243 28.4594V29.3407L45.5776 29.4916C46.2069 29.693 46.3581 29.8694 46.7357 30.7505C48.8248 35.5344 49.8073 38.1524 51.1411 41.5768L51.7718 39.638Z" fill="white"/>
</g>
</svg>
