<svg width="68" height="67" viewBox="0 0 68 67" fill="none" xmlns="http://www.w3.org/2000/svg">
<g opacity="0.35">
<path fill-rule="evenodd" clip-rule="evenodd" d="M64.1978 26.1136L66.9658 26.1289C66.9658 26.1289 61.8195 33.1025 61.3993 33.6708C61.2628 33.8549 61.0555 34.0533 60.9503 34.2994C60.6845 34.9179 60.4116 36.2746 60.4116 36.2746L57.8789 36.2873C57.8789 36.2873 58.273 34.873 58.2567 34.1198C58.2425 33.4617 57.9065 32.8045 57.7181 32.1445C57.5276 31.4764 57.269 30.1692 57.269 30.1692H59.873L60.2321 31.6058L64.1978 26.1136Z" fill="white"/>
<path fill-rule="evenodd" clip-rule="evenodd" d="M58.9564 27.5844C59.4672 27.8924 59.7807 29.5912 59.7807 29.5912C59.7807 29.5912 57.1078 29.6306 55.6532 29.6306H54.3962L52.8698 36.2747H50.5354C50.5354 36.2747 51.9882 29.0543 52.3312 27.7452C52.4423 27.3213 53.0926 27.3941 54.1906 27.3941H55.9441C57.0764 27.3941 58.3998 27.2495 58.9564 27.5844ZM48.0888 30.8203C48.0888 30.8203 48.1615 30.3938 47.842 29.8999C47.5689 29.4789 47.3168 29.381 46.5984 29.3585C44.5702 29.2948 44.6096 30.7978 44.6096 30.7978L48.0888 30.8203ZM50.2885 29.099C50.5857 30.1712 50.0192 32.6905 50.0192 32.6905C50.0192 32.6905 47.0607 32.6411 45.4402 32.6905C44.9363 32.7058 44.3332 32.6357 44.1832 32.8701C43.9721 33.1986 44.2603 33.7042 44.5046 33.9178C44.7856 34.1638 45.3332 34.1918 45.53 34.2167C46.8452 34.3838 49.598 34.2599 49.598 34.2599L49.1212 36.3715C49.1212 36.3715 45.2311 36.5666 43.2853 36.1022C42.9011 36.0107 42.541 35.8258 42.2976 35.5636C42.2312 35.4918 42.1736 35.394 42.1108 35.3095C42.0606 35.242 41.9143 35.0204 41.8487 34.8452C41.4043 33.6609 41.9008 31.3922 42.3874 30.1765C42.4439 30.0356 42.5148 29.8569 42.5895 29.7051C42.6828 29.5157 42.7618 29.302 42.8364 29.1888C42.8865 29.1107 42.9487 29.0605 43.0007 28.9868C43.0608 28.8997 43.1307 28.8153 43.1955 28.74C43.3751 28.5317 43.5789 28.3844 43.824 28.2014C44.6347 27.5943 46.1018 27.123 47.8643 27.3034C48.5279 27.3716 49.5301 27.6086 50.0192 28.2911C50.1502 28.4733 50.215 28.835 50.2885 29.099ZM39.5817 27.3858L41.8452 27.3725C41.8452 27.3725 40.5837 33.3566 39.9408 36.2747H37.3369C35.5171 36.2747 33.8964 36.5001 33.2069 35.1972C32.538 33.9322 33.1764 31.8519 33.4762 30.4385C33.6881 29.4383 34.1345 27.394 34.1345 27.394L36.4797 27.3725C36.4797 27.3725 35.817 30.5554 35.5412 32.1446C35.4425 32.7138 35.2389 33.2499 35.4516 33.6708C35.6535 34.0714 35.9364 34.1001 36.7982 34.1198C37.0713 34.1263 37.9655 34.1198 37.9655 34.1198L39.5817 27.3858ZM28.987 31.6955C29.224 30.8535 29.5697 29.9404 29.5257 29.1816C29.4782 28.37 28.7977 27.6311 28.3586 27.4758C27.0361 27.0089 25.7979 27.6616 25.3058 28.194C24.6693 28.8836 24.4537 29.689 24.2283 30.7979C24.0606 31.6211 23.9231 32.4901 24.2283 33.1321C24.7688 34.2671 26.4541 34.0193 28.2687 34.0301C28.5381 33.3083 28.7607 32.4975 28.987 31.6955ZM32.1295 28.3736C32.388 30.2536 31.396 32.3287 30.7127 34.1333C31.4095 34.1962 32.0201 34.1236 32.064 34.1755C32.1098 34.2429 31.597 36.3295 31.4183 36.3349C30.8653 36.3493 29.0329 36.3645 28.2687 36.3645C25.7753 36.3645 23.4428 36.5269 22.2532 35.2871C21.7702 34.7834 21.4361 33.9195 21.3552 33.3118C21.2206 32.2972 21.3894 31.1802 21.6247 30.2592C21.8375 29.4276 22.1103 28.6429 22.5225 27.9246C23.5703 26.0957 25.3929 24.7382 28.4482 25.0516C29.0409 25.1126 29.892 25.3721 30.4236 25.68C30.4603 25.7016 30.5889 25.804 30.6183 25.8219C31.3367 26.279 31.9913 27.3698 32.1295 28.3736ZM21.0976 27.3967C20.9468 28.0835 20.7959 28.8621 20.637 29.5408H18.123C18.3178 28.7884 18.4669 28.0405 18.6618 27.3859C19.4662 27.3859 20.2142 27.3967 21.0977 27.3967M18.0332 30.1694H20.4575C20.1405 31.9237 19.5129 34.7537 19.0209 36.7236C18.7129 37.9564 18.5073 38.856 17.6741 39.5069C17.5995 39.5653 17.5565 39.5375 17.4945 39.5967C17.3409 39.7431 16.6307 39.9129 16.2376 39.9558C15.5983 40.0251 14.8755 39.9649 14.0898 39.9487C14.2954 39.1973 14.5281 38.2949 14.7113 37.6214C16.6264 37.8532 16.6749 36.043 17.0457 34.2995C17.2602 33.292 17.9103 30.5733 18.0332 30.1694Z" fill="white"/>
<path fill-rule="evenodd" clip-rule="evenodd" d="M12.377 34.7482L12.3251 34.8829C11.4399 36.6067 9.87117 37.6643 7.63373 37.711C6.58777 37.7326 5.59117 37.4642 4.94013 37.1724C3.53517 36.5411 2.35339 35.3704 1.70803 34.1196C0.782251 32.3266 0.61529 29.8324 2.54025 27.9695C2.56998 27.9695 2.30674 28.3734 2.33646 28.3734L2.28348 28.5458C0.896359 32.8886 5.17002 36.6104 9.32441 36.1847C10.3228 36.0823 11.596 35.5356 12.377 34.7482Z" fill="white"/>
<path fill-rule="evenodd" clip-rule="evenodd" d="M9.86217 32.9527C10.9074 32.9598 11.9991 32.4714 12.6456 31.7855C12.08 33.2213 10.4423 34.1441 8.24618 33.8506C6.40729 33.6045 4.65561 31.7541 4.47521 29.9C4.34327 28.5506 4.81353 27.7453 5.5885 26.7683C5.31919 27.2793 5.21853 27.6733 5.19346 27.9246C4.89908 30.8436 7.52523 32.9373 9.86217 32.9527Z" fill="white"/>
<path fill-rule="evenodd" clip-rule="evenodd" d="M12.5414 29.3271C12.379 29.6998 11.4435 30.4036 11.0304 30.4916C9.39447 30.8401 8.34683 30.0643 7.798 29.1816C7.71646 29.0498 7.56565 28.6898 7.53865 28.5981C7.32581 27.8745 7.42363 26.7799 8.05853 26.2134C7.86727 26.7521 7.83936 27.3778 7.94002 27.7846C8.00102 28.0306 8.18685 28.46 8.37281 28.7301C8.71112 29.222 8.92577 29.3416 9.36036 29.6029C9.55614 29.7205 9.76613 29.8148 9.85685 29.8406C10.269 29.962 11.1389 30.2816 12.5414 29.3271Z" fill="white"/>
</g>
</svg>
