<svg width="375" height="409" viewBox="0 0 375 409" fill="none" xmlns="http://www.w3.org/2000/svg">
<line opacity="0.35" x1="40" y1="365.5" x2="360" y2="365.5" stroke="black"/>
<path d="M31.1016 369.956C30.8021 370.08 30.4684 370.142 30.1006 370.142C29.7327 370.142 29.3991 370.08 29.0996 369.956C28.8001 369.832 28.5479 369.661 28.3428 369.443C28.141 369.225 27.9701 368.965 27.8301 368.662C27.6934 368.356 27.5941 368.027 27.5322 367.676C27.4704 367.324 27.4395 366.948 27.4395 366.548C27.4395 366.147 27.4704 365.771 27.5322 365.42C27.5941 365.068 27.6934 364.741 27.8301 364.438C27.9701 364.132 28.141 363.87 28.3428 363.652C28.5479 363.434 28.8001 363.263 29.0996 363.14C29.3991 363.013 29.7327 362.949 30.1006 362.949C30.4684 362.949 30.8021 363.013 31.1016 363.14C31.401 363.263 31.6517 363.434 31.8535 363.652C32.0586 363.87 32.2295 364.132 32.3662 364.438C32.5062 364.741 32.6071 365.068 32.6689 365.42C32.7308 365.771 32.7617 366.147 32.7617 366.548C32.7617 366.948 32.7308 367.324 32.6689 367.676C32.6071 368.027 32.5062 368.356 32.3662 368.662C32.2295 368.965 32.0586 369.225 31.8535 369.443C31.6517 369.661 31.401 369.832 31.1016 369.956ZM30.1006 369.341C30.4196 369.341 30.6947 369.266 30.9258 369.116C31.1602 368.966 31.3424 368.758 31.4727 368.491C31.6061 368.224 31.7038 367.931 31.7656 367.612C31.8275 367.29 31.8584 366.935 31.8584 366.548C31.8584 366.16 31.8275 365.807 31.7656 365.488C31.7038 365.166 31.6061 364.871 31.4727 364.604C31.3424 364.338 31.1602 364.129 30.9258 363.979C30.6947 363.826 30.4196 363.75 30.1006 363.75C29.7816 363.75 29.5049 363.826 29.2705 363.979C29.0361 364.129 28.8522 364.338 28.7188 364.604C28.5885 364.871 28.4925 365.166 28.4307 365.488C28.3688 365.811 28.3379 366.164 28.3379 366.548C28.3379 366.854 28.3558 367.14 28.3916 367.407C28.4307 367.671 28.4925 367.923 28.5771 368.164C28.665 368.405 28.7757 368.612 28.9092 368.784C29.0426 368.953 29.2103 369.089 29.4121 369.189C29.6139 369.29 29.8434 369.341 30.1006 369.341Z" fill="black"/>
<path d="M44.3896 393.822C44.3896 394.066 44.3685 394.296 44.3262 394.511C44.2871 394.726 44.2171 394.936 44.1162 395.141C44.0153 395.342 43.8867 395.517 43.7305 395.663C43.5775 395.806 43.3789 395.922 43.1348 396.01C42.8906 396.098 42.6123 396.142 42.2998 396.142C41.9873 396.142 41.709 396.098 41.4648 396.01C41.2207 395.922 41.0221 395.806 40.8691 395.663C40.7161 395.517 40.5892 395.342 40.4883 395.141C40.3906 394.936 40.3206 394.726 40.2783 394.511C40.2393 394.296 40.2197 394.066 40.2197 393.822V393.622H41.1182V393.822C41.1182 394.014 41.1247 394.179 41.1377 394.315C41.154 394.452 41.1865 394.589 41.2354 394.726C41.2842 394.862 41.3509 394.973 41.4355 395.058C41.5202 395.142 41.6341 395.211 41.7773 395.263C41.9238 395.315 42.098 395.341 42.2998 395.341C42.5016 395.341 42.6758 395.315 42.8223 395.263C42.9688 395.211 43.0843 395.142 43.1689 395.058C43.2536 394.973 43.3203 394.862 43.3691 394.726C43.418 394.589 43.4505 394.452 43.4668 394.315C43.4831 394.175 43.4912 394.011 43.4912 393.822V388.852H44.3896V393.822ZM48.6426 392.201C48.6426 391.706 48.2959 391.459 47.6025 391.459C47.124 391.459 46.7871 391.535 46.5918 391.688C46.3965 391.841 46.2858 392.105 46.2598 392.479H45.459C45.485 391.955 45.6722 391.539 46.0205 391.229C46.3721 390.917 46.8994 390.761 47.6025 390.761C47.8044 390.761 47.9915 390.777 48.1641 390.81C48.3398 390.842 48.5075 390.897 48.667 390.976C48.8265 391.054 48.9616 391.153 49.0723 391.273C49.1829 391.394 49.2708 391.549 49.3359 391.737C49.4043 391.923 49.4385 392.134 49.4385 392.372V394.848C49.4385 395.069 49.4759 395.225 49.5508 395.316C49.6257 395.404 49.7819 395.435 50.0195 395.409V395.971C49.86 396.023 49.7038 396.049 49.5508 396.049C49.2936 396.049 49.0951 396.002 48.9551 395.907C48.8151 395.81 48.7109 395.627 48.6426 395.36H48.623C48.2715 395.881 47.6937 396.142 46.8896 396.142C46.3786 396.142 45.9701 396.008 45.6641 395.741C45.3613 395.474 45.21 395.124 45.21 394.691C45.21 394.464 45.2441 394.263 45.3125 394.091C45.3841 393.918 45.4769 393.775 45.5908 393.661C45.7048 393.547 45.861 393.446 46.0596 393.358C46.2581 393.267 46.4567 393.196 46.6553 393.144C46.8538 393.091 47.0996 393.038 47.3926 392.982C47.8678 392.895 48.195 392.802 48.374 392.704C48.5531 392.606 48.6426 392.439 48.6426 392.201ZM46.9727 395.438C47.4772 395.438 47.8809 395.321 48.1836 395.087C48.4896 394.853 48.6426 394.501 48.6426 394.032V393.178C48.5124 393.308 48.1185 393.441 47.4609 393.578C46.9434 393.689 46.5723 393.822 46.3477 393.979C46.123 394.135 46.0107 394.359 46.0107 394.652C46.0107 395.176 46.3314 395.438 46.9727 395.438ZM53.1201 390.761C53.3577 390.761 53.5775 390.795 53.7793 390.863C53.9811 390.928 54.1618 391.028 54.3213 391.161C54.4808 391.291 54.6045 391.467 54.6924 391.688C54.7835 391.907 54.8291 392.157 54.8291 392.44V396H54.0283V392.641C54.0283 392.286 53.9388 392.001 53.7598 391.786C53.5807 391.568 53.3008 391.459 52.9199 391.459C52.474 391.459 52.111 391.588 51.8311 391.845C51.5544 392.099 51.416 392.424 51.416 392.821V396H50.6201V390.902H51.416V391.508H51.4404C51.5967 391.296 51.8148 391.119 52.0947 390.976C52.3779 390.832 52.7197 390.761 53.1201 390.761ZM59.2822 390.902H60.083V396H59.2822V395.39H59.2627C59.1064 395.601 58.8867 395.78 58.6035 395.927C58.3203 396.07 57.9801 396.142 57.583 396.142C57.3454 396.142 57.124 396.107 56.9189 396.039C56.7171 395.974 56.5365 395.876 56.377 395.746C56.2207 395.613 56.097 395.437 56.0059 395.219C55.9147 394.997 55.8691 394.745 55.8691 394.462V390.902H56.6699V394.262C56.6699 394.617 56.7594 394.901 56.9385 395.116C57.1208 395.331 57.4023 395.438 57.7832 395.438C58.2292 395.438 58.5905 395.312 58.8672 395.058C59.1439 394.804 59.2822 394.478 59.2822 394.081V390.902ZM64.3066 392.201C64.3066 391.706 63.96 391.459 63.2666 391.459C62.7881 391.459 62.4512 391.535 62.2559 391.688C62.0605 391.841 61.9499 392.105 61.9238 392.479H61.123C61.1491 391.955 61.3363 391.539 61.6846 391.229C62.0361 390.917 62.5635 390.761 63.2666 390.761C63.4684 390.761 63.6556 390.777 63.8281 390.81C64.0039 390.842 64.1715 390.897 64.3311 390.976C64.4906 391.054 64.6257 391.153 64.7363 391.273C64.847 391.394 64.9349 391.549 65 391.737C65.0684 391.923 65.1025 392.134 65.1025 392.372V394.848C65.1025 395.069 65.14 395.225 65.2148 395.316C65.2897 395.404 65.446 395.435 65.6836 395.409V395.971C65.5241 396.023 65.3678 396.049 65.2148 396.049C64.9577 396.049 64.7591 396.002 64.6191 395.907C64.4792 395.81 64.375 395.627 64.3066 395.36H64.2871C63.9355 395.881 63.3577 396.142 62.5537 396.142C62.0426 396.142 61.6341 396.008 61.3281 395.741C61.0254 395.474 60.874 395.124 60.874 394.691C60.874 394.464 60.9082 394.263 60.9766 394.091C61.0482 393.918 61.141 393.775 61.2549 393.661C61.3688 393.547 61.5251 393.446 61.7236 393.358C61.9222 393.267 62.1208 393.196 62.3193 393.144C62.5179 393.091 62.7637 393.038 63.0566 392.982C63.5319 392.895 63.859 392.802 64.0381 392.704C64.2171 392.606 64.3066 392.439 64.3066 392.201ZM62.6367 395.438C63.1413 395.438 63.5449 395.321 63.8477 395.087C64.1536 394.853 64.3066 394.501 64.3066 394.032V393.178C64.1764 393.308 63.7826 393.441 63.125 393.578C62.6074 393.689 62.2363 393.822 62.0117 393.979C61.7871 394.135 61.6748 394.359 61.6748 394.652C61.6748 395.176 61.9954 395.438 62.6367 395.438ZM68.5107 390.761C68.6833 390.761 68.8411 390.771 68.9844 390.79V391.591H68.9648C68.4212 391.503 67.9704 391.625 67.6123 391.957C67.2575 392.286 67.0801 392.727 67.0801 393.28V396H66.2842V390.902H67.0801V391.908H67.1045C67.251 391.544 67.4349 391.262 67.6562 391.063C67.8809 390.862 68.1657 390.761 68.5107 390.761ZM74.0283 390.902L71.8506 396.42C71.7074 396.778 71.5885 397.025 71.4941 397.162C71.2402 397.53 70.8854 397.715 70.4297 397.719C70.1953 397.719 69.9691 397.686 69.751 397.621V397.021H69.8682C70.109 397.043 70.3076 397.035 70.4639 396.996C70.6201 396.96 70.7617 396.876 70.8887 396.742C70.9668 396.658 71.0319 396.56 71.084 396.449C71.1361 396.342 71.1702 396.21 71.1865 396.054C71.2061 395.897 71.18 395.74 71.1084 395.58L69.1797 390.902H70.0781L71.6406 395.058H71.6602L73.1299 390.902H74.0283ZM41.4111 402.508H40.5078C40.5078 402.143 40.5583 401.808 40.6592 401.502C40.7601 401.196 40.9098 400.927 41.1084 400.696C41.307 400.462 41.5674 400.28 41.8896 400.149C42.2119 400.016 42.5814 399.949 42.998 399.949C43.3984 399.949 43.763 400.029 44.0918 400.188C44.4206 400.345 44.6875 400.582 44.8926 400.901C45.0977 401.22 45.2002 401.593 45.2002 402.02C45.2002 402.342 45.1383 402.638 45.0146 402.908C44.891 403.175 44.7266 403.405 44.5215 403.597C44.3164 403.785 44.0885 403.963 43.8379 404.129C43.5905 404.295 43.3366 404.453 43.0762 404.603C42.8158 404.749 42.5716 404.897 42.3438 405.047C42.1159 405.193 41.9157 405.364 41.7432 405.56C41.5739 405.752 41.46 405.958 41.4014 406.18V406.199H45.0977V407H40.3076C40.3076 405.825 40.9945 404.835 42.3682 404.031C42.4626 403.976 42.583 403.906 42.7295 403.821C42.8792 403.737 42.9915 403.673 43.0664 403.631C43.1413 403.589 43.2357 403.532 43.3496 403.46C43.4668 403.388 43.5531 403.331 43.6084 403.289C43.6637 403.247 43.7321 403.193 43.8135 403.128C43.8949 403.063 43.9551 403.004 43.9941 402.952C44.0332 402.9 44.0771 402.838 44.126 402.767C44.1748 402.695 44.209 402.623 44.2285 402.552C44.248 402.48 44.2643 402.4 44.2773 402.312C44.2936 402.225 44.3018 402.13 44.3018 402.029C44.3018 401.87 44.2806 401.72 44.2383 401.58C44.1992 401.44 44.1325 401.305 44.0381 401.175C43.9469 401.045 43.8102 400.942 43.6279 400.867C43.4456 400.789 43.2292 400.75 42.9785 400.75C41.9336 400.75 41.4111 401.336 41.4111 402.508ZM49.6582 406.956C49.3587 407.08 49.0251 407.142 48.6572 407.142C48.2894 407.142 47.9557 407.08 47.6562 406.956C47.3568 406.832 47.1045 406.661 46.8994 406.443C46.6976 406.225 46.5267 405.965 46.3867 405.662C46.25 405.356 46.1507 405.027 46.0889 404.676C46.027 404.324 45.9961 403.948 45.9961 403.548C45.9961 403.147 46.027 402.771 46.0889 402.42C46.1507 402.068 46.25 401.741 46.3867 401.438C46.5267 401.132 46.6976 400.87 46.8994 400.652C47.1045 400.434 47.3568 400.263 47.6562 400.14C47.9557 400.013 48.2894 399.949 48.6572 399.949C49.0251 399.949 49.3587 400.013 49.6582 400.14C49.9577 400.263 50.2083 400.434 50.4102 400.652C50.6152 400.87 50.7861 401.132 50.9229 401.438C51.0628 401.741 51.1637 402.068 51.2256 402.42C51.2874 402.771 51.3184 403.147 51.3184 403.548C51.3184 403.948 51.2874 404.324 51.2256 404.676C51.1637 405.027 51.0628 405.356 50.9229 405.662C50.7861 405.965 50.6152 406.225 50.4102 406.443C50.2083 406.661 49.9577 406.832 49.6582 406.956ZM48.6572 406.341C48.9762 406.341 49.2513 406.266 49.4824 406.116C49.7168 405.966 49.8991 405.758 50.0293 405.491C50.1628 405.224 50.2604 404.931 50.3223 404.612C50.3841 404.29 50.415 403.935 50.415 403.548C50.415 403.16 50.3841 402.807 50.3223 402.488C50.2604 402.166 50.1628 401.871 50.0293 401.604C49.8991 401.338 49.7168 401.129 49.4824 400.979C49.2513 400.826 48.9762 400.75 48.6572 400.75C48.3382 400.75 48.0615 400.826 47.8271 400.979C47.5928 401.129 47.4089 401.338 47.2754 401.604C47.1452 401.871 47.0492 402.166 46.9873 402.488C46.9255 402.811 46.8945 403.164 46.8945 403.548C46.8945 403.854 46.9124 404.14 46.9482 404.407C46.9873 404.671 47.0492 404.923 47.1338 405.164C47.2217 405.405 47.3324 405.612 47.4658 405.784C47.5993 405.953 47.7669 406.089 47.9688 406.189C48.1706 406.29 48.4001 406.341 48.6572 406.341ZM53.1201 402.508H52.2168C52.2168 402.143 52.2673 401.808 52.3682 401.502C52.4691 401.196 52.6188 400.927 52.8174 400.696C53.016 400.462 53.2764 400.28 53.5986 400.149C53.9209 400.016 54.2904 399.949 54.707 399.949C55.1074 399.949 55.472 400.029 55.8008 400.188C56.1296 400.345 56.3965 400.582 56.6016 400.901C56.8066 401.22 56.9092 401.593 56.9092 402.02C56.9092 402.342 56.8473 402.638 56.7236 402.908C56.5999 403.175 56.4355 403.405 56.2305 403.597C56.0254 403.785 55.7975 403.963 55.5469 404.129C55.2995 404.295 55.0456 404.453 54.7852 404.603C54.5247 404.749 54.2806 404.897 54.0527 405.047C53.8249 405.193 53.6247 405.364 53.4521 405.56C53.2829 405.752 53.1689 405.958 53.1104 406.18V406.199H56.8066V407H52.0166C52.0166 405.825 52.7035 404.835 54.0771 404.031C54.1715 403.976 54.292 403.906 54.4385 403.821C54.5882 403.737 54.7005 403.673 54.7754 403.631C54.8503 403.589 54.9447 403.532 55.0586 403.46C55.1758 403.388 55.262 403.331 55.3174 403.289C55.3727 403.247 55.4411 403.193 55.5225 403.128C55.6038 403.063 55.6641 403.004 55.7031 402.952C55.7422 402.9 55.7861 402.838 55.835 402.767C55.8838 402.695 55.918 402.623 55.9375 402.552C55.957 402.48 55.9733 402.4 55.9863 402.312C56.0026 402.225 56.0107 402.13 56.0107 402.029C56.0107 401.87 55.9896 401.72 55.9473 401.58C55.9082 401.44 55.8415 401.305 55.7471 401.175C55.6559 401.045 55.5192 400.942 55.3369 400.867C55.1546 400.789 54.9382 400.75 54.6875 400.75C53.6426 400.75 53.1201 401.336 53.1201 402.508ZM58.5254 402.161H57.627C57.627 401.5 57.8434 400.966 58.2764 400.56C58.7126 400.153 59.3424 399.949 60.166 399.949C60.5664 399.949 60.9326 400.022 61.2646 400.169C61.5967 400.312 61.8669 400.532 62.0752 400.828C62.2835 401.121 62.3877 401.465 62.3877 401.858C62.3877 402.555 62.0329 403.045 61.3232 403.328V403.348C61.792 403.475 62.1273 403.685 62.3291 403.978C62.5342 404.267 62.6367 404.629 62.6367 405.062C62.6367 405.729 62.417 406.243 61.9775 406.604C61.5381 406.963 60.9408 407.142 60.1855 407.142C59.3099 407.142 58.6344 406.925 58.1592 406.492C57.6839 406.056 57.4463 405.446 57.4463 404.661H58.3447C58.3447 405.781 58.9355 406.341 60.1172 406.341C60.6966 406.341 61.11 406.235 61.3574 406.023C61.6081 405.812 61.7334 405.491 61.7334 405.062C61.7334 404.215 61.2467 403.792 60.2734 403.792H59.5361V402.991H60.2344C60.612 402.991 60.9147 402.898 61.1426 402.713C61.3704 402.524 61.4844 402.239 61.4844 401.858C61.4844 401.549 61.3737 401.287 61.1523 401.072C60.9342 400.857 60.6055 400.75 60.166 400.75C59.0723 400.75 58.5254 401.22 58.5254 402.161Z" fill="black"/>
<path d="M111.81 394.208H108.66L108.03 396H107.098L109.739 388.852H110.74L113.372 396H112.439L111.81 394.208ZM108.958 393.412H111.521L110.252 389.682H110.232L108.958 393.412ZM116.463 390.761C116.779 390.761 117.075 390.823 117.352 390.946C117.628 391.07 117.869 391.246 118.074 391.474C118.283 391.701 118.445 391.986 118.562 392.328C118.683 392.667 118.743 393.041 118.743 393.451C118.743 393.861 118.683 394.237 118.562 394.579C118.445 394.918 118.283 395.201 118.074 395.429C117.869 395.657 117.628 395.832 117.352 395.956C117.075 396.08 116.779 396.142 116.463 396.142C115.747 396.142 115.208 395.875 114.847 395.341H114.822V397.719H114.026V390.902H114.822V391.532H114.847C115.237 391.018 115.776 390.761 116.463 390.761ZM116.365 395.438C116.701 395.438 116.99 395.341 117.234 395.146C117.479 394.95 117.658 394.706 117.771 394.413C117.885 394.117 117.942 393.796 117.942 393.451C117.942 393.106 117.885 392.785 117.771 392.489C117.658 392.193 117.479 391.947 117.234 391.752C116.99 391.557 116.701 391.459 116.365 391.459C115.893 391.459 115.517 391.64 115.237 392.001C114.961 392.362 114.822 392.846 114.822 393.451C114.822 394.053 114.961 394.535 115.237 394.896C115.514 395.258 115.89 395.438 116.365 395.438ZM121.81 390.761C121.982 390.761 122.14 390.771 122.283 390.79V391.591H122.264C121.72 391.503 121.269 391.625 120.911 391.957C120.556 392.286 120.379 392.727 120.379 393.28V396H119.583V390.902H120.379V391.908H120.403C120.55 391.544 120.734 391.262 120.955 391.063C121.18 390.862 121.465 390.761 121.81 390.761ZM123.509 389.911C123.388 389.911 123.274 389.867 123.167 389.779C123.063 389.688 123.011 389.571 123.011 389.428C123.011 389.285 123.063 389.169 123.167 389.081C123.271 388.993 123.385 388.949 123.509 388.949C123.636 388.949 123.75 388.993 123.851 389.081C123.955 389.169 124.007 389.285 124.007 389.428C124.007 389.571 123.955 389.688 123.851 389.779C123.75 389.867 123.636 389.911 123.509 389.911ZM123.108 390.902H123.909V396H123.108V390.902ZM125.042 388.852H125.843V396H125.042V388.852ZM108.411 402.508H107.508C107.508 402.143 107.558 401.808 107.659 401.502C107.76 401.196 107.91 400.927 108.108 400.696C108.307 400.462 108.567 400.28 108.89 400.149C109.212 400.016 109.581 399.949 109.998 399.949C110.398 399.949 110.763 400.029 111.092 400.188C111.421 400.345 111.688 400.582 111.893 400.901C112.098 401.22 112.2 401.593 112.2 402.02C112.2 402.342 112.138 402.638 112.015 402.908C111.891 403.175 111.727 403.405 111.521 403.597C111.316 403.785 111.089 403.963 110.838 404.129C110.59 404.295 110.337 404.453 110.076 404.603C109.816 404.749 109.572 404.897 109.344 405.047C109.116 405.193 108.916 405.364 108.743 405.56C108.574 405.752 108.46 405.958 108.401 406.18V406.199H112.098V407H107.308C107.308 405.825 107.994 404.835 109.368 404.031C109.463 403.976 109.583 403.906 109.729 403.821C109.879 403.737 109.992 403.673 110.066 403.631C110.141 403.589 110.236 403.532 110.35 403.46C110.467 403.388 110.553 403.331 110.608 403.289C110.664 403.247 110.732 403.193 110.813 403.128C110.895 403.063 110.955 403.004 110.994 402.952C111.033 402.9 111.077 402.838 111.126 402.767C111.175 402.695 111.209 402.623 111.229 402.552C111.248 402.48 111.264 402.4 111.277 402.312C111.294 402.225 111.302 402.13 111.302 402.029C111.302 401.87 111.281 401.72 111.238 401.58C111.199 401.44 111.132 401.305 111.038 401.175C110.947 401.045 110.81 400.942 110.628 400.867C110.446 400.789 110.229 400.75 109.979 400.75C108.934 400.75 108.411 401.336 108.411 402.508ZM116.658 406.956C116.359 407.08 116.025 407.142 115.657 407.142C115.289 407.142 114.956 407.08 114.656 406.956C114.357 406.832 114.104 406.661 113.899 406.443C113.698 406.225 113.527 405.965 113.387 405.662C113.25 405.356 113.151 405.027 113.089 404.676C113.027 404.324 112.996 403.948 112.996 403.548C112.996 403.147 113.027 402.771 113.089 402.42C113.151 402.068 113.25 401.741 113.387 401.438C113.527 401.132 113.698 400.87 113.899 400.652C114.104 400.434 114.357 400.263 114.656 400.14C114.956 400.013 115.289 399.949 115.657 399.949C116.025 399.949 116.359 400.013 116.658 400.14C116.958 400.263 117.208 400.434 117.41 400.652C117.615 400.87 117.786 401.132 117.923 401.438C118.063 401.741 118.164 402.068 118.226 402.42C118.287 402.771 118.318 403.147 118.318 403.548C118.318 403.948 118.287 404.324 118.226 404.676C118.164 405.027 118.063 405.356 117.923 405.662C117.786 405.965 117.615 406.225 117.41 406.443C117.208 406.661 116.958 406.832 116.658 406.956ZM115.657 406.341C115.976 406.341 116.251 406.266 116.482 406.116C116.717 405.966 116.899 405.758 117.029 405.491C117.163 405.224 117.26 404.931 117.322 404.612C117.384 404.29 117.415 403.935 117.415 403.548C117.415 403.16 117.384 402.807 117.322 402.488C117.26 402.166 117.163 401.871 117.029 401.604C116.899 401.338 116.717 401.129 116.482 400.979C116.251 400.826 115.976 400.75 115.657 400.75C115.338 400.75 115.062 400.826 114.827 400.979C114.593 401.129 114.409 401.338 114.275 401.604C114.145 401.871 114.049 402.166 113.987 402.488C113.925 402.811 113.895 403.164 113.895 403.548C113.895 403.854 113.912 404.14 113.948 404.407C113.987 404.671 114.049 404.923 114.134 405.164C114.222 405.405 114.332 405.612 114.466 405.784C114.599 405.953 114.767 406.089 114.969 406.189C115.171 406.29 115.4 406.341 115.657 406.341ZM120.12 402.508H119.217C119.217 402.143 119.267 401.808 119.368 401.502C119.469 401.196 119.619 400.927 119.817 400.696C120.016 400.462 120.276 400.28 120.599 400.149C120.921 400.016 121.29 399.949 121.707 399.949C122.107 399.949 122.472 400.029 122.801 400.188C123.13 400.345 123.396 400.582 123.602 400.901C123.807 401.22 123.909 401.593 123.909 402.02C123.909 402.342 123.847 402.638 123.724 402.908C123.6 403.175 123.436 403.405 123.23 403.597C123.025 403.785 122.798 403.963 122.547 404.129C122.299 404.295 122.046 404.453 121.785 404.603C121.525 404.749 121.281 404.897 121.053 405.047C120.825 405.193 120.625 405.364 120.452 405.56C120.283 405.752 120.169 405.958 120.11 406.18V406.199H123.807V407H119.017C119.017 405.825 119.703 404.835 121.077 404.031C121.172 403.976 121.292 403.906 121.438 403.821C121.588 403.737 121.701 403.673 121.775 403.631C121.85 403.589 121.945 403.532 122.059 403.46C122.176 403.388 122.262 403.331 122.317 403.289C122.373 403.247 122.441 403.193 122.522 403.128C122.604 403.063 122.664 403.004 122.703 402.952C122.742 402.9 122.786 402.838 122.835 402.767C122.884 402.695 122.918 402.623 122.938 402.552C122.957 402.48 122.973 402.4 122.986 402.312C123.003 402.225 123.011 402.13 123.011 402.029C123.011 401.87 122.99 401.72 122.947 401.58C122.908 401.44 122.841 401.305 122.747 401.175C122.656 401.045 122.519 400.942 122.337 400.867C122.155 400.789 121.938 400.75 121.688 400.75C120.643 400.75 120.12 401.336 120.12 402.508ZM125.525 402.161H124.627C124.627 401.5 124.843 400.966 125.276 400.56C125.713 400.153 126.342 399.949 127.166 399.949C127.566 399.949 127.933 400.022 128.265 400.169C128.597 400.312 128.867 400.532 129.075 400.828C129.284 401.121 129.388 401.465 129.388 401.858C129.388 402.555 129.033 403.045 128.323 403.328V403.348C128.792 403.475 129.127 403.685 129.329 403.978C129.534 404.267 129.637 404.629 129.637 405.062C129.637 405.729 129.417 406.243 128.978 406.604C128.538 406.963 127.941 407.142 127.186 407.142C126.31 407.142 125.634 406.925 125.159 406.492C124.684 406.056 124.446 405.446 124.446 404.661H125.345C125.345 405.781 125.936 406.341 127.117 406.341C127.697 406.341 128.11 406.235 128.357 406.023C128.608 405.812 128.733 405.491 128.733 405.062C128.733 404.215 128.247 403.792 127.273 403.792H126.536V402.991H127.234C127.612 402.991 127.915 402.898 128.143 402.713C128.37 402.524 128.484 402.239 128.484 401.858C128.484 401.549 128.374 401.287 128.152 401.072C127.934 400.857 127.605 400.75 127.166 400.75C126.072 400.75 125.525 401.22 125.525 402.161Z" fill="black"/>
<path d="M199.39 393.822C199.39 394.066 199.368 394.296 199.326 394.511C199.287 394.726 199.217 394.936 199.116 395.141C199.015 395.342 198.887 395.517 198.73 395.663C198.577 395.806 198.379 395.922 198.135 396.01C197.891 396.098 197.612 396.142 197.3 396.142C196.987 396.142 196.709 396.098 196.465 396.01C196.221 395.922 196.022 395.806 195.869 395.663C195.716 395.517 195.589 395.342 195.488 395.141C195.391 394.936 195.321 394.726 195.278 394.511C195.239 394.296 195.22 394.066 195.22 393.822V393.622H196.118V393.822C196.118 394.014 196.125 394.179 196.138 394.315C196.154 394.452 196.187 394.589 196.235 394.726C196.284 394.862 196.351 394.973 196.436 395.058C196.52 395.142 196.634 395.211 196.777 395.263C196.924 395.315 197.098 395.341 197.3 395.341C197.502 395.341 197.676 395.315 197.822 395.263C197.969 395.211 198.084 395.142 198.169 395.058C198.254 394.973 198.32 394.862 198.369 394.726C198.418 394.589 198.451 394.452 198.467 394.315C198.483 394.175 198.491 394.011 198.491 393.822V388.852H199.39V393.822ZM203.901 390.902H204.702V396H203.901V395.39H203.882C203.726 395.601 203.506 395.78 203.223 395.927C202.939 396.07 202.599 396.142 202.202 396.142C201.965 396.142 201.743 396.107 201.538 396.039C201.336 395.974 201.156 395.876 200.996 395.746C200.84 395.613 200.716 395.437 200.625 395.219C200.534 394.997 200.488 394.745 200.488 394.462V390.902H201.289V394.262C201.289 394.617 201.379 394.901 201.558 395.116C201.74 395.331 202.021 395.438 202.402 395.438C202.848 395.438 203.21 395.312 203.486 395.058C203.763 394.804 203.901 394.478 203.901 394.081V390.902ZM205.835 388.852H206.636V396H205.835V388.852ZM212.085 390.902L209.907 396.42C209.764 396.778 209.645 397.025 209.551 397.162C209.297 397.53 208.942 397.715 208.486 397.719C208.252 397.719 208.026 397.686 207.808 397.621V397.021H207.925C208.166 397.043 208.364 397.035 208.521 396.996C208.677 396.96 208.818 396.876 208.945 396.742C209.023 396.658 209.089 396.56 209.141 396.449C209.193 396.342 209.227 396.21 209.243 396.054C209.263 395.897 209.237 395.74 209.165 395.58L207.236 390.902H208.135L209.697 395.058H209.717L211.187 390.902H212.085ZM196.411 402.508H195.508C195.508 402.143 195.558 401.808 195.659 401.502C195.76 401.196 195.91 400.927 196.108 400.696C196.307 400.462 196.567 400.28 196.89 400.149C197.212 400.016 197.581 399.949 197.998 399.949C198.398 399.949 198.763 400.029 199.092 400.188C199.421 400.345 199.688 400.582 199.893 400.901C200.098 401.22 200.2 401.593 200.2 402.02C200.2 402.342 200.138 402.638 200.015 402.908C199.891 403.175 199.727 403.405 199.521 403.597C199.316 403.785 199.089 403.963 198.838 404.129C198.59 404.295 198.337 404.453 198.076 404.603C197.816 404.749 197.572 404.897 197.344 405.047C197.116 405.193 196.916 405.364 196.743 405.56C196.574 405.752 196.46 405.958 196.401 406.18V406.199H200.098V407H195.308C195.308 405.825 195.994 404.835 197.368 404.031C197.463 403.976 197.583 403.906 197.729 403.821C197.879 403.737 197.992 403.673 198.066 403.631C198.141 403.589 198.236 403.532 198.35 403.46C198.467 403.388 198.553 403.331 198.608 403.289C198.664 403.247 198.732 403.193 198.813 403.128C198.895 403.063 198.955 403.004 198.994 402.952C199.033 402.9 199.077 402.838 199.126 402.767C199.175 402.695 199.209 402.623 199.229 402.552C199.248 402.48 199.264 402.4 199.277 402.312C199.294 402.225 199.302 402.13 199.302 402.029C199.302 401.87 199.281 401.72 199.238 401.58C199.199 401.44 199.132 401.305 199.038 401.175C198.947 401.045 198.81 400.942 198.628 400.867C198.446 400.789 198.229 400.75 197.979 400.75C196.934 400.75 196.411 401.336 196.411 402.508ZM204.658 406.956C204.359 407.08 204.025 407.142 203.657 407.142C203.289 407.142 202.956 407.08 202.656 406.956C202.357 406.832 202.104 406.661 201.899 406.443C201.698 406.225 201.527 405.965 201.387 405.662C201.25 405.356 201.151 405.027 201.089 404.676C201.027 404.324 200.996 403.948 200.996 403.548C200.996 403.147 201.027 402.771 201.089 402.42C201.151 402.068 201.25 401.741 201.387 401.438C201.527 401.132 201.698 400.87 201.899 400.652C202.104 400.434 202.357 400.263 202.656 400.14C202.956 400.013 203.289 399.949 203.657 399.949C204.025 399.949 204.359 400.013 204.658 400.14C204.958 400.263 205.208 400.434 205.41 400.652C205.615 400.87 205.786 401.132 205.923 401.438C206.063 401.741 206.164 402.068 206.226 402.42C206.287 402.771 206.318 403.147 206.318 403.548C206.318 403.948 206.287 404.324 206.226 404.676C206.164 405.027 206.063 405.356 205.923 405.662C205.786 405.965 205.615 406.225 205.41 406.443C205.208 406.661 204.958 406.832 204.658 406.956ZM203.657 406.341C203.976 406.341 204.251 406.266 204.482 406.116C204.717 405.966 204.899 405.758 205.029 405.491C205.163 405.224 205.26 404.931 205.322 404.612C205.384 404.29 205.415 403.935 205.415 403.548C205.415 403.16 205.384 402.807 205.322 402.488C205.26 402.166 205.163 401.871 205.029 401.604C204.899 401.338 204.717 401.129 204.482 400.979C204.251 400.826 203.976 400.75 203.657 400.75C203.338 400.75 203.062 400.826 202.827 400.979C202.593 401.129 202.409 401.338 202.275 401.604C202.145 401.871 202.049 402.166 201.987 402.488C201.925 402.811 201.895 403.164 201.895 403.548C201.895 403.854 201.912 404.14 201.948 404.407C201.987 404.671 202.049 404.923 202.134 405.164C202.222 405.405 202.332 405.612 202.466 405.784C202.599 405.953 202.767 406.089 202.969 406.189C203.171 406.29 203.4 406.341 203.657 406.341ZM208.12 402.508H207.217C207.217 402.143 207.267 401.808 207.368 401.502C207.469 401.196 207.619 400.927 207.817 400.696C208.016 400.462 208.276 400.28 208.599 400.149C208.921 400.016 209.29 399.949 209.707 399.949C210.107 399.949 210.472 400.029 210.801 400.188C211.13 400.345 211.396 400.582 211.602 400.901C211.807 401.22 211.909 401.593 211.909 402.02C211.909 402.342 211.847 402.638 211.724 402.908C211.6 403.175 211.436 403.405 211.23 403.597C211.025 403.785 210.798 403.963 210.547 404.129C210.299 404.295 210.046 404.453 209.785 404.603C209.525 404.749 209.281 404.897 209.053 405.047C208.825 405.193 208.625 405.364 208.452 405.56C208.283 405.752 208.169 405.958 208.11 406.18V406.199H211.807V407H207.017C207.017 405.825 207.703 404.835 209.077 404.031C209.172 403.976 209.292 403.906 209.438 403.821C209.588 403.737 209.701 403.673 209.775 403.631C209.85 403.589 209.945 403.532 210.059 403.46C210.176 403.388 210.262 403.331 210.317 403.289C210.373 403.247 210.441 403.193 210.522 403.128C210.604 403.063 210.664 403.004 210.703 402.952C210.742 402.9 210.786 402.838 210.835 402.767C210.884 402.695 210.918 402.623 210.938 402.552C210.957 402.48 210.973 402.4 210.986 402.312C211.003 402.225 211.011 402.13 211.011 402.029C211.011 401.87 210.99 401.72 210.947 401.58C210.908 401.44 210.841 401.305 210.747 401.175C210.656 401.045 210.519 400.942 210.337 400.867C210.155 400.789 209.938 400.75 209.688 400.75C208.643 400.75 208.12 401.336 208.12 402.508ZM213.525 402.161H212.627C212.627 401.5 212.843 400.966 213.276 400.56C213.713 400.153 214.342 399.949 215.166 399.949C215.566 399.949 215.933 400.022 216.265 400.169C216.597 400.312 216.867 400.532 217.075 400.828C217.284 401.121 217.388 401.465 217.388 401.858C217.388 402.555 217.033 403.045 216.323 403.328V403.348C216.792 403.475 217.127 403.685 217.329 403.978C217.534 404.267 217.637 404.629 217.637 405.062C217.637 405.729 217.417 406.243 216.978 406.604C216.538 406.963 215.941 407.142 215.186 407.142C214.31 407.142 213.634 406.925 213.159 406.492C212.684 406.056 212.446 405.446 212.446 404.661H213.345C213.345 405.781 213.936 406.341 215.117 406.341C215.697 406.341 216.11 406.235 216.357 406.023C216.608 405.812 216.733 405.491 216.733 405.062C216.733 404.215 216.247 403.792 215.273 403.792H214.536V402.991H215.234C215.612 402.991 215.915 402.898 216.143 402.713C216.37 402.524 216.484 402.239 216.484 401.858C216.484 401.549 216.374 401.287 216.152 401.072C215.934 400.857 215.605 400.75 215.166 400.75C214.072 400.75 213.525 401.22 213.525 402.161Z" fill="black"/>
<path d="M278.732 395.663C278.199 395.982 277.588 396.142 276.901 396.142C276.215 396.142 275.604 395.982 275.07 395.663C274.536 395.341 274.125 394.898 273.835 394.335C273.545 393.772 273.4 393.134 273.4 392.421C273.4 391.708 273.545 391.072 273.835 390.512C274.125 389.949 274.536 389.507 275.07 389.188C275.604 388.869 276.215 388.71 276.901 388.71C277.588 388.71 278.199 388.869 278.732 389.188C279.266 389.507 279.678 389.949 279.968 390.512C280.257 391.072 280.402 391.708 280.402 392.421C280.402 393.134 280.257 393.772 279.968 394.335C279.678 394.898 279.266 395.341 278.732 395.663ZM276.901 395.341C277.338 395.341 277.725 395.263 278.063 395.106C278.402 394.947 278.674 394.73 278.879 394.457C279.084 394.18 279.239 393.871 279.343 393.529C279.447 393.184 279.499 392.815 279.499 392.421C279.499 392.027 279.447 391.659 279.343 391.317C279.239 390.972 279.084 390.665 278.879 390.395C278.674 390.121 278.402 389.906 278.063 389.75C277.725 389.59 277.338 389.511 276.901 389.511C276.55 389.511 276.229 389.563 275.939 389.667C275.65 389.771 275.404 389.913 275.202 390.092C275.004 390.271 274.834 390.484 274.694 390.731C274.558 390.979 274.457 391.244 274.392 391.527C274.33 391.811 274.299 392.108 274.299 392.421C274.299 392.733 274.33 393.031 274.392 393.314C274.457 393.598 274.558 393.865 274.694 394.115C274.834 394.363 275.004 394.577 275.202 394.76C275.404 394.939 275.65 395.08 275.939 395.185C276.229 395.289 276.55 395.341 276.901 395.341ZM284.973 392.738C284.963 392.589 284.929 392.442 284.87 392.299C284.815 392.156 284.732 392.019 284.621 391.889C284.514 391.758 284.366 391.654 284.177 391.576C283.991 391.498 283.776 391.459 283.532 391.459C283.298 391.459 283.085 391.498 282.893 391.576C282.704 391.651 282.546 391.754 282.419 391.884C282.295 392.011 282.189 392.162 282.102 392.338C282.017 392.51 281.955 392.689 281.916 392.875C281.88 393.061 281.862 393.253 281.862 393.451C281.862 393.702 281.893 393.941 281.955 394.169C282.017 394.397 282.111 394.608 282.238 394.804C282.365 394.996 282.539 395.15 282.761 395.268C282.985 395.382 283.243 395.438 283.532 395.438C283.78 395.438 283.996 395.399 284.182 395.321C284.37 395.243 284.519 395.139 284.626 395.009C284.733 394.875 284.815 394.735 284.87 394.589C284.929 394.439 284.963 394.283 284.973 394.12H285.773C285.738 394.706 285.511 395.189 285.095 395.57C284.678 395.951 284.157 396.142 283.532 396.142C282.79 396.142 282.193 395.894 281.74 395.399C281.288 394.905 281.062 394.255 281.062 393.451C281.062 392.647 281.288 391.998 281.74 391.503C282.193 391.008 282.79 390.761 283.532 390.761C284.151 390.761 284.663 390.946 285.07 391.317C285.477 391.685 285.712 392.159 285.773 392.738H284.973ZM288.757 391.601H287.756V394.672C287.756 394.949 287.832 395.129 287.985 395.214C288.138 395.299 288.396 395.328 288.757 395.302V396C288.578 396.039 288.378 396.059 288.156 396.059C287.779 396.059 287.484 395.963 287.272 395.771C287.064 395.575 286.96 395.235 286.96 394.75V391.601H286.208V390.902H286.96V389.198H287.756V390.902H288.757V391.601ZM291.755 396.142C290.987 396.142 290.378 395.896 289.929 395.404C289.479 394.91 289.255 394.258 289.255 393.451C289.255 392.644 289.479 391.994 289.929 391.503C290.378 391.008 290.987 390.761 291.755 390.761C292.52 390.761 293.125 391.008 293.571 391.503C294.021 391.998 294.245 392.647 294.245 393.451C294.245 394.255 294.021 394.905 293.571 395.399C293.125 395.894 292.52 396.142 291.755 396.142ZM291.755 395.438C292.299 395.438 292.715 395.251 293.005 394.877C293.298 394.503 293.444 394.027 293.444 393.451C293.444 392.875 293.298 392.4 293.005 392.025C292.715 391.648 292.299 391.459 291.755 391.459C291.205 391.459 290.783 391.648 290.49 392.025C290.201 392.4 290.056 392.875 290.056 393.451C290.056 394.027 290.201 394.503 290.49 394.877C290.783 395.251 291.205 395.438 291.755 395.438ZM297.473 390.761C297.792 390.761 298.091 390.823 298.371 390.946C298.651 391.07 298.894 391.246 299.099 391.474C299.307 391.701 299.471 391.986 299.592 392.328C299.712 392.667 299.772 393.041 299.772 393.451C299.772 393.861 299.712 394.237 299.592 394.579C299.471 394.918 299.307 395.201 299.099 395.429C298.894 395.657 298.651 395.832 298.371 395.956C298.091 396.08 297.792 396.142 297.473 396.142C296.799 396.142 296.267 395.884 295.876 395.37H295.852V396H295.056V388.852H295.852V391.562H295.876C296.237 391.028 296.77 390.761 297.473 390.761ZM297.395 395.438C297.73 395.438 298.02 395.341 298.264 395.146C298.508 394.95 298.687 394.706 298.801 394.413C298.915 394.117 298.972 393.796 298.972 393.451C298.972 393.106 298.915 392.785 298.801 392.489C298.687 392.193 298.508 391.947 298.264 391.752C298.02 391.557 297.73 391.459 297.395 391.459C296.923 391.459 296.547 391.64 296.267 392.001C295.99 392.362 295.852 392.846 295.852 393.451C295.852 394.053 295.99 394.535 296.267 394.896C296.543 395.258 296.919 395.438 297.395 395.438ZM302.751 395.438C302.946 395.438 303.125 395.414 303.288 395.365C303.451 395.316 303.584 395.256 303.688 395.185C303.796 395.113 303.889 395.03 303.967 394.936C304.048 394.841 304.108 394.753 304.147 394.672C304.19 394.587 304.221 394.506 304.24 394.428H305.041C304.901 394.939 304.639 395.352 304.255 395.668C303.874 395.984 303.382 396.142 302.78 396.142C302.015 396.142 301.408 395.896 300.959 395.404C300.513 394.913 300.29 394.262 300.29 393.451C300.29 392.608 300.51 391.949 300.949 391.474C301.392 390.998 301.989 390.761 302.741 390.761C303.529 390.761 304.121 391.013 304.519 391.518C304.919 392.022 305.119 392.737 305.119 393.661H301.091C301.091 393.977 301.149 394.267 301.267 394.53C301.387 394.794 301.576 395.012 301.833 395.185C302.09 395.354 302.396 395.438 302.751 395.438ZM302.741 391.459C302.266 391.459 301.872 391.605 301.56 391.898C301.247 392.188 301.091 392.541 301.091 392.958H304.323C304.323 392.538 304.177 392.183 303.884 391.894C303.591 391.604 303.21 391.459 302.741 391.459ZM308.142 390.761C308.314 390.761 308.472 390.771 308.615 390.79V391.591H308.596C308.052 391.503 307.601 391.625 307.243 391.957C306.888 392.286 306.711 392.727 306.711 393.28V396H305.915V390.902H306.711V391.908H306.735C306.882 391.544 307.066 391.262 307.287 391.063C307.512 390.862 307.797 390.761 308.142 390.761ZM274.411 402.508H273.508C273.508 402.143 273.558 401.808 273.659 401.502C273.76 401.196 273.91 400.927 274.108 400.696C274.307 400.462 274.567 400.28 274.89 400.149C275.212 400.016 275.581 399.949 275.998 399.949C276.398 399.949 276.763 400.029 277.092 400.188C277.421 400.345 277.688 400.582 277.893 400.901C278.098 401.22 278.2 401.593 278.2 402.02C278.2 402.342 278.138 402.638 278.015 402.908C277.891 403.175 277.727 403.405 277.521 403.597C277.316 403.785 277.089 403.963 276.838 404.129C276.59 404.295 276.337 404.453 276.076 404.603C275.816 404.749 275.572 404.897 275.344 405.047C275.116 405.193 274.916 405.364 274.743 405.56C274.574 405.752 274.46 405.958 274.401 406.18V406.199H278.098V407H273.308C273.308 405.825 273.994 404.835 275.368 404.031C275.463 403.976 275.583 403.906 275.729 403.821C275.879 403.737 275.992 403.673 276.066 403.631C276.141 403.589 276.236 403.532 276.35 403.46C276.467 403.388 276.553 403.331 276.608 403.289C276.664 403.247 276.732 403.193 276.813 403.128C276.895 403.063 276.955 403.004 276.994 402.952C277.033 402.9 277.077 402.838 277.126 402.767C277.175 402.695 277.209 402.623 277.229 402.552C277.248 402.48 277.264 402.4 277.277 402.312C277.294 402.225 277.302 402.13 277.302 402.029C277.302 401.87 277.281 401.72 277.238 401.58C277.199 401.44 277.132 401.305 277.038 401.175C276.947 401.045 276.81 400.942 276.628 400.867C276.446 400.789 276.229 400.75 275.979 400.75C274.934 400.75 274.411 401.336 274.411 402.508ZM282.658 406.956C282.359 407.08 282.025 407.142 281.657 407.142C281.289 407.142 280.956 407.08 280.656 406.956C280.357 406.832 280.104 406.661 279.899 406.443C279.698 406.225 279.527 405.965 279.387 405.662C279.25 405.356 279.151 405.027 279.089 404.676C279.027 404.324 278.996 403.948 278.996 403.548C278.996 403.147 279.027 402.771 279.089 402.42C279.151 402.068 279.25 401.741 279.387 401.438C279.527 401.132 279.698 400.87 279.899 400.652C280.104 400.434 280.357 400.263 280.656 400.14C280.956 400.013 281.289 399.949 281.657 399.949C282.025 399.949 282.359 400.013 282.658 400.14C282.958 400.263 283.208 400.434 283.41 400.652C283.615 400.87 283.786 401.132 283.923 401.438C284.063 401.741 284.164 402.068 284.226 402.42C284.287 402.771 284.318 403.147 284.318 403.548C284.318 403.948 284.287 404.324 284.226 404.676C284.164 405.027 284.063 405.356 283.923 405.662C283.786 405.965 283.615 406.225 283.41 406.443C283.208 406.661 282.958 406.832 282.658 406.956ZM281.657 406.341C281.976 406.341 282.251 406.266 282.482 406.116C282.717 405.966 282.899 405.758 283.029 405.491C283.163 405.224 283.26 404.931 283.322 404.612C283.384 404.29 283.415 403.935 283.415 403.548C283.415 403.16 283.384 402.807 283.322 402.488C283.26 402.166 283.163 401.871 283.029 401.604C282.899 401.338 282.717 401.129 282.482 400.979C282.251 400.826 281.976 400.75 281.657 400.75C281.338 400.75 281.062 400.826 280.827 400.979C280.593 401.129 280.409 401.338 280.275 401.604C280.145 401.871 280.049 402.166 279.987 402.488C279.925 402.811 279.895 403.164 279.895 403.548C279.895 403.854 279.912 404.14 279.948 404.407C279.987 404.671 280.049 404.923 280.134 405.164C280.222 405.405 280.332 405.612 280.466 405.784C280.599 405.953 280.767 406.089 280.969 406.189C281.171 406.29 281.4 406.341 281.657 406.341ZM286.12 402.508H285.217C285.217 402.143 285.267 401.808 285.368 401.502C285.469 401.196 285.619 400.927 285.817 400.696C286.016 400.462 286.276 400.28 286.599 400.149C286.921 400.016 287.29 399.949 287.707 399.949C288.107 399.949 288.472 400.029 288.801 400.188C289.13 400.345 289.396 400.582 289.602 400.901C289.807 401.22 289.909 401.593 289.909 402.02C289.909 402.342 289.847 402.638 289.724 402.908C289.6 403.175 289.436 403.405 289.23 403.597C289.025 403.785 288.798 403.963 288.547 404.129C288.299 404.295 288.046 404.453 287.785 404.603C287.525 404.749 287.281 404.897 287.053 405.047C286.825 405.193 286.625 405.364 286.452 405.56C286.283 405.752 286.169 405.958 286.11 406.18V406.199H289.807V407H285.017C285.017 405.825 285.703 404.835 287.077 404.031C287.172 403.976 287.292 403.906 287.438 403.821C287.588 403.737 287.701 403.673 287.775 403.631C287.85 403.589 287.945 403.532 288.059 403.46C288.176 403.388 288.262 403.331 288.317 403.289C288.373 403.247 288.441 403.193 288.522 403.128C288.604 403.063 288.664 403.004 288.703 402.952C288.742 402.9 288.786 402.838 288.835 402.767C288.884 402.695 288.918 402.623 288.938 402.552C288.957 402.48 288.973 402.4 288.986 402.312C289.003 402.225 289.011 402.13 289.011 402.029C289.011 401.87 288.99 401.72 288.947 401.58C288.908 401.44 288.841 401.305 288.747 401.175C288.656 401.045 288.519 400.942 288.337 400.867C288.155 400.789 287.938 400.75 287.688 400.75C286.643 400.75 286.12 401.336 286.12 402.508ZM291.525 402.161H290.627C290.627 401.5 290.843 400.966 291.276 400.56C291.713 400.153 292.342 399.949 293.166 399.949C293.566 399.949 293.933 400.022 294.265 400.169C294.597 400.312 294.867 400.532 295.075 400.828C295.284 401.121 295.388 401.465 295.388 401.858C295.388 402.555 295.033 403.045 294.323 403.328V403.348C294.792 403.475 295.127 403.685 295.329 403.978C295.534 404.267 295.637 404.629 295.637 405.062C295.637 405.729 295.417 406.243 294.978 406.604C294.538 406.963 293.941 407.142 293.186 407.142C292.31 407.142 291.634 406.925 291.159 406.492C290.684 406.056 290.446 405.446 290.446 404.661H291.345C291.345 405.781 291.936 406.341 293.117 406.341C293.697 406.341 294.11 406.235 294.357 406.023C294.608 405.812 294.733 405.491 294.733 405.062C294.733 404.215 294.247 403.792 293.273 403.792H292.536V402.991H293.234C293.612 402.991 293.915 402.898 294.143 402.713C294.37 402.524 294.484 402.239 294.484 401.858C294.484 401.549 294.374 401.287 294.152 401.072C293.934 400.857 293.605 400.75 293.166 400.75C292.072 400.75 291.525 401.22 291.525 402.161Z" fill="black"/>
<path d="M21.9824 123.091H22.6807V130H21.7822V124.829C21.7008 124.907 21.6146 124.972 21.5234 125.024C21.4355 125.076 21.3542 125.117 21.2793 125.146C21.2044 125.173 21.1068 125.192 20.9863 125.205C20.8691 125.218 20.7715 125.226 20.6934 125.229C20.6185 125.229 20.5013 125.229 20.3418 125.229V124.58C20.638 124.58 20.8887 124.546 21.0938 124.478C21.2988 124.409 21.4616 124.307 21.582 124.17C21.7025 124.03 21.792 123.875 21.8506 123.706C21.9124 123.537 21.9564 123.332 21.9824 123.091ZM27.5586 129.956C27.2591 130.08 26.9255 130.142 26.5576 130.142C26.1898 130.142 25.8561 130.08 25.5566 129.956C25.2572 129.832 25.0049 129.661 24.7998 129.443C24.598 129.225 24.4271 128.965 24.2871 128.662C24.1504 128.356 24.0511 128.027 23.9893 127.676C23.9274 127.324 23.8965 126.948 23.8965 126.548C23.8965 126.147 23.9274 125.771 23.9893 125.42C24.0511 125.068 24.1504 124.741 24.2871 124.438C24.4271 124.132 24.598 123.87 24.7998 123.652C25.0049 123.434 25.2572 123.263 25.5566 123.14C25.8561 123.013 26.1898 122.949 26.5576 122.949C26.9255 122.949 27.2591 123.013 27.5586 123.14C27.8581 123.263 28.1087 123.434 28.3105 123.652C28.5156 123.87 28.6865 124.132 28.8232 124.438C28.9632 124.741 29.0641 125.068 29.126 125.42C29.1878 125.771 29.2188 126.147 29.2188 126.548C29.2188 126.948 29.1878 127.324 29.126 127.676C29.0641 128.027 28.9632 128.356 28.8232 128.662C28.6865 128.965 28.5156 129.225 28.3105 129.443C28.1087 129.661 27.8581 129.832 27.5586 129.956ZM26.5576 129.341C26.8766 129.341 27.1517 129.266 27.3828 129.116C27.6172 128.966 27.7995 128.758 27.9297 128.491C28.0632 128.224 28.1608 127.931 28.2227 127.612C28.2845 127.29 28.3154 126.935 28.3154 126.548C28.3154 126.16 28.2845 125.807 28.2227 125.488C28.1608 125.166 28.0632 124.871 27.9297 124.604C27.7995 124.338 27.6172 124.129 27.3828 123.979C27.1517 123.826 26.8766 123.75 26.5576 123.75C26.2386 123.75 25.9619 123.826 25.7275 123.979C25.4932 124.129 25.3092 124.338 25.1758 124.604C25.0456 124.871 24.9495 125.166 24.8877 125.488C24.8258 125.811 24.7949 126.164 24.7949 126.548C24.7949 126.854 24.8128 127.14 24.8486 127.407C24.8877 127.671 24.9495 127.923 25.0342 128.164C25.1221 128.405 25.2327 128.612 25.3662 128.784C25.4997 128.953 25.6673 129.089 25.8691 129.189C26.071 129.29 26.3005 129.341 26.5576 129.341Z" fill="black"/>
<path d="M26.998 244.361C27.6393 244.361 28.1683 244.579 28.585 245.016C29.0016 245.452 29.21 245.994 29.21 246.642C29.21 247.127 29.0993 247.561 28.8779 247.945C28.6598 248.329 28.362 248.626 27.9844 248.834C27.61 249.039 27.1917 249.142 26.7295 249.142C26.3454 249.142 25.9954 249.083 25.6797 248.966C25.3639 248.849 25.1035 248.691 24.8984 248.492C24.6934 248.29 24.5322 248.062 24.415 247.809C24.3011 247.555 24.2393 247.288 24.2295 247.008H25.1279C25.1475 247.187 25.1898 247.351 25.2549 247.501C25.32 247.651 25.4111 247.791 25.5283 247.921C25.6488 248.051 25.8066 248.154 26.002 248.229C26.2005 248.303 26.43 248.341 26.6904 248.341C27.1787 248.341 27.571 248.193 27.8672 247.896C28.1634 247.6 28.3115 247.182 28.3115 246.642C28.3115 246.144 28.1748 245.772 27.9014 245.528C27.6279 245.284 27.2568 245.162 26.7881 245.162C26.1208 245.162 25.6178 245.379 25.2793 245.812H24.3223L25.04 242.091H28.8389V242.892H25.7676L25.3623 244.981V245.001C25.7367 244.575 26.2819 244.361 26.998 244.361Z" fill="black"/>
<path d="M22.998 2.09082H23.6963V9H22.7979V3.8291C22.7165 3.90723 22.6302 3.97233 22.5391 4.02441C22.4512 4.0765 22.3698 4.11719 22.2949 4.14648C22.2201 4.17253 22.1224 4.19206 22.002 4.20508C21.8848 4.2181 21.7871 4.22624 21.709 4.22949C21.6341 4.22949 21.5169 4.22949 21.3574 4.22949V3.58008C21.6536 3.58008 21.9043 3.5459 22.1094 3.47754C22.3145 3.40918 22.4772 3.30664 22.5977 3.16992C22.7181 3.02995 22.8076 2.87533 22.8662 2.70605C22.9281 2.53678 22.972 2.33171 22.998 2.09082ZM27.4707 4.36133C28.112 4.36133 28.641 4.57943 29.0576 5.01562C29.4743 5.45182 29.6826 5.99382 29.6826 6.6416C29.6826 7.12663 29.5719 7.5612 29.3506 7.94531C29.1325 8.32943 28.8346 8.62565 28.457 8.83398C28.0827 9.03906 27.6644 9.1416 27.2021 9.1416C26.818 9.1416 26.4681 9.08301 26.1523 8.96582C25.8366 8.84863 25.5762 8.69076 25.3711 8.49219C25.166 8.29036 25.0049 8.0625 24.8877 7.80859C24.7738 7.55469 24.7119 7.28776 24.7021 7.00781H25.6006C25.6201 7.18685 25.6624 7.35124 25.7275 7.50098C25.7926 7.65072 25.8838 7.79069 26.001 7.9209C26.1214 8.05111 26.2793 8.15365 26.4746 8.22852C26.6732 8.30339 26.9027 8.34082 27.1631 8.34082C27.6514 8.34082 28.0436 8.19271 28.3398 7.89648C28.6361 7.60026 28.7842 7.18197 28.7842 6.6416C28.7842 6.14355 28.6475 5.77246 28.374 5.52832C28.1006 5.28418 27.7295 5.16211 27.2607 5.16211C26.5934 5.16211 26.0905 5.37858 25.752 5.81152H24.7949L25.5127 2.09082H29.3115V2.8916H26.2402L25.835 4.98145V5.00098C26.2093 4.57454 26.7546 4.36133 27.4707 4.36133Z" fill="black"/>
<line opacity="0.35" x1="40" y1="5.5" x2="360" y2="5.49997" stroke="black"/>
<line opacity="0.35" x1="40" y1="125.5" x2="360" y2="125.5" stroke="black"/>
<line opacity="0.5" x1="40" y1="246.5" x2="350" y2="246.5" stroke="black"/>
<path d="M391.206 15.793C391.206 15.793 359.528 64.3585 350.048 64.3585C340.568 64.3585 329.932 64.3585 312.66 64.3585C295.389 64.3585 240.809 137.51 198.612 137.51C156.415 137.51 173.798 137.51 157.454 137.51C141.11 137.51 150.45 208.943 123.208 206.716C106.415 205.344 76.6611 239.926 40.2598 269" stroke="#236CE6"/>
<rect x="314.797" y="59.5381" width="4.84887" height="4.8515" rx="2.42443" transform="rotate(90 314.797 59.5381)" fill="#236CE6"/>
<rect x="351.789" y="59.5381" width="4.84887" height="4.8515" rx="2.42443" transform="rotate(90 351.789 59.5381)" fill="#236CE6"/>
<rect x="159.547" y="132.877" width="4.84887" height="4.8515" rx="2.42443" transform="rotate(90 159.547 132.877)" fill="#236CE6"/>
<rect x="125.586" y="201.974" width="4.84887" height="4.8515" rx="2.42443" transform="rotate(90 125.586 201.974)" fill="#236CE6"/>
<rect x="47.8516" y="259" width="4.84887" height="4.8515" rx="2.42443" transform="rotate(90 47.8516 259)" fill="#236CE6"/>
<path d="M391.203 201.058C391.203 201.058 369.047 243.229 344.403 258.245C305.703 281.825 269.563 239.377 228.36 258.245C221.41 261.427 217.303 265.569 211.18 267.623C205.058 269.678 179.591 269.685 160.614 276.064C136.458 284.184 114.538 308.889 104.214 308.889C95.8598 308.889 58.8442 321.707 40 328.776" stroke="#FF7E3D"/>
<rect x="346.324" y="252.836" width="4.9837" height="4.9864" rx="2.49185" transform="rotate(90 346.324 252.836)" fill="#FF7E3D"/>
<rect x="230.391" y="253.459" width="4.9837" height="4.9864" rx="2.49185" transform="rotate(90 230.391 253.459)" fill="#FF7E3D"/>
<rect x="213.562" y="262.18" width="4.9837" height="4.9864" rx="2.49185" transform="rotate(90 213.562 262.18)" fill="#FF7E3D"/>
<rect x="163.074" y="271.525" width="4.9837" height="4.9864" rx="2.49185" transform="rotate(90 163.074 271.525)" fill="#FF7E3D"/>
<rect x="105.73" y="303.919" width="4.9837" height="4.9864" rx="2.49185" transform="rotate(90 105.73 303.919)" fill="#FF7E3D"/>
<line opacity="0.35" x1="120.5" y1="6" x2="120.5" y2="366" stroke="black"/>
<path d="M1.59826 206.401L1.59826 205.592L4.31812 205.592L4.31812 202.172L1.59826 202.172L1.59825 201.368L8 201.368L8 202.172L5.03526 202.172L5.03526 205.592L8 205.592L8 206.401L1.59826 206.401ZM7.49713 198.241C7.49713 198.066 7.47527 197.906 7.43154 197.76C7.38781 197.615 7.33388 197.495 7.26975 197.402C7.20561 197.306 7.13127 197.222 7.04673 197.153C6.96219 197.08 6.88348 197.026 6.8106 196.991C6.73481 196.953 6.66193 196.925 6.59197 196.908L6.59197 196.19C7.04965 196.316 7.41988 196.551 7.70265 196.895C7.98542 197.236 8.12681 197.676 8.12681 198.215C8.12681 198.9 7.90671 199.444 7.46652 199.846C7.02633 200.246 6.44329 200.445 5.71741 200.445C4.96238 200.445 4.37205 200.248 3.94644 199.855C3.52082 199.458 3.30801 198.923 3.30801 198.25C3.30801 197.545 3.53394 197.014 3.98579 196.658C4.43764 196.3 5.07753 196.121 5.90544 196.121L5.90544 199.728C6.18821 199.728 6.44766 199.676 6.68379 199.571C6.91992 199.463 7.11524 199.294 7.26975 199.063C7.42134 198.833 7.49713 198.559 7.49713 198.241ZM3.93332 198.25C3.93332 198.676 4.0645 199.028 4.32687 199.308C4.58632 199.588 4.90262 199.728 5.27576 199.728L5.27576 196.833C4.8997 196.833 4.58195 196.964 4.32249 197.227C4.06304 197.489 3.93332 197.83 3.93332 198.25ZM4.59798 192.614C4.15487 192.614 3.93332 192.924 3.93332 193.545C3.93332 193.973 4.00182 194.275 4.13884 194.45C4.27585 194.625 4.51198 194.724 4.84723 194.747L4.84723 195.465C4.37788 195.441 4.00474 195.274 3.7278 194.962C3.44794 194.647 3.30801 194.175 3.30801 193.545C3.30801 193.364 3.32259 193.197 3.35174 193.042C3.38089 192.885 3.43045 192.735 3.50041 192.592C3.57038 192.449 3.65929 192.328 3.76715 192.229C3.87501 192.13 4.01348 192.051 4.18257 191.993C4.34873 191.931 4.53822 191.901 4.75103 191.901L6.96802 191.901C7.16626 191.901 7.30619 191.867 7.38781 191.8C7.46652 191.733 7.49421 191.593 7.47089 191.38L7.97376 191.38C8.02041 191.523 8.04373 191.663 8.04373 191.8C8.04373 192.031 8.00146 192.208 7.91692 192.334C7.82946 192.459 7.66621 192.552 7.42717 192.614L7.42717 192.631C7.8936 192.946 8.12681 193.463 8.12681 194.183C8.12681 194.641 8.00729 195.007 7.76824 195.281C7.5292 195.552 7.21581 195.688 6.8281 195.688C6.62403 195.688 6.44475 195.657 6.29024 195.596C6.13574 195.532 6.00747 195.449 5.90544 195.347C5.80341 195.245 5.71304 195.105 5.63433 194.927C5.5527 194.749 5.48857 194.571 5.44193 194.393C5.39528 194.215 5.34718 193.995 5.29762 193.733C5.21891 193.307 5.13583 193.014 5.04838 192.854C4.96092 192.694 4.81079 192.614 4.59798 192.614ZM7.49713 194.109C7.49713 193.657 7.39218 193.296 7.18229 193.025C6.9724 192.751 6.65756 192.614 6.23777 192.614L5.47253 192.614C5.58914 192.73 5.70866 193.083 5.8311 193.672C5.93022 194.135 6.04974 194.468 6.18967 194.669C6.3296 194.87 6.53075 194.97 6.79311 194.97C7.26246 194.97 7.49713 194.683 7.49713 194.109ZM1.59825 187.594L1.59825 186.876L8 186.876L8 187.594L7.43591 187.594L7.43591 187.611C7.89651 187.961 8.12681 188.439 8.12681 189.045C8.12681 189.331 8.07142 189.599 7.96064 189.85C7.84987 190.101 7.69245 190.319 7.48838 190.506C7.28432 190.69 7.0307 190.835 6.72752 190.943C6.42143 191.051 6.08472 191.105 5.71741 191.105C5.3501 191.105 5.01485 191.051 4.71167 190.943C4.40558 190.835 4.1505 190.69 3.94644 190.506C3.74237 190.319 3.58495 190.101 3.47418 189.85C3.3634 189.599 3.30801 189.331 3.30801 189.045C3.30801 188.413 3.54706 187.935 4.02515 187.611L4.02515 187.594L1.59825 187.594ZM7.49713 188.971C7.49713 188.548 7.33679 188.213 7.01612 187.965C6.69254 187.718 6.25963 187.594 5.71741 187.594C5.17519 187.594 4.74228 187.718 4.4187 187.965C4.09511 188.213 3.93332 188.548 3.93332 188.971C3.93332 189.198 3.98433 189.404 4.08636 189.588C4.18548 189.771 4.31958 189.92 4.48866 190.034C4.65774 190.147 4.84869 190.235 5.06149 190.296C5.27139 190.357 5.49003 190.388 5.71741 190.388C6.02642 190.388 6.31357 190.337 6.57885 190.235C6.84121 190.133 7.05985 189.972 7.23476 189.754C7.40967 189.532 7.49713 189.271 7.49713 188.971ZM5.07898 182.652C4.94489 182.661 4.8137 182.692 4.68543 182.744C4.55717 182.794 4.43473 182.868 4.31812 182.967C4.20151 183.063 4.10823 183.196 4.03826 183.365C3.9683 183.531 3.93332 183.724 3.93332 183.942C3.93332 184.152 3.9683 184.343 4.03826 184.515C4.10531 184.684 4.19714 184.826 4.31375 184.939C4.42744 185.05 4.563 185.145 4.72042 185.224C4.87492 185.299 5.03526 185.355 5.20142 185.39C5.36759 185.422 5.53958 185.438 5.71741 185.438C5.94188 185.438 6.15614 185.41 6.36021 185.355C6.56427 185.299 6.75376 185.215 6.92867 185.101C7.10066 184.987 7.23914 184.831 7.34408 184.633C7.44611 184.432 7.49713 184.202 7.49713 183.942C7.49713 183.721 7.46215 183.527 7.39218 183.361C7.32222 183.192 7.22893 183.059 7.11233 182.963C6.9928 182.867 6.86745 182.794 6.73627 182.744C6.60217 182.692 6.46224 182.661 6.31648 182.652L6.31648 181.935C6.84121 181.967 7.27412 182.17 7.61519 182.543C7.95627 182.916 8.12681 183.383 8.12681 183.942C8.12681 184.607 7.90526 185.142 7.46215 185.547C7.01904 185.952 6.43746 186.155 5.71741 186.155C4.99736 186.155 4.41578 185.952 3.97267 185.547C3.52956 185.142 3.30801 184.607 3.30801 183.942C3.30801 183.388 3.47418 182.929 3.80651 182.565C4.13592 182.201 4.56008 181.991 5.07898 181.935L5.07898 182.652ZM8.12681 179.272C8.12681 179.96 7.90671 180.505 7.46652 180.908C7.02341 181.31 6.44038 181.511 5.71741 181.511C4.99444 181.511 4.41286 181.31 3.97267 180.908C3.52956 180.505 3.30801 179.96 3.30801 179.272C3.30801 178.587 3.52956 178.045 3.97267 177.646C4.41578 177.243 4.99736 177.042 5.71741 177.042C6.43746 177.042 7.01904 177.243 7.46215 177.646C7.90526 178.045 8.12681 178.587 8.12681 179.272ZM7.49713 179.272C7.49713 178.785 7.32951 178.412 6.99426 178.153C6.65901 177.89 6.2334 177.759 5.71741 177.759C5.20142 177.759 4.7758 177.89 4.44056 178.153C4.1024 178.412 3.93332 178.785 3.93332 179.272C3.93332 179.765 4.1024 180.142 4.44056 180.405C4.7758 180.664 5.20142 180.794 5.71741 180.794C6.2334 180.794 6.65901 180.664 6.99426 180.405C7.32951 180.142 7.49713 179.765 7.49713 179.272ZM3.43482 173.29L3.43482 172.573L8 172.573L8 173.29L7.4534 173.29L7.4534 173.308C7.64289 173.448 7.80322 173.644 7.93441 173.898C8.06268 174.152 8.12681 174.456 8.12681 174.812C8.12681 175.025 8.0962 175.223 8.03498 175.407C7.97668 175.587 7.88922 175.749 7.77261 175.892C7.65309 176.032 7.49567 176.143 7.30035 176.224C7.10212 176.306 6.8762 176.347 6.62257 176.347L3.43482 176.347L3.43482 175.63L6.44329 175.63C6.76105 175.63 7.01612 175.55 7.20853 175.389C7.40093 175.226 7.49713 174.974 7.49713 174.633C7.49713 174.233 7.38344 173.91 7.15605 173.662C6.92867 173.414 6.63715 173.29 6.2815 173.29L3.43482 173.29ZM3.30801 169.346C3.30801 169.133 3.33862 168.936 3.39984 168.756C3.45814 168.575 3.54705 168.413 3.66658 168.27C3.78318 168.127 3.9406 168.017 4.13884 167.938C4.33415 167.856 4.55862 167.816 4.81224 167.816L8 167.816L8 168.533L4.99153 168.533C4.67377 168.533 4.41869 168.613 4.22629 168.773C4.03097 168.934 3.93332 169.184 3.93332 169.525C3.93332 169.925 4.04847 170.25 4.27877 170.5C4.50615 170.748 4.79767 170.872 5.15332 170.872L8 170.872L8 171.585L3.43482 171.585L3.43482 170.872L3.97704 170.872L3.97704 170.85C3.78756 170.71 3.62868 170.515 3.50041 170.264C3.37214 170.011 3.30801 169.705 3.30801 169.346ZM4.06013 164.956L4.06013 165.852L6.8106 165.852C7.05839 165.852 7.22019 165.784 7.29598 165.647C7.37178 165.51 7.39801 165.279 7.37469 164.956L8 164.956C8.03498 165.116 8.05247 165.295 8.05247 165.494C8.05247 165.832 7.96647 166.096 7.79448 166.285C7.61957 166.472 7.31493 166.565 6.88057 166.565L4.06013 166.565L4.06013 167.238L3.43482 167.238L3.43482 166.565L1.90872 166.565L1.90872 165.852L3.43482 165.852L3.43482 164.956L4.06013 164.956Z" fill="black"/>
<path d="M391.207 179.866C381.857 193.267 360.149 218.679 345.075 235.339C330 252 278.5 224 228.119 235.339C184.198 245.225 76.2316 311.776 40 328.677" stroke="#F54550"/>
<rect x="230.395" y="230.41" width="4.9837" height="4.9864" rx="2.49185" transform="rotate(90 230.395 230.41)" fill="#F54550"/>
<rect x="345.988" y="231" width="4.9837" height="4.9864" rx="2.49185" transform="rotate(90 345.988 231)" fill="#F54550"/>
<rect x="59.0029" y="315" width="5" height="5.00271" rx="2.5" transform="rotate(90 59.0029 315)" fill="#F54550"/>
<path d="M290.658 34.208H287.509L286.879 36H285.946L288.588 28.8516H289.589L292.221 36H291.288L290.658 34.208ZM287.807 33.4121H290.37L289.101 29.6816H289.081L287.807 33.4121ZM292.904 28.8516H293.705V36H292.904V28.8516ZM294.77 28.8516H295.57V36H294.77V28.8516Z" fill="#236CE6"/>
<line opacity="0.35" x1="291.5" y1="43" x2="291.5" y2="77" stroke="#236CE6"/>
<path d="M235.804 191V183.852H238.646C238.984 183.852 239.29 183.891 239.563 183.969C239.837 184.047 240.079 184.167 240.291 184.33C240.506 184.49 240.672 184.706 240.789 184.979C240.906 185.25 240.965 185.567 240.965 185.932C240.965 186.296 240.906 186.615 240.789 186.889C240.672 187.159 240.506 187.375 240.291 187.538C240.079 187.698 239.837 187.816 239.563 187.895C239.29 187.973 238.984 188.012 238.646 188.012H236.707V191H235.804ZM236.707 184.652V187.211H238.743C239.189 187.211 239.521 187.107 239.739 186.898C239.957 186.687 240.066 186.365 240.066 185.932C240.066 185.499 239.957 185.178 239.739 184.97C239.521 184.758 239.189 184.652 238.743 184.652H236.707ZM244.212 185.761C244.45 185.761 244.669 185.795 244.871 185.863C245.073 185.928 245.254 186.028 245.413 186.161C245.573 186.291 245.696 186.467 245.784 186.688C245.875 186.907 245.921 187.157 245.921 187.44V191H245.12V187.641C245.12 187.286 245.031 187.001 244.852 186.786C244.673 186.568 244.393 186.459 244.012 186.459C243.566 186.459 243.203 186.588 242.923 186.845C242.646 187.099 242.508 187.424 242.508 187.821V191H241.712V183.852H242.508V186.508H242.532C242.688 186.296 242.907 186.119 243.187 185.976C243.47 185.832 243.812 185.761 244.212 185.761ZM247.112 191V183.852H249.705C250.698 183.852 251.476 184.164 252.039 184.789C252.602 185.411 252.884 186.291 252.884 187.431C252.884 188.57 252.602 189.451 252.039 190.072C251.476 190.691 250.698 191 249.705 191H247.112ZM248.016 184.652V190.199H249.705C250.057 190.199 250.368 190.147 250.638 190.043C250.911 189.939 251.131 189.802 251.297 189.633C251.463 189.46 251.598 189.252 251.702 189.008C251.81 188.764 251.883 188.515 251.922 188.261C251.964 188.007 251.985 187.73 251.985 187.431C251.985 187.131 251.964 186.854 251.922 186.601C251.883 186.347 251.81 186.098 251.702 185.854C251.598 185.606 251.463 185.396 251.297 185.224C251.131 185.051 250.911 184.913 250.638 184.809C250.368 184.704 250.057 184.652 249.705 184.652H248.016Z" fill="#F54550"/>
<path d="M122.674 260V252.852H125.516C125.854 252.852 126.16 252.891 126.434 252.969C126.707 253.047 126.95 253.167 127.161 253.33C127.376 253.49 127.542 253.706 127.659 253.979C127.776 254.25 127.835 254.567 127.835 254.932C127.835 255.296 127.776 255.615 127.659 255.889C127.542 256.159 127.376 256.375 127.161 256.538C126.95 256.698 126.707 256.816 126.434 256.895C126.16 256.973 125.854 257.012 125.516 257.012H123.577V260H122.674ZM123.577 253.652V256.211H125.613C126.059 256.211 126.391 256.107 126.609 255.898C126.827 255.687 126.937 255.365 126.937 254.932C126.937 254.499 126.827 254.178 126.609 253.97C126.391 253.758 126.059 253.652 125.613 253.652H123.577ZM130.633 260.142C129.865 260.142 129.256 259.896 128.807 259.404C128.357 258.91 128.133 258.258 128.133 257.451C128.133 256.644 128.357 255.994 128.807 255.503C129.256 255.008 129.865 254.761 130.633 254.761C131.398 254.761 132.003 255.008 132.449 255.503C132.898 255.998 133.123 256.647 133.123 257.451C133.123 258.255 132.898 258.905 132.449 259.399C132.003 259.894 131.398 260.142 130.633 260.142ZM130.633 259.438C131.176 259.438 131.593 259.251 131.883 258.877C132.176 258.503 132.322 258.027 132.322 257.451C132.322 256.875 132.176 256.4 131.883 256.025C131.593 255.648 131.176 255.459 130.633 255.459C130.083 255.459 129.661 255.648 129.368 256.025C129.078 256.4 128.934 256.875 128.934 257.451C128.934 258.027 129.078 258.503 129.368 258.877C129.661 259.251 130.083 259.438 130.633 259.438ZM136.004 256.968C136.043 256.978 136.105 256.992 136.189 257.012C136.417 257.067 136.59 257.111 136.707 257.144C136.827 257.176 136.98 257.235 137.166 257.319C137.352 257.401 137.49 257.492 137.581 257.593C137.675 257.69 137.758 257.827 137.83 258.003C137.905 258.175 137.942 258.374 137.942 258.599C137.942 259.058 137.754 259.43 137.376 259.717C136.998 260 136.517 260.142 135.931 260.142C135.179 260.142 134.609 259.979 134.222 259.653C133.834 259.325 133.628 258.874 133.602 258.301H134.402C134.412 258.431 134.43 258.545 134.456 258.643C134.482 258.737 134.528 258.838 134.593 258.945C134.661 259.053 134.747 259.141 134.852 259.209C134.959 259.274 135.104 259.329 135.286 259.375C135.468 259.417 135.683 259.438 135.931 259.438C136.328 259.438 136.629 259.357 136.834 259.194C137.039 259.032 137.142 258.851 137.142 258.652C137.142 258.561 137.13 258.478 137.107 258.403C137.085 258.328 137.057 258.265 137.024 258.213C136.995 258.161 136.95 258.114 136.888 258.071C136.826 258.026 136.769 257.99 136.717 257.964C136.668 257.935 136.596 257.907 136.502 257.881C136.408 257.852 136.329 257.83 136.268 257.817C136.209 257.801 136.121 257.78 136.004 257.754C135.89 257.728 135.802 257.707 135.74 257.69C135.678 257.674 135.576 257.651 135.433 257.622C135.293 257.593 135.182 257.568 135.101 257.549C135.022 257.529 134.918 257.498 134.788 257.456C134.658 257.414 134.554 257.371 134.476 257.329C134.397 257.287 134.31 257.23 134.212 257.158C134.118 257.087 134.044 257.008 133.992 256.924C133.94 256.839 133.895 256.737 133.855 256.616C133.82 256.493 133.802 256.357 133.802 256.211C133.802 255.798 133.974 255.452 134.319 255.176C134.664 254.899 135.128 254.761 135.711 254.761C136.32 254.761 136.8 254.912 137.151 255.215C137.503 255.514 137.7 255.897 137.742 256.362H136.941C136.922 256.268 136.899 256.187 136.873 256.118C136.85 256.047 136.81 255.967 136.751 255.879C136.692 255.791 136.621 255.719 136.536 255.664C136.455 255.605 136.342 255.557 136.199 255.518C136.059 255.479 135.896 255.459 135.711 255.459C135.363 255.459 135.091 255.524 134.896 255.654C134.7 255.781 134.603 255.947 134.603 256.152C134.603 256.25 134.622 256.336 134.661 256.411C134.703 256.486 134.749 256.546 134.798 256.592C134.85 256.637 134.931 256.681 135.042 256.724C135.156 256.766 135.247 256.797 135.315 256.816C135.387 256.833 135.503 256.859 135.662 256.895C135.822 256.927 135.936 256.951 136.004 256.968ZM140.838 255.601H139.837V258.672C139.837 258.949 139.913 259.129 140.066 259.214C140.219 259.299 140.477 259.328 140.838 259.302V260C140.659 260.039 140.459 260.059 140.237 260.059C139.86 260.059 139.565 259.963 139.354 259.771C139.145 259.575 139.041 259.235 139.041 258.75V255.601H138.289V254.902H139.041V253.198H139.837V254.902H140.838V255.601ZM141.409 257.051H144.09V257.852H141.409V257.051ZM145.135 260V252.852H147.728C148.72 252.852 149.498 253.164 150.062 253.789C150.625 254.411 150.906 255.291 150.906 256.431C150.906 257.57 150.625 258.451 150.062 259.072C149.498 259.691 148.72 260 147.728 260H145.135ZM146.038 253.652V259.199H147.728C148.079 259.199 148.39 259.147 148.66 259.043C148.934 258.939 149.153 258.802 149.319 258.633C149.485 258.46 149.62 258.252 149.725 258.008C149.832 257.764 149.905 257.515 149.944 257.261C149.987 257.007 150.008 256.73 150.008 256.431C150.008 256.131 149.987 255.854 149.944 255.601C149.905 255.347 149.832 255.098 149.725 254.854C149.62 254.606 149.485 254.396 149.319 254.224C149.153 254.051 148.934 253.913 148.66 253.809C148.39 253.704 148.079 253.652 147.728 253.652H146.038ZM154.061 260.142C153.292 260.142 152.684 259.896 152.234 259.404C151.785 258.91 151.561 258.258 151.561 257.451C151.561 256.644 151.785 255.994 152.234 255.503C152.684 255.008 153.292 254.761 154.061 254.761C154.826 254.761 155.431 255.008 155.877 255.503C156.326 255.998 156.551 256.647 156.551 257.451C156.551 258.255 156.326 258.905 155.877 259.399C155.431 259.894 154.826 260.142 154.061 260.142ZM154.061 259.438C154.604 259.438 155.021 259.251 155.311 258.877C155.604 258.503 155.75 258.027 155.75 257.451C155.75 256.875 155.604 256.4 155.311 256.025C155.021 255.648 154.604 255.459 154.061 255.459C153.51 255.459 153.089 255.648 152.796 256.025C152.506 256.4 152.361 256.875 152.361 257.451C152.361 258.027 152.506 258.503 152.796 258.877C153.089 259.251 153.51 259.438 154.061 259.438ZM160.979 256.738C160.97 256.589 160.936 256.442 160.877 256.299C160.822 256.156 160.739 256.019 160.628 255.889C160.521 255.758 160.372 255.654 160.184 255.576C159.998 255.498 159.783 255.459 159.539 255.459C159.305 255.459 159.091 255.498 158.899 255.576C158.711 255.651 158.553 255.754 158.426 255.884C158.302 256.011 158.196 256.162 158.108 256.338C158.024 256.51 157.962 256.689 157.923 256.875C157.887 257.061 157.869 257.253 157.869 257.451C157.869 257.702 157.9 257.941 157.962 258.169C158.024 258.397 158.118 258.608 158.245 258.804C158.372 258.996 158.546 259.15 158.768 259.268C158.992 259.382 159.249 259.438 159.539 259.438C159.786 259.438 160.003 259.399 160.188 259.321C160.377 259.243 160.525 259.139 160.633 259.009C160.74 258.875 160.822 258.735 160.877 258.589C160.936 258.439 160.97 258.283 160.979 258.12H161.78C161.744 258.706 161.518 259.189 161.102 259.57C160.685 259.951 160.164 260.142 159.539 260.142C158.797 260.142 158.2 259.894 157.747 259.399C157.295 258.905 157.068 258.255 157.068 257.451C157.068 256.647 157.295 255.998 157.747 255.503C158.2 255.008 158.797 254.761 159.539 254.761C160.158 254.761 160.67 254.946 161.077 255.317C161.484 255.685 161.718 256.159 161.78 256.738H160.979Z" fill="#FF7E3D"/>
<line opacity="0.35" x1="244.5" y1="197" x2="244.5" y2="233" stroke="#F54550"/>
<line opacity="0.35" x1="142.5" y1="263" x2="142.5" y2="285" stroke="#FF7E3D"/>
<line opacity="0.35" x1="201.5" y1="6" x2="201.5" y2="366" stroke="black"/>
<line opacity="0.35" x1="282.5" y1="6" x2="282.5" y2="366" stroke="black"/>
</svg>
