<svg width="987" height="681" viewBox="0 0 987 681" fill="none" xmlns="http://www.w3.org/2000/svg">
<line opacity="0.35" x1="95" y1="652.5" x2="956" y2="652.5" stroke="black"/>
<line opacity="0.35" x1="275.5" y1="75" x2="275.5" y2="653" stroke="black"/>
<line opacity="0.35" x1="455.5" y1="75" x2="455.5" y2="653" stroke="black"/>
<line opacity="0.35" x1="635.5" y1="75" x2="635.5" y2="653" stroke="black"/>
<line opacity="0.35" x1="815.5" y1="75" x2="815.5" y2="653" stroke="black"/>
<line opacity="0.35" x1="95" y1="74.5" x2="956" y2="74.5" stroke="black"/>
<line opacity="0.35" x1="95" y1="267.5" x2="956" y2="267.5" stroke="black"/>
<line opacity="0.5" x1="95" y1="459.5" x2="956" y2="459.5" stroke="black"/>
<path d="M78.48 653.196C77.8173 653.196 77.248 653.065 76.772 652.804C76.3053 652.543 75.9227 652.179 75.624 651.712C75.3253 651.245 75.106 650.709 74.966 650.102C74.826 649.495 74.756 648.851 74.756 648.17C74.756 647.479 74.826 646.831 74.966 646.224C75.106 645.617 75.3253 645.085 75.624 644.628C75.9227 644.161 76.3053 643.797 76.772 643.536C77.248 643.265 77.8173 643.13 78.48 643.13C79.1427 643.13 79.7073 643.265 80.174 643.536C80.65 643.797 81.0373 644.161 81.336 644.628C81.6347 645.085 81.854 645.617 81.994 646.224C82.134 646.831 82.204 647.479 82.204 648.17C82.204 648.851 82.134 649.495 81.994 650.102C81.854 650.709 81.6347 651.245 81.336 651.712C81.0373 652.179 80.65 652.543 80.174 652.804C79.7073 653.065 79.1427 653.196 78.48 653.196ZM78.48 652.076C78.9467 652.076 79.334 651.973 79.642 651.768C79.95 651.553 80.1927 651.264 80.37 650.9C80.5567 650.527 80.6873 650.107 80.762 649.64C80.846 649.173 80.888 648.683 80.888 648.17C80.888 647.657 80.846 647.167 80.762 646.7C80.6873 646.224 80.5567 645.804 80.37 645.44C80.1927 645.076 79.95 644.787 79.642 644.572C79.334 644.357 78.9467 644.25 78.48 644.25C78.0227 644.25 77.6353 644.357 77.318 644.572C77.01 644.787 76.7627 645.076 76.576 645.44C76.3987 645.804 76.268 646.224 76.184 646.7C76.1093 647.167 76.072 647.657 76.072 648.17C76.072 648.683 76.1093 649.173 76.184 649.64C76.268 650.107 76.3987 650.527 76.576 650.9C76.7627 651.264 77.01 651.553 77.318 651.768C77.6353 651.973 78.0227 652.076 78.48 652.076Z" fill="black"/>
<path d="M100.53 678.196C99.55 678.196 98.6913 677.972 97.954 677.524C97.226 677.076 96.6567 676.46 96.246 675.676C95.8353 674.892 95.63 673.996 95.63 672.988C95.63 671.98 95.8353 671.089 96.246 670.314C96.6567 669.53 97.226 668.914 97.954 668.466C98.6913 668.018 99.55 667.794 100.53 667.794C101.51 667.794 102.369 668.018 103.106 668.466C103.843 668.914 104.413 669.53 104.814 670.314C105.225 671.089 105.43 671.98 105.43 672.988C105.43 673.996 105.225 674.892 104.814 675.676C104.413 676.46 103.843 677.076 103.106 677.524C102.369 677.972 101.51 678.196 100.53 678.196ZM100.53 677.076C101.37 677.076 102.051 676.885 102.574 676.502C103.106 676.119 103.493 675.62 103.736 675.004C103.988 674.379 104.114 673.707 104.114 672.988C104.114 672.269 103.988 671.602 103.736 670.986C103.493 670.361 103.106 669.861 102.574 669.488C102.051 669.105 101.37 668.914 100.53 668.914C99.69 668.914 99.004 669.105 98.472 669.488C97.9493 669.861 97.562 670.361 97.31 670.986C97.0673 671.602 96.946 672.269 96.946 672.988C96.946 673.707 97.0673 674.379 97.31 675.004C97.562 675.62 97.9493 676.119 98.472 676.502C99.004 676.885 99.69 677.076 100.53 677.076ZM111.927 673.436C111.908 673.175 111.833 672.909 111.703 672.638C111.581 672.358 111.381 672.125 111.101 671.938C110.821 671.742 110.443 671.644 109.967 671.644C109.407 671.644 108.959 671.784 108.623 672.064C108.287 672.344 108.044 672.699 107.895 673.128C107.755 673.548 107.685 673.982 107.685 674.43C107.685 674.878 107.755 675.317 107.895 675.746C108.044 676.175 108.287 676.53 108.623 676.81C108.959 677.081 109.407 677.216 109.967 677.216C110.452 677.216 110.83 677.123 111.101 676.936C111.381 676.74 111.581 676.502 111.703 676.222C111.833 675.933 111.908 675.648 111.927 675.368H113.103C113.075 675.909 112.921 676.395 112.641 676.824C112.37 677.244 112.001 677.58 111.535 677.832C111.077 678.075 110.555 678.196 109.967 678.196C109.276 678.196 108.669 678.037 108.147 677.72C107.624 677.403 107.218 676.964 106.929 676.404C106.649 675.835 106.509 675.177 106.509 674.43C106.509 673.683 106.649 673.03 106.929 672.47C107.218 671.901 107.624 671.457 108.147 671.14C108.669 670.823 109.276 670.664 109.967 670.664C110.555 670.664 111.073 670.785 111.521 671.028C111.978 671.261 112.342 671.588 112.613 672.008C112.883 672.428 113.047 672.904 113.103 673.436H111.927ZM113.655 670.86H114.705V668.48H115.825V670.86H117.225V671.84H115.825V676.138C115.825 676.511 115.881 676.763 115.993 676.894C116.105 677.025 116.32 677.09 116.637 677.09C116.758 677.09 116.856 677.085 116.931 677.076C117.006 677.067 117.104 677.057 117.225 677.048V678C117.066 678.028 116.936 678.047 116.833 678.056C116.73 678.065 116.614 678.07 116.483 678.07C116.138 678.07 115.83 678.019 115.559 677.916C115.288 677.804 115.078 677.608 114.929 677.328C114.78 677.039 114.705 676.623 114.705 676.082V671.84H113.655V670.86ZM121.343 678.21C120.615 678.21 119.989 678.051 119.467 677.734C118.944 677.407 118.543 676.959 118.263 676.39C117.983 675.821 117.843 675.167 117.843 674.43C117.843 673.683 117.983 673.03 118.263 672.47C118.543 671.901 118.944 671.457 119.467 671.14C119.989 670.813 120.615 670.65 121.343 670.65C122.071 670.65 122.691 670.813 123.205 671.14C123.727 671.457 124.129 671.901 124.409 672.47C124.689 673.03 124.829 673.683 124.829 674.43C124.829 675.167 124.689 675.821 124.409 676.39C124.129 676.959 123.727 677.407 123.205 677.734C122.691 678.051 122.071 678.21 121.343 678.21ZM121.343 677.23C121.875 677.23 122.309 677.104 122.645 676.852C122.99 676.591 123.242 676.25 123.401 675.83C123.569 675.401 123.653 674.934 123.653 674.43C123.653 673.917 123.569 673.45 123.401 673.03C123.242 672.61 122.99 672.274 122.645 672.022C122.309 671.761 121.875 671.63 121.343 671.63C120.811 671.63 120.372 671.761 120.027 672.022C119.681 672.274 119.425 672.61 119.257 673.03C119.098 673.45 119.019 673.917 119.019 674.43C119.019 674.934 119.098 675.401 119.257 675.83C119.425 676.25 119.681 676.591 120.027 676.852C120.372 677.104 120.811 677.23 121.343 677.23ZM127.201 677.076H127.173V678H126.053V667.99H127.173V671.742H127.201C127.416 671.471 127.701 671.224 128.055 671C128.41 670.776 128.872 670.664 129.441 670.664C130.039 670.664 130.58 670.813 131.065 671.112C131.551 671.411 131.938 671.845 132.227 672.414C132.517 672.974 132.661 673.646 132.661 674.43C132.661 675.214 132.517 675.891 132.227 676.46C131.938 677.02 131.551 677.449 131.065 677.748C130.58 678.047 130.039 678.196 129.441 678.196C128.872 678.196 128.41 678.089 128.055 677.874C127.701 677.65 127.416 677.384 127.201 677.076ZM129.329 671.644C128.667 671.644 128.139 671.901 127.747 672.414C127.365 672.918 127.173 673.59 127.173 674.43C127.173 675.27 127.365 675.947 127.747 676.46C128.139 676.964 128.667 677.216 129.329 677.216C129.824 677.216 130.23 677.081 130.547 676.81C130.865 676.539 131.098 676.194 131.247 675.774C131.406 675.345 131.485 674.897 131.485 674.43C131.485 673.963 131.406 673.52 131.247 673.1C131.098 672.671 130.865 672.321 130.547 672.05C130.23 671.779 129.824 671.644 129.329 671.644ZM137.024 678.21C136.277 678.21 135.642 678.047 135.12 677.72C134.606 677.384 134.214 676.931 133.944 676.362C133.682 675.783 133.552 675.135 133.552 674.416C133.552 673.651 133.692 672.988 133.972 672.428C134.261 671.868 134.667 671.434 135.19 671.126C135.712 670.809 136.324 670.65 137.024 670.65C137.724 670.65 138.316 670.799 138.802 671.098C139.296 671.387 139.674 671.798 139.936 672.33C140.197 672.853 140.328 673.464 140.328 674.164C140.328 674.267 140.328 674.374 140.328 674.486C140.328 674.589 140.323 674.668 140.314 674.724H134.728C134.737 675.144 134.826 675.55 134.994 675.942C135.162 676.325 135.414 676.637 135.75 676.88C136.086 677.123 136.515 677.244 137.038 677.244C137.504 677.244 137.878 677.16 138.158 676.992C138.447 676.815 138.666 676.614 138.816 676.39C138.965 676.166 139.058 675.97 139.096 675.802H140.23C140.108 676.241 139.912 676.647 139.642 677.02C139.371 677.384 139.021 677.673 138.592 677.888C138.162 678.103 137.64 678.21 137.024 678.21ZM136.968 671.616C136.557 671.616 136.184 671.709 135.848 671.896C135.521 672.073 135.26 672.321 135.064 672.638C134.868 672.955 134.756 673.324 134.728 673.744H139.138C139.138 673.352 139.049 672.997 138.872 672.68C138.694 672.353 138.442 672.097 138.116 671.91C137.798 671.714 137.416 671.616 136.968 671.616ZM141.543 670.86H142.663V672.274H142.691C142.878 671.807 143.125 671.425 143.433 671.126C143.741 670.818 144.152 670.664 144.665 670.664C144.908 670.664 145.127 670.678 145.323 670.706V671.826C145.155 671.798 145.001 671.784 144.861 671.784C144.423 671.784 144.035 671.891 143.699 672.106C143.373 672.311 143.116 672.596 142.929 672.96C142.752 673.324 142.663 673.735 142.663 674.192V678H141.543V670.86ZM150.856 671.714H149.54C149.54 671.042 149.662 670.435 149.904 669.894C150.156 669.353 150.539 668.923 151.052 668.606C151.575 668.289 152.233 668.13 153.026 668.13C153.577 668.13 154.086 668.242 154.552 668.466C155.019 668.69 155.392 669.021 155.672 669.46C155.962 669.889 156.106 670.412 156.106 671.028C156.106 671.495 156.022 671.91 155.854 672.274C155.686 672.629 155.458 672.946 155.168 673.226C154.888 673.497 154.576 673.744 154.23 673.968C153.885 674.192 153.535 674.407 153.18 674.612C152.816 674.817 152.466 675.032 152.13 675.256C151.804 675.471 151.519 675.709 151.276 675.97C151.043 676.222 150.88 676.516 150.786 676.852V676.88H155.966V678H149.26C149.26 677.123 149.517 676.339 150.03 675.648C150.553 674.957 151.258 674.355 152.144 673.842C152.592 673.581 152.984 673.352 153.32 673.156C153.656 672.96 153.932 672.769 154.146 672.582C154.361 672.386 154.52 672.171 154.622 671.938C154.734 671.695 154.79 671.397 154.79 671.042C154.79 670.771 154.744 670.501 154.65 670.23C154.557 669.95 154.38 669.717 154.118 669.53C153.866 669.343 153.493 669.25 152.998 669.25C152.438 669.25 152 669.362 151.682 669.586C151.374 669.81 151.16 670.109 151.038 670.482C150.917 670.855 150.856 671.266 150.856 671.714ZM160.962 678.196C160.3 678.196 159.73 678.065 159.254 677.804C158.788 677.543 158.405 677.179 158.106 676.712C157.808 676.245 157.588 675.709 157.448 675.102C157.308 674.495 157.238 673.851 157.238 673.17C157.238 672.479 157.308 671.831 157.448 671.224C157.588 670.617 157.808 670.085 158.106 669.628C158.405 669.161 158.788 668.797 159.254 668.536C159.73 668.265 160.3 668.13 160.962 668.13C161.625 668.13 162.19 668.265 162.656 668.536C163.132 668.797 163.52 669.161 163.818 669.628C164.117 670.085 164.336 670.617 164.476 671.224C164.616 671.831 164.686 672.479 164.686 673.17C164.686 673.851 164.616 674.495 164.476 675.102C164.336 675.709 164.117 676.245 163.818 676.712C163.52 677.179 163.132 677.543 162.656 677.804C162.19 678.065 161.625 678.196 160.962 678.196ZM160.962 677.076C161.429 677.076 161.816 676.973 162.124 676.768C162.432 676.553 162.675 676.264 162.852 675.9C163.039 675.527 163.17 675.107 163.244 674.64C163.328 674.173 163.37 673.683 163.37 673.17C163.37 672.657 163.328 672.167 163.244 671.7C163.17 671.224 163.039 670.804 162.852 670.44C162.675 670.076 162.432 669.787 162.124 669.572C161.816 669.357 161.429 669.25 160.962 669.25C160.505 669.25 160.118 669.357 159.8 669.572C159.492 669.787 159.245 670.076 159.058 670.44C158.881 670.804 158.75 671.224 158.666 671.7C158.592 672.167 158.554 672.657 158.554 673.17C158.554 673.683 158.592 674.173 158.666 674.64C158.75 675.107 158.881 675.527 159.058 675.9C159.245 676.264 159.492 676.553 159.8 676.768C160.118 676.973 160.505 677.076 160.962 677.076ZM167.262 671.714H165.946C165.946 671.042 166.068 670.435 166.31 669.894C166.562 669.353 166.945 668.923 167.458 668.606C167.981 668.289 168.639 668.13 169.432 668.13C169.983 668.13 170.492 668.242 170.958 668.466C171.425 668.69 171.798 669.021 172.078 669.46C172.368 669.889 172.512 670.412 172.512 671.028C172.512 671.495 172.428 671.91 172.26 672.274C172.092 672.629 171.864 672.946 171.574 673.226C171.294 673.497 170.982 673.744 170.636 673.968C170.291 674.192 169.941 674.407 169.586 674.612C169.222 674.817 168.872 675.032 168.536 675.256C168.21 675.471 167.925 675.709 167.682 675.97C167.449 676.222 167.286 676.516 167.192 676.852V676.88H172.372V678H165.666C165.666 677.123 165.923 676.339 166.436 675.648C166.959 674.957 167.664 674.355 168.55 673.842C168.998 673.581 169.39 673.352 169.726 673.156C170.062 672.96 170.338 672.769 170.552 672.582C170.767 672.386 170.926 672.171 171.028 671.938C171.14 671.695 171.196 671.397 171.196 671.042C171.196 670.771 171.15 670.501 171.056 670.23C170.963 669.95 170.786 669.717 170.524 669.53C170.272 669.343 169.899 669.25 169.404 669.25C168.844 669.25 168.406 669.362 168.088 669.586C167.78 669.81 167.566 670.109 167.444 670.482C167.323 670.855 167.262 671.266 167.262 671.714ZM175.192 671.714H173.876C173.876 671.042 173.997 670.435 174.24 669.894C174.492 669.353 174.875 668.923 175.388 668.606C175.911 668.289 176.569 668.13 177.362 668.13C177.913 668.13 178.421 668.242 178.888 668.466C179.355 668.69 179.728 669.021 180.008 669.46C180.297 669.889 180.442 670.412 180.442 671.028C180.442 671.495 180.358 671.91 180.19 672.274C180.022 672.629 179.793 672.946 179.504 673.226C179.224 673.497 178.911 673.744 178.566 673.968C178.221 674.192 177.871 674.407 177.516 674.612C177.152 674.817 176.802 675.032 176.466 675.256C176.139 675.471 175.855 675.709 175.612 675.97C175.379 676.222 175.215 676.516 175.122 676.852V676.88H180.302V678H173.596C173.596 677.123 173.853 676.339 174.366 675.648C174.889 674.957 175.593 674.355 176.48 673.842C176.928 673.581 177.32 673.352 177.656 673.156C177.992 672.96 178.267 672.769 178.482 672.582C178.697 672.386 178.855 672.171 178.958 671.938C179.07 671.695 179.126 671.397 179.126 671.042C179.126 670.771 179.079 670.501 178.986 670.23C178.893 669.95 178.715 669.717 178.454 669.53C178.202 669.343 177.829 669.25 177.334 669.25C176.774 669.25 176.335 669.362 176.018 669.586C175.71 669.81 175.495 670.109 175.374 670.482C175.253 670.855 175.192 671.266 175.192 671.714Z" fill="black"/>
<path d="M239.09 674.948C239.09 675.349 239.043 675.746 238.95 676.138C238.857 676.521 238.698 676.871 238.474 677.188C238.25 677.496 237.947 677.743 237.564 677.93C237.191 678.107 236.724 678.196 236.164 678.196C235.604 678.196 235.133 678.107 234.75 677.93C234.377 677.743 234.078 677.496 233.854 677.188C233.639 676.871 233.485 676.521 233.392 676.138C233.299 675.746 233.252 675.349 233.252 674.948V674.668H234.512V674.948C234.512 675.349 234.549 675.713 234.624 676.04C234.699 676.357 234.853 676.609 235.086 676.796C235.319 676.983 235.679 677.076 236.164 677.076C236.649 677.076 237.009 676.983 237.242 676.796C237.485 676.609 237.643 676.357 237.718 676.04C237.793 675.713 237.83 675.349 237.83 674.948V667.99H239.09V674.948ZM242.458 678.196C241.74 678.196 241.166 678.009 240.736 677.636C240.316 677.253 240.106 676.763 240.106 676.166C240.106 675.615 240.232 675.186 240.484 674.878C240.736 674.57 241.091 674.332 241.548 674.164C242.006 673.996 242.542 673.856 243.158 673.744C243.765 673.632 244.213 673.515 244.502 673.394C244.792 673.263 244.936 673.025 244.936 672.68C244.936 672.4 244.834 672.157 244.628 671.952C244.432 671.737 244.04 671.63 243.452 671.63C242.771 671.63 242.304 671.742 242.052 671.966C241.81 672.181 241.67 672.549 241.632 673.072H240.456C240.484 672.615 240.601 672.204 240.806 671.84C241.021 671.476 241.348 671.187 241.786 670.972C242.225 670.757 242.794 670.65 243.494 670.65C243.942 670.65 244.358 670.72 244.74 670.86C245.123 671 245.431 671.238 245.664 671.574C245.907 671.91 246.028 672.372 246.028 672.96V676.39C246.028 676.67 246.052 676.88 246.098 677.02C246.154 677.16 246.252 677.23 246.392 677.23C246.411 677.23 246.434 677.23 246.462 677.23C246.49 677.23 246.523 677.225 246.56 677.216V678C246.467 678.019 246.378 678.033 246.294 678.042C246.21 678.061 246.117 678.07 246.014 678.07C245.706 678.07 245.459 677.995 245.272 677.846C245.095 677.687 244.988 677.389 244.95 676.95H244.922C244.689 677.333 244.367 677.636 243.956 677.86C243.555 678.084 243.056 678.196 242.458 678.196ZM242.57 677.216C243.242 677.216 243.802 677.057 244.25 676.74C244.708 676.423 244.936 675.923 244.936 675.242V674.108C244.834 674.22 244.624 674.323 244.306 674.416C243.989 674.509 243.639 674.593 243.256 674.668C242.566 674.817 242.062 674.995 241.744 675.2C241.436 675.396 241.282 675.699 241.282 676.11C241.282 676.455 241.38 676.726 241.576 676.922C241.782 677.118 242.113 677.216 242.57 677.216ZM247.729 678V670.86H248.849V671.714H248.877C249.064 671.462 249.348 671.224 249.731 671C250.123 670.776 250.622 670.664 251.229 670.664C251.668 670.664 252.064 670.748 252.419 670.916C252.783 671.075 253.072 671.327 253.287 671.672C253.511 672.017 253.623 672.465 253.623 673.016V678H252.503V673.296C252.503 672.829 252.382 672.437 252.139 672.12C251.906 671.803 251.509 671.644 250.949 671.644C250.324 671.644 249.815 671.826 249.423 672.19C249.04 672.545 248.849 672.997 248.849 673.548V678H247.729ZM256.285 675.564C256.285 676.021 256.402 676.413 256.635 676.74C256.878 677.057 257.279 677.216 257.839 677.216C258.474 677.216 258.982 677.039 259.365 676.684C259.748 676.32 259.939 675.863 259.939 675.312V670.86H261.059V678H259.939V677.146H259.911C259.724 677.398 259.435 677.636 259.043 677.86C258.66 678.084 258.166 678.196 257.559 678.196C257.13 678.196 256.733 678.117 256.369 677.958C256.005 677.79 255.711 677.533 255.487 677.188C255.272 676.833 255.165 676.385 255.165 675.844V670.86H256.285V675.564ZM264.634 678.196C263.915 678.196 263.341 678.009 262.912 677.636C262.492 677.253 262.282 676.763 262.282 676.166C262.282 675.615 262.408 675.186 262.66 674.878C262.912 674.57 263.267 674.332 263.724 674.164C264.181 673.996 264.718 673.856 265.334 673.744C265.941 673.632 266.389 673.515 266.678 673.394C266.967 673.263 267.112 673.025 267.112 672.68C267.112 672.4 267.009 672.157 266.804 671.952C266.608 671.737 266.216 671.63 265.628 671.63C264.947 671.63 264.48 671.742 264.228 671.966C263.985 672.181 263.845 672.549 263.808 673.072H262.632C262.66 672.615 262.777 672.204 262.982 671.84C263.197 671.476 263.523 671.187 263.962 670.972C264.401 670.757 264.97 670.65 265.67 670.65C266.118 670.65 266.533 670.72 266.916 670.86C267.299 671 267.607 671.238 267.84 671.574C268.083 671.91 268.204 672.372 268.204 672.96V676.39C268.204 676.67 268.227 676.88 268.274 677.02C268.33 677.16 268.428 677.23 268.568 677.23C268.587 677.23 268.61 677.23 268.638 677.23C268.666 677.23 268.699 677.225 268.736 677.216V678C268.643 678.019 268.554 678.033 268.47 678.042C268.386 678.061 268.293 678.07 268.19 678.07C267.882 678.07 267.635 677.995 267.448 677.846C267.271 677.687 267.163 677.389 267.126 676.95H267.098C266.865 677.333 266.543 677.636 266.132 677.86C265.731 678.084 265.231 678.196 264.634 678.196ZM264.746 677.216C265.418 677.216 265.978 677.057 266.426 676.74C266.883 676.423 267.112 675.923 267.112 675.242V674.108C267.009 674.22 266.799 674.323 266.482 674.416C266.165 674.509 265.815 674.593 265.432 674.668C264.741 674.817 264.237 674.995 263.92 675.2C263.612 675.396 263.458 675.699 263.458 676.11C263.458 676.455 263.556 676.726 263.752 676.922C263.957 677.118 264.289 677.216 264.746 677.216ZM269.905 670.86H271.025V672.274H271.053C271.239 671.807 271.487 671.425 271.795 671.126C272.103 670.818 272.513 670.664 273.027 670.664C273.269 670.664 273.489 670.678 273.685 670.706V671.826C273.517 671.798 273.363 671.784 273.223 671.784C272.784 671.784 272.397 671.891 272.061 672.106C271.734 672.311 271.477 672.596 271.291 672.96C271.113 673.324 271.025 673.735 271.025 674.192V678H269.905V670.86ZM276.943 677.93L274.045 670.86H275.305L277.503 676.544H277.531L279.631 670.86H280.835L277.951 678.21C277.718 678.807 277.48 679.274 277.237 679.61C276.994 679.946 276.738 680.179 276.467 680.31C276.206 680.441 275.912 680.506 275.585 680.506C275.464 680.506 275.347 680.501 275.235 680.492C275.132 680.483 275.002 680.464 274.843 680.436V679.484C274.964 679.493 275.062 679.503 275.137 679.512C275.212 679.521 275.3 679.526 275.403 679.526C275.702 679.526 275.996 679.414 276.285 679.19C276.574 678.966 276.794 678.546 276.943 677.93ZM286.176 671.714H284.86C284.86 671.042 284.982 670.435 285.224 669.894C285.476 669.353 285.859 668.923 286.372 668.606C286.895 668.289 287.553 668.13 288.346 668.13C288.897 668.13 289.406 668.242 289.872 668.466C290.339 668.69 290.712 669.021 290.992 669.46C291.282 669.889 291.426 670.412 291.426 671.028C291.426 671.495 291.342 671.91 291.174 672.274C291.006 672.629 290.778 672.946 290.488 673.226C290.208 673.497 289.896 673.744 289.55 673.968C289.205 674.192 288.855 674.407 288.5 674.612C288.136 674.817 287.786 675.032 287.45 675.256C287.124 675.471 286.839 675.709 286.596 675.97C286.363 676.222 286.2 676.516 286.106 676.852V676.88H291.286V678H284.58C284.58 677.123 284.837 676.339 285.35 675.648C285.873 674.957 286.578 674.355 287.464 673.842C287.912 673.581 288.304 673.352 288.64 673.156C288.976 672.96 289.252 672.769 289.466 672.582C289.681 672.386 289.84 672.171 289.942 671.938C290.054 671.695 290.11 671.397 290.11 671.042C290.11 670.771 290.064 670.501 289.97 670.23C289.877 669.95 289.7 669.717 289.438 669.53C289.186 669.343 288.813 669.25 288.318 669.25C287.758 669.25 287.32 669.362 287.002 669.586C286.694 669.81 286.48 670.109 286.358 670.482C286.237 670.855 286.176 671.266 286.176 671.714ZM296.283 678.196C295.62 678.196 295.051 678.065 294.575 677.804C294.108 677.543 293.725 677.179 293.427 676.712C293.128 676.245 292.909 675.709 292.769 675.102C292.629 674.495 292.559 673.851 292.559 673.17C292.559 672.479 292.629 671.831 292.769 671.224C292.909 670.617 293.128 670.085 293.427 669.628C293.725 669.161 294.108 668.797 294.575 668.536C295.051 668.265 295.62 668.13 296.283 668.13C296.945 668.13 297.51 668.265 297.977 668.536C298.453 668.797 298.84 669.161 299.139 669.628C299.437 670.085 299.657 670.617 299.797 671.224C299.937 671.831 300.007 672.479 300.007 673.17C300.007 673.851 299.937 674.495 299.797 675.102C299.657 675.709 299.437 676.245 299.139 676.712C298.84 677.179 298.453 677.543 297.977 677.804C297.51 678.065 296.945 678.196 296.283 678.196ZM296.283 677.076C296.749 677.076 297.137 676.973 297.445 676.768C297.753 676.553 297.995 676.264 298.173 675.9C298.359 675.527 298.49 675.107 298.565 674.64C298.649 674.173 298.691 673.683 298.691 673.17C298.691 672.657 298.649 672.167 298.565 671.7C298.49 671.224 298.359 670.804 298.173 670.44C297.995 670.076 297.753 669.787 297.445 669.572C297.137 669.357 296.749 669.25 296.283 669.25C295.825 669.25 295.438 669.357 295.121 669.572C294.813 669.787 294.565 670.076 294.379 670.44C294.201 670.804 294.071 671.224 293.987 671.7C293.912 672.167 293.875 672.657 293.875 673.17C293.875 673.683 293.912 674.173 293.987 674.64C294.071 675.107 294.201 675.527 294.379 675.9C294.565 676.264 294.813 676.553 295.121 676.768C295.438 676.973 295.825 677.076 296.283 677.076ZM302.583 671.714H301.267C301.267 671.042 301.388 670.435 301.631 669.894C301.883 669.353 302.265 668.923 302.779 668.606C303.301 668.289 303.959 668.13 304.753 668.13C305.303 668.13 305.812 668.242 306.279 668.466C306.745 668.69 307.119 669.021 307.399 669.46C307.688 669.889 307.833 670.412 307.833 671.028C307.833 671.495 307.749 671.91 307.581 672.274C307.413 672.629 307.184 672.946 306.895 673.226C306.615 673.497 306.302 673.744 305.957 673.968C305.611 674.192 305.261 674.407 304.907 674.612C304.543 674.817 304.193 675.032 303.857 675.256C303.53 675.471 303.245 675.709 303.003 675.97C302.769 676.222 302.606 676.516 302.513 676.852V676.88H307.693V678H300.987C300.987 677.123 301.243 676.339 301.757 675.648C302.279 674.957 302.984 674.355 303.871 673.842C304.319 673.581 304.711 673.352 305.047 673.156C305.383 672.96 305.658 672.769 305.873 672.582C306.087 672.386 306.246 672.171 306.349 671.938C306.461 671.695 306.517 671.397 306.517 671.042C306.517 670.771 306.47 670.501 306.377 670.23C306.283 669.95 306.106 669.717 305.845 669.53C305.593 669.343 305.219 669.25 304.725 669.25C304.165 669.25 303.726 669.362 303.409 669.586C303.101 669.81 302.886 670.109 302.765 670.482C302.643 670.855 302.583 671.266 302.583 671.714ZM310.446 671.224H309.13C309.13 670.627 309.26 670.099 309.522 669.642C309.783 669.175 310.175 668.807 310.698 668.536C311.23 668.265 311.892 668.13 312.686 668.13C313.236 668.13 313.745 668.237 314.212 668.452C314.688 668.657 315.07 668.961 315.36 669.362C315.649 669.754 315.794 670.235 315.794 670.804C315.794 671.317 315.668 671.742 315.416 672.078C315.173 672.405 314.804 672.666 314.31 672.862V672.89C314.963 673.095 315.43 673.403 315.71 673.814C315.999 674.225 316.144 674.715 316.144 675.284C316.144 676.208 315.831 676.927 315.206 677.44C314.58 677.944 313.75 678.196 312.714 678.196C311.482 678.196 310.534 677.893 309.872 677.286C309.209 676.67 308.878 675.816 308.878 674.724H310.194C310.194 675.191 310.268 675.601 310.418 675.956C310.567 676.311 310.814 676.586 311.16 676.782C311.514 676.978 312 677.076 312.616 677.076C313.446 677.076 314.02 676.917 314.338 676.6C314.664 676.273 314.828 675.835 314.828 675.284C314.828 674.799 314.725 674.43 314.52 674.178C314.324 673.917 314.072 673.739 313.764 673.646C313.465 673.553 313.157 673.506 312.84 673.506H311.804V672.386H312.784C313.278 672.386 313.684 672.265 314.002 672.022C314.319 671.77 314.478 671.364 314.478 670.804C314.478 670.543 314.417 670.295 314.296 670.062C314.184 669.819 313.997 669.623 313.736 669.474C313.474 669.325 313.124 669.25 312.686 669.25C312.06 669.25 311.584 669.348 311.258 669.544C310.94 669.74 310.726 669.992 310.614 670.3C310.502 670.599 310.446 670.907 310.446 671.224Z" fill="black"/>
<path d="M429.79 675.494H425.38L424.498 678H423.196L426.892 667.99H428.306L432.03 678H430.672L429.79 675.494ZM425.8 674.374H429.384L427.606 669.152H427.578L425.8 674.374ZM434.147 677.076H434.119V680.478H432.999V670.86H434.119V671.742H434.147C434.361 671.471 434.646 671.224 435.001 671C435.355 670.776 435.817 670.664 436.387 670.664C436.984 670.664 437.525 670.813 438.011 671.112C438.496 671.411 438.883 671.845 439.173 672.414C439.462 672.974 439.607 673.646 439.607 674.43C439.607 675.214 439.462 675.891 439.173 676.46C438.883 677.02 438.496 677.449 438.011 677.748C437.525 678.047 436.984 678.196 436.387 678.196C435.817 678.196 435.355 678.089 435.001 677.874C434.646 677.65 434.361 677.384 434.147 677.076ZM436.275 671.644C435.612 671.644 435.085 671.901 434.693 672.414C434.31 672.918 434.119 673.59 434.119 674.43C434.119 675.27 434.31 675.947 434.693 676.46C435.085 676.964 435.612 677.216 436.275 677.216C436.769 677.216 437.175 677.081 437.493 676.81C437.81 676.539 438.043 676.194 438.193 675.774C438.351 675.345 438.431 674.897 438.431 674.43C438.431 673.963 438.351 673.52 438.193 673.1C438.043 672.671 437.81 672.321 437.493 672.05C437.175 671.779 436.769 671.644 436.275 671.644ZM440.819 670.86H441.939V672.274H441.967C442.153 671.807 442.401 671.425 442.709 671.126C443.017 670.818 443.427 670.664 443.941 670.664C444.183 670.664 444.403 670.678 444.599 670.706V671.826C444.431 671.798 444.277 671.784 444.137 671.784C443.698 671.784 443.311 671.891 442.975 672.106C442.648 672.311 442.391 672.596 442.205 672.96C442.027 673.324 441.939 673.735 441.939 674.192V678H440.819V670.86ZM445.465 668.13H446.809V669.474H445.465V668.13ZM445.577 670.86H446.697V678H445.577V670.86ZM448.311 667.99H449.431V678H448.311V667.99ZM455.464 671.714H454.148C454.148 671.042 454.269 670.435 454.512 669.894C454.764 669.353 455.146 668.923 455.66 668.606C456.182 668.289 456.84 668.13 457.634 668.13C458.184 668.13 458.693 668.242 459.16 668.466C459.626 668.69 460 669.021 460.28 669.46C460.569 669.889 460.714 670.412 460.714 671.028C460.714 671.495 460.63 671.91 460.462 672.274C460.294 672.629 460.065 672.946 459.776 673.226C459.496 673.497 459.183 673.744 458.838 673.968C458.492 674.192 458.142 674.407 457.788 674.612C457.424 674.817 457.074 675.032 456.738 675.256C456.411 675.471 456.126 675.709 455.884 675.97C455.65 676.222 455.487 676.516 455.394 676.852V676.88H460.574V678H453.868C453.868 677.123 454.124 676.339 454.638 675.648C455.16 674.957 455.865 674.355 456.752 673.842C457.2 673.581 457.592 673.352 457.928 673.156C458.264 672.96 458.539 672.769 458.754 672.582C458.968 672.386 459.127 672.171 459.23 671.938C459.342 671.695 459.398 671.397 459.398 671.042C459.398 670.771 459.351 670.501 459.258 670.23C459.164 669.95 458.987 669.717 458.726 669.53C458.474 669.343 458.1 669.25 457.606 669.25C457.046 669.25 456.607 669.362 456.29 669.586C455.982 669.81 455.767 670.109 455.646 670.482C455.524 670.855 455.464 671.266 455.464 671.714ZM465.57 678.196C464.907 678.196 464.338 678.065 463.862 677.804C463.395 677.543 463.013 677.179 462.714 676.712C462.415 676.245 462.196 675.709 462.056 675.102C461.916 674.495 461.846 673.851 461.846 673.17C461.846 672.479 461.916 671.831 462.056 671.224C462.196 670.617 462.415 670.085 462.714 669.628C463.013 669.161 463.395 668.797 463.862 668.536C464.338 668.265 464.907 668.13 465.57 668.13C466.233 668.13 466.797 668.265 467.264 668.536C467.74 668.797 468.127 669.161 468.426 669.628C468.725 670.085 468.944 670.617 469.084 671.224C469.224 671.831 469.294 672.479 469.294 673.17C469.294 673.851 469.224 674.495 469.084 675.102C468.944 675.709 468.725 676.245 468.426 676.712C468.127 677.179 467.74 677.543 467.264 677.804C466.797 678.065 466.233 678.196 465.57 678.196ZM465.57 677.076C466.037 677.076 466.424 676.973 466.732 676.768C467.04 676.553 467.283 676.264 467.46 675.9C467.647 675.527 467.777 675.107 467.852 674.64C467.936 674.173 467.978 673.683 467.978 673.17C467.978 672.657 467.936 672.167 467.852 671.7C467.777 671.224 467.647 670.804 467.46 670.44C467.283 670.076 467.04 669.787 466.732 669.572C466.424 669.357 466.037 669.25 465.57 669.25C465.113 669.25 464.725 669.357 464.408 669.572C464.1 669.787 463.853 670.076 463.666 670.44C463.489 670.804 463.358 671.224 463.274 671.7C463.199 672.167 463.162 672.657 463.162 673.17C463.162 673.683 463.199 674.173 463.274 674.64C463.358 675.107 463.489 675.527 463.666 675.9C463.853 676.264 464.1 676.553 464.408 676.768C464.725 676.973 465.113 677.076 465.57 677.076ZM471.87 671.714H470.554C470.554 671.042 470.675 670.435 470.918 669.894C471.17 669.353 471.553 668.923 472.066 668.606C472.589 668.289 473.247 668.13 474.04 668.13C474.591 668.13 475.099 668.242 475.566 668.466C476.033 668.69 476.406 669.021 476.686 669.46C476.975 669.889 477.12 670.412 477.12 671.028C477.12 671.495 477.036 671.91 476.868 672.274C476.7 672.629 476.471 672.946 476.182 673.226C475.902 673.497 475.589 673.744 475.244 673.968C474.899 674.192 474.549 674.407 474.194 674.612C473.83 674.817 473.48 675.032 473.144 675.256C472.817 675.471 472.533 675.709 472.29 675.97C472.057 676.222 471.893 676.516 471.8 676.852V676.88H476.98V678H470.274C470.274 677.123 470.531 676.339 471.044 675.648C471.567 674.957 472.271 674.355 473.158 673.842C473.606 673.581 473.998 673.352 474.334 673.156C474.67 672.96 474.945 672.769 475.16 672.582C475.375 672.386 475.533 672.171 475.636 671.938C475.748 671.695 475.804 671.397 475.804 671.042C475.804 670.771 475.757 670.501 475.664 670.23C475.571 669.95 475.393 669.717 475.132 669.53C474.88 669.343 474.507 669.25 474.012 669.25C473.452 669.25 473.013 669.362 472.696 669.586C472.388 669.81 472.173 670.109 472.052 670.482C471.931 670.855 471.87 671.266 471.87 671.714ZM479.733 671.224H478.417C478.417 670.627 478.547 670.099 478.809 669.642C479.07 669.175 479.462 668.807 479.985 668.536C480.517 668.265 481.179 668.13 481.973 668.13C482.523 668.13 483.032 668.237 483.499 668.452C483.975 668.657 484.357 668.961 484.647 669.362C484.936 669.754 485.081 670.235 485.081 670.804C485.081 671.317 484.955 671.742 484.703 672.078C484.46 672.405 484.091 672.666 483.597 672.862V672.89C484.25 673.095 484.717 673.403 484.997 673.814C485.286 674.225 485.431 674.715 485.431 675.284C485.431 676.208 485.118 676.927 484.493 677.44C483.867 677.944 483.037 678.196 482.001 678.196C480.769 678.196 479.821 677.893 479.159 677.286C478.496 676.67 478.165 675.816 478.165 674.724H479.481C479.481 675.191 479.555 675.601 479.705 675.956C479.854 676.311 480.101 676.586 480.447 676.782C480.801 676.978 481.287 677.076 481.903 677.076C482.733 677.076 483.307 676.917 483.625 676.6C483.951 676.273 484.115 675.835 484.115 675.284C484.115 674.799 484.012 674.43 483.807 674.178C483.611 673.917 483.359 673.739 483.051 673.646C482.752 673.553 482.444 673.506 482.127 673.506H481.091V672.386H482.071C482.565 672.386 482.971 672.265 483.289 672.022C483.606 671.77 483.765 671.364 483.765 670.804C483.765 670.543 483.704 670.295 483.583 670.062C483.471 669.819 483.284 669.623 483.023 669.474C482.761 669.325 482.411 669.25 481.973 669.25C481.347 669.25 480.871 669.348 480.545 669.544C480.227 669.74 480.013 669.992 479.901 670.3C479.789 670.599 479.733 670.907 479.733 671.224Z" fill="black"/>
<path d="M611.09 674.948C611.09 675.349 611.043 675.746 610.95 676.138C610.857 676.521 610.698 676.871 610.474 677.188C610.25 677.496 609.947 677.743 609.564 677.93C609.191 678.107 608.724 678.196 608.164 678.196C607.604 678.196 607.133 678.107 606.75 677.93C606.377 677.743 606.078 677.496 605.854 677.188C605.639 676.871 605.485 676.521 605.392 676.138C605.299 675.746 605.252 675.349 605.252 674.948V674.668H606.512V674.948C606.512 675.349 606.549 675.713 606.624 676.04C606.699 676.357 606.853 676.609 607.086 676.796C607.319 676.983 607.679 677.076 608.164 677.076C608.649 677.076 609.009 676.983 609.242 676.796C609.485 676.609 609.643 676.357 609.718 676.04C609.793 675.713 609.83 675.349 609.83 674.948V667.99H611.09V674.948ZM613.615 675.564C613.615 676.021 613.732 676.413 613.965 676.74C614.208 677.057 614.609 677.216 615.169 677.216C615.804 677.216 616.312 677.039 616.695 676.684C617.078 676.32 617.269 675.863 617.269 675.312V670.86H618.389V678H617.269V677.146H617.241C617.054 677.398 616.765 677.636 616.373 677.86C615.99 678.084 615.496 678.196 614.889 678.196C614.46 678.196 614.063 678.117 613.699 677.958C613.335 677.79 613.041 677.533 612.817 677.188C612.602 676.833 612.495 676.385 612.495 675.844V670.86H613.615V675.564ZM620.002 667.99H621.122V678H620.002V667.99ZM624.88 677.93L621.982 670.86H623.242L625.44 676.544H625.468L627.568 670.86H628.772L625.888 678.21C625.655 678.807 625.417 679.274 625.174 679.61C624.932 679.946 624.675 680.179 624.404 680.31C624.143 680.441 623.849 680.506 623.522 680.506C623.401 680.506 623.284 680.501 623.172 680.492C623.07 680.483 622.939 680.464 622.78 680.436V679.484C622.902 679.493 623 679.503 623.074 679.512C623.149 679.521 623.238 679.526 623.34 679.526C623.639 679.526 623.933 679.414 624.222 679.19C624.512 678.966 624.731 678.546 624.88 677.93ZM634.114 671.714H632.798C632.798 671.042 632.919 670.435 633.162 669.894C633.414 669.353 633.797 668.923 634.31 668.606C634.833 668.289 635.491 668.13 636.284 668.13C636.835 668.13 637.343 668.242 637.81 668.466C638.277 668.69 638.65 669.021 638.93 669.46C639.219 669.889 639.364 670.412 639.364 671.028C639.364 671.495 639.28 671.91 639.112 672.274C638.944 672.629 638.715 672.946 638.426 673.226C638.146 673.497 637.833 673.744 637.488 673.968C637.143 674.192 636.793 674.407 636.438 674.612C636.074 674.817 635.724 675.032 635.388 675.256C635.061 675.471 634.777 675.709 634.534 675.97C634.301 676.222 634.137 676.516 634.044 676.852V676.88H639.224V678H632.518C632.518 677.123 632.775 676.339 633.288 675.648C633.811 674.957 634.515 674.355 635.402 673.842C635.85 673.581 636.242 673.352 636.578 673.156C636.914 672.96 637.189 672.769 637.404 672.582C637.619 672.386 637.777 672.171 637.88 671.938C637.992 671.695 638.048 671.397 638.048 671.042C638.048 670.771 638.001 670.501 637.908 670.23C637.815 669.95 637.637 669.717 637.376 669.53C637.124 669.343 636.751 669.25 636.256 669.25C635.696 669.25 635.257 669.362 634.94 669.586C634.632 669.81 634.417 670.109 634.296 670.482C634.175 670.855 634.114 671.266 634.114 671.714ZM644.22 678.196C643.558 678.196 642.988 678.065 642.512 677.804C642.046 677.543 641.663 677.179 641.364 676.712C641.066 676.245 640.846 675.709 640.706 675.102C640.566 674.495 640.496 673.851 640.496 673.17C640.496 672.479 640.566 671.831 640.706 671.224C640.846 670.617 641.066 670.085 641.364 669.628C641.663 669.161 642.046 668.797 642.512 668.536C642.988 668.265 643.558 668.13 644.22 668.13C644.883 668.13 645.448 668.265 645.914 668.536C646.39 668.797 646.778 669.161 647.076 669.628C647.375 670.085 647.594 670.617 647.734 671.224C647.874 671.831 647.944 672.479 647.944 673.17C647.944 673.851 647.874 674.495 647.734 675.102C647.594 675.709 647.375 676.245 647.076 676.712C646.778 677.179 646.39 677.543 645.914 677.804C645.448 678.065 644.883 678.196 644.22 678.196ZM644.22 677.076C644.687 677.076 645.074 676.973 645.382 676.768C645.69 676.553 645.933 676.264 646.11 675.9C646.297 675.527 646.428 675.107 646.502 674.64C646.586 674.173 646.628 673.683 646.628 673.17C646.628 672.657 646.586 672.167 646.502 671.7C646.428 671.224 646.297 670.804 646.11 670.44C645.933 670.076 645.69 669.787 645.382 669.572C645.074 669.357 644.687 669.25 644.22 669.25C643.763 669.25 643.376 669.357 643.058 669.572C642.75 669.787 642.503 670.076 642.316 670.44C642.139 670.804 642.008 671.224 641.924 671.7C641.85 672.167 641.812 672.657 641.812 673.17C641.812 673.683 641.85 674.173 641.924 674.64C642.008 675.107 642.139 675.527 642.316 675.9C642.503 676.264 642.75 676.553 643.058 676.768C643.376 676.973 643.763 677.076 644.22 677.076ZM650.52 671.714H649.204C649.204 671.042 649.326 670.435 649.568 669.894C649.82 669.353 650.203 668.923 650.716 668.606C651.239 668.289 651.897 668.13 652.69 668.13C653.241 668.13 653.75 668.242 654.216 668.466C654.683 668.69 655.056 669.021 655.336 669.46C655.626 669.889 655.77 670.412 655.77 671.028C655.77 671.495 655.686 671.91 655.518 672.274C655.35 672.629 655.122 672.946 654.832 673.226C654.552 673.497 654.24 673.744 653.894 673.968C653.549 674.192 653.199 674.407 652.844 674.612C652.48 674.817 652.13 675.032 651.794 675.256C651.468 675.471 651.183 675.709 650.94 675.97C650.707 676.222 650.544 676.516 650.45 676.852V676.88H655.63V678H648.924C648.924 677.123 649.181 676.339 649.694 675.648C650.217 674.957 650.922 674.355 651.808 673.842C652.256 673.581 652.648 673.352 652.984 673.156C653.32 672.96 653.596 672.769 653.81 672.582C654.025 672.386 654.184 672.171 654.286 671.938C654.398 671.695 654.454 671.397 654.454 671.042C654.454 670.771 654.408 670.501 654.314 670.23C654.221 669.95 654.044 669.717 653.782 669.53C653.53 669.343 653.157 669.25 652.662 669.25C652.102 669.25 651.664 669.362 651.346 669.586C651.038 669.81 650.824 670.109 650.702 670.482C650.581 670.855 650.52 671.266 650.52 671.714ZM658.383 671.224H657.067C657.067 670.627 657.198 670.099 657.459 669.642C657.721 669.175 658.113 668.807 658.635 668.536C659.167 668.265 659.83 668.13 660.623 668.13C661.174 668.13 661.683 668.237 662.149 668.452C662.625 668.657 663.008 668.961 663.297 669.362C663.587 669.754 663.731 670.235 663.731 670.804C663.731 671.317 663.605 671.742 663.353 672.078C663.111 672.405 662.742 672.666 662.247 672.862V672.89C662.901 673.095 663.367 673.403 663.647 673.814C663.937 674.225 664.081 674.715 664.081 675.284C664.081 676.208 663.769 676.927 663.143 677.44C662.518 677.944 661.687 678.196 660.651 678.196C659.419 678.196 658.472 677.893 657.809 677.286C657.147 676.67 656.815 675.816 656.815 674.724H658.131C658.131 675.191 658.206 675.601 658.355 675.956C658.505 676.311 658.752 676.586 659.097 676.782C659.452 676.978 659.937 677.076 660.553 677.076C661.384 677.076 661.958 676.917 662.275 676.6C662.602 676.273 662.765 675.835 662.765 675.284C662.765 674.799 662.663 674.43 662.457 674.178C662.261 673.917 662.009 673.739 661.701 673.646C661.403 673.553 661.095 673.506 660.777 673.506H659.741V672.386H660.721C661.216 672.386 661.622 672.265 661.939 672.022C662.257 671.77 662.415 671.364 662.415 670.804C662.415 670.543 662.355 670.295 662.233 670.062C662.121 669.819 661.935 669.623 661.673 669.474C661.412 669.325 661.062 669.25 660.623 669.25C659.998 669.25 659.522 669.348 659.195 669.544C658.878 669.74 658.663 669.992 658.551 670.3C658.439 670.599 658.383 670.907 658.383 671.224Z" fill="black"/>
<path d="M765.175 383V372.99H769.151C769.767 372.99 770.317 373.088 770.803 373.284C771.297 373.471 771.685 373.779 771.965 374.208C772.254 374.637 772.399 375.202 772.399 375.902C772.399 376.602 772.254 377.167 771.965 377.596C771.685 378.025 771.297 378.338 770.803 378.534C770.317 378.721 769.767 378.814 769.151 378.814H766.435V383H765.175ZM766.435 377.694H769.235C770.467 377.694 771.083 377.097 771.083 375.902C771.083 374.707 770.467 374.11 769.235 374.11H766.435V377.694ZM778.299 378.296C778.299 377.829 778.178 377.437 777.935 377.12C777.702 376.803 777.305 376.644 776.745 376.644C776.12 376.644 775.611 376.826 775.219 377.19C774.836 377.545 774.645 377.997 774.645 378.548V383H773.525V372.99H774.645V376.714H774.673C774.86 376.462 775.144 376.224 775.527 376C775.919 375.776 776.418 375.664 777.025 375.664C777.464 375.664 777.86 375.748 778.215 375.916C778.579 376.075 778.868 376.327 779.083 376.672C779.307 377.017 779.419 377.465 779.419 378.016V383H778.299V378.296ZM781.034 383V372.99H784.66C786.041 372.99 787.129 373.424 787.922 374.292C788.715 375.151 789.112 376.387 789.112 378.002C789.112 379.607 788.715 380.844 787.922 381.712C787.129 382.571 786.041 383 784.66 383H781.034ZM782.294 374.11V381.88H784.66C785.295 381.88 785.817 381.773 786.228 381.558C786.639 381.343 786.956 381.049 787.18 380.676C787.413 380.303 787.572 379.887 787.656 379.43C787.749 378.963 787.796 378.487 787.796 378.002C787.796 377.507 787.749 377.031 787.656 376.574C787.572 376.107 787.413 375.692 787.18 375.328C786.956 374.955 786.639 374.661 786.228 374.446C785.817 374.222 785.295 374.11 784.66 374.11H782.294Z" fill="#F54550"/>
<path d="M854.976 127.494H850.566L849.684 130H848.382L852.078 119.99H853.492L857.216 130H855.858L854.976 127.494ZM850.986 126.374H854.57L852.792 121.152H852.764L850.986 126.374ZM858.184 119.99H859.304V130H858.184V119.99ZM860.918 119.99H862.038V130H860.918V119.99Z" fill="#236CE6"/>
<path d="M559.157 488V477.99H563.133C563.749 477.99 564.3 478.088 564.785 478.284C565.28 478.471 565.667 478.779 565.947 479.208C566.236 479.637 566.381 480.202 566.381 480.902C566.381 481.602 566.236 482.167 565.947 482.596C565.667 483.025 565.28 483.338 564.785 483.534C564.3 483.721 563.749 483.814 563.133 483.814H560.417V488H559.157ZM560.417 482.694H563.217C564.449 482.694 565.065 482.097 565.065 480.902C565.065 479.707 564.449 479.11 563.217 479.11H560.417V482.694ZM570.33 488.21C569.602 488.21 568.977 488.051 568.454 487.734C567.931 487.407 567.53 486.959 567.25 486.39C566.97 485.821 566.83 485.167 566.83 484.43C566.83 483.683 566.97 483.03 567.25 482.47C567.53 481.901 567.931 481.457 568.454 481.14C568.977 480.813 569.602 480.65 570.33 480.65C571.058 480.65 571.679 480.813 572.192 481.14C572.715 481.457 573.116 481.901 573.396 482.47C573.676 483.03 573.816 483.683 573.816 484.43C573.816 485.167 573.676 485.821 573.396 486.39C573.116 486.959 572.715 487.407 572.192 487.734C571.679 488.051 571.058 488.21 570.33 488.21ZM570.33 487.23C570.862 487.23 571.296 487.104 571.632 486.852C571.977 486.591 572.229 486.25 572.388 485.83C572.556 485.401 572.64 484.934 572.64 484.43C572.64 483.917 572.556 483.45 572.388 483.03C572.229 482.61 571.977 482.274 571.632 482.022C571.296 481.761 570.862 481.63 570.33 481.63C569.798 481.63 569.359 481.761 569.014 482.022C568.669 482.274 568.412 482.61 568.244 483.03C568.085 483.45 568.006 483.917 568.006 484.43C568.006 484.934 568.085 485.401 568.244 485.83C568.412 486.25 568.669 486.591 569.014 486.852C569.359 487.104 569.798 487.23 570.33 487.23ZM577.844 483.758C578.161 483.833 578.478 483.917 578.796 484.01C579.122 484.103 579.416 484.234 579.678 484.402C579.948 484.561 580.163 484.771 580.322 485.032C580.48 485.284 580.56 485.606 580.56 485.998C580.56 486.67 580.308 487.207 579.804 487.608C579.309 488 578.604 488.196 577.69 488.196C576.663 488.196 575.874 487.953 575.324 487.468C574.782 486.973 574.502 486.357 574.484 485.62H575.66C575.678 485.909 575.753 486.175 575.884 486.418C576.014 486.661 576.224 486.857 576.514 487.006C576.812 487.146 577.204 487.216 577.69 487.216C578.147 487.216 578.497 487.155 578.74 487.034C578.982 486.913 579.15 486.763 579.244 486.586C579.337 486.399 579.384 486.217 579.384 486.04C579.384 485.713 579.286 485.471 579.09 485.312C578.894 485.153 578.651 485.041 578.362 484.976C578.072 484.901 577.778 484.831 577.48 484.766C577.172 484.701 576.854 484.626 576.528 484.542C576.21 484.449 575.916 484.327 575.646 484.178C575.384 484.029 575.17 483.833 575.002 483.59C574.843 483.347 574.764 483.039 574.764 482.666C574.764 482.059 574.992 481.574 575.45 481.21C575.907 480.846 576.546 480.664 577.368 480.664C577.984 480.664 578.502 480.767 578.922 480.972C579.342 481.168 579.664 481.439 579.888 481.784C580.112 482.12 580.242 482.493 580.28 482.904H579.104C579.066 482.717 578.996 482.531 578.894 482.344C578.8 482.148 578.637 481.985 578.404 481.854C578.17 481.714 577.83 481.644 577.382 481.644C576.878 481.644 576.509 481.737 576.276 481.924C576.052 482.101 575.94 482.335 575.94 482.624C575.94 482.895 576.028 483.1 576.206 483.24C576.383 483.371 576.616 483.469 576.906 483.534C577.204 483.599 577.517 483.674 577.844 483.758ZM581.058 480.86H582.108V478.48H583.228V480.86H584.628V481.84H583.228V486.138C583.228 486.511 583.284 486.763 583.396 486.894C583.508 487.025 583.723 487.09 584.04 487.09C584.162 487.09 584.26 487.085 584.334 487.076C584.409 487.067 584.507 487.057 584.628 487.048V488C584.47 488.028 584.339 488.047 584.236 488.056C584.134 488.065 584.017 488.07 583.886 488.07C583.541 488.07 583.233 488.019 582.962 487.916C582.692 487.804 582.482 487.608 582.332 487.328C582.183 487.039 582.108 486.623 582.108 486.082V481.84H581.058V480.86ZM585.495 483.87H589.247V484.99H585.495V483.87ZM590.712 488V477.99H594.338C595.719 477.99 596.806 478.424 597.6 479.292C598.393 480.151 598.79 481.387 598.79 483.002C598.79 484.607 598.393 485.844 597.6 486.712C596.806 487.571 595.719 488 594.338 488H590.712ZM591.972 479.11V486.88H594.338C594.972 486.88 595.495 486.773 595.906 486.558C596.316 486.343 596.634 486.049 596.858 485.676C597.091 485.303 597.25 484.887 597.334 484.43C597.427 483.963 597.474 483.487 597.474 483.002C597.474 482.507 597.427 482.031 597.334 481.574C597.25 481.107 597.091 480.692 596.858 480.328C596.634 479.955 596.316 479.661 595.906 479.446C595.495 479.222 594.972 479.11 594.338 479.11H591.972ZM603.361 488.21C602.633 488.21 602.008 488.051 601.485 487.734C600.962 487.407 600.561 486.959 600.281 486.39C600.001 485.821 599.861 485.167 599.861 484.43C599.861 483.683 600.001 483.03 600.281 482.47C600.561 481.901 600.962 481.457 601.485 481.14C602.008 480.813 602.633 480.65 603.361 480.65C604.089 480.65 604.71 480.813 605.223 481.14C605.746 481.457 606.147 481.901 606.427 482.47C606.707 483.03 606.847 483.683 606.847 484.43C606.847 485.167 606.707 485.821 606.427 486.39C606.147 486.959 605.746 487.407 605.223 487.734C604.71 488.051 604.089 488.21 603.361 488.21ZM603.361 487.23C603.893 487.23 604.327 487.104 604.663 486.852C605.008 486.591 605.26 486.25 605.419 485.83C605.587 485.401 605.671 484.934 605.671 484.43C605.671 483.917 605.587 483.45 605.419 483.03C605.26 482.61 605.008 482.274 604.663 482.022C604.327 481.761 603.893 481.63 603.361 481.63C602.829 481.63 602.39 481.761 602.045 482.022C601.7 482.274 601.443 482.61 601.275 483.03C601.116 483.45 601.037 483.917 601.037 484.43C601.037 484.934 601.116 485.401 601.275 485.83C601.443 486.25 601.7 486.591 602.045 486.852C602.39 487.104 602.829 487.23 603.361 487.23ZM613.168 483.436C613.149 483.175 613.074 482.909 612.944 482.638C612.822 482.358 612.622 482.125 612.342 481.938C612.062 481.742 611.684 481.644 611.208 481.644C610.648 481.644 610.2 481.784 609.864 482.064C609.528 482.344 609.285 482.699 609.136 483.128C608.996 483.548 608.926 483.982 608.926 484.43C608.926 484.878 608.996 485.317 609.136 485.746C609.285 486.175 609.528 486.53 609.864 486.81C610.2 487.081 610.648 487.216 611.208 487.216C611.693 487.216 612.071 487.123 612.342 486.936C612.622 486.74 612.822 486.502 612.944 486.222C613.074 485.933 613.149 485.648 613.168 485.368H614.344C614.316 485.909 614.162 486.395 613.882 486.824C613.611 487.244 613.242 487.58 612.776 487.832C612.318 488.075 611.796 488.196 611.208 488.196C610.517 488.196 609.91 488.037 609.388 487.72C608.865 487.403 608.459 486.964 608.17 486.404C607.89 485.835 607.75 485.177 607.75 484.43C607.75 483.683 607.89 483.03 608.17 482.47C608.459 481.901 608.865 481.457 609.388 481.14C609.91 480.823 610.517 480.664 611.208 480.664C611.796 480.664 612.314 480.785 612.762 481.028C613.219 481.261 613.583 481.588 613.854 482.008C614.124 482.428 614.288 482.904 614.344 483.436H613.168Z" fill="#FF7E3D"/>
<path d="M776.53 678.196C775.55 678.196 774.691 677.972 773.954 677.524C773.226 677.076 772.657 676.46 772.246 675.676C771.835 674.892 771.63 673.996 771.63 672.988C771.63 671.98 771.835 671.089 772.246 670.314C772.657 669.53 773.226 668.914 773.954 668.466C774.691 668.018 775.55 667.794 776.53 667.794C777.51 667.794 778.369 668.018 779.106 668.466C779.843 668.914 780.413 669.53 780.814 670.314C781.225 671.089 781.43 671.98 781.43 672.988C781.43 673.996 781.225 674.892 780.814 675.676C780.413 676.46 779.843 677.076 779.106 677.524C778.369 677.972 777.51 678.196 776.53 678.196ZM776.53 677.076C777.37 677.076 778.051 676.885 778.574 676.502C779.106 676.119 779.493 675.62 779.736 675.004C779.988 674.379 780.114 673.707 780.114 672.988C780.114 672.269 779.988 671.602 779.736 670.986C779.493 670.361 779.106 669.861 778.574 669.488C778.051 669.105 777.37 668.914 776.53 668.914C775.69 668.914 775.004 669.105 774.472 669.488C773.949 669.861 773.562 670.361 773.31 670.986C773.067 671.602 772.946 672.269 772.946 672.988C772.946 673.707 773.067 674.379 773.31 675.004C773.562 675.62 773.949 676.119 774.472 676.502C775.004 676.885 775.69 677.076 776.53 677.076ZM787.927 673.436C787.908 673.175 787.833 672.909 787.703 672.638C787.581 672.358 787.381 672.125 787.101 671.938C786.821 671.742 786.443 671.644 785.967 671.644C785.407 671.644 784.959 671.784 784.623 672.064C784.287 672.344 784.044 672.699 783.895 673.128C783.755 673.548 783.685 673.982 783.685 674.43C783.685 674.878 783.755 675.317 783.895 675.746C784.044 676.175 784.287 676.53 784.623 676.81C784.959 677.081 785.407 677.216 785.967 677.216C786.452 677.216 786.83 677.123 787.101 676.936C787.381 676.74 787.581 676.502 787.703 676.222C787.833 675.933 787.908 675.648 787.927 675.368H789.103C789.075 675.909 788.921 676.395 788.641 676.824C788.37 677.244 788.001 677.58 787.535 677.832C787.077 678.075 786.555 678.196 785.967 678.196C785.276 678.196 784.669 678.037 784.147 677.72C783.624 677.403 783.218 676.964 782.929 676.404C782.649 675.835 782.509 675.177 782.509 674.43C782.509 673.683 782.649 673.03 782.929 672.47C783.218 671.901 783.624 671.457 784.147 671.14C784.669 670.823 785.276 670.664 785.967 670.664C786.555 670.664 787.073 670.785 787.521 671.028C787.978 671.261 788.342 671.588 788.613 672.008C788.883 672.428 789.047 672.904 789.103 673.436H787.927ZM789.655 670.86H790.705V668.48H791.825V670.86H793.225V671.84H791.825V676.138C791.825 676.511 791.881 676.763 791.993 676.894C792.105 677.025 792.32 677.09 792.637 677.09C792.758 677.09 792.856 677.085 792.931 677.076C793.006 677.067 793.104 677.057 793.225 677.048V678C793.066 678.028 792.936 678.047 792.833 678.056C792.73 678.065 792.614 678.07 792.483 678.07C792.138 678.07 791.83 678.019 791.559 677.916C791.288 677.804 791.078 677.608 790.929 677.328C790.78 677.039 790.705 676.623 790.705 676.082V671.84H789.655V670.86ZM797.343 678.21C796.615 678.21 795.989 678.051 795.467 677.734C794.944 677.407 794.543 676.959 794.263 676.39C793.983 675.821 793.843 675.167 793.843 674.43C793.843 673.683 793.983 673.03 794.263 672.47C794.543 671.901 794.944 671.457 795.467 671.14C795.989 670.813 796.615 670.65 797.343 670.65C798.071 670.65 798.691 670.813 799.205 671.14C799.727 671.457 800.129 671.901 800.409 672.47C800.689 673.03 800.829 673.683 800.829 674.43C800.829 675.167 800.689 675.821 800.409 676.39C800.129 676.959 799.727 677.407 799.205 677.734C798.691 678.051 798.071 678.21 797.343 678.21ZM797.343 677.23C797.875 677.23 798.309 677.104 798.645 676.852C798.99 676.591 799.242 676.25 799.401 675.83C799.569 675.401 799.653 674.934 799.653 674.43C799.653 673.917 799.569 673.45 799.401 673.03C799.242 672.61 798.99 672.274 798.645 672.022C798.309 671.761 797.875 671.63 797.343 671.63C796.811 671.63 796.372 671.761 796.027 672.022C795.681 672.274 795.425 672.61 795.257 673.03C795.098 673.45 795.019 673.917 795.019 674.43C795.019 674.934 795.098 675.401 795.257 675.83C795.425 676.25 795.681 676.591 796.027 676.852C796.372 677.104 796.811 677.23 797.343 677.23ZM803.201 677.076H803.173V678H802.053V667.99H803.173V671.742H803.201C803.416 671.471 803.701 671.224 804.055 671C804.41 670.776 804.872 670.664 805.441 670.664C806.039 670.664 806.58 670.813 807.065 671.112C807.551 671.411 807.938 671.845 808.227 672.414C808.517 672.974 808.661 673.646 808.661 674.43C808.661 675.214 808.517 675.891 808.227 676.46C807.938 677.02 807.551 677.449 807.065 677.748C806.58 678.047 806.039 678.196 805.441 678.196C804.872 678.196 804.41 678.089 804.055 677.874C803.701 677.65 803.416 677.384 803.201 677.076ZM805.329 671.644C804.667 671.644 804.139 671.901 803.747 672.414C803.365 672.918 803.173 673.59 803.173 674.43C803.173 675.27 803.365 675.947 803.747 676.46C804.139 676.964 804.667 677.216 805.329 677.216C805.824 677.216 806.23 677.081 806.547 676.81C806.865 676.539 807.098 676.194 807.247 675.774C807.406 675.345 807.485 674.897 807.485 674.43C807.485 673.963 807.406 673.52 807.247 673.1C807.098 672.671 806.865 672.321 806.547 672.05C806.23 671.779 805.824 671.644 805.329 671.644ZM813.024 678.21C812.277 678.21 811.642 678.047 811.12 677.72C810.606 677.384 810.214 676.931 809.944 676.362C809.682 675.783 809.552 675.135 809.552 674.416C809.552 673.651 809.692 672.988 809.972 672.428C810.261 671.868 810.667 671.434 811.19 671.126C811.712 670.809 812.324 670.65 813.024 670.65C813.724 670.65 814.316 670.799 814.802 671.098C815.296 671.387 815.674 671.798 815.936 672.33C816.197 672.853 816.328 673.464 816.328 674.164C816.328 674.267 816.328 674.374 816.328 674.486C816.328 674.589 816.323 674.668 816.314 674.724H810.728C810.737 675.144 810.826 675.55 810.994 675.942C811.162 676.325 811.414 676.637 811.75 676.88C812.086 677.123 812.515 677.244 813.038 677.244C813.504 677.244 813.878 677.16 814.158 676.992C814.447 676.815 814.666 676.614 814.816 676.39C814.965 676.166 815.058 675.97 815.096 675.802H816.23C816.108 676.241 815.912 676.647 815.642 677.02C815.371 677.384 815.021 677.673 814.592 677.888C814.162 678.103 813.64 678.21 813.024 678.21ZM812.968 671.616C812.557 671.616 812.184 671.709 811.848 671.896C811.521 672.073 811.26 672.321 811.064 672.638C810.868 672.955 810.756 673.324 810.728 673.744H815.138C815.138 673.352 815.049 672.997 814.872 672.68C814.694 672.353 814.442 672.097 814.116 671.91C813.798 671.714 813.416 671.616 812.968 671.616ZM817.543 670.86H818.663V672.274H818.691C818.878 671.807 819.125 671.425 819.433 671.126C819.741 670.818 820.152 670.664 820.665 670.664C820.908 670.664 821.127 670.678 821.323 670.706V671.826C821.155 671.798 821.001 671.784 820.861 671.784C820.423 671.784 820.035 671.891 819.699 672.106C819.373 672.311 819.116 672.596 818.929 672.96C818.752 673.324 818.663 673.735 818.663 674.192V678H817.543V670.86ZM826.856 671.714H825.54C825.54 671.042 825.662 670.435 825.904 669.894C826.156 669.353 826.539 668.923 827.052 668.606C827.575 668.289 828.233 668.13 829.026 668.13C829.577 668.13 830.086 668.242 830.552 668.466C831.019 668.69 831.392 669.021 831.672 669.46C831.962 669.889 832.106 670.412 832.106 671.028C832.106 671.495 832.022 671.91 831.854 672.274C831.686 672.629 831.458 672.946 831.168 673.226C830.888 673.497 830.576 673.744 830.23 673.968C829.885 674.192 829.535 674.407 829.18 674.612C828.816 674.817 828.466 675.032 828.13 675.256C827.804 675.471 827.519 675.709 827.276 675.97C827.043 676.222 826.88 676.516 826.786 676.852V676.88H831.966V678H825.26C825.26 677.123 825.517 676.339 826.03 675.648C826.553 674.957 827.258 674.355 828.144 673.842C828.592 673.581 828.984 673.352 829.32 673.156C829.656 672.96 829.932 672.769 830.146 672.582C830.361 672.386 830.52 672.171 830.622 671.938C830.734 671.695 830.79 671.397 830.79 671.042C830.79 670.771 830.744 670.501 830.65 670.23C830.557 669.95 830.38 669.717 830.118 669.53C829.866 669.343 829.493 669.25 828.998 669.25C828.438 669.25 828 669.362 827.682 669.586C827.374 669.81 827.16 670.109 827.038 670.482C826.917 670.855 826.856 671.266 826.856 671.714ZM836.962 678.196C836.3 678.196 835.73 678.065 835.254 677.804C834.788 677.543 834.405 677.179 834.106 676.712C833.808 676.245 833.588 675.709 833.448 675.102C833.308 674.495 833.238 673.851 833.238 673.17C833.238 672.479 833.308 671.831 833.448 671.224C833.588 670.617 833.808 670.085 834.106 669.628C834.405 669.161 834.788 668.797 835.254 668.536C835.73 668.265 836.3 668.13 836.962 668.13C837.625 668.13 838.19 668.265 838.656 668.536C839.132 668.797 839.52 669.161 839.818 669.628C840.117 670.085 840.336 670.617 840.476 671.224C840.616 671.831 840.686 672.479 840.686 673.17C840.686 673.851 840.616 674.495 840.476 675.102C840.336 675.709 840.117 676.245 839.818 676.712C839.52 677.179 839.132 677.543 838.656 677.804C838.19 678.065 837.625 678.196 836.962 678.196ZM836.962 677.076C837.429 677.076 837.816 676.973 838.124 676.768C838.432 676.553 838.675 676.264 838.852 675.9C839.039 675.527 839.17 675.107 839.244 674.64C839.328 674.173 839.37 673.683 839.37 673.17C839.37 672.657 839.328 672.167 839.244 671.7C839.17 671.224 839.039 670.804 838.852 670.44C838.675 670.076 838.432 669.787 838.124 669.572C837.816 669.357 837.429 669.25 836.962 669.25C836.505 669.25 836.118 669.357 835.8 669.572C835.492 669.787 835.245 670.076 835.058 670.44C834.881 670.804 834.75 671.224 834.666 671.7C834.592 672.167 834.554 672.657 834.554 673.17C834.554 673.683 834.592 674.173 834.666 674.64C834.75 675.107 834.881 675.527 835.058 675.9C835.245 676.264 835.492 676.553 835.8 676.768C836.118 676.973 836.505 677.076 836.962 677.076ZM843.262 671.714H841.946C841.946 671.042 842.068 670.435 842.31 669.894C842.562 669.353 842.945 668.923 843.458 668.606C843.981 668.289 844.639 668.13 845.432 668.13C845.983 668.13 846.492 668.242 846.958 668.466C847.425 668.69 847.798 669.021 848.078 669.46C848.368 669.889 848.512 670.412 848.512 671.028C848.512 671.495 848.428 671.91 848.26 672.274C848.092 672.629 847.864 672.946 847.574 673.226C847.294 673.497 846.982 673.744 846.636 673.968C846.291 674.192 845.941 674.407 845.586 674.612C845.222 674.817 844.872 675.032 844.536 675.256C844.21 675.471 843.925 675.709 843.682 675.97C843.449 676.222 843.286 676.516 843.192 676.852V676.88H848.372V678H841.666C841.666 677.123 841.923 676.339 842.436 675.648C842.959 674.957 843.664 674.355 844.55 673.842C844.998 673.581 845.39 673.352 845.726 673.156C846.062 672.96 846.338 672.769 846.552 672.582C846.767 672.386 846.926 672.171 847.028 671.938C847.14 671.695 847.196 671.397 847.196 671.042C847.196 670.771 847.15 670.501 847.056 670.23C846.963 669.95 846.786 669.717 846.524 669.53C846.272 669.343 845.899 669.25 845.404 669.25C844.844 669.25 844.406 669.362 844.088 669.586C843.78 669.81 843.566 670.109 843.444 670.482C843.323 670.855 843.262 671.266 843.262 671.714ZM851.125 671.224H849.809C849.809 670.627 849.94 670.099 850.201 669.642C850.463 669.175 850.855 668.807 851.377 668.536C851.909 668.265 852.572 668.13 853.365 668.13C853.916 668.13 854.425 668.237 854.891 668.452C855.367 668.657 855.75 668.961 856.039 669.362C856.329 669.754 856.473 670.235 856.473 670.804C856.473 671.317 856.347 671.742 856.095 672.078C855.853 672.405 855.484 672.666 854.989 672.862V672.89C855.643 673.095 856.109 673.403 856.389 673.814C856.679 674.225 856.823 674.715 856.823 675.284C856.823 676.208 856.511 676.927 855.885 677.44C855.26 677.944 854.429 678.196 853.393 678.196C852.161 678.196 851.214 677.893 850.551 677.286C849.889 676.67 849.557 675.816 849.557 674.724H850.873C850.873 675.191 850.948 675.601 851.097 675.956C851.247 676.311 851.494 676.586 851.839 676.782C852.194 676.978 852.679 677.076 853.295 677.076C854.126 677.076 854.7 676.917 855.017 676.6C855.344 676.273 855.507 675.835 855.507 675.284C855.507 674.799 855.405 674.43 855.199 674.178C855.003 673.917 854.751 673.739 854.443 673.646C854.145 673.553 853.837 673.506 853.519 673.506H852.483V672.386H853.463C853.958 672.386 854.364 672.265 854.681 672.022C854.999 671.77 855.157 671.364 855.157 670.804C855.157 670.543 855.097 670.295 854.975 670.062C854.863 669.819 854.677 669.623 854.415 669.474C854.154 669.325 853.804 669.25 853.365 669.25C852.74 669.25 852.264 669.348 851.937 669.544C851.62 669.74 851.405 669.992 851.293 670.3C851.181 670.599 851.125 670.907 851.125 671.224Z" fill="black"/>
<path d="M75.34 454.504C75.9467 454.504 76.4833 454.649 76.95 454.938C77.4167 455.218 77.7807 455.601 78.042 456.086C78.3033 456.562 78.434 457.099 78.434 457.696C78.434 458.387 78.28 458.998 77.972 459.53C77.664 460.053 77.2487 460.463 76.726 460.762C76.2033 461.051 75.6153 461.196 74.962 461.196C74.2247 461.196 73.5993 461.056 73.086 460.776C72.5727 460.496 72.176 460.127 71.896 459.67C71.6253 459.213 71.4807 458.727 71.462 458.214H72.778C72.8153 458.522 72.904 458.821 73.044 459.11C73.184 459.39 73.4033 459.623 73.702 459.81C74.0007 459.987 74.402 460.076 74.906 460.076C75.5687 460.076 76.1007 459.875 76.502 459.474C76.9127 459.063 77.118 458.471 77.118 457.696C77.118 456.968 76.9267 456.441 76.544 456.114C76.1707 455.787 75.6713 455.624 75.046 455.624C74.6167 455.624 74.2153 455.699 73.842 455.848C73.478 455.988 73.1747 456.217 72.932 456.534H71.588L72.596 451.326H77.916V452.446H73.618L73.044 455.372V455.4C73.2867 455.12 73.5947 454.901 73.968 454.742C74.3413 454.583 74.7987 454.504 75.34 454.504Z" fill="black"/>
<path d="M73.772 261.326H74.752V271H73.492V263.622C73.2867 263.827 73.0067 263.958 72.652 264.014C72.3067 264.07 71.9147 264.098 71.476 264.098V263.048C72.0827 263.029 72.54 262.959 72.848 262.838C73.156 262.707 73.3753 262.521 73.506 262.278C73.6367 262.026 73.7253 261.709 73.772 261.326ZM80.1831 271.196C79.5205 271.196 78.9511 271.065 78.4751 270.804C78.0085 270.543 77.6258 270.179 77.3271 269.712C77.0285 269.245 76.8091 268.709 76.6691 268.102C76.5291 267.495 76.4591 266.851 76.4591 266.17C76.4591 265.479 76.5291 264.831 76.6691 264.224C76.8091 263.617 77.0285 263.085 77.3271 262.628C77.6258 262.161 78.0085 261.797 78.4751 261.536C78.9511 261.265 79.5205 261.13 80.1831 261.13C80.8458 261.13 81.4105 261.265 81.8771 261.536C82.3531 261.797 82.7405 262.161 83.0391 262.628C83.3378 263.085 83.5571 263.617 83.6971 264.224C83.8371 264.831 83.9071 265.479 83.9071 266.17C83.9071 266.851 83.8371 267.495 83.6971 268.102C83.5571 268.709 83.3378 269.245 83.0391 269.712C82.7405 270.179 82.3531 270.543 81.8771 270.804C81.4105 271.065 80.8458 271.196 80.1831 271.196ZM80.1831 270.076C80.6498 270.076 81.0371 269.973 81.3451 269.768C81.6531 269.553 81.8958 269.264 82.0731 268.9C82.2598 268.527 82.3905 268.107 82.4651 267.64C82.5491 267.173 82.5911 266.683 82.5911 266.17C82.5911 265.657 82.5491 265.167 82.4651 264.7C82.3905 264.224 82.2598 263.804 82.0731 263.44C81.8958 263.076 81.6531 262.787 81.3451 262.572C81.0371 262.357 80.6498 262.25 80.1831 262.25C79.7258 262.25 79.3385 262.357 79.0211 262.572C78.7131 262.787 78.4658 263.076 78.2791 263.44C78.1018 263.804 77.9711 264.224 77.8871 264.7C77.8125 265.167 77.7751 265.657 77.7751 266.17C77.7751 266.683 77.8125 267.173 77.8871 267.64C77.9711 268.107 78.1018 268.527 78.2791 268.9C78.4658 269.264 78.7131 269.553 79.0211 269.768C79.3385 269.973 79.7258 270.076 80.1831 270.076Z" fill="black"/>
<path d="M425.898 614.365C441.519 607.595 530.735 575.309 547.76 575.309C564.784 575.309 600.93 534.572 640.763 521.182C672.056 510.663 714.05 510.651 724.145 507.263C734.241 503.876 741.014 497.046 752.474 491.799C820.417 460.687 880.011 530.681 943.826 491.799C984.463 467.038 1021 397.498 1021 397.498" stroke="#FF7E3D"/>
<rect x="946.996" y="486.917" width="8.22246" height="8.22246" rx="4.11123" transform="rotate(90 946.996 486.917)" fill="#FF7E3D"/>
<rect x="755.824" y="487.945" width="8.22246" height="8.22246" rx="4.11123" transform="rotate(90 755.824 487.945)" fill="#FF7E3D"/>
<rect x="728.074" y="502.334" width="8.22246" height="8.22246" rx="4.11123" transform="rotate(90 728.074 502.334)" fill="#FF7E3D"/>
<rect x="644.822" y="517.752" width="8.22246" height="8.22246" rx="4.11123" transform="rotate(90 644.822 517.752)" fill="#FF7E3D"/>
<rect x="550.264" y="571.197" width="8.22246" height="8.22246" rx="4.11123" transform="rotate(90 550.264 571.197)" fill="#FF7E3D"/>
<path d="M1021 362.552C1005.58 384.65 967.554 425.248 944.93 454.027C922.305 482.805 821.091 426.276 752.073 454.027C717.612 454.027 446.97 614.365 423.898 614.365C405.431 614.365 183.401 614.365 95.5 614.365" stroke="#F54550"/>
<rect x="755.826" y="449.915" width="8.22246" height="8.22246" rx="4.11123" transform="rotate(90 755.826 449.915)" fill="#F54550"/>
<rect x="948.025" y="449.915" width="8.22246" height="8.22246" rx="4.11123" transform="rotate(90 948.025 449.915)" fill="#F54550"/>
<rect x="427.955" y="609.226" width="8.22246" height="8.22246" rx="4.11123" transform="rotate(90 427.955 609.226)" fill="#F54550"/>
<path d="M1021 92C1021 92 968.763 172.083 953.132 172.083C937.5 172.083 919.961 172.083 891.48 172.083C863 172.083 773 292.709 703.418 292.709C633.835 292.709 662.5 292.709 635.549 292.709C608.599 292.709 624 410.5 579.079 406.828C534.158 403.156 433 555.5 320.039 572C220.048 586.606 180.298 565.951 95.5 569.339" stroke="#236CE6"/>
<rect x="895" y="168" width="8" height="8" rx="4" transform="rotate(90 895 168)" fill="#236CE6"/>
<rect x="956" y="168" width="8" height="8" rx="4" transform="rotate(90 956 168)" fill="#236CE6"/>
<rect x="639" y="289" width="8" height="8" rx="4" transform="rotate(90 639 289)" fill="#236CE6"/>
<rect x="583" y="403" width="8" height="8" rx="4" transform="rotate(90 583 403)" fill="#236CE6"/>
<rect x="324" y="568" width="8" height="8" rx="4" transform="rotate(90 324 568)" fill="#236CE6"/>
<path d="M73.772 67.326H74.752V77H73.492V69.622C73.2867 69.8273 73.0067 69.958 72.652 70.014C72.3067 70.07 71.9147 70.098 71.476 70.098V69.048C72.0827 69.0293 72.54 68.9593 72.848 68.838C73.156 68.7073 73.3753 68.5207 73.506 68.278C73.6367 68.026 73.7253 67.7087 73.772 67.326ZM80.0431 70.504C80.6498 70.504 81.1865 70.6487 81.6531 70.938C82.1198 71.218 82.4838 71.6007 82.7451 72.086C83.0065 72.562 83.1371 73.0987 83.1371 73.696C83.1371 74.3867 82.9831 74.998 82.6751 75.53C82.3671 76.0527 81.9518 76.4633 81.4291 76.762C80.9065 77.0513 80.3185 77.196 79.6651 77.196C78.9278 77.196 78.3025 77.056 77.7891 76.776C77.2758 76.496 76.8791 76.1273 76.5991 75.67C76.3285 75.2127 76.1838 74.7273 76.1651 74.214H77.4811C77.5185 74.522 77.6071 74.8207 77.7471 75.11C77.8871 75.39 78.1065 75.6233 78.4051 75.81C78.7038 75.9873 79.1051 76.076 79.6091 76.076C80.2718 76.076 80.8038 75.8753 81.2051 75.474C81.6158 75.0633 81.8211 74.4707 81.8211 73.696C81.8211 72.968 81.6298 72.4407 81.2471 72.114C80.8738 71.7873 80.3745 71.624 79.7491 71.624C79.3198 71.624 78.9185 71.6987 78.5451 71.848C78.1811 71.988 77.8778 72.2167 77.6351 72.534H76.2911L77.2991 67.326H82.6191V68.446H78.3211L77.7471 71.372V71.4C77.9898 71.12 78.2978 70.9007 78.6711 70.742C79.0445 70.5833 79.5018 70.504 80.0431 70.504Z" fill="black"/>
<path d="M27.99 396.09L27.99 394.83L32.246 394.83L32.246 389.482L27.99 389.482L27.99 388.222L38 388.222L38 389.482L33.366 389.482L33.366 394.83L38 394.83L38 396.09L27.99 396.09ZM38.21 383.455C38.21 384.202 38.0467 384.836 37.72 385.359C37.384 385.872 36.9313 386.264 36.362 386.535C35.7833 386.796 35.1347 386.927 34.416 386.927C33.6507 386.927 32.988 386.787 32.428 386.507C31.868 386.218 31.434 385.812 31.126 385.289C30.8087 384.766 30.65 384.155 30.65 383.455C30.65 382.755 30.7993 382.162 31.098 381.677C31.3873 381.182 31.798 380.804 32.33 380.543C32.8527 380.282 33.464 380.151 34.164 380.151C34.2667 380.151 34.374 380.151 34.486 380.151C34.5887 380.151 34.668 380.156 34.724 380.165L34.724 385.751C35.144 385.742 35.55 385.653 35.942 385.485C36.3247 385.317 36.6373 385.065 36.88 384.729C37.1227 384.393 37.244 383.964 37.244 383.441C37.244 382.974 37.16 382.601 36.992 382.321C36.8147 382.032 36.614 381.812 36.39 381.663C36.166 381.514 35.97 381.42 35.802 381.383L35.802 380.249C36.2407 380.37 36.6467 380.566 37.02 380.837C37.384 381.108 37.6733 381.458 37.888 381.887C38.1027 382.316 38.21 382.839 38.21 383.455ZM31.616 383.511C31.616 383.922 31.7093 384.295 31.896 384.631C32.0733 384.958 32.3207 385.219 32.638 385.415C32.9553 385.611 33.324 385.723 33.744 385.751L33.744 381.341C33.352 381.341 32.9973 381.43 32.68 381.607C32.3533 381.784 32.0967 382.036 31.91 382.363C31.714 382.68 31.616 383.063 31.616 383.511ZM38.196 376.905C38.196 377.624 38.0093 378.198 37.636 378.627C37.2533 379.047 36.7633 379.257 36.166 379.257C35.6153 379.257 35.186 379.131 34.878 378.879C34.57 378.627 34.332 378.272 34.164 377.815C33.996 377.358 33.856 376.821 33.744 376.205C33.632 375.598 33.5153 375.15 33.394 374.861C33.2633 374.572 33.0253 374.427 32.68 374.427C32.4 374.427 32.1573 374.53 31.952 374.735C31.7373 374.931 31.63 375.323 31.63 375.911C31.63 376.592 31.742 377.059 31.966 377.311C32.1807 377.554 32.5493 377.694 33.072 377.731L33.072 378.907C32.6147 378.879 32.204 378.762 31.84 378.557C31.476 378.342 31.1867 378.016 30.972 377.577C30.7573 377.138 30.65 376.569 30.65 375.869C30.65 375.421 30.72 375.006 30.86 374.623C31 374.24 31.238 373.932 31.574 373.699C31.91 373.456 32.372 373.335 32.96 373.335L36.39 373.335C36.67 373.335 36.88 373.312 37.02 373.265C37.16 373.209 37.23 373.111 37.23 372.971C37.23 372.952 37.23 372.929 37.23 372.901C37.23 372.873 37.2253 372.84 37.216 372.803L38 372.803C38.0187 372.896 38.0327 372.985 38.042 373.069C38.0607 373.153 38.07 373.246 38.07 373.349C38.07 373.657 37.9953 373.904 37.846 374.091C37.6873 374.268 37.3887 374.376 36.95 374.413L36.95 374.441C37.3327 374.674 37.636 374.996 37.86 375.407C38.084 375.808 38.196 376.308 38.196 376.905ZM37.216 376.793C37.216 376.121 37.0573 375.561 36.74 375.113C36.4227 374.656 35.9233 374.427 35.242 374.427L34.108 374.427C34.22 374.53 34.3227 374.74 34.416 375.057C34.5093 375.374 34.5933 375.724 34.668 376.107C34.8173 376.798 34.9947 377.302 35.2 377.619C35.396 377.927 35.6993 378.081 36.11 378.081C36.4553 378.081 36.726 377.983 36.922 377.787C37.118 377.582 37.216 377.25 37.216 376.793ZM31.784 366.565L31.784 366.537L27.99 366.537L27.99 365.417L38 365.417L38 366.537L37.118 366.537L37.118 366.565C37.3887 366.77 37.636 367.05 37.86 367.405C38.084 367.759 38.196 368.226 38.196 368.805C38.196 369.402 38.0467 369.943 37.748 370.429C37.4493 370.914 37.02 371.301 36.46 371.591C35.8907 371.88 35.214 372.025 34.43 372.025C33.646 372.025 32.974 371.88 32.414 371.591C31.8447 371.301 31.4107 370.914 31.112 370.429C30.8133 369.943 30.664 369.402 30.664 368.805C30.664 368.226 30.776 367.759 31 367.405C31.2147 367.05 31.476 366.77 31.784 366.565ZM37.216 368.693C37.216 368.03 36.964 367.507 36.46 367.125C35.9467 366.733 35.27 366.537 34.43 366.537C33.59 366.537 32.918 366.733 32.414 367.125C31.9007 367.507 31.644 368.03 31.644 368.693C31.644 369.178 31.7793 369.584 32.05 369.911C32.3207 370.228 32.6707 370.466 33.1 370.625C33.52 370.774 33.9633 370.849 34.43 370.849C34.8967 370.849 35.3447 370.774 35.774 370.625C36.194 370.466 36.5393 370.228 36.81 369.911C37.0807 369.584 37.216 369.178 37.216 368.693ZM33.436 358.786C33.1747 358.805 32.9087 358.88 32.638 359.01C32.358 359.132 32.1247 359.332 31.938 359.612C31.742 359.892 31.644 360.27 31.644 360.746C31.644 361.306 31.784 361.754 32.064 362.09C32.344 362.426 32.6987 362.669 33.128 362.818C33.548 362.958 33.982 363.028 34.43 363.028C34.878 363.028 35.3167 362.958 35.746 362.818C36.1753 362.669 36.53 362.426 36.81 362.09C37.0807 361.754 37.216 361.306 37.216 360.746C37.216 360.261 37.1227 359.883 36.936 359.612C36.74 359.332 36.502 359.132 36.222 359.01C35.9327 358.88 35.648 358.805 35.368 358.786L35.368 357.61C35.9093 357.638 36.3947 357.792 36.824 358.072C37.244 358.343 37.58 358.712 37.832 359.178C38.0747 359.636 38.196 360.158 38.196 360.746C38.196 361.437 38.0373 362.044 37.72 362.566C37.4027 363.089 36.964 363.495 36.404 363.784C35.8347 364.064 35.1767 364.204 34.43 364.204C33.6833 364.204 33.03 364.064 32.47 363.784C31.9007 363.495 31.4573 363.089 31.14 362.566C30.8227 362.044 30.664 361.437 30.664 360.746C30.664 360.158 30.7853 359.64 31.028 359.192C31.2613 358.735 31.588 358.371 32.008 358.1C32.428 357.83 32.904 357.666 33.436 357.61L33.436 358.786ZM38.21 353.253C38.21 353.981 38.0513 354.607 37.734 355.129C37.4073 355.652 36.9593 356.053 36.39 356.333C35.8207 356.613 35.1673 356.753 34.43 356.753C33.6833 356.753 33.03 356.613 32.47 356.333C31.9007 356.053 31.4573 355.652 31.14 355.129C30.8133 354.607 30.65 353.981 30.65 353.253C30.65 352.525 30.8133 351.905 31.14 351.391C31.4573 350.869 31.9007 350.467 32.47 350.187C33.03 349.907 33.6833 349.767 34.43 349.767C35.1673 349.767 35.8207 349.907 36.39 350.187C36.9593 350.467 37.4073 350.869 37.734 351.391C38.0513 351.905 38.21 352.525 38.21 353.253ZM37.23 353.253C37.23 352.721 37.104 352.287 36.852 351.951C36.5907 351.606 36.25 351.354 35.83 351.195C35.4007 351.027 34.934 350.943 34.43 350.943C33.9167 350.943 33.45 351.027 33.03 351.195C32.61 351.354 32.274 351.606 32.022 351.951C31.7607 352.287 31.63 352.721 31.63 353.253C31.63 353.785 31.7607 354.224 32.022 354.569C32.274 354.915 32.61 355.171 33.03 355.339C33.45 355.498 33.9167 355.577 34.43 355.577C34.934 355.577 35.4007 355.498 35.83 355.339C36.25 355.171 36.5907 354.915 36.852 354.569C37.104 354.224 37.23 353.785 37.23 353.253ZM35.564 347.492C36.0213 347.492 36.4133 347.376 36.74 347.142C37.0573 346.9 37.216 346.498 37.216 345.938C37.216 345.304 37.0387 344.795 36.684 344.412C36.32 344.03 35.8627 343.838 35.312 343.838L30.86 343.838L30.86 342.718L38 342.718L38 343.838L37.146 343.838L37.146 343.866C37.398 344.053 37.636 344.342 37.86 344.734C38.084 345.117 38.196 345.612 38.196 346.218C38.196 346.648 38.1167 347.044 37.958 347.408C37.79 347.772 37.5333 348.066 37.188 348.29C36.8333 348.505 36.3853 348.612 35.844 348.612L30.86 348.612L30.86 347.492L35.564 347.492ZM38 341.105L30.86 341.105L30.86 339.985L31.714 339.985L31.714 339.957C31.462 339.77 31.224 339.486 31 339.103C30.776 338.711 30.664 338.212 30.664 337.605C30.664 337.166 30.748 336.77 30.916 336.415C31.0747 336.051 31.3267 335.762 31.672 335.547C32.0173 335.323 32.4653 335.211 33.016 335.211L38 335.211L38 336.331L33.296 336.331C32.8293 336.331 32.4373 336.452 32.12 336.695C31.8027 336.928 31.644 337.325 31.644 337.885C31.644 338.51 31.826 339.019 32.19 339.411C32.5447 339.794 32.9973 339.985 33.548 339.985L38 339.985L38 341.105ZM30.86 334.363L30.86 333.313L28.48 333.313L28.48 332.193L30.86 332.193L30.86 330.793L31.84 330.793L31.84 332.193L36.138 332.193C36.5113 332.193 36.7633 332.137 36.894 332.025C37.0247 331.913 37.09 331.698 37.09 331.381C37.09 331.259 37.0853 331.161 37.076 331.087C37.0667 331.012 37.0573 330.914 37.048 330.793L38 330.793C38.028 330.951 38.0467 331.082 38.056 331.185C38.0653 331.287 38.07 331.404 38.07 331.535C38.07 331.88 38.0187 332.188 37.916 332.459C37.804 332.729 37.608 332.939 37.328 333.089C37.0387 333.238 36.6233 333.313 36.082 333.313L31.84 333.313L31.84 334.363L30.86 334.363Z" fill="black"/>
<line opacity="0.35" x1="778.5" y1="391" x2="778.5" y2="447" stroke="#F54550"/>
<line opacity="0.35" x1="856.5" y1="138" x2="856.5" y2="194" stroke="#236CE6"/>
<line opacity="0.35" x1="587.5" y1="496" x2="587.5" y2="552" stroke="#FF7E3D"/>
</svg>
