<svg width="1007" height="731" viewBox="0 0 1007 731" fill="none" xmlns="http://www.w3.org/2000/svg">
<line opacity="0.35" x1="55" y1="7.5" x2="977" y2="7.5" stroke="black"/>
<path opacity="0.35" d="M56 176.5H977" stroke="black"/>
<line opacity="0.35" x1="232.5" y1="8" x2="232.5" y2="682" stroke="black"/>
<line opacity="0.35" x1="55.5" y1="8" x2="55.5" y2="682" stroke="black"/>
<line opacity="0.35" x1="406.5" y1="8" x2="406.5" y2="682" stroke="black"/>
<line opacity="0.35" x1="580.5" y1="8" x2="580.5" y2="682" stroke="black"/>
<line opacity="0.35" x1="754.5" y1="8" x2="754.5" y2="682" stroke="black"/>
<line opacity="0.35" x1="928.5" y1="8" x2="928.5" y2="682" stroke="black"/>
<line opacity="0.35" x1="55" y1="682.5" x2="977" y2="682.5" stroke="black"/>
<path opacity="0.35" d="M56 345.5H977" stroke="black"/>
<path opacity="0.35" d="M56 514.5H977" stroke="black"/>
<path d="M21.0254 727.528C20.278 727.975 19.4235 728.198 18.4619 728.198C17.5003 728.198 16.6458 727.975 15.8984 727.528C15.151 727.077 14.5745 726.457 14.1689 725.669C13.7633 724.881 13.5605 723.987 13.5605 722.989C13.5605 721.991 13.7633 721.1 14.1689 720.316C14.5745 719.528 15.151 718.91 15.8984 718.464C16.6458 718.017 17.5003 717.794 18.4619 717.794C19.4235 717.794 20.278 718.017 21.0254 718.464C21.7728 718.91 22.3493 719.528 22.7549 720.316C23.1605 721.1 23.3633 721.991 23.3633 722.989C23.3633 723.987 23.1605 724.881 22.7549 725.669C22.3493 726.457 21.7728 727.077 21.0254 727.528ZM18.4619 727.077C19.0726 727.077 19.6149 726.968 20.0889 726.749C20.5628 726.526 20.9434 726.223 21.2305 725.84C21.5176 725.452 21.734 725.02 21.8799 724.541C22.0257 724.058 22.0986 723.541 22.0986 722.989C22.0986 722.438 22.0257 721.923 21.8799 721.444C21.734 720.961 21.5176 720.531 21.2305 720.152C20.9434 719.77 20.5628 719.469 20.0889 719.25C19.6149 719.027 19.0726 718.915 18.4619 718.915C17.9697 718.915 17.5208 718.988 17.1152 719.134C16.7096 719.28 16.3656 719.478 16.083 719.729C15.805 719.979 15.568 720.278 15.3721 720.624C15.1807 720.97 15.0394 721.342 14.9482 721.738C14.8617 722.135 14.8184 722.552 14.8184 722.989C14.8184 723.427 14.8617 723.844 14.9482 724.24C15.0394 724.637 15.1807 725.01 15.3721 725.361C15.568 725.708 15.805 726.008 16.083 726.264C16.3656 726.514 16.7096 726.713 17.1152 726.858C17.5208 727.004 17.9697 727.077 18.4619 727.077ZM29.7617 723.434C29.748 723.224 29.7002 723.019 29.6182 722.818C29.5407 722.618 29.4245 722.426 29.2695 722.244C29.1191 722.062 28.9118 721.916 28.6475 721.807C28.3877 721.697 28.0869 721.643 27.7451 721.643C27.417 721.643 27.1185 721.697 26.8496 721.807C26.5853 721.911 26.3643 722.055 26.1865 722.237C26.0133 722.415 25.8652 722.627 25.7422 722.873C25.6237 723.115 25.5371 723.365 25.4824 723.625C25.4323 723.885 25.4072 724.154 25.4072 724.432C25.4072 724.783 25.4505 725.118 25.5371 725.437C25.6237 725.756 25.7559 726.052 25.9336 726.325C26.1113 726.594 26.3551 726.811 26.665 726.975C26.9795 727.134 27.3395 727.214 27.7451 727.214C28.0915 727.214 28.3945 727.159 28.6543 727.05C28.9186 726.94 29.126 726.795 29.2764 726.612C29.4268 726.425 29.5407 726.229 29.6182 726.024C29.7002 725.815 29.748 725.596 29.7617 725.368H30.8828C30.8327 726.188 30.516 726.865 29.9326 727.398C29.3493 727.932 28.6201 728.198 27.7451 728.198C26.7061 728.198 25.8698 727.852 25.2363 727.159C24.6029 726.466 24.2861 725.557 24.2861 724.432C24.2861 723.306 24.6029 722.397 25.2363 721.704C25.8698 721.011 26.7061 720.665 27.7451 720.665C28.611 720.665 29.3288 720.925 29.8984 721.444C30.4681 721.959 30.7962 722.622 30.8828 723.434H29.7617ZM35.0596 721.841H33.6582V726.141C33.6582 726.528 33.7653 726.781 33.9795 726.899C34.1937 727.018 34.5537 727.059 35.0596 727.022V728C34.8089 728.055 34.5286 728.082 34.2188 728.082C33.6901 728.082 33.2777 727.948 32.9814 727.679C32.6898 727.405 32.5439 726.929 32.5439 726.25V721.841H31.4912V720.863H32.5439V718.478H33.6582V720.863H35.0596V721.841ZM39.2568 728.198C38.1813 728.198 37.3291 727.854 36.7002 727.166C36.0713 726.473 35.7568 725.562 35.7568 724.432C35.7568 723.301 36.0713 722.392 36.7002 721.704C37.3291 721.011 38.1813 720.665 39.2568 720.665C40.3278 720.665 41.1755 721.011 41.7998 721.704C42.4287 722.397 42.7432 723.306 42.7432 724.432C42.7432 725.557 42.4287 726.466 41.7998 727.159C41.1755 727.852 40.3278 728.198 39.2568 728.198ZM39.2568 727.214C40.0179 727.214 40.6012 726.952 41.0068 726.428C41.417 725.904 41.6221 725.238 41.6221 724.432C41.6221 723.625 41.417 722.96 41.0068 722.436C40.6012 721.907 40.0179 721.643 39.2568 721.643C38.4867 721.643 37.8965 721.907 37.4863 722.436C37.0807 722.96 36.8779 723.625 36.8779 724.432C36.8779 725.238 37.0807 725.904 37.4863 726.428C37.8965 726.952 38.4867 727.214 39.2568 727.214ZM47.2617 720.665C47.7083 720.665 48.1276 720.752 48.5195 720.925C48.9115 721.098 49.251 721.344 49.5381 721.663C49.8298 721.982 50.0599 722.381 50.2285 722.859C50.3971 723.333 50.4814 723.857 50.4814 724.432C50.4814 725.006 50.3971 725.532 50.2285 726.011C50.0599 726.485 49.8298 726.881 49.5381 727.2C49.251 727.519 48.9115 727.765 48.5195 727.938C48.1276 728.112 47.7083 728.198 47.2617 728.198C46.3184 728.198 45.5732 727.838 45.0264 727.118H44.9922V728H43.8779V717.992H44.9922V721.786H45.0264C45.5322 721.039 46.2773 720.665 47.2617 720.665ZM47.1523 727.214C47.6217 727.214 48.0273 727.077 48.3691 726.804C48.7109 726.53 48.9616 726.188 49.1211 725.778C49.2806 725.364 49.3604 724.915 49.3604 724.432C49.3604 723.949 49.2806 723.5 49.1211 723.085C48.9616 722.67 48.7109 722.326 48.3691 722.053C48.0273 721.779 47.6217 721.643 47.1523 721.643C46.4915 721.643 45.9652 721.896 45.5732 722.401C45.1859 722.907 44.9922 723.584 44.9922 724.432C44.9922 725.275 45.1859 725.949 45.5732 726.455C45.9606 726.961 46.487 727.214 47.1523 727.214ZM54.6514 727.214C54.9248 727.214 55.1755 727.18 55.4033 727.111C55.6312 727.043 55.818 726.959 55.9639 726.858C56.1143 726.758 56.2441 726.642 56.3535 726.51C56.4674 726.378 56.5518 726.255 56.6064 726.141C56.6657 726.022 56.709 725.908 56.7363 725.799H57.8574C57.6615 726.514 57.2946 727.093 56.7568 727.535C56.2236 727.977 55.5355 728.198 54.6924 728.198C53.6214 728.198 52.7715 727.854 52.1426 727.166C51.5182 726.478 51.2061 725.566 51.2061 724.432C51.2061 723.251 51.5137 722.328 52.1289 721.663C52.7487 720.998 53.585 720.665 54.6377 720.665C55.7406 720.665 56.57 721.018 57.126 721.725C57.6865 722.431 57.9668 723.431 57.9668 724.726H52.3271C52.3271 725.168 52.4092 725.573 52.5732 725.942C52.7419 726.312 53.0062 726.617 53.3662 726.858C53.7262 727.095 54.1546 727.214 54.6514 727.214ZM54.6377 721.643C53.9723 721.643 53.4209 721.848 52.9834 722.258C52.5459 722.663 52.3271 723.158 52.3271 723.741H56.8525C56.8525 723.153 56.6475 722.657 56.2373 722.251C55.8271 721.845 55.2939 721.643 54.6377 721.643ZM62.1982 720.665C62.4398 720.665 62.6608 720.679 62.8613 720.706V721.827H62.834C62.0729 721.704 61.4417 721.875 60.9404 722.34C60.4437 722.8 60.1953 723.418 60.1953 724.192V728H59.0811V720.863H60.1953V722.271H60.2295C60.4346 721.761 60.6921 721.367 61.002 721.089C61.3164 720.806 61.7152 720.665 62.1982 720.665ZM67.8857 721.711H66.6211C66.6211 721.201 66.6917 720.731 66.833 720.303C66.9743 719.874 67.1839 719.498 67.4619 719.175C67.7399 718.847 68.1045 718.591 68.5557 718.409C69.0068 718.222 69.5241 718.129 70.1074 718.129C70.668 718.129 71.1784 718.241 71.6387 718.464C72.099 718.683 72.4727 719.015 72.7598 719.462C73.0469 719.909 73.1904 720.43 73.1904 721.027C73.1904 721.479 73.1038 721.893 72.9307 722.271C72.7575 722.645 72.5273 722.966 72.2402 723.235C71.9531 723.5 71.6341 723.748 71.2832 723.98C70.9368 724.213 70.5814 724.434 70.2168 724.644C69.8522 724.849 69.5104 725.056 69.1914 725.266C68.8724 725.471 68.5921 725.71 68.3506 725.983C68.1136 726.252 67.9541 726.542 67.8721 726.852V726.879H73.0469V728H66.3408C66.3408 726.355 67.3024 724.969 69.2256 723.844C69.3577 723.766 69.5264 723.668 69.7314 723.55C69.9411 723.431 70.0983 723.342 70.2031 723.283C70.3079 723.224 70.4401 723.144 70.5996 723.044C70.7637 722.944 70.8844 722.864 70.9619 722.805C71.0394 722.745 71.1351 722.67 71.249 722.579C71.363 722.488 71.4473 722.406 71.502 722.333C71.5566 722.26 71.6182 722.174 71.6865 722.073C71.7549 721.973 71.8027 721.873 71.8301 721.772C71.8574 721.672 71.8802 721.561 71.8984 721.438C71.9212 721.314 71.9326 721.182 71.9326 721.041C71.9326 720.818 71.903 720.608 71.8438 720.412C71.7891 720.216 71.6956 720.027 71.5635 719.845C71.4359 719.662 71.2445 719.519 70.9893 719.414C70.734 719.305 70.431 719.25 70.0801 719.25C68.6172 719.25 67.8857 720.07 67.8857 721.711ZM79.4316 727.938C79.0124 728.112 78.5452 728.198 78.0303 728.198C77.5153 728.198 77.0482 728.112 76.6289 727.938C76.2096 727.765 75.8564 727.526 75.5693 727.221C75.2868 726.915 75.0475 726.551 74.8516 726.127C74.6602 725.699 74.5212 725.238 74.4346 724.746C74.348 724.254 74.3047 723.728 74.3047 723.167C74.3047 722.606 74.348 722.08 74.4346 721.588C74.5212 721.096 74.6602 720.638 74.8516 720.214C75.0475 719.785 75.2868 719.419 75.5693 719.113C75.8564 718.808 76.2096 718.569 76.6289 718.396C77.0482 718.218 77.5153 718.129 78.0303 718.129C78.5452 718.129 79.0124 718.218 79.4316 718.396C79.8509 718.569 80.2018 718.808 80.4844 719.113C80.7715 719.419 81.0107 719.785 81.2021 720.214C81.3981 720.638 81.5394 721.096 81.626 721.588C81.7126 722.08 81.7559 722.606 81.7559 723.167C81.7559 723.728 81.7126 724.254 81.626 724.746C81.5394 725.238 81.3981 725.699 81.2021 726.127C81.0107 726.551 80.7715 726.915 80.4844 727.221C80.2018 727.526 79.8509 727.765 79.4316 727.938ZM78.0303 727.077C78.4769 727.077 78.862 726.972 79.1855 726.763C79.5137 726.553 79.7689 726.261 79.9512 725.888C80.138 725.514 80.2747 725.104 80.3613 724.657C80.4479 724.206 80.4912 723.709 80.4912 723.167C80.4912 722.625 80.4479 722.13 80.3613 721.684C80.2747 721.232 80.138 720.82 79.9512 720.446C79.7689 720.073 79.5137 719.781 79.1855 719.571C78.862 719.357 78.4769 719.25 78.0303 719.25C77.5837 719.25 77.1963 719.357 76.8682 719.571C76.54 719.781 76.2826 720.073 76.0957 720.446C75.9134 720.82 75.779 721.232 75.6924 721.684C75.6058 722.135 75.5625 722.629 75.5625 723.167C75.5625 723.595 75.5876 723.996 75.6377 724.37C75.6924 724.739 75.779 725.092 75.8975 725.43C76.0205 725.767 76.1755 726.056 76.3623 726.298C76.5492 726.535 76.7839 726.724 77.0664 726.865C77.349 727.007 77.6702 727.077 78.0303 727.077ZM84.2783 721.711H83.0137C83.0137 721.201 83.0843 720.731 83.2256 720.303C83.3669 719.874 83.5765 719.498 83.8545 719.175C84.1325 718.847 84.4971 718.591 84.9482 718.409C85.3994 718.222 85.9167 718.129 86.5 718.129C87.0605 718.129 87.571 718.241 88.0312 718.464C88.4915 718.683 88.8652 719.015 89.1523 719.462C89.4395 719.909 89.583 720.43 89.583 721.027C89.583 721.479 89.4964 721.893 89.3232 722.271C89.1501 722.645 88.9199 722.966 88.6328 723.235C88.3457 723.5 88.0267 723.748 87.6758 723.98C87.3294 724.213 86.974 724.434 86.6094 724.644C86.2448 724.849 85.903 725.056 85.584 725.266C85.265 725.471 84.9847 725.71 84.7432 725.983C84.5062 726.252 84.3467 726.542 84.2646 726.852V726.879H89.4395V728H82.7334C82.7334 726.355 83.695 724.969 85.6182 723.844C85.7503 723.766 85.9189 723.668 86.124 723.55C86.3337 723.431 86.4909 723.342 86.5957 723.283C86.7005 723.224 86.8327 723.144 86.9922 723.044C87.1562 722.944 87.277 722.864 87.3545 722.805C87.432 722.745 87.5277 722.67 87.6416 722.579C87.7555 722.488 87.8398 722.406 87.8945 722.333C87.9492 722.26 88.0107 722.174 88.0791 722.073C88.1475 721.973 88.1953 721.873 88.2227 721.772C88.25 721.672 88.2728 721.561 88.291 721.438C88.3138 721.314 88.3252 721.182 88.3252 721.041C88.3252 720.818 88.2956 720.608 88.2363 720.412C88.1816 720.216 88.0882 720.027 87.9561 719.845C87.8285 719.662 87.637 719.519 87.3818 719.414C87.1266 719.305 86.8236 719.25 86.4727 719.25C85.0098 719.25 84.2783 720.07 84.2783 721.711ZM92.0576 721.711H90.793C90.793 721.201 90.8636 720.731 91.0049 720.303C91.1462 719.874 91.3558 719.498 91.6338 719.175C91.9118 718.847 92.2764 718.591 92.7275 718.409C93.1787 718.222 93.696 718.129 94.2793 718.129C94.8398 718.129 95.3503 718.241 95.8105 718.464C96.2708 718.683 96.6445 719.015 96.9316 719.462C97.2188 719.909 97.3623 720.43 97.3623 721.027C97.3623 721.479 97.2757 721.893 97.1025 722.271C96.9294 722.645 96.6992 722.966 96.4121 723.235C96.125 723.5 95.806 723.748 95.4551 723.98C95.1087 724.213 94.7533 724.434 94.3887 724.644C94.0241 724.849 93.6823 725.056 93.3633 725.266C93.0443 725.471 92.764 725.71 92.5225 725.983C92.2855 726.252 92.126 726.542 92.0439 726.852V726.879H97.2188V728H90.5127C90.5127 726.355 91.4743 724.969 93.3975 723.844C93.5296 723.766 93.6982 723.668 93.9033 723.55C94.113 723.431 94.2702 723.342 94.375 723.283C94.4798 723.224 94.612 723.144 94.7715 723.044C94.9355 722.944 95.0563 722.864 95.1338 722.805C95.2113 722.745 95.307 722.67 95.4209 722.579C95.5348 722.488 95.6191 722.406 95.6738 722.333C95.7285 722.26 95.79 722.174 95.8584 722.073C95.9268 721.973 95.9746 721.873 96.002 721.772C96.0293 721.672 96.0521 721.561 96.0703 721.438C96.0931 721.314 96.1045 721.182 96.1045 721.041C96.1045 720.818 96.0749 720.608 96.0156 720.412C95.9609 720.216 95.8675 720.027 95.7354 719.845C95.6077 719.662 95.4163 719.519 95.1611 719.414C94.9059 719.305 94.6029 719.25 94.252 719.25C92.7891 719.25 92.0576 720.07 92.0576 721.711Z" fill="black"/>
<path d="M43.7422 686.938C43.3229 687.112 42.8558 687.198 42.3408 687.198C41.8258 687.198 41.3587 687.112 40.9395 686.938C40.5202 686.765 40.167 686.526 39.8799 686.221C39.5973 685.915 39.3581 685.551 39.1621 685.127C38.9707 684.699 38.8317 684.238 38.7451 683.746C38.6585 683.254 38.6152 682.728 38.6152 682.167C38.6152 681.606 38.6585 681.08 38.7451 680.588C38.8317 680.096 38.9707 679.638 39.1621 679.214C39.3581 678.785 39.5973 678.419 39.8799 678.113C40.167 677.808 40.5202 677.569 40.9395 677.396C41.3587 677.218 41.8258 677.129 42.3408 677.129C42.8558 677.129 43.3229 677.218 43.7422 677.396C44.1615 677.569 44.5124 677.808 44.7949 678.113C45.082 678.419 45.3213 678.785 45.5127 679.214C45.7087 679.638 45.8499 680.096 45.9365 680.588C46.0231 681.08 46.0664 681.606 46.0664 682.167C46.0664 682.728 46.0231 683.254 45.9365 683.746C45.8499 684.238 45.7087 684.699 45.5127 685.127C45.3213 685.551 45.082 685.915 44.7949 686.221C44.5124 686.526 44.1615 686.765 43.7422 686.938ZM42.3408 686.077C42.7874 686.077 43.1725 685.972 43.4961 685.763C43.8242 685.553 44.0794 685.261 44.2617 684.888C44.4486 684.514 44.5853 684.104 44.6719 683.657C44.7585 683.206 44.8018 682.709 44.8018 682.167C44.8018 681.625 44.7585 681.13 44.6719 680.684C44.5853 680.232 44.4486 679.82 44.2617 679.446C44.0794 679.073 43.8242 678.781 43.4961 678.571C43.1725 678.357 42.7874 678.25 42.3408 678.25C41.8942 678.25 41.5068 678.357 41.1787 678.571C40.8506 678.781 40.5931 679.073 40.4062 679.446C40.224 679.82 40.0895 680.232 40.0029 680.684C39.9163 681.135 39.873 681.629 39.873 682.167C39.873 682.595 39.8981 682.996 39.9482 683.37C40.0029 683.739 40.0895 684.092 40.208 684.43C40.3311 684.767 40.486 685.056 40.6729 685.298C40.8597 685.535 41.0944 685.724 41.377 685.865C41.6595 686.007 41.9808 686.077 42.3408 686.077Z" fill="black"/>
<path d="M43.459 512.506C44.3568 512.506 45.0973 512.811 45.6807 513.422C46.264 514.033 46.5557 514.791 46.5557 515.698C46.5557 516.377 46.4007 516.986 46.0908 517.523C45.7855 518.061 45.3685 518.476 44.8398 518.768C44.3158 519.055 43.7301 519.198 43.083 519.198C42.5452 519.198 42.0553 519.116 41.6133 518.952C41.1712 518.788 40.8066 518.567 40.5195 518.289C40.2324 518.007 40.0068 517.688 39.8428 517.332C39.6833 516.977 39.5967 516.603 39.583 516.211H40.8408C40.8682 516.462 40.9274 516.692 41.0186 516.901C41.1097 517.111 41.2373 517.307 41.4014 517.489C41.57 517.672 41.791 517.815 42.0645 517.92C42.3424 518.025 42.6637 518.077 43.0283 518.077C43.7119 518.077 44.2611 517.87 44.6758 517.455C45.0905 517.04 45.2979 516.455 45.2979 515.698C45.2979 515.001 45.1064 514.481 44.7236 514.14C44.3408 513.798 43.8213 513.627 43.165 513.627C42.2308 513.627 41.5267 513.93 41.0527 514.536H39.7129L40.7178 509.327H46.0361V510.448H41.7363L41.1689 513.374V513.401C41.693 512.804 42.4564 512.506 43.459 512.506Z" fill="black"/>
<path d="M36.2539 340.327H37.2314V350H35.9736V342.761C35.8597 342.87 35.7389 342.961 35.6113 343.034C35.4883 343.107 35.3743 343.164 35.2695 343.205C35.1647 343.242 35.028 343.269 34.8594 343.287C34.6953 343.305 34.5586 343.317 34.4492 343.321C34.3444 343.321 34.1803 343.321 33.957 343.321V342.412C34.3717 342.412 34.7227 342.364 35.0098 342.269C35.2969 342.173 35.5247 342.029 35.6934 341.838C35.862 341.642 35.9873 341.425 36.0693 341.188C36.1559 340.951 36.2174 340.664 36.2539 340.327ZM44.0605 349.938C43.6413 350.112 43.1742 350.198 42.6592 350.198C42.1442 350.198 41.6771 350.112 41.2578 349.938C40.8385 349.765 40.4854 349.526 40.1982 349.221C39.9157 348.915 39.6764 348.551 39.4805 348.127C39.2891 347.699 39.1501 347.238 39.0635 346.746C38.9769 346.254 38.9336 345.728 38.9336 345.167C38.9336 344.606 38.9769 344.08 39.0635 343.588C39.1501 343.096 39.2891 342.638 39.4805 342.214C39.6764 341.785 39.9157 341.419 40.1982 341.113C40.4854 340.808 40.8385 340.569 41.2578 340.396C41.6771 340.218 42.1442 340.129 42.6592 340.129C43.1742 340.129 43.6413 340.218 44.0605 340.396C44.4798 340.569 44.8307 340.808 45.1133 341.113C45.4004 341.419 45.6396 341.785 45.8311 342.214C46.027 342.638 46.1683 343.096 46.2549 343.588C46.3415 344.08 46.3848 344.606 46.3848 345.167C46.3848 345.728 46.3415 346.254 46.2549 346.746C46.1683 347.238 46.027 347.699 45.8311 348.127C45.6396 348.551 45.4004 348.915 45.1133 349.221C44.8307 349.526 44.4798 349.765 44.0605 349.938ZM42.6592 349.077C43.1058 349.077 43.4909 348.972 43.8145 348.763C44.1426 348.553 44.3978 348.261 44.5801 347.888C44.7669 347.514 44.9036 347.104 44.9902 346.657C45.0768 346.206 45.1201 345.709 45.1201 345.167C45.1201 344.625 45.0768 344.13 44.9902 343.684C44.9036 343.232 44.7669 342.82 44.5801 342.446C44.3978 342.073 44.1426 341.781 43.8145 341.571C43.4909 341.357 43.1058 341.25 42.6592 341.25C42.2126 341.25 41.8252 341.357 41.4971 341.571C41.1689 341.781 40.9115 342.073 40.7246 342.446C40.5423 342.82 40.4079 343.232 40.3213 343.684C40.2347 344.135 40.1914 344.629 40.1914 345.167C40.1914 345.595 40.2165 345.996 40.2666 346.37C40.3213 346.739 40.4079 347.092 40.5264 347.43C40.6494 347.767 40.8044 348.056 40.9912 348.298C41.1781 348.535 41.4128 348.724 41.6953 348.865C41.9779 349.007 42.2992 349.077 42.6592 349.077Z" fill="black"/>
<path d="M36.7754 172.327H37.7529V182H36.4951V174.761C36.3812 174.87 36.2604 174.961 36.1328 175.034C36.0098 175.107 35.8958 175.164 35.791 175.205C35.6862 175.242 35.5495 175.269 35.3809 175.287C35.2168 175.305 35.0801 175.317 34.9707 175.321C34.8659 175.321 34.7018 175.321 34.4785 175.321V174.412C34.8932 174.412 35.2441 174.364 35.5312 174.269C35.8184 174.173 36.0462 174.029 36.2148 173.838C36.3835 173.642 36.5088 173.425 36.5908 173.188C36.6774 172.951 36.7389 172.664 36.7754 172.327ZM43.0371 175.506C43.9349 175.506 44.6755 175.811 45.2588 176.422C45.8421 177.033 46.1338 177.791 46.1338 178.698C46.1338 179.377 45.9788 179.986 45.6689 180.523C45.3636 181.061 44.9466 181.476 44.418 181.768C43.8939 182.055 43.3083 182.198 42.6611 182.198C42.1234 182.198 41.6335 182.116 41.1914 181.952C40.7493 181.788 40.3848 181.567 40.0977 181.289C39.8105 181.007 39.585 180.688 39.4209 180.332C39.2614 179.977 39.1748 179.603 39.1611 179.211H40.4189C40.4463 179.462 40.5055 179.692 40.5967 179.901C40.6878 180.111 40.8154 180.307 40.9795 180.489C41.1481 180.672 41.3691 180.815 41.6426 180.92C41.9206 181.025 42.2419 181.077 42.6064 181.077C43.29 181.077 43.8392 180.87 44.2539 180.455C44.6686 180.04 44.876 179.455 44.876 178.698C44.876 178.001 44.6846 177.481 44.3018 177.14C43.9189 176.798 43.3994 176.627 42.7432 176.627C41.8089 176.627 41.1048 176.93 40.6309 177.536H39.291L40.2959 172.327H45.6143V173.448H41.3145L40.7471 176.374V176.401C41.2712 175.804 42.0345 175.506 43.0371 175.506Z" fill="black"/>
<path d="M32.5146 6.71094H31.25C31.25 6.20052 31.3206 5.73112 31.4619 5.30273C31.6032 4.87435 31.8128 4.49837 32.0908 4.1748C32.3688 3.84668 32.7334 3.59147 33.1846 3.40918C33.6357 3.22233 34.153 3.12891 34.7363 3.12891C35.2969 3.12891 35.8073 3.24056 36.2676 3.46387C36.7279 3.68262 37.1016 4.0153 37.3887 4.46191C37.6758 4.90853 37.8193 5.43034 37.8193 6.02734C37.8193 6.47852 37.7327 6.89323 37.5596 7.27148C37.3864 7.64518 37.1562 7.96647 36.8691 8.23535C36.582 8.49967 36.263 8.74805 35.9121 8.98047C35.5658 9.21289 35.2103 9.43392 34.8457 9.64355C34.4811 9.84863 34.1393 10.056 33.8203 10.2656C33.5013 10.4707 33.221 10.71 32.9795 10.9834C32.7425 11.2523 32.583 11.5417 32.501 11.8516V11.8789H37.6758V13H30.9697C30.9697 11.3548 31.9313 9.9694 33.8545 8.84375C33.9867 8.76628 34.1553 8.66829 34.3604 8.5498C34.57 8.43132 34.7272 8.34245 34.832 8.2832C34.9368 8.22396 35.069 8.14421 35.2285 8.04395C35.3926 7.94368 35.5133 7.86393 35.5908 7.80469C35.6683 7.74544 35.764 7.67025 35.8779 7.5791C35.9919 7.48796 36.0762 7.40592 36.1309 7.33301C36.1855 7.26009 36.2471 7.1735 36.3154 7.07324C36.3838 6.97298 36.4316 6.87272 36.459 6.77246C36.4863 6.6722 36.5091 6.56055 36.5273 6.4375C36.5501 6.31445 36.5615 6.18229 36.5615 6.04102C36.5615 5.81771 36.5319 5.60807 36.4727 5.41211C36.418 5.21615 36.3245 5.02702 36.1924 4.84473C36.0648 4.66243 35.8734 4.51888 35.6182 4.41406C35.363 4.30469 35.0599 4.25 34.709 4.25C33.2461 4.25 32.5146 5.07031 32.5146 6.71094ZM44.0605 12.9385C43.6413 13.1117 43.1742 13.1982 42.6592 13.1982C42.1442 13.1982 41.6771 13.1117 41.2578 12.9385C40.8385 12.7653 40.4854 12.526 40.1982 12.2207C39.9157 11.9154 39.6764 11.5508 39.4805 11.127C39.2891 10.6986 39.1501 10.2383 39.0635 9.74609C38.9769 9.25391 38.9336 8.72754 38.9336 8.16699C38.9336 7.60645 38.9769 7.08008 39.0635 6.58789C39.1501 6.0957 39.2891 5.6377 39.4805 5.21387C39.6764 4.78548 39.9157 4.41862 40.1982 4.11328C40.4854 3.80794 40.8385 3.56868 41.2578 3.39551C41.6771 3.21777 42.1442 3.12891 42.6592 3.12891C43.1742 3.12891 43.6413 3.21777 44.0605 3.39551C44.4798 3.56868 44.8307 3.80794 45.1133 4.11328C45.4004 4.41862 45.6396 4.78548 45.8311 5.21387C46.027 5.6377 46.1683 6.0957 46.2549 6.58789C46.3415 7.08008 46.3848 7.60645 46.3848 8.16699C46.3848 8.72754 46.3415 9.25391 46.2549 9.74609C46.1683 10.2383 46.027 10.6986 45.8311 11.127C45.6396 11.5508 45.4004 11.9154 45.1133 12.2207C44.8307 12.526 44.4798 12.7653 44.0605 12.9385ZM42.6592 12.0771C43.1058 12.0771 43.4909 11.9723 43.8145 11.7627C44.1426 11.5531 44.3978 11.2614 44.5801 10.8877C44.7669 10.514 44.9036 10.1038 44.9902 9.65723C45.0768 9.20605 45.1201 8.70931 45.1201 8.16699C45.1201 7.62467 45.0768 7.13021 44.9902 6.68359C44.9036 6.23242 44.7669 5.81999 44.5801 5.44629C44.3978 5.07259 44.1426 4.78092 43.8145 4.57129C43.4909 4.3571 43.1058 4.25 42.6592 4.25C42.2126 4.25 41.8252 4.3571 41.4971 4.57129C41.1689 4.78092 40.9115 5.07259 40.7246 5.44629C40.5423 5.81999 40.4079 6.23242 40.3213 6.68359C40.2347 7.13477 40.1914 7.62923 40.1914 8.16699C40.1914 8.59538 40.2165 8.99642 40.2666 9.37012C40.3213 9.73926 40.4079 10.0924 40.5264 10.4297C40.6494 10.7669 40.8044 11.0563 40.9912 11.2979C41.1781 11.5348 41.4128 11.724 41.6953 11.8652C41.9779 12.0065 42.2992 12.0771 42.6592 12.0771Z" fill="black"/>
<path d="M196.146 724.951C196.146 725.293 196.116 725.614 196.057 725.915C196.002 726.216 195.904 726.51 195.763 726.797C195.621 727.079 195.441 727.323 195.223 727.528C195.008 727.729 194.73 727.891 194.389 728.014C194.047 728.137 193.657 728.198 193.22 728.198C192.782 728.198 192.393 728.137 192.051 728.014C191.709 727.891 191.431 727.729 191.217 727.528C191.003 727.323 190.825 727.079 190.684 726.797C190.547 726.51 190.449 726.216 190.39 725.915C190.335 725.614 190.308 725.293 190.308 724.951V724.671H191.565V724.951C191.565 725.22 191.575 725.45 191.593 725.642C191.616 725.833 191.661 726.024 191.729 726.216C191.798 726.407 191.891 726.562 192.01 726.681C192.128 726.799 192.288 726.895 192.488 726.968C192.693 727.041 192.937 727.077 193.22 727.077C193.502 727.077 193.746 727.041 193.951 726.968C194.156 726.895 194.318 726.799 194.437 726.681C194.555 726.562 194.648 726.407 194.717 726.216C194.785 726.024 194.831 725.833 194.854 725.642C194.876 725.446 194.888 725.215 194.888 724.951V717.992H196.146V724.951ZM202.1 722.682C202.1 721.989 201.614 721.643 200.644 721.643C199.974 721.643 199.502 721.75 199.229 721.964C198.955 722.178 198.8 722.547 198.764 723.071H197.643C197.679 722.338 197.941 721.754 198.429 721.321C198.921 720.884 199.659 720.665 200.644 720.665C200.926 720.665 201.188 720.688 201.43 720.733C201.676 720.779 201.91 720.856 202.134 720.966C202.357 721.075 202.546 721.214 202.701 721.383C202.856 721.551 202.979 721.768 203.07 722.032C203.166 722.292 203.214 722.588 203.214 722.921V726.387C203.214 726.697 203.266 726.915 203.371 727.043C203.476 727.166 203.695 727.209 204.027 727.173V727.959C203.804 728.032 203.585 728.068 203.371 728.068C203.011 728.068 202.733 728.002 202.537 727.87C202.341 727.733 202.195 727.478 202.1 727.104H202.072C201.58 727.834 200.771 728.198 199.646 728.198C198.93 728.198 198.358 728.011 197.93 727.638C197.506 727.264 197.294 726.774 197.294 726.168C197.294 725.849 197.342 725.569 197.438 725.327C197.538 725.086 197.668 724.885 197.827 724.726C197.987 724.566 198.205 724.425 198.483 724.302C198.761 724.174 199.039 724.074 199.317 724.001C199.595 723.928 199.939 723.853 200.35 723.775C201.015 723.652 201.473 723.522 201.724 723.386C201.974 723.249 202.1 723.014 202.1 722.682ZM199.762 727.214C200.468 727.214 201.033 727.05 201.457 726.722C201.885 726.394 202.1 725.901 202.1 725.245V724.049C201.917 724.231 201.366 724.418 200.445 724.609C199.721 724.764 199.201 724.951 198.887 725.17C198.572 725.389 198.415 725.703 198.415 726.113C198.415 726.847 198.864 727.214 199.762 727.214ZM208.368 720.665C208.701 720.665 209.008 720.713 209.291 720.809C209.574 720.9 209.826 721.039 210.05 721.226C210.273 721.408 210.446 721.654 210.569 721.964C210.697 722.269 210.761 722.62 210.761 723.017V728H209.64V723.297C209.64 722.8 209.514 722.401 209.264 722.101C209.013 721.795 208.621 721.643 208.088 721.643C207.464 721.643 206.955 721.823 206.563 722.183C206.176 722.538 205.982 722.994 205.982 723.55V728H204.868V720.863H205.982V721.711H206.017C206.235 721.415 206.541 721.166 206.933 720.966C207.329 720.765 207.808 720.665 208.368 720.665ZM216.995 720.863H218.116V728H216.995V727.146H216.968C216.749 727.442 216.441 727.692 216.045 727.897C215.648 728.098 215.172 728.198 214.616 728.198C214.284 728.198 213.974 728.15 213.687 728.055C213.404 727.964 213.151 727.827 212.928 727.645C212.709 727.458 212.536 727.212 212.408 726.906C212.281 726.596 212.217 726.243 212.217 725.847V720.863H213.338V725.566C213.338 726.063 213.463 726.462 213.714 726.763C213.969 727.063 214.363 727.214 214.896 727.214C215.521 727.214 216.027 727.036 216.414 726.681C216.801 726.325 216.995 725.869 216.995 725.313V720.863ZM224.029 722.682C224.029 721.989 223.544 721.643 222.573 721.643C221.903 721.643 221.432 721.75 221.158 721.964C220.885 722.178 220.73 722.547 220.693 723.071H219.572C219.609 722.338 219.871 721.754 220.358 721.321C220.851 720.884 221.589 720.665 222.573 720.665C222.856 720.665 223.118 720.688 223.359 720.733C223.605 720.779 223.84 720.856 224.063 720.966C224.287 721.075 224.476 721.214 224.631 721.383C224.786 721.551 224.909 721.768 225 722.032C225.096 722.292 225.144 722.588 225.144 722.921V726.387C225.144 726.697 225.196 726.915 225.301 727.043C225.406 727.166 225.624 727.209 225.957 727.173V727.959C225.734 728.032 225.515 728.068 225.301 728.068C224.941 728.068 224.663 728.002 224.467 727.87C224.271 727.733 224.125 727.478 224.029 727.104H224.002C223.51 727.834 222.701 728.198 221.575 728.198C220.86 728.198 220.288 728.011 219.859 727.638C219.436 727.264 219.224 726.774 219.224 726.168C219.224 725.849 219.271 725.569 219.367 725.327C219.467 725.086 219.597 724.885 219.757 724.726C219.916 724.566 220.135 724.425 220.413 724.302C220.691 724.174 220.969 724.074 221.247 724.001C221.525 723.928 221.869 723.853 222.279 723.775C222.945 723.652 223.403 723.522 223.653 723.386C223.904 723.249 224.029 723.014 224.029 722.682ZM221.691 727.214C222.398 727.214 222.963 727.05 223.387 726.722C223.815 726.394 224.029 725.901 224.029 725.245V724.049C223.847 724.231 223.296 724.418 222.375 724.609C221.65 724.764 221.131 724.951 220.816 725.17C220.502 725.389 220.345 725.703 220.345 726.113C220.345 726.847 220.794 727.214 221.691 727.214ZM229.915 720.665C230.157 720.665 230.378 720.679 230.578 720.706V721.827H230.551C229.79 721.704 229.159 721.875 228.657 722.34C228.16 722.8 227.912 723.418 227.912 724.192V728H226.798V720.863H227.912V722.271H227.946C228.151 721.761 228.409 721.367 228.719 721.089C229.033 720.806 229.432 720.665 229.915 720.665ZM237.64 720.863L234.591 728.588C234.39 729.089 234.224 729.436 234.092 729.627C233.736 730.142 233.24 730.402 232.602 730.406C232.273 730.406 231.957 730.361 231.651 730.27V729.429H231.815C232.153 729.461 232.431 729.449 232.649 729.395C232.868 729.344 233.066 729.226 233.244 729.039C233.354 728.921 233.445 728.784 233.518 728.629C233.59 728.479 233.638 728.294 233.661 728.075C233.688 727.856 233.652 727.635 233.552 727.412L230.852 720.863H232.109L234.297 726.681H234.324L236.382 720.863H237.64ZM242.452 721.711H241.188C241.188 721.201 241.258 720.731 241.399 720.303C241.541 719.874 241.75 719.498 242.028 719.175C242.306 718.847 242.671 718.591 243.122 718.409C243.573 718.222 244.09 718.129 244.674 718.129C245.234 718.129 245.745 718.241 246.205 718.464C246.665 718.683 247.039 719.015 247.326 719.462C247.613 719.909 247.757 720.43 247.757 721.027C247.757 721.479 247.67 721.893 247.497 722.271C247.324 722.645 247.094 722.966 246.807 723.235C246.52 723.5 246.201 723.748 245.85 723.98C245.503 724.213 245.148 724.434 244.783 724.644C244.419 724.849 244.077 725.056 243.758 725.266C243.439 725.471 243.159 725.71 242.917 725.983C242.68 726.252 242.521 726.542 242.438 726.852V726.879H247.613V728H240.907C240.907 726.355 241.869 724.969 243.792 723.844C243.924 723.766 244.093 723.668 244.298 723.55C244.507 723.431 244.665 723.342 244.77 723.283C244.874 723.224 245.007 723.144 245.166 723.044C245.33 722.944 245.451 722.864 245.528 722.805C245.606 722.745 245.701 722.67 245.815 722.579C245.929 722.488 246.014 722.406 246.068 722.333C246.123 722.26 246.185 722.174 246.253 722.073C246.321 721.973 246.369 721.873 246.396 721.772C246.424 721.672 246.447 721.561 246.465 721.438C246.488 721.314 246.499 721.182 246.499 721.041C246.499 720.818 246.469 720.608 246.41 720.412C246.355 720.216 246.262 720.027 246.13 719.845C246.002 719.662 245.811 719.519 245.556 719.414C245.3 719.305 244.997 719.25 244.646 719.25C243.184 719.25 242.452 720.07 242.452 721.711ZM253.998 727.938C253.579 728.112 253.112 728.198 252.597 728.198C252.082 728.198 251.615 728.112 251.195 727.938C250.776 727.765 250.423 727.526 250.136 727.221C249.853 726.915 249.614 726.551 249.418 726.127C249.227 725.699 249.088 725.238 249.001 724.746C248.914 724.254 248.871 723.728 248.871 723.167C248.871 722.606 248.914 722.08 249.001 721.588C249.088 721.096 249.227 720.638 249.418 720.214C249.614 719.785 249.853 719.419 250.136 719.113C250.423 718.808 250.776 718.569 251.195 718.396C251.615 718.218 252.082 718.129 252.597 718.129C253.112 718.129 253.579 718.218 253.998 718.396C254.417 718.569 254.768 718.808 255.051 719.113C255.338 719.419 255.577 719.785 255.769 720.214C255.965 720.638 256.106 721.096 256.192 721.588C256.279 722.08 256.322 722.606 256.322 723.167C256.322 723.728 256.279 724.254 256.192 724.746C256.106 725.238 255.965 725.699 255.769 726.127C255.577 726.551 255.338 726.915 255.051 727.221C254.768 727.526 254.417 727.765 253.998 727.938ZM252.597 727.077C253.043 727.077 253.428 726.972 253.752 726.763C254.08 726.553 254.335 726.261 254.518 725.888C254.704 725.514 254.841 725.104 254.928 724.657C255.014 724.206 255.058 723.709 255.058 723.167C255.058 722.625 255.014 722.13 254.928 721.684C254.841 721.232 254.704 720.82 254.518 720.446C254.335 720.073 254.08 719.781 253.752 719.571C253.428 719.357 253.043 719.25 252.597 719.25C252.15 719.25 251.763 719.357 251.435 719.571C251.106 719.781 250.849 720.073 250.662 720.446C250.48 720.82 250.345 721.232 250.259 721.684C250.172 722.135 250.129 722.629 250.129 723.167C250.129 723.595 250.154 723.996 250.204 724.37C250.259 724.739 250.345 725.092 250.464 725.43C250.587 725.767 250.742 726.056 250.929 726.298C251.116 726.535 251.35 726.724 251.633 726.865C251.915 727.007 252.237 727.077 252.597 727.077ZM258.845 721.711H257.58C257.58 721.201 257.651 720.731 257.792 720.303C257.933 719.874 258.143 719.498 258.421 719.175C258.699 718.847 259.063 718.591 259.515 718.409C259.966 718.222 260.483 718.129 261.066 718.129C261.627 718.129 262.137 718.241 262.598 718.464C263.058 718.683 263.432 719.015 263.719 719.462C264.006 719.909 264.149 720.43 264.149 721.027C264.149 721.479 264.063 721.893 263.89 722.271C263.716 722.645 263.486 722.966 263.199 723.235C262.912 723.5 262.593 723.748 262.242 723.98C261.896 724.213 261.54 724.434 261.176 724.644C260.811 724.849 260.469 725.056 260.15 725.266C259.831 725.471 259.551 725.71 259.31 725.983C259.073 726.252 258.913 726.542 258.831 726.852V726.879H264.006V728H257.3C257.3 726.355 258.261 724.969 260.185 723.844C260.317 723.766 260.485 723.668 260.69 723.55C260.9 723.431 261.057 723.342 261.162 723.283C261.267 723.224 261.399 723.144 261.559 723.044C261.723 722.944 261.843 722.864 261.921 722.805C261.998 722.745 262.094 722.67 262.208 722.579C262.322 722.488 262.406 722.406 262.461 722.333C262.516 722.26 262.577 722.174 262.646 722.073C262.714 721.973 262.762 721.873 262.789 721.772C262.816 721.672 262.839 721.561 262.857 721.438C262.88 721.314 262.892 721.182 262.892 721.041C262.892 720.818 262.862 720.608 262.803 720.412C262.748 720.216 262.655 720.027 262.522 719.845C262.395 719.662 262.203 719.519 261.948 719.414C261.693 719.305 261.39 719.25 261.039 719.25C259.576 719.25 258.845 720.07 258.845 721.711ZM266.412 721.226H265.154C265.154 720.3 265.457 719.553 266.063 718.983C266.674 718.414 267.556 718.129 268.709 718.129C269.27 718.129 269.782 718.231 270.247 718.437C270.712 718.637 271.09 718.945 271.382 719.359C271.674 719.77 271.819 720.25 271.819 720.802C271.819 721.777 271.323 722.463 270.329 722.859V722.887C270.985 723.064 271.455 723.358 271.737 723.769C272.024 724.174 272.168 724.68 272.168 725.286C272.168 726.22 271.86 726.94 271.245 727.446C270.63 727.948 269.794 728.198 268.736 728.198C267.51 728.198 266.565 727.895 265.899 727.289C265.234 726.678 264.901 725.824 264.901 724.726H266.159C266.159 726.293 266.986 727.077 268.641 727.077C269.452 727.077 270.031 726.929 270.377 726.633C270.728 726.337 270.903 725.888 270.903 725.286C270.903 724.101 270.222 723.509 268.859 723.509H267.827V722.388H268.805C269.333 722.388 269.757 722.258 270.076 721.998C270.395 721.734 270.555 721.335 270.555 720.802C270.555 720.369 270.4 720.002 270.09 719.701C269.785 719.4 269.324 719.25 268.709 719.25C267.178 719.25 266.412 719.909 266.412 721.226Z" fill="black"/>
<path d="M380.733 725.491H376.324L375.442 728H374.137L377.835 717.992H379.236L382.921 728H381.615L380.733 725.491ZM376.741 724.377H380.33L378.553 719.154H378.525L376.741 724.377ZM387.248 720.665C387.69 720.665 388.105 720.752 388.492 720.925C388.88 721.098 389.217 721.344 389.504 721.663C389.796 721.982 390.023 722.381 390.188 722.859C390.356 723.333 390.44 723.857 390.44 724.432C390.44 725.006 390.356 725.532 390.188 726.011C390.023 726.485 389.796 726.881 389.504 727.2C389.217 727.519 388.88 727.765 388.492 727.938C388.105 728.112 387.69 728.198 387.248 728.198C386.245 728.198 385.491 727.825 384.985 727.077H384.951V730.406H383.837V720.863H384.951V721.745H384.985C385.532 721.025 386.286 720.665 387.248 720.665ZM387.111 727.214C387.581 727.214 387.986 727.077 388.328 726.804C388.67 726.53 388.921 726.188 389.08 725.778C389.24 725.364 389.319 724.915 389.319 724.432C389.319 723.949 389.24 723.5 389.08 723.085C388.921 722.67 388.67 722.326 388.328 722.053C387.986 721.779 387.581 721.643 387.111 721.643C386.451 721.643 385.924 721.896 385.532 722.401C385.145 722.907 384.951 723.584 384.951 724.432C384.951 725.275 385.145 725.949 385.532 726.455C385.92 726.961 386.446 727.214 387.111 727.214ZM394.733 720.665C394.975 720.665 395.196 720.679 395.396 720.706V721.827H395.369C394.608 721.704 393.977 721.875 393.476 722.34C392.979 722.8 392.73 723.418 392.73 724.192V728H391.616V720.863H392.73V722.271H392.765C392.97 721.761 393.227 721.367 393.537 721.089C393.852 720.806 394.25 720.665 394.733 720.665ZM397.112 719.476C396.944 719.476 396.784 719.414 396.634 719.291C396.488 719.163 396.415 718.999 396.415 718.799C396.415 718.598 396.488 718.437 396.634 718.313C396.78 718.19 396.939 718.129 397.112 718.129C397.29 718.129 397.45 718.19 397.591 718.313C397.737 718.437 397.81 718.598 397.81 718.799C397.81 718.999 397.737 719.163 397.591 719.291C397.45 719.414 397.29 719.476 397.112 719.476ZM396.552 720.863H397.673V728H396.552V720.863ZM399.259 717.992H400.38V728H399.259V717.992ZM405.972 721.711H404.707C404.707 721.201 404.778 720.731 404.919 720.303C405.06 719.874 405.27 719.498 405.548 719.175C405.826 718.847 406.19 718.591 406.642 718.409C407.093 718.222 407.61 718.129 408.193 718.129C408.754 718.129 409.264 718.241 409.725 718.464C410.185 718.683 410.559 719.015 410.846 719.462C411.133 719.909 411.276 720.43 411.276 721.027C411.276 721.479 411.19 721.893 411.017 722.271C410.843 722.645 410.613 722.966 410.326 723.235C410.039 723.5 409.72 723.748 409.369 723.98C409.023 724.213 408.667 724.434 408.303 724.644C407.938 724.849 407.596 725.056 407.277 725.266C406.958 725.471 406.678 725.71 406.437 725.983C406.2 726.252 406.04 726.542 405.958 726.852V726.879H411.133V728H404.427C404.427 726.355 405.388 724.969 407.312 723.844C407.444 723.766 407.612 723.668 407.817 723.55C408.027 723.431 408.184 723.342 408.289 723.283C408.394 723.224 408.526 723.144 408.686 723.044C408.85 722.944 408.97 722.864 409.048 722.805C409.125 722.745 409.221 722.67 409.335 722.579C409.449 722.488 409.533 722.406 409.588 722.333C409.643 722.26 409.704 722.174 409.772 722.073C409.841 721.973 409.889 721.873 409.916 721.772C409.943 721.672 409.966 721.561 409.984 721.438C410.007 721.314 410.019 721.182 410.019 721.041C410.019 720.818 409.989 720.608 409.93 720.412C409.875 720.216 409.782 720.027 409.649 719.845C409.522 719.662 409.33 719.519 409.075 719.414C408.82 719.305 408.517 719.25 408.166 719.25C406.703 719.25 405.972 720.07 405.972 721.711ZM417.518 727.938C417.098 728.112 416.631 728.198 416.116 728.198C415.601 728.198 415.134 728.112 414.715 727.938C414.296 727.765 413.942 727.526 413.655 727.221C413.373 726.915 413.133 726.551 412.938 726.127C412.746 725.699 412.607 725.238 412.521 724.746C412.434 724.254 412.391 723.728 412.391 723.167C412.391 722.606 412.434 722.08 412.521 721.588C412.607 721.096 412.746 720.638 412.938 720.214C413.133 719.785 413.373 719.419 413.655 719.113C413.942 718.808 414.296 718.569 414.715 718.396C415.134 718.218 415.601 718.129 416.116 718.129C416.631 718.129 417.098 718.218 417.518 718.396C417.937 718.569 418.288 718.808 418.57 719.113C418.857 719.419 419.097 719.785 419.288 720.214C419.484 720.638 419.625 721.096 419.712 721.588C419.799 722.08 419.842 722.606 419.842 723.167C419.842 723.728 419.799 724.254 419.712 724.746C419.625 725.238 419.484 725.699 419.288 726.127C419.097 726.551 418.857 726.915 418.57 727.221C418.288 727.526 417.937 727.765 417.518 727.938ZM416.116 727.077C416.563 727.077 416.948 726.972 417.271 726.763C417.6 726.553 417.855 726.261 418.037 725.888C418.224 725.514 418.361 725.104 418.447 724.657C418.534 724.206 418.577 723.709 418.577 723.167C418.577 722.625 418.534 722.13 418.447 721.684C418.361 721.232 418.224 720.82 418.037 720.446C417.855 720.073 417.6 719.781 417.271 719.571C416.948 719.357 416.563 719.25 416.116 719.25C415.67 719.25 415.282 719.357 414.954 719.571C414.626 719.781 414.368 720.073 414.182 720.446C413.999 720.82 413.865 721.232 413.778 721.684C413.692 722.135 413.648 722.629 413.648 723.167C413.648 723.595 413.674 723.996 413.724 724.37C413.778 724.739 413.865 725.092 413.983 725.43C414.106 725.767 414.261 726.056 414.448 726.298C414.635 726.535 414.87 726.724 415.152 726.865C415.435 727.007 415.756 727.077 416.116 727.077ZM422.364 721.711H421.1C421.1 721.201 421.17 720.731 421.312 720.303C421.453 719.874 421.662 719.498 421.94 719.175C422.218 718.847 422.583 718.591 423.034 718.409C423.485 718.222 424.003 718.129 424.586 718.129C425.146 718.129 425.657 718.241 426.117 718.464C426.577 718.683 426.951 719.015 427.238 719.462C427.525 719.909 427.669 720.43 427.669 721.027C427.669 721.479 427.582 721.893 427.409 722.271C427.236 722.645 427.006 722.966 426.719 723.235C426.432 723.5 426.113 723.748 425.762 723.98C425.415 724.213 425.06 724.434 424.695 724.644C424.331 724.849 423.989 725.056 423.67 725.266C423.351 725.471 423.071 725.71 422.829 725.983C422.592 726.252 422.433 726.542 422.351 726.852V726.879H427.525V728H420.819C420.819 726.355 421.781 724.969 423.704 723.844C423.836 723.766 424.005 723.668 424.21 723.55C424.42 723.431 424.577 723.342 424.682 723.283C424.786 723.224 424.919 723.144 425.078 723.044C425.242 722.944 425.363 722.864 425.44 722.805C425.518 722.745 425.614 722.67 425.728 722.579C425.841 722.488 425.926 722.406 425.98 722.333C426.035 722.26 426.097 722.174 426.165 722.073C426.233 721.973 426.281 721.873 426.309 721.772C426.336 721.672 426.359 721.561 426.377 721.438C426.4 721.314 426.411 721.182 426.411 721.041C426.411 720.818 426.382 720.608 426.322 720.412C426.268 720.216 426.174 720.027 426.042 719.845C425.914 719.662 425.723 719.519 425.468 719.414C425.213 719.305 424.91 719.25 424.559 719.25C423.096 719.25 422.364 720.07 422.364 721.711ZM429.932 721.226H428.674C428.674 720.3 428.977 719.553 429.583 718.983C430.194 718.414 431.076 718.129 432.229 718.129C432.789 718.129 433.302 718.231 433.767 718.437C434.231 718.637 434.61 718.945 434.901 719.359C435.193 719.77 435.339 720.25 435.339 720.802C435.339 721.777 434.842 722.463 433.849 722.859V722.887C434.505 723.064 434.974 723.358 435.257 723.769C435.544 724.174 435.688 724.68 435.688 725.286C435.688 726.22 435.38 726.94 434.765 727.446C434.149 727.948 433.313 728.198 432.256 728.198C431.03 728.198 430.084 727.895 429.419 727.289C428.754 726.678 428.421 725.824 428.421 724.726H429.679C429.679 726.293 430.506 727.077 432.16 727.077C432.971 727.077 433.55 726.929 433.896 726.633C434.247 726.337 434.423 725.888 434.423 725.286C434.423 724.101 433.742 723.509 432.379 723.509H431.347V722.388H432.324C432.853 722.388 433.277 722.258 433.596 721.998C433.915 721.734 434.074 721.335 434.074 720.802C434.074 720.369 433.919 720.002 433.609 719.701C433.304 719.4 432.844 719.25 432.229 719.25C430.697 719.25 429.932 719.909 429.932 721.226Z" fill="black"/>
<path d="M557.146 724.951C557.146 725.293 557.116 725.614 557.057 725.915C557.002 726.216 556.904 726.51 556.763 726.797C556.621 727.079 556.441 727.323 556.223 727.528C556.008 727.729 555.73 727.891 555.389 728.014C555.047 728.137 554.657 728.198 554.22 728.198C553.782 728.198 553.393 728.137 553.051 728.014C552.709 727.891 552.431 727.729 552.217 727.528C552.003 727.323 551.825 727.079 551.684 726.797C551.547 726.51 551.449 726.216 551.39 725.915C551.335 725.614 551.308 725.293 551.308 724.951V724.671H552.565V724.951C552.565 725.22 552.575 725.45 552.593 725.642C552.616 725.833 552.661 726.024 552.729 726.216C552.798 726.407 552.891 726.562 553.01 726.681C553.128 726.799 553.288 726.895 553.488 726.968C553.693 727.041 553.937 727.077 554.22 727.077C554.502 727.077 554.746 727.041 554.951 726.968C555.156 726.895 555.318 726.799 555.437 726.681C555.555 726.562 555.648 726.407 555.717 726.216C555.785 726.024 555.831 725.833 555.854 725.642C555.876 725.446 555.888 725.215 555.888 724.951V717.992H557.146V724.951ZM563.462 720.863H564.583V728H563.462V727.146H563.435C563.216 727.442 562.908 727.692 562.512 727.897C562.115 728.098 561.639 728.198 561.083 728.198C560.75 728.198 560.44 728.15 560.153 728.055C559.871 727.964 559.618 727.827 559.395 727.645C559.176 727.458 559.003 727.212 558.875 726.906C558.747 726.596 558.684 726.243 558.684 725.847V720.863H559.805V725.566C559.805 726.063 559.93 726.462 560.181 726.763C560.436 727.063 560.83 727.214 561.363 727.214C561.988 727.214 562.493 727.036 562.881 726.681C563.268 726.325 563.462 725.869 563.462 725.313V720.863ZM566.169 717.992H567.29V728H566.169V717.992ZM574.919 720.863L571.87 728.588C571.67 729.089 571.503 729.436 571.371 729.627C571.016 730.142 570.519 730.402 569.881 730.406C569.553 730.406 569.236 730.361 568.931 730.27V729.429H569.095C569.432 729.461 569.71 729.449 569.929 729.395C570.147 729.344 570.346 729.226 570.523 729.039C570.633 728.921 570.724 728.784 570.797 728.629C570.87 728.479 570.918 728.294 570.94 728.075C570.968 727.856 570.931 727.635 570.831 727.412L568.131 720.863H569.389L571.576 726.681H571.604L573.661 720.863H574.919ZM579.731 721.711H578.467C578.467 721.201 578.537 720.731 578.679 720.303C578.82 719.874 579.03 719.498 579.308 719.175C579.586 718.847 579.95 718.591 580.401 718.409C580.853 718.222 581.37 718.129 581.953 718.129C582.514 718.129 583.024 718.241 583.484 718.464C583.945 718.683 584.318 719.015 584.605 719.462C584.893 719.909 585.036 720.43 585.036 721.027C585.036 721.479 584.95 721.893 584.776 722.271C584.603 722.645 584.373 722.966 584.086 723.235C583.799 723.5 583.48 723.748 583.129 723.98C582.783 724.213 582.427 724.434 582.062 724.644C581.698 724.849 581.356 725.056 581.037 725.266C580.718 725.471 580.438 725.71 580.196 725.983C579.959 726.252 579.8 726.542 579.718 726.852V726.879H584.893V728H578.187C578.187 726.355 579.148 724.969 581.071 723.844C581.203 723.766 581.372 723.668 581.577 723.55C581.787 723.431 581.944 723.342 582.049 723.283C582.154 723.224 582.286 723.144 582.445 723.044C582.609 722.944 582.73 722.864 582.808 722.805C582.885 722.745 582.981 722.67 583.095 722.579C583.209 722.488 583.293 722.406 583.348 722.333C583.402 722.26 583.464 722.174 583.532 722.073C583.601 721.973 583.648 721.873 583.676 721.772C583.703 721.672 583.726 721.561 583.744 721.438C583.767 721.314 583.778 721.182 583.778 721.041C583.778 720.818 583.749 720.608 583.689 720.412C583.635 720.216 583.541 720.027 583.409 719.845C583.282 719.662 583.09 719.519 582.835 719.414C582.58 719.305 582.277 719.25 581.926 719.25C580.463 719.25 579.731 720.07 579.731 721.711ZM591.277 727.938C590.858 728.112 590.391 728.198 589.876 728.198C589.361 728.198 588.894 728.112 588.475 727.938C588.055 727.765 587.702 727.526 587.415 727.221C587.132 726.915 586.893 726.551 586.697 726.127C586.506 725.699 586.367 725.238 586.28 724.746C586.194 724.254 586.15 723.728 586.15 723.167C586.15 722.606 586.194 722.08 586.28 721.588C586.367 721.096 586.506 720.638 586.697 720.214C586.893 719.785 587.132 719.419 587.415 719.113C587.702 718.808 588.055 718.569 588.475 718.396C588.894 718.218 589.361 718.129 589.876 718.129C590.391 718.129 590.858 718.218 591.277 718.396C591.697 718.569 592.048 718.808 592.33 719.113C592.617 719.419 592.856 719.785 593.048 720.214C593.244 720.638 593.385 721.096 593.472 721.588C593.558 722.08 593.602 722.606 593.602 723.167C593.602 723.728 593.558 724.254 593.472 724.746C593.385 725.238 593.244 725.699 593.048 726.127C592.856 726.551 592.617 726.915 592.33 727.221C592.048 727.526 591.697 727.765 591.277 727.938ZM589.876 727.077C590.323 727.077 590.708 726.972 591.031 726.763C591.359 726.553 591.615 726.261 591.797 725.888C591.984 725.514 592.12 725.104 592.207 724.657C592.294 724.206 592.337 723.709 592.337 723.167C592.337 722.625 592.294 722.13 592.207 721.684C592.12 721.232 591.984 720.82 591.797 720.446C591.615 720.073 591.359 719.781 591.031 719.571C590.708 719.357 590.323 719.25 589.876 719.25C589.429 719.25 589.042 719.357 588.714 719.571C588.386 719.781 588.128 720.073 587.941 720.446C587.759 720.82 587.625 721.232 587.538 721.684C587.451 722.135 587.408 722.629 587.408 723.167C587.408 723.595 587.433 723.996 587.483 724.37C587.538 724.739 587.625 725.092 587.743 725.43C587.866 725.767 588.021 726.056 588.208 726.298C588.395 726.535 588.63 726.724 588.912 726.865C589.195 727.007 589.516 727.077 589.876 727.077ZM596.124 721.711H594.859C594.859 721.201 594.93 720.731 595.071 720.303C595.213 719.874 595.422 719.498 595.7 719.175C595.978 718.847 596.343 718.591 596.794 718.409C597.245 718.222 597.762 718.129 598.346 718.129C598.906 718.129 599.417 718.241 599.877 718.464C600.337 718.683 600.711 719.015 600.998 719.462C601.285 719.909 601.429 720.43 601.429 721.027C601.429 721.479 601.342 721.893 601.169 722.271C600.996 722.645 600.766 722.966 600.479 723.235C600.191 723.5 599.872 723.748 599.521 723.98C599.175 724.213 598.82 724.434 598.455 724.644C598.09 724.849 597.749 725.056 597.43 725.266C597.111 725.471 596.83 725.71 596.589 725.983C596.352 726.252 596.192 726.542 596.11 726.852V726.879H601.285V728H594.579C594.579 726.355 595.541 724.969 597.464 723.844C597.596 723.766 597.765 723.668 597.97 723.55C598.179 723.431 598.337 723.342 598.441 723.283C598.546 723.224 598.678 723.144 598.838 723.044C599.002 722.944 599.123 722.864 599.2 722.805C599.278 722.745 599.373 722.67 599.487 722.579C599.601 722.488 599.686 722.406 599.74 722.333C599.795 722.26 599.856 722.174 599.925 722.073C599.993 721.973 600.041 721.873 600.068 721.772C600.096 721.672 600.118 721.561 600.137 721.438C600.16 721.314 600.171 721.182 600.171 721.041C600.171 720.818 600.141 720.608 600.082 720.412C600.027 720.216 599.934 720.027 599.802 719.845C599.674 719.662 599.483 719.519 599.228 719.414C598.972 719.305 598.669 719.25 598.318 719.25C596.855 719.25 596.124 720.07 596.124 721.711ZM603.691 721.226H602.434C602.434 720.3 602.737 719.553 603.343 718.983C603.953 718.414 604.835 718.129 605.988 718.129C606.549 718.129 607.062 718.231 607.526 718.437C607.991 718.637 608.369 718.945 608.661 719.359C608.953 719.77 609.099 720.25 609.099 720.802C609.099 721.777 608.602 722.463 607.608 722.859V722.887C608.265 723.064 608.734 723.358 609.017 723.769C609.304 724.174 609.447 724.68 609.447 725.286C609.447 726.22 609.14 726.94 608.524 727.446C607.909 727.948 607.073 728.198 606.016 728.198C604.79 728.198 603.844 727.895 603.179 727.289C602.513 726.678 602.181 725.824 602.181 724.726H603.438C603.438 726.293 604.266 727.077 605.92 727.077C606.731 727.077 607.31 726.929 607.656 726.633C608.007 726.337 608.183 725.888 608.183 725.286C608.183 724.101 607.501 723.509 606.139 723.509H605.106V722.388H606.084C606.613 722.388 607.036 722.258 607.355 721.998C607.674 721.734 607.834 721.335 607.834 720.802C607.834 720.369 607.679 720.002 607.369 719.701C607.064 719.4 606.604 719.25 605.988 719.25C604.457 719.25 603.691 719.909 603.691 721.226Z" fill="black"/>
<path d="M720.025 727.528C719.278 727.975 718.424 728.198 717.462 728.198C716.5 728.198 715.646 727.975 714.898 727.528C714.151 727.077 713.575 726.457 713.169 725.669C712.763 724.881 712.561 723.987 712.561 722.989C712.561 721.991 712.763 721.1 713.169 720.316C713.575 719.528 714.151 718.91 714.898 718.464C715.646 718.017 716.5 717.794 717.462 717.794C718.424 717.794 719.278 718.017 720.025 718.464C720.773 718.91 721.349 719.528 721.755 720.316C722.16 721.1 722.363 721.991 722.363 722.989C722.363 723.987 722.16 724.881 721.755 725.669C721.349 726.457 720.773 727.077 720.025 727.528ZM717.462 727.077C718.073 727.077 718.615 726.968 719.089 726.749C719.563 726.526 719.943 726.223 720.23 725.84C720.518 725.452 720.734 725.02 720.88 724.541C721.026 724.058 721.099 723.541 721.099 722.989C721.099 722.438 721.026 721.923 720.88 721.444C720.734 720.961 720.518 720.531 720.23 720.152C719.943 719.77 719.563 719.469 719.089 719.25C718.615 719.027 718.073 718.915 717.462 718.915C716.97 718.915 716.521 718.988 716.115 719.134C715.71 719.28 715.366 719.478 715.083 719.729C714.805 719.979 714.568 720.278 714.372 720.624C714.181 720.97 714.039 721.342 713.948 721.738C713.862 722.135 713.818 722.552 713.818 722.989C713.818 723.427 713.862 723.844 713.948 724.24C714.039 724.637 714.181 725.01 714.372 725.361C714.568 725.708 714.805 726.008 715.083 726.264C715.366 726.514 715.71 726.713 716.115 726.858C716.521 727.004 716.97 727.077 717.462 727.077ZM728.762 723.434C728.748 723.224 728.7 723.019 728.618 722.818C728.541 722.618 728.424 722.426 728.27 722.244C728.119 722.062 727.912 721.916 727.647 721.807C727.388 721.697 727.087 721.643 726.745 721.643C726.417 721.643 726.118 721.697 725.85 721.807C725.585 721.911 725.364 722.055 725.187 722.237C725.013 722.415 724.865 722.627 724.742 722.873C724.624 723.115 724.537 723.365 724.482 723.625C724.432 723.885 724.407 724.154 724.407 724.432C724.407 724.783 724.451 725.118 724.537 725.437C724.624 725.756 724.756 726.052 724.934 726.325C725.111 726.594 725.355 726.811 725.665 726.975C725.979 727.134 726.34 727.214 726.745 727.214C727.091 727.214 727.395 727.159 727.654 727.05C727.919 726.94 728.126 726.795 728.276 726.612C728.427 726.425 728.541 726.229 728.618 726.024C728.7 725.815 728.748 725.596 728.762 725.368H729.883C729.833 726.188 729.516 726.865 728.933 727.398C728.349 727.932 727.62 728.198 726.745 728.198C725.706 728.198 724.87 727.852 724.236 727.159C723.603 726.466 723.286 725.557 723.286 724.432C723.286 723.306 723.603 722.397 724.236 721.704C724.87 721.011 725.706 720.665 726.745 720.665C727.611 720.665 728.329 720.925 728.898 721.444C729.468 721.959 729.796 722.622 729.883 723.434H728.762ZM734.06 721.841H732.658V726.141C732.658 726.528 732.765 726.781 732.979 726.899C733.194 727.018 733.554 727.059 734.06 727.022V728C733.809 728.055 733.529 728.082 733.219 728.082C732.69 728.082 732.278 727.948 731.981 727.679C731.69 727.405 731.544 726.929 731.544 726.25V721.841H730.491V720.863H731.544V718.478H732.658V720.863H734.06V721.841ZM738.257 728.198C737.181 728.198 736.329 727.854 735.7 727.166C735.071 726.473 734.757 725.562 734.757 724.432C734.757 723.301 735.071 722.392 735.7 721.704C736.329 721.011 737.181 720.665 738.257 720.665C739.328 720.665 740.175 721.011 740.8 721.704C741.429 722.397 741.743 723.306 741.743 724.432C741.743 725.557 741.429 726.466 740.8 727.159C740.175 727.852 739.328 728.198 738.257 728.198ZM738.257 727.214C739.018 727.214 739.601 726.952 740.007 726.428C740.417 725.904 740.622 725.238 740.622 724.432C740.622 723.625 740.417 722.96 740.007 722.436C739.601 721.907 739.018 721.643 738.257 721.643C737.487 721.643 736.896 721.907 736.486 722.436C736.081 722.96 735.878 723.625 735.878 724.432C735.878 725.238 736.081 725.904 736.486 726.428C736.896 726.952 737.487 727.214 738.257 727.214ZM746.262 720.665C746.708 720.665 747.128 720.752 747.52 720.925C747.911 721.098 748.251 721.344 748.538 721.663C748.83 721.982 749.06 722.381 749.229 722.859C749.397 723.333 749.481 723.857 749.481 724.432C749.481 725.006 749.397 725.532 749.229 726.011C749.06 726.485 748.83 726.881 748.538 727.2C748.251 727.519 747.911 727.765 747.52 727.938C747.128 728.112 746.708 728.198 746.262 728.198C745.318 728.198 744.573 727.838 744.026 727.118H743.992V728H742.878V717.992H743.992V721.786H744.026C744.532 721.039 745.277 720.665 746.262 720.665ZM746.152 727.214C746.622 727.214 747.027 727.077 747.369 726.804C747.711 726.53 747.962 726.188 748.121 725.778C748.281 725.364 748.36 724.915 748.36 724.432C748.36 723.949 748.281 723.5 748.121 723.085C747.962 722.67 747.711 722.326 747.369 722.053C747.027 721.779 746.622 721.643 746.152 721.643C745.492 721.643 744.965 721.896 744.573 722.401C744.186 722.907 743.992 723.584 743.992 724.432C743.992 725.275 744.186 725.949 744.573 726.455C744.961 726.961 745.487 727.214 746.152 727.214ZM753.651 727.214C753.925 727.214 754.175 727.18 754.403 727.111C754.631 727.043 754.818 726.959 754.964 726.858C755.114 726.758 755.244 726.642 755.354 726.51C755.467 726.378 755.552 726.255 755.606 726.141C755.666 726.022 755.709 725.908 755.736 725.799H756.857C756.661 726.514 756.295 727.093 755.757 727.535C755.224 727.977 754.535 728.198 753.692 728.198C752.621 728.198 751.771 727.854 751.143 727.166C750.518 726.478 750.206 725.566 750.206 724.432C750.206 723.251 750.514 722.328 751.129 721.663C751.749 720.998 752.585 720.665 753.638 720.665C754.741 720.665 755.57 721.018 756.126 721.725C756.687 722.431 756.967 723.431 756.967 724.726H751.327C751.327 725.168 751.409 725.573 751.573 725.942C751.742 726.312 752.006 726.617 752.366 726.858C752.726 727.095 753.155 727.214 753.651 727.214ZM753.638 721.643C752.972 721.643 752.421 721.848 751.983 722.258C751.546 722.663 751.327 723.158 751.327 723.741H755.853C755.853 723.153 755.647 722.657 755.237 722.251C754.827 721.845 754.294 721.643 753.638 721.643ZM761.198 720.665C761.44 720.665 761.661 720.679 761.861 720.706V721.827H761.834C761.073 721.704 760.442 721.875 759.94 722.34C759.444 722.8 759.195 723.418 759.195 724.192V728H758.081V720.863H759.195V722.271H759.229C759.435 721.761 759.692 721.367 760.002 721.089C760.316 720.806 760.715 720.665 761.198 720.665ZM766.886 721.711H765.621C765.621 721.201 765.692 720.731 765.833 720.303C765.974 719.874 766.184 719.498 766.462 719.175C766.74 718.847 767.104 718.591 767.556 718.409C768.007 718.222 768.524 718.129 769.107 718.129C769.668 718.129 770.178 718.241 770.639 718.464C771.099 718.683 771.473 719.015 771.76 719.462C772.047 719.909 772.19 720.43 772.19 721.027C772.19 721.479 772.104 721.893 771.931 722.271C771.757 722.645 771.527 722.966 771.24 723.235C770.953 723.5 770.634 723.748 770.283 723.98C769.937 724.213 769.581 724.434 769.217 724.644C768.852 724.849 768.51 725.056 768.191 725.266C767.872 725.471 767.592 725.71 767.351 725.983C767.114 726.252 766.954 726.542 766.872 726.852V726.879H772.047V728H765.341C765.341 726.355 766.302 724.969 768.226 723.844C768.358 723.766 768.526 723.668 768.731 723.55C768.941 723.431 769.098 723.342 769.203 723.283C769.308 723.224 769.44 723.144 769.6 723.044C769.764 722.944 769.884 722.864 769.962 722.805C770.039 722.745 770.135 722.67 770.249 722.579C770.363 722.488 770.447 722.406 770.502 722.333C770.557 722.26 770.618 722.174 770.687 722.073C770.755 721.973 770.803 721.873 770.83 721.772C770.857 721.672 770.88 721.561 770.898 721.438C770.921 721.314 770.933 721.182 770.933 721.041C770.933 720.818 770.903 720.608 770.844 720.412C770.789 720.216 770.696 720.027 770.563 719.845C770.436 719.662 770.244 719.519 769.989 719.414C769.734 719.305 769.431 719.25 769.08 719.25C767.617 719.25 766.886 720.07 766.886 721.711ZM778.432 727.938C778.012 728.112 777.545 728.198 777.03 728.198C776.515 728.198 776.048 728.112 775.629 727.938C775.21 727.765 774.856 727.526 774.569 727.221C774.287 726.915 774.048 726.551 773.852 726.127C773.66 725.699 773.521 725.238 773.435 724.746C773.348 724.254 773.305 723.728 773.305 723.167C773.305 722.606 773.348 722.08 773.435 721.588C773.521 721.096 773.66 720.638 773.852 720.214C774.048 719.785 774.287 719.419 774.569 719.113C774.856 718.808 775.21 718.569 775.629 718.396C776.048 718.218 776.515 718.129 777.03 718.129C777.545 718.129 778.012 718.218 778.432 718.396C778.851 718.569 779.202 718.808 779.484 719.113C779.771 719.419 780.011 719.785 780.202 720.214C780.398 720.638 780.539 721.096 780.626 721.588C780.713 722.08 780.756 722.606 780.756 723.167C780.756 723.728 780.713 724.254 780.626 724.746C780.539 725.238 780.398 725.699 780.202 726.127C780.011 726.551 779.771 726.915 779.484 727.221C779.202 727.526 778.851 727.765 778.432 727.938ZM777.03 727.077C777.477 727.077 777.862 726.972 778.186 726.763C778.514 726.553 778.769 726.261 778.951 725.888C779.138 725.514 779.275 725.104 779.361 724.657C779.448 724.206 779.491 723.709 779.491 723.167C779.491 722.625 779.448 722.13 779.361 721.684C779.275 721.232 779.138 720.82 778.951 720.446C778.769 720.073 778.514 719.781 778.186 719.571C777.862 719.357 777.477 719.25 777.03 719.25C776.584 719.25 776.196 719.357 775.868 719.571C775.54 719.781 775.283 720.073 775.096 720.446C774.913 720.82 774.779 721.232 774.692 721.684C774.606 722.135 774.562 722.629 774.562 723.167C774.562 723.595 774.588 723.996 774.638 724.37C774.692 724.739 774.779 725.092 774.897 725.43C775.021 725.767 775.175 726.056 775.362 726.298C775.549 726.535 775.784 726.724 776.066 726.865C776.349 727.007 776.67 727.077 777.03 727.077ZM783.278 721.711H782.014C782.014 721.201 782.084 720.731 782.226 720.303C782.367 719.874 782.576 719.498 782.854 719.175C783.132 718.847 783.497 718.591 783.948 718.409C784.399 718.222 784.917 718.129 785.5 718.129C786.061 718.129 786.571 718.241 787.031 718.464C787.492 718.683 787.865 719.015 788.152 719.462C788.439 719.909 788.583 720.43 788.583 721.027C788.583 721.479 788.496 721.893 788.323 722.271C788.15 722.645 787.92 722.966 787.633 723.235C787.346 723.5 787.027 723.748 786.676 723.98C786.329 724.213 785.974 724.434 785.609 724.644C785.245 724.849 784.903 725.056 784.584 725.266C784.265 725.471 783.985 725.71 783.743 725.983C783.506 726.252 783.347 726.542 783.265 726.852V726.879H788.439V728H781.733C781.733 726.355 782.695 724.969 784.618 723.844C784.75 723.766 784.919 723.668 785.124 723.55C785.334 723.431 785.491 723.342 785.596 723.283C785.701 723.224 785.833 723.144 785.992 723.044C786.156 722.944 786.277 722.864 786.354 722.805C786.432 722.745 786.528 722.67 786.642 722.579C786.756 722.488 786.84 722.406 786.895 722.333C786.949 722.26 787.011 722.174 787.079 722.073C787.147 721.973 787.195 721.873 787.223 721.772C787.25 721.672 787.273 721.561 787.291 721.438C787.314 721.314 787.325 721.182 787.325 721.041C787.325 720.818 787.296 720.608 787.236 720.412C787.182 720.216 787.088 720.027 786.956 719.845C786.828 719.662 786.637 719.519 786.382 719.414C786.127 719.305 785.824 719.25 785.473 719.25C784.01 719.25 783.278 720.07 783.278 721.711ZM790.846 721.226H789.588C789.588 720.3 789.891 719.553 790.497 718.983C791.108 718.414 791.99 718.129 793.143 718.129C793.703 718.129 794.216 718.231 794.681 718.437C795.146 718.637 795.524 718.945 795.815 719.359C796.107 719.77 796.253 720.25 796.253 720.802C796.253 721.777 795.756 722.463 794.763 722.859V722.887C795.419 723.064 795.888 723.358 796.171 723.769C796.458 724.174 796.602 724.68 796.602 725.286C796.602 726.22 796.294 726.94 795.679 727.446C795.063 727.948 794.227 728.198 793.17 728.198C791.944 728.198 790.998 727.895 790.333 727.289C789.668 726.678 789.335 725.824 789.335 724.726H790.593C790.593 726.293 791.42 727.077 793.074 727.077C793.885 727.077 794.464 726.929 794.811 726.633C795.161 726.337 795.337 725.888 795.337 725.286C795.337 724.101 794.656 723.509 793.293 723.509H792.261V722.388H793.238C793.767 722.388 794.191 722.258 794.51 721.998C794.829 721.734 794.988 721.335 794.988 720.802C794.988 720.369 794.833 720.002 794.523 719.701C794.218 719.4 793.758 719.25 793.143 719.25C791.611 719.25 790.846 719.909 790.846 721.226Z" fill="black"/>
<path d="M893.146 724.951C893.146 725.293 893.116 725.614 893.057 725.915C893.002 726.216 892.904 726.51 892.763 726.797C892.621 727.079 892.441 727.323 892.223 727.528C892.008 727.729 891.73 727.891 891.389 728.014C891.047 728.137 890.657 728.198 890.22 728.198C889.782 728.198 889.393 728.137 889.051 728.014C888.709 727.891 888.431 727.729 888.217 727.528C888.003 727.323 887.825 727.079 887.684 726.797C887.547 726.51 887.449 726.216 887.39 725.915C887.335 725.614 887.308 725.293 887.308 724.951V724.671H888.565V724.951C888.565 725.22 888.575 725.45 888.593 725.642C888.616 725.833 888.661 726.024 888.729 726.216C888.798 726.407 888.891 726.562 889.01 726.681C889.128 726.799 889.288 726.895 889.488 726.968C889.693 727.041 889.937 727.077 890.22 727.077C890.502 727.077 890.746 727.041 890.951 726.968C891.156 726.895 891.318 726.799 891.437 726.681C891.555 726.562 891.648 726.407 891.717 726.216C891.785 726.024 891.831 725.833 891.854 725.642C891.876 725.446 891.888 725.215 891.888 724.951V717.992H893.146V724.951ZM899.1 722.682C899.1 721.989 898.614 721.643 897.644 721.643C896.974 721.643 896.502 721.75 896.229 721.964C895.955 722.178 895.8 722.547 895.764 723.071H894.643C894.679 722.338 894.941 721.754 895.429 721.321C895.921 720.884 896.659 720.665 897.644 720.665C897.926 720.665 898.188 720.688 898.43 720.733C898.676 720.779 898.91 720.856 899.134 720.966C899.357 721.075 899.546 721.214 899.701 721.383C899.856 721.551 899.979 721.768 900.07 722.032C900.166 722.292 900.214 722.588 900.214 722.921V726.387C900.214 726.697 900.266 726.915 900.371 727.043C900.476 727.166 900.695 727.209 901.027 727.173V727.959C900.804 728.032 900.585 728.068 900.371 728.068C900.011 728.068 899.733 728.002 899.537 727.87C899.341 727.733 899.195 727.478 899.1 727.104H899.072C898.58 727.834 897.771 728.198 896.646 728.198C895.93 728.198 895.358 728.011 894.93 727.638C894.506 727.264 894.294 726.774 894.294 726.168C894.294 725.849 894.342 725.569 894.438 725.327C894.538 725.086 894.668 724.885 894.827 724.726C894.987 724.566 895.205 724.425 895.483 724.302C895.761 724.174 896.039 724.074 896.317 724.001C896.595 723.928 896.939 723.853 897.35 723.775C898.015 723.652 898.473 723.522 898.724 723.386C898.974 723.249 899.1 723.014 899.1 722.682ZM896.762 727.214C897.468 727.214 898.033 727.05 898.457 726.722C898.885 726.394 899.1 725.901 899.1 725.245V724.049C898.917 724.231 898.366 724.418 897.445 724.609C896.721 724.764 896.201 724.951 895.887 725.17C895.572 725.389 895.415 725.703 895.415 726.113C895.415 726.847 895.864 727.214 896.762 727.214ZM905.368 720.665C905.701 720.665 906.008 720.713 906.291 720.809C906.574 720.9 906.826 721.039 907.05 721.226C907.273 721.408 907.446 721.654 907.569 721.964C907.697 722.269 907.761 722.62 907.761 723.017V728H906.64V723.297C906.64 722.8 906.514 722.401 906.264 722.101C906.013 721.795 905.621 721.643 905.088 721.643C904.464 721.643 903.955 721.823 903.563 722.183C903.176 722.538 902.982 722.994 902.982 723.55V728H901.868V720.863H902.982V721.711H903.017C903.235 721.415 903.541 721.166 903.933 720.966C904.329 720.765 904.808 720.665 905.368 720.665ZM913.995 720.863H915.116V728H913.995V727.146H913.968C913.749 727.442 913.441 727.692 913.045 727.897C912.648 728.098 912.172 728.198 911.616 728.198C911.284 728.198 910.974 728.15 910.687 728.055C910.404 727.964 910.151 727.827 909.928 727.645C909.709 727.458 909.536 727.212 909.408 726.906C909.281 726.596 909.217 726.243 909.217 725.847V720.863H910.338V725.566C910.338 726.063 910.463 726.462 910.714 726.763C910.969 727.063 911.363 727.214 911.896 727.214C912.521 727.214 913.027 727.036 913.414 726.681C913.801 726.325 913.995 725.869 913.995 725.313V720.863ZM921.029 722.682C921.029 721.989 920.544 721.643 919.573 721.643C918.903 721.643 918.432 721.75 918.158 721.964C917.885 722.178 917.73 722.547 917.693 723.071H916.572C916.609 722.338 916.871 721.754 917.358 721.321C917.851 720.884 918.589 720.665 919.573 720.665C919.856 720.665 920.118 720.688 920.359 720.733C920.605 720.779 920.84 720.856 921.063 720.966C921.287 721.075 921.476 721.214 921.631 721.383C921.786 721.551 921.909 721.768 922 722.032C922.096 722.292 922.144 722.588 922.144 722.921V726.387C922.144 726.697 922.196 726.915 922.301 727.043C922.406 727.166 922.624 727.209 922.957 727.173V727.959C922.734 728.032 922.515 728.068 922.301 728.068C921.941 728.068 921.663 728.002 921.467 727.87C921.271 727.733 921.125 727.478 921.029 727.104H921.002C920.51 727.834 919.701 728.198 918.575 728.198C917.86 728.198 917.288 728.011 916.859 727.638C916.436 727.264 916.224 726.774 916.224 726.168C916.224 725.849 916.271 725.569 916.367 725.327C916.467 725.086 916.597 724.885 916.757 724.726C916.916 724.566 917.135 724.425 917.413 724.302C917.691 724.174 917.969 724.074 918.247 724.001C918.525 723.928 918.869 723.853 919.279 723.775C919.945 723.652 920.403 723.522 920.653 723.386C920.904 723.249 921.029 723.014 921.029 722.682ZM918.691 727.214C919.398 727.214 919.963 727.05 920.387 726.722C920.815 726.394 921.029 725.901 921.029 725.245V724.049C920.847 724.231 920.296 724.418 919.375 724.609C918.65 724.764 918.131 724.951 917.816 725.17C917.502 725.389 917.345 725.703 917.345 726.113C917.345 726.847 917.794 727.214 918.691 727.214ZM926.915 720.665C927.157 720.665 927.378 720.679 927.578 720.706V721.827H927.551C926.79 721.704 926.159 721.875 925.657 722.34C925.16 722.8 924.912 723.418 924.912 724.192V728H923.798V720.863H924.912V722.271H924.946C925.151 721.761 925.409 721.367 925.719 721.089C926.033 720.806 926.432 720.665 926.915 720.665ZM934.64 720.863L931.591 728.588C931.39 729.089 931.224 729.436 931.092 729.627C930.736 730.142 930.24 730.402 929.602 730.406C929.273 730.406 928.957 730.361 928.651 730.27V729.429H928.815C929.153 729.461 929.431 729.449 929.649 729.395C929.868 729.344 930.066 729.226 930.244 729.039C930.354 728.921 930.445 728.784 930.518 728.629C930.59 728.479 930.638 728.294 930.661 728.075C930.688 727.856 930.652 727.635 930.552 727.412L927.852 720.863H929.109L931.297 726.681H931.324L933.382 720.863H934.64ZM939.452 721.711H938.188C938.188 721.201 938.258 720.731 938.399 720.303C938.541 719.874 938.75 719.498 939.028 719.175C939.306 718.847 939.671 718.591 940.122 718.409C940.573 718.222 941.09 718.129 941.674 718.129C942.234 718.129 942.745 718.241 943.205 718.464C943.665 718.683 944.039 719.015 944.326 719.462C944.613 719.909 944.757 720.43 944.757 721.027C944.757 721.479 944.67 721.893 944.497 722.271C944.324 722.645 944.094 722.966 943.807 723.235C943.52 723.5 943.201 723.748 942.85 723.98C942.503 724.213 942.148 724.434 941.783 724.644C941.419 724.849 941.077 725.056 940.758 725.266C940.439 725.471 940.159 725.71 939.917 725.983C939.68 726.252 939.521 726.542 939.438 726.852V726.879H944.613V728H937.907C937.907 726.355 938.869 724.969 940.792 723.844C940.924 723.766 941.093 723.668 941.298 723.55C941.507 723.431 941.665 723.342 941.77 723.283C941.874 723.224 942.007 723.144 942.166 723.044C942.33 722.944 942.451 722.864 942.528 722.805C942.606 722.745 942.701 722.67 942.815 722.579C942.929 722.488 943.014 722.406 943.068 722.333C943.123 722.26 943.185 722.174 943.253 722.073C943.321 721.973 943.369 721.873 943.396 721.772C943.424 721.672 943.447 721.561 943.465 721.438C943.488 721.314 943.499 721.182 943.499 721.041C943.499 720.818 943.469 720.608 943.41 720.412C943.355 720.216 943.262 720.027 943.13 719.845C943.002 719.662 942.811 719.519 942.556 719.414C942.3 719.305 941.997 719.25 941.646 719.25C940.184 719.25 939.452 720.07 939.452 721.711ZM950.998 727.938C950.579 728.112 950.112 728.198 949.597 728.198C949.082 728.198 948.615 728.112 948.195 727.938C947.776 727.765 947.423 727.526 947.136 727.221C946.853 726.915 946.614 726.551 946.418 726.127C946.227 725.699 946.088 725.238 946.001 724.746C945.914 724.254 945.871 723.728 945.871 723.167C945.871 722.606 945.914 722.08 946.001 721.588C946.088 721.096 946.227 720.638 946.418 720.214C946.614 719.785 946.853 719.419 947.136 719.113C947.423 718.808 947.776 718.569 948.195 718.396C948.615 718.218 949.082 718.129 949.597 718.129C950.112 718.129 950.579 718.218 950.998 718.396C951.417 718.569 951.768 718.808 952.051 719.113C952.338 719.419 952.577 719.785 952.769 720.214C952.965 720.638 953.106 721.096 953.192 721.588C953.279 722.08 953.322 722.606 953.322 723.167C953.322 723.728 953.279 724.254 953.192 724.746C953.106 725.238 952.965 725.699 952.769 726.127C952.577 726.551 952.338 726.915 952.051 727.221C951.768 727.526 951.417 727.765 950.998 727.938ZM949.597 727.077C950.043 727.077 950.428 726.972 950.752 726.763C951.08 726.553 951.335 726.261 951.518 725.888C951.704 725.514 951.841 725.104 951.928 724.657C952.014 724.206 952.058 723.709 952.058 723.167C952.058 722.625 952.014 722.13 951.928 721.684C951.841 721.232 951.704 720.82 951.518 720.446C951.335 720.073 951.08 719.781 950.752 719.571C950.428 719.357 950.043 719.25 949.597 719.25C949.15 719.25 948.763 719.357 948.435 719.571C948.106 719.781 947.849 720.073 947.662 720.446C947.48 720.82 947.345 721.232 947.259 721.684C947.172 722.135 947.129 722.629 947.129 723.167C947.129 723.595 947.154 723.996 947.204 724.37C947.259 724.739 947.345 725.092 947.464 725.43C947.587 725.767 947.742 726.056 947.929 726.298C948.116 726.535 948.35 726.724 948.633 726.865C948.915 727.007 949.237 727.077 949.597 727.077ZM955.845 721.711H954.58C954.58 721.201 954.651 720.731 954.792 720.303C954.933 719.874 955.143 719.498 955.421 719.175C955.699 718.847 956.063 718.591 956.515 718.409C956.966 718.222 957.483 718.129 958.066 718.129C958.627 718.129 959.137 718.241 959.598 718.464C960.058 718.683 960.432 719.015 960.719 719.462C961.006 719.909 961.149 720.43 961.149 721.027C961.149 721.479 961.063 721.893 960.89 722.271C960.716 722.645 960.486 722.966 960.199 723.235C959.912 723.5 959.593 723.748 959.242 723.98C958.896 724.213 958.54 724.434 958.176 724.644C957.811 724.849 957.469 725.056 957.15 725.266C956.831 725.471 956.551 725.71 956.31 725.983C956.073 726.252 955.913 726.542 955.831 726.852V726.879H961.006V728H954.3C954.3 726.355 955.261 724.969 957.185 723.844C957.317 723.766 957.485 723.668 957.69 723.55C957.9 723.431 958.057 723.342 958.162 723.283C958.267 723.224 958.399 723.144 958.559 723.044C958.723 722.944 958.843 722.864 958.921 722.805C958.998 722.745 959.094 722.67 959.208 722.579C959.322 722.488 959.406 722.406 959.461 722.333C959.516 722.26 959.577 722.174 959.646 722.073C959.714 721.973 959.762 721.873 959.789 721.772C959.816 721.672 959.839 721.561 959.857 721.438C959.88 721.314 959.892 721.182 959.892 721.041C959.892 720.818 959.862 720.608 959.803 720.412C959.748 720.216 959.655 720.027 959.522 719.845C959.395 719.662 959.203 719.519 958.948 719.414C958.693 719.305 958.39 719.25 958.039 719.25C956.576 719.25 955.845 720.07 955.845 721.711ZM967.514 728H966.249V725.73H961.587V724.609L966.249 718.327H967.514V724.609H968.84V725.73H967.514V728ZM966.249 720.077L962.879 724.609H966.249V720.077Z" fill="black"/>
<path d="M56 622.5C56 622.5 283.5 623 291 622.5C298.5 622 444.5 530 465.5 517.5C486.5 505 508 497.5 522 488.5C536 479.5 544.5 383 580 383C615.5 383 612.33 338.009 638.5 314.5C677.188 279.746 735 248 753 246.5C771 245 787.5 177 814 177C840.5 177 847.5 177 873 177C898.5 177 917 111 933.5 111C950 111 978.5 111 987 111C995.5 111 1006.5 99.5 1006.5 99.5" stroke="#236CE6"/>
<path d="M56 658H406.5C406.5 658 570 554 580.5 552C591 550 628.5 552 639.5 552C650.5 552 753.5 485.5 753.5 485.5C753.5 485.5 797 450 814 450C831 450 867.5 449.5 871.5 449.5C875.5 449.5 918.5 416.5 928.5 416.5C938.5 416.5 980 416.5 990.5 416.5C1001 416.5 1006.5 399.5 1006.5 399.5" stroke="#FF455B"/>
<rect x="933" y="108" width="8" height="8" rx="4" transform="rotate(90 933 108)" fill="#236CE6"/>
<rect x="994" y="106" width="8" height="8" rx="4" transform="rotate(90 994 106)" fill="#236CE6"/>
<rect x="883" y="173" width="8" height="8" rx="4" transform="rotate(90 883 173)" fill="#236CE6"/>
<rect x="813" y="173" width="8" height="8" rx="4" transform="rotate(90 813 173)" fill="#236CE6"/>
<rect x="758" y="242" width="8" height="8" rx="4" transform="rotate(90 758 242)" fill="#236CE6"/>
<rect x="636" y="318" width="8" height="8" rx="4" transform="rotate(90 636 318)" fill="#236CE6"/>
<rect x="584" y="379" width="8" height="8" rx="4" transform="rotate(90 584 379)" fill="#236CE6"/>
<rect x="527" y="483" width="8" height="8" rx="4" transform="rotate(90 527 483)" fill="#236CE6"/>
<rect x="476" y="511" width="8" height="8" rx="4" transform="rotate(90 476 511)" fill="#236CE6"/>
<rect x="294" y="618" width="8" height="8" rx="4" transform="rotate(90 294 618)" fill="#236CE6"/>
<rect x="644" y="547" width="8" height="8" rx="4" transform="rotate(90 644 547)" fill="#FF455B"/>
<rect x="815" y="446" width="8" height="8" rx="4" transform="rotate(90 815 446)" fill="#FF455B"/>
<rect x="759" y="480" width="8" height="8" rx="4" transform="rotate(90 759 480)" fill="#FF455B"/>
<rect x="585" y="548" width="8" height="8" rx="4" transform="rotate(90 585 548)" fill="#FF455B"/>
<rect x="410" y="653" width="8" height="8" rx="4" transform="rotate(90 410 653)" fill="#FF455B"/>
<rect x="876" y="445" width="8" height="8" rx="4" transform="rotate(90 876 445)" fill="#FF455B"/>
<rect x="933" y="412" width="8" height="8" rx="4" transform="rotate(90 933 412)" fill="#FF455B"/>
<rect x="997" y="412" width="8" height="8" rx="4" transform="rotate(90 997 412)" fill="#FF455B"/>
<path d="M2.99219 377.063L2.99219 375.799L7.24414 375.799L7.24414 370.453L2.99219 370.453L2.99219 369.195L13 369.195L13 370.453L8.36523 370.453L8.36523 375.799L13 375.799L13 377.063L2.99219 377.063ZM12.2139 364.308C12.2139 364.034 12.1797 363.784 12.1113 363.556C12.043 363.328 11.9587 363.141 11.8584 362.995C11.7581 362.845 11.6419 362.715 11.5098 362.605C11.3776 362.492 11.2546 362.407 11.1406 362.353C11.0221 362.293 10.9082 362.25 10.7988 362.223L10.7988 361.102C11.5143 361.298 12.0931 361.664 12.5352 362.202C12.9772 362.735 13.1982 363.424 13.1982 364.267C13.1982 365.338 12.8542 366.187 12.166 366.816C11.4779 367.441 10.5664 367.753 9.43164 367.753C8.2513 367.753 7.32845 367.445 6.66309 366.83C5.99772 366.21 5.66504 365.374 5.66504 364.321C5.66504 363.218 6.01823 362.389 6.72461 361.833C7.43099 361.272 8.43131 360.992 9.72559 360.992L9.72559 366.632C10.1676 366.632 10.5732 366.55 10.9424 366.386C11.3115 366.217 11.6169 365.953 11.8584 365.593C12.0954 365.233 12.2139 364.804 12.2139 364.308ZM6.64258 364.321C6.64258 364.987 6.84766 365.538 7.25781 365.976C7.66341 366.413 8.15788 366.632 8.74121 366.632L8.74121 362.106C8.15332 362.106 7.65657 362.312 7.25098 362.722C6.84538 363.132 6.64258 363.665 6.64258 364.321ZM7.68164 355.51C6.98893 355.51 6.64258 355.995 6.64258 356.966C6.64258 357.636 6.74967 358.107 6.96387 358.381C7.17806 358.654 7.5472 358.809 8.07129 358.846L8.07129 359.967C7.33756 359.93 6.75423 359.668 6.32129 359.181C5.88379 358.688 5.66504 357.95 5.66504 356.966C5.66504 356.683 5.68782 356.421 5.7334 356.18C5.77897 355.934 5.85644 355.699 5.96582 355.476C6.07519 355.252 6.21419 355.063 6.38281 354.908C6.55143 354.753 6.7679 354.63 7.03223 354.539C7.29199 354.443 7.58822 354.396 7.9209 354.396L11.3867 354.396C11.6966 354.396 11.9154 354.343 12.043 354.238C12.166 354.133 12.2093 353.915 12.1729 353.582L12.959 353.582C13.0319 353.805 13.0684 354.024 13.0684 354.238C13.0684 354.598 13.0023 354.876 12.8701 355.072C12.7334 355.268 12.4782 355.414 12.1045 355.51L12.1045 355.537C12.8337 356.029 13.1982 356.838 13.1982 357.964C13.1982 358.679 13.0114 359.251 12.6377 359.68C12.264 360.104 11.7741 360.315 11.168 360.315C10.849 360.315 10.5687 360.268 10.3271 360.172C10.0856 360.072 9.88509 359.942 9.72559 359.782C9.56608 359.623 9.4248 359.404 9.30176 359.126C9.17415 358.848 9.07389 358.57 9.00098 358.292C8.92806 358.014 8.85286 357.67 8.77539 357.26C8.65234 356.594 8.52246 356.136 8.38574 355.886C8.24902 355.635 8.01432 355.51 7.68164 355.51ZM12.2139 357.848C12.2139 357.141 12.0498 356.576 11.7217 356.152C11.3936 355.724 10.9014 355.51 10.2451 355.51L9.04883 355.51C9.23112 355.692 9.41797 356.243 9.60937 357.164C9.76432 357.889 9.95117 358.408 10.1699 358.723C10.3887 359.037 10.7031 359.194 11.1133 359.194C11.847 359.194 12.2139 358.745 12.2139 357.848ZM2.99219 347.662L2.99219 346.541L13 346.541L13 347.662L12.1182 347.662L12.1182 347.689C12.8382 348.236 13.1982 348.984 13.1982 349.932C13.1982 350.378 13.1117 350.798 12.9385 351.189C12.7653 351.581 12.5192 351.923 12.2002 352.215C11.8812 352.502 11.4847 352.73 11.0107 352.898C10.5322 353.067 10.0059 353.151 9.43164 353.151C8.85742 353.151 8.33333 353.067 7.85937 352.898C7.38086 352.73 6.9821 352.502 6.66308 352.215C6.34407 351.923 6.09798 351.581 5.9248 351.189C5.75163 350.798 5.66504 350.378 5.66504 349.932C5.66504 348.943 6.03874 348.195 6.78613 347.689L6.78613 347.662L2.99219 347.662ZM12.2139 349.815C12.2139 349.155 11.9632 348.631 11.4619 348.243C10.9561 347.856 10.2793 347.662 9.43164 347.662C8.58398 347.662 7.90723 347.856 7.40137 348.243C6.89551 348.631 6.64258 349.155 6.64258 349.815C6.64258 350.171 6.72233 350.492 6.88183 350.779C7.03678 351.066 7.24642 351.299 7.51074 351.477C7.77506 351.654 8.07357 351.791 8.40625 351.887C8.73437 351.982 9.07617 352.03 9.43164 352.03C9.91471 352.03 10.3636 351.951 10.7783 351.791C11.1885 351.632 11.5303 351.381 11.8037 351.039C12.0771 350.693 12.2139 350.285 12.2139 349.815ZM8.43359 339.937C8.22396 339.951 8.01888 339.999 7.81836 340.081C7.61784 340.159 7.42643 340.275 7.24414 340.43C7.06185 340.58 6.91601 340.787 6.80664 341.052C6.69726 341.312 6.64258 341.612 6.64258 341.954C6.64258 342.282 6.69726 342.581 6.80664 342.85C6.91146 343.114 7.05501 343.335 7.2373 343.513C7.41504 343.686 7.62695 343.834 7.87305 343.957C8.11458 344.076 8.36523 344.162 8.625 344.217C8.88476 344.267 9.15364 344.292 9.43164 344.292C9.78255 344.292 10.1175 344.249 10.4365 344.162C10.7555 344.076 11.0518 343.943 11.3252 343.766C11.5941 343.588 11.8105 343.344 11.9746 343.034C12.1341 342.72 12.2139 342.36 12.2139 341.954C12.2139 341.608 12.1592 341.305 12.0498 341.045C11.9404 340.781 11.7946 340.573 11.6123 340.423C11.4255 340.272 11.2295 340.159 11.0244 340.081C10.8148 339.999 10.596 339.951 10.3682 339.937L10.3682 338.816C11.1885 338.867 11.8652 339.183 12.3984 339.767C12.9316 340.35 13.1982 341.079 13.1982 341.954C13.1982 342.993 12.8519 343.829 12.1592 344.463C11.4665 345.096 10.5573 345.413 9.43164 345.413C8.30599 345.413 7.39681 345.096 6.7041 344.463C6.01139 343.829 5.66504 342.993 5.66504 341.954C5.66504 341.088 5.9248 340.37 6.44433 339.801C6.95931 339.231 7.62239 338.903 8.43359 338.816L8.43359 339.937ZM13.1982 334.653C13.1982 335.729 12.8542 336.581 12.166 337.21C11.4733 337.839 10.5618 338.153 9.43164 338.153C8.30143 338.153 7.39225 337.839 6.7041 337.21C6.01139 336.581 5.66504 335.729 5.66504 334.653C5.66504 333.582 6.01139 332.735 6.7041 332.11C7.39681 331.481 8.30599 331.167 9.43164 331.167C10.5573 331.167 11.4665 331.481 12.1592 332.11C12.8519 332.735 13.1982 333.582 13.1982 334.653ZM12.2139 334.653C12.2139 333.892 11.9518 333.309 11.4277 332.903C10.9036 332.493 10.2383 332.288 9.43164 332.288C8.625 332.288 7.95963 332.493 7.43554 332.903C6.9069 333.309 6.64258 333.892 6.64258 334.653C6.64258 335.424 6.9069 336.014 7.43555 336.424C7.95963 336.829 8.625 337.032 9.43164 337.032C10.2383 337.032 10.9036 336.829 11.4277 336.424C11.9518 336.014 12.2139 335.424 12.2139 334.653ZM5.86328 325.302L5.86328 324.181L13 324.181L13 325.302L12.1455 325.302L12.1455 325.329C12.4417 325.548 12.6924 325.855 12.8975 326.252C13.098 326.648 13.1982 327.125 13.1982 327.681C13.1982 328.013 13.1504 328.323 13.0547 328.61C12.9635 328.893 12.8268 329.146 12.6445 329.369C12.4577 329.588 12.2116 329.761 11.9062 329.889C11.5964 330.016 11.2432 330.08 10.8467 330.08L5.86328 330.08L5.86328 328.959L10.5664 328.959C11.0631 328.959 11.4619 328.834 11.7627 328.583C12.0635 328.328 12.2139 327.934 12.2139 327.4C12.2139 326.776 12.0361 326.27 11.6807 325.883C11.3252 325.495 10.8695 325.302 10.3135 325.302L5.86328 325.302ZM5.66504 319.136C5.66504 318.803 5.71289 318.495 5.80859 318.213C5.89974 317.93 6.03873 317.677 6.22558 317.454C6.40787 317.231 6.65397 317.058 6.96386 316.935C7.2692 316.807 7.62011 316.743 8.0166 316.743L13 316.743L13 317.864L8.29687 317.864C7.80013 317.864 7.40136 317.99 7.10058 318.24C6.79524 318.491 6.64258 318.883 6.64258 319.416C6.64258 320.04 6.82259 320.549 7.18261 320.94C7.53808 321.328 7.99381 321.521 8.5498 321.521L13 321.521L13 322.636L5.86328 322.636L5.86328 321.521L6.71094 321.521L6.71094 321.487C6.41471 321.269 6.16634 320.963 5.96582 320.571C5.7653 320.175 5.66504 319.696 5.66504 319.136ZM6.84082 312.272L6.84082 313.674L11.1406 313.674C11.528 313.674 11.7809 313.567 11.8994 313.353C12.0179 313.138 12.0589 312.778 12.0225 312.272L13 312.272C13.0547 312.523 13.082 312.803 13.082 313.113C13.082 313.642 12.9476 314.054 12.6787 314.351C12.4053 314.642 11.929 314.788 11.25 314.788L6.84082 314.788L6.84082 315.841L5.86328 315.841L5.86328 314.788L3.47754 314.788L3.47754 313.674L5.86328 313.674L5.86328 312.272L6.84082 312.272Z" fill="black"/>
<path d="M840.021 110.491H835.612L834.73 113H833.425L837.123 102.992H838.524L842.209 113H840.903L840.021 110.491ZM836.029 109.377H839.618L837.841 104.154H837.813L836.029 109.377ZM843.166 102.992H844.287V113H843.166V102.992ZM845.777 102.992H846.898V113H845.777V102.992Z" fill="#236CE6"/>
<line opacity="0.35" x1="841.5" y1="121" x2="841.5" y2="177" stroke="#236CE6"/>
<path d="M892.235 364V353.992H896.214C896.688 353.992 897.116 354.047 897.499 354.156C897.882 354.266 898.221 354.434 898.518 354.662C898.818 354.885 899.051 355.188 899.215 355.571C899.379 355.95 899.461 356.394 899.461 356.904C899.461 357.415 899.379 357.861 899.215 358.244C899.051 358.622 898.818 358.925 898.518 359.153C898.221 359.377 897.882 359.543 897.499 359.652C897.116 359.762 896.688 359.816 896.214 359.816H893.5V364H892.235ZM893.5 355.113V358.695H896.351C896.975 358.695 897.44 358.549 897.745 358.258C898.05 357.962 898.203 357.51 898.203 356.904C898.203 356.298 898.05 355.849 897.745 355.558C897.44 355.261 896.975 355.113 896.351 355.113H893.5ZM904.007 356.665C904.34 356.665 904.647 356.713 904.93 356.809C905.212 356.9 905.465 357.039 905.688 357.226C905.912 357.408 906.085 357.654 906.208 357.964C906.336 358.269 906.399 358.62 906.399 359.017V364H905.278V359.297C905.278 358.8 905.153 358.401 904.902 358.101C904.652 357.795 904.26 357.643 903.727 357.643C903.102 357.643 902.594 357.823 902.202 358.183C901.815 358.538 901.621 358.994 901.621 359.55V364H900.507V353.992H901.621V357.711H901.655C901.874 357.415 902.179 357.166 902.571 356.966C902.968 356.765 903.446 356.665 904.007 356.665ZM908.067 364V353.992H911.697C913.087 353.992 914.176 354.43 914.965 355.305C915.753 356.175 916.147 357.408 916.147 359.003C916.147 360.598 915.753 361.831 914.965 362.701C914.176 363.567 913.087 364 911.697 364H908.067ZM909.332 355.113V362.879H911.697C912.189 362.879 912.625 362.806 913.003 362.66C913.386 362.514 913.693 362.323 913.926 362.086C914.158 361.844 914.347 361.553 914.493 361.211C914.644 360.869 914.746 360.521 914.801 360.165C914.86 359.81 914.89 359.422 914.89 359.003C914.89 358.584 914.86 358.196 914.801 357.841C914.746 357.485 914.644 357.137 914.493 356.795C914.347 356.449 914.158 356.155 913.926 355.913C913.693 355.672 913.386 355.478 913.003 355.332C912.625 355.186 912.189 355.113 911.697 355.113H909.332Z" fill="#FF455B"/>
<line opacity="0.35" x1="905.5" y1="372" x2="905.5" y2="428" stroke="#FF455B"/>
</svg>
