<svg width="610" height="126" viewBox="0 0 610 126" fill="none" xmlns="http://www.w3.org/2000/svg">
<mask id="path-1-inside-1_1663_3393" fill="white">
<path fill-rule="evenodd" clip-rule="evenodd" d="M1.35216 125.922C79.32 48.6946 186.59 1 305 1C423.411 1 530.681 48.6946 608.648 125.922L609.352 125.212C531.205 47.8062 423.685 0 305 0C186.316 0 78.7959 47.8062 0.648438 125.212L1.35216 125.922Z"/>
</mask>
<path d="M1.35216 125.922L0.996924 126.274L1.34879 126.629L1.70402 126.277L1.35216 125.922ZM608.648 125.922L608.297 126.277L608.652 126.629L609.004 126.274L608.648 125.922ZM609.352 125.212L609.707 125.563L610.059 125.208L609.704 124.856L609.352 125.212ZM0.648438 125.212L0.296575 124.856L-0.0586594 125.208L0.293199 125.563L0.648438 125.212ZM305 0.5C304.329 0.5 303.658 0.50153 302.988 0.504588L302.993 1.50458C303.661 1.50153 304.331 1.5 305 1.5V0.5ZM282.927 1.05417C281.587 1.12162 280.248 1.19517 278.912 1.2748L278.971 2.27303C280.305 2.19358 281.64 2.1202 282.977 2.05291L282.927 1.05417ZM258.909 2.92988C257.576 3.07123 256.245 3.21864 254.916 3.37208L255.031 4.36548C256.357 4.21239 257.685 4.06533 259.014 3.9243L258.909 2.92988ZM235.035 6.13671C233.713 6.35189 232.394 6.57307 231.077 6.8002L231.247 7.78566C232.561 7.55905 233.877 7.33839 235.196 7.12371L235.035 6.13671ZM211.379 10.6721C210.073 10.9608 208.768 11.2554 207.466 11.5559L207.691 12.5303C208.99 12.2305 210.292 11.9365 211.595 11.6485L211.379 10.6721ZM188.018 16.5261C186.727 16.8882 185.44 17.2561 184.155 17.6298L184.434 18.59C185.716 18.2172 187.001 17.8501 188.288 17.4889L188.018 16.5261ZM165.017 23.6844C163.75 24.1181 162.485 24.5576 161.224 25.0028L161.556 25.9458C162.815 25.5017 164.077 25.0632 165.341 24.6305L165.017 23.6844ZM142.455 32.1229C141.216 32.6268 139.979 33.1362 138.745 33.6512L139.13 34.5741C140.361 34.0603 141.595 33.552 142.832 33.0493L142.455 32.1229ZM120.405 41.8131C119.195 42.3859 117.988 42.9642 116.784 43.5478L117.22 44.4477C118.421 43.8653 119.625 43.2884 120.833 42.717L120.405 41.8131ZM98.9305 52.7232C97.7541 53.3629 96.581 54.0078 95.4113 54.658L95.8972 55.5321C97.0642 54.8834 98.2345 54.2399 99.4081 53.6017L98.9305 52.7232ZM78.0983 64.8163C76.96 65.5203 75.8252 66.2294 74.6939 66.9436L75.2278 67.7891C76.3564 67.0766 77.4886 66.3691 78.6243 65.6668L78.0983 64.8163ZM57.9734 78.0507C56.8759 78.817 55.7822 79.5882 54.6922 80.3644L55.2723 81.179C56.3598 80.4046 57.451 79.6351 58.5459 78.8706L57.9734 78.0507ZM38.6152 92.3836C37.5619 93.2097 36.5126 94.0406 35.4672 94.8762L36.0916 95.6573C37.1345 94.8236 38.1815 93.9946 39.2323 93.1704L38.6152 92.3836ZM20.0818 107.769C19.0761 108.652 18.0746 109.54 17.0772 110.432L17.744 111.177C18.739 110.287 19.7383 109.401 20.7416 108.52L20.0818 107.769ZM2.42981 124.157C1.95222 124.626 1.47572 125.096 1.0003 125.567L1.70402 126.277C2.17835 125.807 2.65376 125.339 3.13025 124.871L2.42981 124.157ZM1.7074 125.57L1.64876 125.511L0.938281 126.215L0.996924 126.274L1.7074 125.57ZM1.06232 124.919L1.00368 124.86L0.293199 125.563L0.351843 125.623L1.06232 124.919ZM1.0003 125.567C1.47572 125.096 1.95223 124.626 2.42983 124.157L1.72939 123.444C1.2507 123.913 0.77309 124.384 0.296575 124.856L1.0003 125.567ZM17.0774 110.432C18.0748 109.539 19.0764 108.652 20.082 107.769L19.4222 107.017C18.4142 107.902 17.4104 108.792 16.4107 109.686L17.0774 110.432ZM35.4676 94.8759C36.513 94.0402 37.5624 93.2093 38.6157 92.3832L37.9985 91.5964C36.9428 92.4244 35.891 93.2572 34.8432 94.0948L35.4676 94.8759ZM54.6929 80.364C55.7829 79.5878 56.8766 78.8166 57.9741 78.0503L57.4016 77.2304C56.3016 77.9984 55.2053 78.7715 54.1128 79.5494L54.6929 80.364ZM74.6947 66.9431C75.8259 66.2289 76.9607 65.5198 78.099 64.8159L77.5731 63.9654C76.4321 64.671 75.2947 65.3817 74.1608 66.0976L74.6947 66.9431ZM95.4121 54.6577C96.5818 54.0075 97.7548 53.3625 98.9312 52.7229L98.4535 51.8443C97.2744 52.4855 96.0986 53.1319 94.9262 53.7836L95.4121 54.6577ZM116.784 43.5476C117.988 42.9639 119.195 42.3857 120.405 41.8129L119.978 40.909C118.765 41.4831 117.555 42.0627 116.348 42.6477L116.784 43.5476ZM138.745 33.6511C139.979 33.1361 141.216 32.6267 142.456 32.1228L142.079 31.1964C140.837 31.7014 139.597 32.212 138.36 32.7282L138.745 33.6511ZM161.223 25.0028C162.485 24.5576 163.75 24.1181 165.017 23.6844L164.693 22.7383C163.423 23.1731 162.155 23.6136 160.891 24.0598L161.223 25.0028ZM184.154 17.6299C185.439 17.2562 186.727 16.8883 188.017 16.5262L187.747 15.5634C186.454 15.9263 185.163 16.2951 183.875 16.6697L184.154 17.6299ZM207.465 11.556C208.767 11.2555 210.072 10.9609 211.378 10.6722L211.163 9.69578C209.853 9.98515 208.546 10.2805 207.24 10.5817L207.465 11.556ZM231.076 6.80036C232.393 6.57323 233.712 6.35205 235.034 6.13687L234.873 5.14988C233.548 5.36555 232.226 5.58724 230.906 5.81491L231.076 6.80036ZM254.915 3.37219C256.244 3.21875 257.575 3.07133 258.908 2.92998L258.802 1.93556C257.466 2.07724 256.133 2.22499 254.8 2.37879L254.915 3.37219ZM278.911 1.27485C280.247 1.19521 281.586 1.12165 282.926 1.0542L282.876 0.0554681C281.533 0.123072 280.191 0.196797 278.851 0.276616L278.911 1.27485ZM302.988 0.504588C303.658 0.50153 304.329 0.5 305 0.5V-0.5C304.328 -0.5 303.655 -0.498466 302.983 -0.495401L302.988 0.504588ZM305 0.5C305.671 0.5 306.342 0.50153 307.013 0.504588L307.017 -0.495402C306.345 -0.498466 305.673 -0.5 305 -0.5V0.5ZM327.074 1.0542C328.415 1.12165 329.753 1.19521 331.09 1.27484L331.149 0.276613C329.809 0.196794 328.468 0.12307 327.125 0.055466L327.074 1.0542ZM351.093 2.92998C352.426 3.07133 353.756 3.21874 355.085 3.37219L355.2 2.37879C353.868 2.22499 352.534 2.07723 351.198 1.93556L351.093 2.92998ZM374.967 6.13686C376.288 6.35204 377.608 6.57321 378.925 6.80035L379.095 5.81489C377.774 5.58723 376.452 5.36554 375.128 5.14986L374.967 6.13686ZM398.622 10.6722C399.929 10.9609 401.233 11.2555 402.535 11.556L402.76 10.5816C401.455 10.2804 400.147 9.98513 398.838 9.69575L398.622 10.6722ZM421.983 16.5262C423.274 16.8883 424.561 17.2562 425.846 17.6299L426.126 16.6697C424.837 16.2951 423.547 15.9263 422.254 15.5634L421.983 16.5262ZM444.984 23.6844C446.251 24.1181 447.515 24.5576 448.777 25.0028L449.11 24.0598C447.845 23.6135 446.578 23.173 445.308 22.7383L444.984 23.6844ZM467.545 32.1228C468.785 32.6266 470.022 33.1361 471.256 33.651L471.641 32.7282C470.404 32.212 469.164 31.7014 467.921 31.1964L467.545 32.1228ZM489.595 41.8129C490.805 42.3856 492.012 42.9639 493.216 43.5475L493.652 42.6477C492.446 42.0627 491.236 41.4831 490.023 40.909L489.595 41.8129ZM511.069 52.7228C512.246 53.3625 513.419 54.0074 514.588 54.6576L515.074 53.7836C513.902 53.1319 512.726 52.4854 511.547 51.8443L511.069 52.7228ZM531.901 64.8158C533.04 65.5198 534.175 66.2289 535.306 66.9431L535.84 66.0975C534.706 65.3816 533.568 64.6709 532.427 63.9653L531.901 64.8158ZM552.026 78.0502C553.124 78.8165 554.218 79.5878 555.308 80.364L555.888 79.5494C554.795 78.7714 553.699 77.9984 552.599 77.2303L552.026 78.0502ZM571.385 92.3832C572.438 93.2093 573.487 94.0402 574.533 94.8758L575.157 94.0947C574.109 93.2571 573.058 92.4243 572.002 91.5963L571.385 92.3832ZM589.919 107.769C590.924 108.652 591.926 109.539 592.923 110.432L593.59 109.686C592.59 108.792 591.586 107.902 590.578 107.017L589.919 107.769ZM607.571 124.157C608.048 124.626 608.525 125.096 609 125.567L609.704 124.856C609.227 124.384 608.75 123.913 608.271 123.444L607.571 124.157ZM608.997 124.86L608.938 124.919L609.649 125.623L609.707 125.563L608.997 124.86ZM608.352 125.511L608.293 125.57L609.004 126.274L609.062 126.215L608.352 125.511ZM609 125.567C608.525 125.096 608.048 124.626 607.571 124.157L606.87 124.871C607.347 125.339 607.822 125.807 608.297 126.277L609 125.567ZM592.923 110.432C591.926 109.54 590.924 108.652 589.919 107.769L589.259 108.52C590.262 109.401 591.262 110.287 592.257 111.177L592.923 110.432ZM574.533 94.8763C573.488 94.0406 572.439 93.2097 571.385 92.3836L570.768 93.1705C571.819 93.9947 572.866 94.8236 573.909 95.6574L574.533 94.8763ZM555.308 80.3645C554.218 79.5883 553.125 78.817 552.027 78.0507L551.455 78.8706C552.55 79.6352 553.641 80.4046 554.728 81.179L555.308 80.3645ZM535.307 66.9436C534.175 66.2294 533.041 65.5203 531.902 64.8163L531.376 65.6668C532.512 66.3692 533.644 67.0766 534.773 67.7892L535.307 66.9436ZM514.589 54.6581C513.42 54.0078 512.247 53.3629 511.07 52.7232L510.592 53.6018C511.766 54.2399 512.936 54.8834 514.103 55.5321L514.589 54.6581ZM493.217 43.5478C492.013 42.9642 490.806 42.3859 489.596 41.8132L489.168 42.717C490.375 43.2885 491.58 43.8654 492.781 44.4477L493.217 43.5478ZM471.256 33.6512C470.022 33.1362 468.785 32.6268 467.545 32.1229L467.169 33.0494C468.406 33.552 469.64 34.0603 470.871 34.5741L471.256 33.6512ZM448.777 25.0028C447.515 24.5576 446.251 24.1181 444.984 23.6844L444.66 24.6305C445.924 25.0632 447.186 25.5017 448.444 25.9459L448.777 25.0028ZM425.846 17.6298C424.561 17.2561 423.273 16.8882 421.983 16.5261L421.713 17.4889C423 17.8501 424.285 18.2172 425.567 18.5901L425.846 17.6298ZM402.534 11.5559C401.232 11.2554 399.928 10.9608 398.621 10.6721L398.405 11.6485C399.709 11.9366 401.01 12.2305 402.31 12.5303L402.534 11.5559ZM378.924 6.80021C377.606 6.57307 376.287 6.3519 374.966 6.13672L374.805 7.12372C376.123 7.3384 377.44 7.55905 378.754 7.78566L378.924 6.80021ZM355.084 3.37208C353.755 3.21864 352.424 3.07123 351.092 2.92988L350.986 3.9243C352.316 4.06533 353.644 4.2124 354.97 4.36548L355.084 3.37208ZM331.089 1.2748C329.752 1.19517 328.414 1.12162 327.074 1.05417L327.023 2.05291C328.36 2.1202 329.696 2.19358 331.03 2.27303L331.089 1.2748ZM307.013 0.504588C306.342 0.50153 305.671 0.5 305 0.5V1.5C305.67 1.5 306.339 1.50153 307.008 1.50458L307.013 0.504588ZM1.35216 125.922L0.641686 126.626L1.34541 127.336L2.05589 126.632L1.35216 125.922ZM608.648 125.922L607.945 126.632L608.655 127.336L609.359 126.626L608.648 125.922ZM609.352 125.212L610.063 125.915L610.766 125.205L610.056 124.501L609.352 125.212ZM0.648438 125.212L-0.0552874 124.501L-0.765756 125.205L-0.0620386 125.915L0.648438 125.212ZM305 0C304.328 0 303.657 0.00153201 302.986 0.00459272L302.995 2.00457C303.663 2.00153 304.331 2 305 2V0ZM282.902 0.554802C281.56 0.622325 280.22 0.695962 278.882 0.775685L279.001 2.77215C280.333 2.69279 281.667 2.61949 283.002 2.55227L282.902 0.554802ZM258.856 2.43267C257.522 2.57418 256.19 2.72176 254.859 2.87538L255.088 4.86218C256.413 4.70927 257.739 4.56237 259.067 4.42151L258.856 2.43267ZM234.954 5.64322C233.632 5.85864 232.311 6.08007 230.992 6.30747L231.332 8.27839C232.644 8.05204 233.959 7.83164 235.276 7.61721L234.954 5.64322ZM211.272 10.1838C209.963 10.4729 208.657 10.7678 207.354 11.0687L207.803 13.0175C209.101 12.718 210.401 12.4244 211.703 12.1367L211.272 10.1838ZM187.883 16.0447C186.591 16.4072 185.302 16.7755 184.015 17.1497L184.573 19.0701C185.854 18.6977 187.137 18.3311 188.423 17.9703L187.883 16.0447ZM164.855 23.2113C163.586 23.6456 162.32 24.0856 161.057 24.5313L161.723 26.4173C162.98 25.9737 164.24 25.5358 165.503 25.1035L164.855 23.2113ZM142.267 31.6597C141.026 32.1641 139.788 32.6742 138.552 33.1898L139.322 35.0355C140.552 34.5223 141.785 34.0146 143.02 33.5126L142.267 31.6597ZM120.191 41.3612C118.979 41.9346 117.771 42.5136 116.566 43.0979L117.438 44.8976C118.638 44.3159 119.841 43.7397 121.047 43.1689L120.191 41.3612ZM98.6916 52.284C97.5139 52.9243 96.3395 53.57 95.1684 54.221L96.1401 55.9691C97.3058 55.3211 98.4747 54.6784 99.647 54.041L98.6916 52.284ZM77.8353 64.3911C76.6957 65.0958 75.5596 65.8057 74.427 66.5208L75.4947 68.2119C76.622 67.5002 77.7529 66.7936 78.8872 66.0921L77.8353 64.3911ZM57.6872 77.6407C56.5884 78.4079 55.4934 79.1801 54.4022 79.9571L55.5623 81.5863C56.6485 80.8128 57.7385 80.0442 58.8321 79.2806L57.6872 77.6407ZM38.3066 91.9902C37.2521 92.8172 36.2016 93.6491 35.155 94.4857L36.4038 96.0479C37.4455 95.2151 38.4913 94.3871 39.5409 93.5639L38.3066 91.9902ZM19.7519 107.393C18.745 108.277 17.7424 109.166 16.7439 110.059L18.0773 111.55C19.0712 110.661 20.0693 109.776 21.0715 108.896L19.7519 107.393ZM2.07959 123.8C1.60145 124.27 1.1244 124.74 0.648437 125.212L2.05589 126.632C2.52966 126.163 3.00452 125.695 3.48046 125.228L2.07959 123.8ZM2.06264 125.218L2.00399 125.159L0.583043 126.566L0.641686 126.626L2.06264 125.218ZM1.41756 124.567L1.35891 124.508L-0.0620386 125.915L-0.0033949 125.974L1.41756 124.567ZM1.35216 125.922C1.82704 125.452 2.303 124.982 2.78004 124.514L1.37917 123.087C0.899929 123.557 0.421775 124.028 -0.0552874 124.501L1.35216 125.922ZM17.4108 110.804C18.407 109.913 19.4074 109.026 20.4119 108.144L19.0923 106.642C18.0832 107.528 17.0782 108.418 16.0773 109.314L17.4108 110.804ZM35.7798 95.2664C36.824 94.4318 37.8722 93.6018 38.9242 92.7767L37.69 91.2029C36.633 92.0319 35.5801 92.8657 34.531 93.7042L35.7798 95.2664ZM54.9829 80.7713C56.0716 79.996 57.1641 79.2256 58.2603 78.4602L57.1153 76.8204C56.0141 77.5893 54.9165 78.3633 53.8228 79.1422L54.9829 80.7713ZM74.9616 67.3659C76.0915 66.6525 77.225 65.9443 78.362 65.2411L77.3101 63.5401C76.1678 64.2465 75.0291 64.9581 73.8939 65.6748L74.9616 67.3659ZM95.655 55.0947C96.8233 54.4452 97.995 53.801 99.17 53.1621L98.2146 51.4051C97.0342 52.0469 95.857 52.6941 94.6833 53.3466L95.655 55.0947ZM117.002 43.9975C118.205 43.4145 119.411 42.8369 120.619 42.2648L119.764 40.4571C118.549 41.0319 117.338 41.6121 116.13 42.1978L117.002 43.9975ZM138.937 34.1125C140.17 33.5981 141.406 33.0893 142.644 32.586L141.891 30.7332C140.647 31.2388 139.406 31.75 138.167 32.2668L138.937 34.1125ZM161.39 25.4743C162.65 25.0297 163.913 24.5907 165.179 24.1574L164.531 22.2652C163.259 22.7005 161.991 23.1415 160.724 23.5883L161.39 25.4743ZM184.294 18.11C185.577 17.7367 186.864 17.3693 188.152 17.0076L187.612 15.082C186.317 15.4454 185.025 15.8145 183.735 16.1896L184.294 18.11ZM207.578 12.0432C208.878 11.7431 210.181 11.4488 211.486 11.1604L211.055 9.20755C209.744 9.49726 208.435 9.79291 207.128 10.0945L207.578 12.0432ZM231.161 7.29309C232.476 7.06622 233.794 6.8453 235.114 6.63037L234.792 4.65638C233.467 4.87231 232.143 5.09425 230.821 5.32218L231.161 7.29309ZM254.972 3.86889C256.3 3.71563 257.629 3.56838 258.961 3.42719L258.75 1.43835C257.412 1.58019 256.077 1.72811 254.743 1.88209L254.972 3.86889ZM278.94 1.77396C280.276 1.69442 281.613 1.62094 282.951 1.55357L282.851 -0.4439C281.506 -0.376219 280.163 -0.302409 278.821 -0.222499L278.94 1.77396ZM302.99 1.00458C303.66 1.00153 304.33 1 305 1V-1C304.327 -1 303.654 -0.998464 302.981 -0.995396L302.99 1.00458ZM305 1C305.671 1 306.341 1.00153 307.01 1.00458L307.019 -0.995397C306.347 -0.998464 305.674 -1 305 -1V1ZM327.049 1.55357C328.388 1.62094 329.725 1.69441 331.06 1.77396L331.179 -0.222503C329.838 -0.302412 328.495 -0.376221 327.15 -0.443902L327.049 1.55357ZM351.04 3.42719C352.371 3.56838 353.701 3.71562 355.028 3.86889L355.258 1.88208C353.924 1.72811 352.588 1.58019 351.251 1.43834L351.04 3.42719ZM374.887 6.63036C376.206 6.84529 377.524 7.06621 378.84 7.29308L379.18 5.32217C377.858 5.09424 376.534 4.87229 375.208 4.65636L374.887 6.63036ZM398.514 11.1604C399.819 11.4488 401.122 11.7431 402.423 12.0432L402.873 10.0944C401.566 9.79288 400.257 9.49724 398.946 9.20753L398.514 11.1604ZM421.848 17.0076C423.137 17.3692 424.423 17.7367 425.707 18.11L426.265 16.1896C424.976 15.8145 423.683 15.4453 422.389 15.082L421.848 17.0076ZM444.822 24.1574C446.087 24.5907 447.35 25.0296 448.611 25.4743L449.276 23.5882C448.01 23.1415 446.741 22.7005 445.47 22.2652L444.822 24.1574ZM467.357 32.586C468.595 33.0892 469.83 33.5981 471.063 34.1125L471.833 32.2668C470.595 31.75 469.354 31.2387 468.11 30.7331L467.357 32.586ZM489.381 42.2648C490.59 42.8369 491.796 43.4145 492.998 43.9974L493.871 42.1978C492.663 41.6121 491.451 41.0318 490.237 40.4571L489.381 42.2648ZM510.831 53.1621C512.005 53.801 513.177 54.4452 514.346 55.0947L515.317 53.3466C514.143 52.6941 512.966 52.0469 511.786 51.405L510.831 53.1621ZM531.638 65.2411C532.776 65.9442 533.909 66.6525 535.039 67.3659L536.107 65.6747C534.971 64.958 533.833 64.2465 532.69 63.5401L531.638 65.2411ZM551.74 78.4602C552.836 79.2256 553.929 79.9959 555.018 80.7712L556.178 79.1421C555.084 78.3632 553.986 77.5893 552.885 76.8204L551.74 78.4602ZM571.076 92.7766C572.128 93.6018 573.177 94.4317 574.221 95.2664L575.469 93.7042C574.42 92.8656 573.367 92.0319 572.311 91.2029L571.076 92.7766ZM589.589 108.144C590.593 109.026 591.594 109.913 592.59 110.804L593.923 109.314C592.922 108.418 591.917 107.528 590.908 106.641L589.589 108.144ZM607.221 124.514C607.698 124.982 608.174 125.452 608.648 125.922L610.056 124.501C609.579 124.028 609.101 123.557 608.621 123.087L607.221 124.514ZM608.642 124.508L608.583 124.567L610.004 125.974L610.063 125.915L608.642 124.508ZM607.997 125.159L607.938 125.218L609.359 126.626L609.418 126.567L607.997 125.159ZM609.352 125.212C608.876 124.74 608.399 124.27 607.921 123.8L606.52 125.228C606.996 125.695 607.471 126.163 607.945 126.632L609.352 125.212ZM593.257 110.059C592.258 109.166 591.256 108.277 590.249 107.393L588.929 108.896C589.931 109.776 590.929 110.661 591.923 111.55L593.257 110.059ZM574.846 94.4857C573.799 93.6491 572.748 92.8172 571.694 91.9902L570.46 93.5639C571.509 94.3871 572.555 95.2152 573.597 96.0479L574.846 94.4857ZM555.598 79.9572C554.507 79.1801 553.412 78.4079 552.313 77.6408L551.168 79.2806C552.262 80.0442 553.352 80.8128 554.438 81.5863L555.598 79.9572ZM535.574 66.5208C534.441 65.8058 533.305 65.0959 532.165 64.3911L531.113 66.0921C532.248 66.7936 533.379 67.5002 534.506 68.212L535.574 66.5208ZM514.832 54.2211C513.661 53.5701 512.487 52.9244 511.309 52.284L510.354 54.041C511.526 54.6784 512.695 55.3212 513.861 55.9691L514.832 54.2211ZM493.435 43.0979C492.23 42.5136 491.021 41.9347 489.81 41.3612L488.954 43.1689C490.16 43.7397 491.363 44.316 492.563 44.8976L493.435 43.0979ZM471.449 33.1898C470.213 32.6742 468.975 32.1642 467.733 31.6597L466.98 33.5126C468.216 34.0147 469.449 34.5223 470.678 35.0355L471.449 33.1898ZM448.943 24.5313C447.68 24.0856 446.414 23.6456 445.146 23.2113L444.498 25.1035C445.761 25.5358 447.021 25.9737 448.278 26.4174L448.943 24.5313ZM425.986 17.1497C424.699 16.7756 423.41 16.4072 422.118 16.0447L421.578 17.9703C422.863 18.3311 424.147 18.6977 425.427 19.0702L425.986 17.1497ZM402.647 11.0687C401.343 10.7678 400.037 10.4729 398.729 10.1838L398.298 12.1367C399.6 12.4244 400.9 12.718 402.197 13.0175L402.647 11.0687ZM379.009 6.30748C377.69 6.08008 376.369 5.85865 375.046 5.64322L374.725 7.61722C376.041 7.83165 377.356 8.05205 378.669 8.27839L379.009 6.30748ZM355.142 2.87538C353.811 2.72176 352.479 2.57418 351.144 2.43267L350.933 4.42152C352.262 4.56238 353.588 4.70927 354.912 4.86218L355.142 2.87538ZM331.119 0.775687C329.78 0.695964 328.44 0.622327 327.099 0.554803L326.998 2.55228C328.334 2.61949 329.668 2.69279 331 2.77215L331.119 0.775687ZM307.015 0.00459281C306.344 0.00153203 305.672 0 305 0V2C305.669 2 306.338 2.00153 307.006 2.00457L307.015 0.00459281Z" fill="black" mask="url(#path-1-inside-1_1663_3393)"/>
</svg>
