<svg width="1343" height="477" viewBox="0 0 1343 477" fill="none" xmlns="http://www.w3.org/2000/svg">
<mask id="mask0_1210_21077" style="mask-type:alpha" maskUnits="userSpaceOnUse" x="0" y="0" width="1343" height="477">
<path d="M108.795 9.28735H155.231V467.684H95.527V118.082C85.7974 127.812 72.5298 134.003 55.7241 136.657C39.3607 139.31 20.786 140.637 0 140.637V90.8834C28.7466 89.9988 50.417 86.6819 65.0115 80.9326C79.6059 74.7411 89.9988 65.896 96.1904 54.3973C102.382 42.4565 106.583 27.4198 108.795 9.28735Z" fill="black"/>
<path d="M399.315 476.972C367.915 476.972 340.937 470.78 318.382 458.397C296.269 446.014 278.137 428.766 263.985 406.653C249.832 384.541 239.439 359.111 232.806 330.364C226.172 301.618 222.855 271.102 222.855 238.818C222.855 206.091 226.172 175.354 232.806 146.607C239.439 117.861 249.832 92.6524 263.985 70.9819C278.137 48.8692 296.269 31.6212 318.382 19.2381C340.937 6.41269 367.915 0 399.315 0C430.715 0 457.471 6.41269 479.584 19.2381C502.139 31.6212 520.492 48.8692 534.645 70.9819C548.797 92.6524 559.19 117.861 565.824 146.607C572.457 175.354 575.774 206.091 575.774 238.818C575.774 271.102 572.457 301.618 565.824 330.364C559.19 359.111 548.797 384.541 534.645 406.653C520.492 428.766 502.139 446.014 479.584 458.397C457.471 470.78 430.715 476.972 399.315 476.972ZM399.315 423.901C421.427 423.901 439.781 419.036 454.375 409.307C468.97 399.135 480.468 385.425 488.871 368.177C497.716 350.487 503.908 330.585 507.446 308.473C511.426 286.36 513.416 263.142 513.416 238.818C513.416 214.494 511.426 191.275 507.446 169.162C503.908 146.607 497.716 126.706 488.871 109.458C480.468 92.2101 468.97 78.5002 454.375 68.3284C439.781 58.1565 421.427 53.0706 399.315 53.0706C377.644 53.0706 359.291 58.1565 344.254 68.3284C329.659 78.5002 317.94 92.2101 309.095 109.458C300.692 126.706 294.5 146.607 290.52 169.162C286.982 191.275 285.213 214.494 285.213 238.818C285.213 263.142 286.982 286.36 290.52 308.473C294.5 330.585 300.692 350.487 309.095 368.177C317.94 385.425 329.659 399.135 344.254 409.307C359.291 419.036 377.644 423.901 399.315 423.901Z" fill="black"/>
<path d="M810.378 476.972C778.978 476.972 752.001 470.78 729.446 458.397C707.333 446.014 689.201 428.766 675.048 406.653C660.896 384.541 650.503 359.111 643.869 330.364C637.236 301.618 633.919 271.102 633.919 238.818C633.919 206.091 637.236 175.354 643.869 146.607C650.503 117.861 660.896 92.6524 675.048 70.9819C689.201 48.8692 707.333 31.6212 729.446 19.2381C752.001 6.41269 778.978 0 810.378 0C841.778 0 868.535 6.41269 890.648 19.2381C913.203 31.6212 931.556 48.8692 945.708 70.9819C959.86 92.6524 970.253 117.861 976.887 146.607C983.521 175.354 986.838 206.091 986.838 238.818C986.838 271.102 983.521 301.618 976.887 330.364C970.253 359.111 959.86 384.541 945.708 406.653C931.556 428.766 913.203 446.014 890.648 458.397C868.535 470.78 841.778 476.972 810.378 476.972ZM810.378 423.901C832.491 423.901 850.845 419.036 865.439 409.307C880.033 399.135 891.532 385.425 899.935 368.177C908.78 350.487 914.972 330.585 918.51 308.473C922.49 286.36 924.48 263.142 924.48 238.818C924.48 214.494 922.49 191.275 918.51 169.162C914.972 146.607 908.78 126.706 899.935 109.458C891.532 92.2101 880.033 78.5002 865.439 68.3284C850.845 58.1565 832.491 53.0706 810.378 53.0706C788.708 53.0706 770.354 58.1565 755.318 68.3284C740.723 78.5002 729.003 92.2101 720.158 109.458C711.755 126.706 705.564 146.607 701.584 169.162C698.046 191.275 696.277 214.494 696.277 238.818C696.277 263.142 698.046 286.36 701.584 308.473C705.564 330.585 711.755 350.487 720.158 368.177C729.003 385.425 740.723 399.135 755.318 409.307C770.354 419.036 788.708 423.901 810.378 423.901Z" fill="black"/>
<path d="M1026.41 129.36H1090.09L1178.32 257.392H1179.65L1266.55 129.36H1329.57L1210.16 294.542L1342.18 467.684H1278.49L1178.32 331.028H1177L1078.81 467.684H1015.79L1146.48 294.542L1026.41 129.36Z" fill="black"/>
</mask>
<g mask="url(#mask0_1210_21077)">
<rect x="-55.9648" y="-60.3156" width="1591" height="626" fill="black"/>
</g>
</svg>
