<svg width="340" height="357" viewBox="0 0 340 357" fill="none" xmlns="http://www.w3.org/2000/svg">
<path d="M339.5 0V323C339.5 334.046 330.546 343 319.5 343H311.5" stroke="black"/>
<path d="M15.606 350H12.546V344.492H1.224V341.772L12.546 326.506H15.606V341.772H18.836V344.492H15.606V350ZM12.546 330.756L4.352 341.772H12.546V330.756ZM20.6399 332.66H23.9039L28.4259 339.222H28.4939L32.9479 332.66H36.1779L30.0579 341.126L36.8239 350H33.5599L28.4259 342.996H28.3579L23.3259 350H20.0959L26.7939 341.126L20.6399 332.66ZM58.4202 350.476C56.0402 350.476 53.9549 349.932 52.1642 348.844C50.3962 347.756 49.0136 346.26 48.0162 344.356C47.0189 342.452 46.5202 340.276 46.5202 337.828C46.5202 335.38 47.0189 333.215 48.0162 331.334C49.0136 329.43 50.3962 327.934 52.1642 326.846C53.9549 325.758 56.0402 325.214 58.4202 325.214C60.8002 325.214 62.8856 325.758 64.6762 326.846C66.4669 327.934 67.8496 329.43 68.8242 331.334C69.8216 333.215 70.3202 335.38 70.3202 337.828C70.3202 339.505 70.0709 341.069 69.5722 342.52C69.0962 343.971 68.4162 345.251 67.5322 346.362L70.4562 349.286L68.5182 351.224L65.5262 348.232C64.5742 348.935 63.4976 349.49 62.2962 349.898C61.1176 350.283 59.8256 350.476 58.4202 350.476ZM58.4202 347.756C59.4856 347.756 60.4376 347.631 61.2762 347.382C62.1376 347.11 62.8969 346.736 63.5542 346.26L60.2562 342.962L62.1942 341.024L65.4242 344.254C66.0136 343.37 66.4442 342.373 66.7162 341.262C66.9882 340.151 67.1242 339.007 67.1242 337.828C67.1242 336.083 66.8182 334.462 66.2062 332.966C65.6169 331.447 64.6762 330.235 63.3842 329.328C62.1149 328.399 60.4602 327.934 58.4202 327.934C56.3802 327.934 54.7142 328.399 53.4222 329.328C52.1529 330.235 51.2122 331.447 50.6002 332.966C50.0109 334.462 49.7162 336.083 49.7162 337.828C49.7162 339.573 50.0109 341.205 50.6002 342.724C51.2122 344.22 52.1529 345.433 53.4222 346.362C54.7142 347.291 56.3802 347.756 58.4202 347.756ZM76.2716 344.084C76.2716 345.195 76.5549 346.147 77.1216 346.94C77.7109 347.711 78.6856 348.096 80.0456 348.096C81.5869 348.096 82.8222 347.665 83.7516 346.804C84.6809 345.92 85.1456 344.809 85.1456 343.472V332.66H87.8656V350H85.1456V347.926H85.0776C84.6242 348.538 83.9216 349.116 82.9696 349.66C82.0402 350.204 80.8389 350.476 79.3656 350.476C78.3229 350.476 77.3596 350.283 76.4756 349.898C75.5916 349.49 74.8776 348.867 74.3336 348.028C73.8122 347.167 73.5516 346.079 73.5516 344.764V332.66H76.2716V344.084ZM96.548 350.476C94.8027 350.476 93.4087 350.023 92.366 349.116C91.346 348.187 90.836 346.997 90.836 345.546C90.836 344.209 91.142 343.166 91.754 342.418C92.366 341.67 93.2274 341.092 94.338 340.684C95.4487 340.276 96.752 339.936 98.248 339.664C99.7214 339.392 100.809 339.109 101.512 338.814C102.215 338.497 102.566 337.919 102.566 337.08C102.566 336.4 102.317 335.811 101.818 335.312C101.342 334.791 100.39 334.53 98.962 334.53C97.3074 334.53 96.174 334.802 95.562 335.346C94.9727 335.867 94.6327 336.763 94.542 338.032H91.686C91.754 336.921 92.0374 335.924 92.536 335.04C93.0574 334.156 93.8507 333.453 94.916 332.932C95.9814 332.411 97.364 332.15 99.064 332.15C100.152 332.15 101.161 332.32 102.09 332.66C103.019 333 103.767 333.578 104.334 334.394C104.923 335.21 105.218 336.332 105.218 337.76V346.09C105.218 346.77 105.275 347.28 105.388 347.62C105.524 347.96 105.762 348.13 106.102 348.13C106.147 348.13 106.204 348.13 106.272 348.13C106.34 348.13 106.419 348.119 106.51 348.096V350C106.283 350.045 106.068 350.079 105.864 350.102C105.66 350.147 105.433 350.17 105.184 350.17C104.436 350.17 103.835 349.989 103.382 349.626C102.951 349.241 102.691 348.515 102.6 347.45H102.532C101.965 348.379 101.183 349.116 100.186 349.66C99.2114 350.204 97.9987 350.476 96.548 350.476ZM96.82 348.096C98.452 348.096 99.812 347.711 100.9 346.94C102.011 346.169 102.566 344.957 102.566 343.302V340.548C102.317 340.82 101.807 341.069 101.036 341.296C100.265 341.523 99.4154 341.727 98.486 341.908C96.8087 342.271 95.5847 342.701 94.814 343.2C94.066 343.676 93.692 344.413 93.692 345.41C93.692 346.249 93.93 346.906 94.406 347.382C94.9047 347.858 95.7094 348.096 96.82 348.096ZM109.349 350V332.66H112.069V334.734H112.137C112.59 334.122 113.281 333.544 114.211 333C115.163 332.456 116.375 332.184 117.849 332.184C118.914 332.184 119.877 332.388 120.739 332.796C121.623 333.181 122.325 333.793 122.847 334.632C123.391 335.471 123.663 336.559 123.663 337.896V350H120.943V338.576C120.943 337.443 120.648 336.491 120.059 335.72C119.492 334.949 118.529 334.564 117.169 334.564C115.65 334.564 114.415 335.006 113.463 335.89C112.533 336.751 112.069 337.851 112.069 339.188V350H109.349ZM125.723 332.66H128.273V326.88H130.993V332.66H134.393V335.04H130.993V345.478C130.993 346.385 131.129 346.997 131.401 347.314C131.673 347.631 132.194 347.79 132.965 347.79C133.26 347.79 133.498 347.779 133.679 347.756C133.86 347.733 134.098 347.711 134.393 347.688V350C134.008 350.068 133.69 350.113 133.441 350.136C133.192 350.159 132.908 350.17 132.591 350.17C131.752 350.17 131.004 350.045 130.347 349.796C129.69 349.524 129.18 349.048 128.817 348.368C128.454 347.665 128.273 346.657 128.273 345.342V335.04H125.723V332.66ZM139.557 344.084C139.557 345.195 139.84 346.147 140.407 346.94C140.996 347.711 141.971 348.096 143.331 348.096C144.872 348.096 146.107 347.665 147.037 346.804C147.966 345.92 148.431 344.809 148.431 343.472V332.66H151.151V350H148.431V347.926H148.363C147.909 348.538 147.207 349.116 146.255 349.66C145.325 350.204 144.124 350.476 142.651 350.476C141.608 350.476 140.645 350.283 139.761 349.898C138.877 349.49 138.163 348.867 137.619 348.028C137.097 347.167 136.837 346.079 136.837 344.764V332.66H139.557V344.084ZM155.069 350V332.66H157.789V334.734H157.857C158.311 334.122 158.934 333.544 159.727 333C160.521 332.456 161.575 332.184 162.889 332.184C164.136 332.184 165.122 332.445 165.847 332.966C166.595 333.465 167.151 334.201 167.513 335.176H167.581C168.171 334.36 168.919 333.657 169.825 333.068C170.755 332.479 171.877 332.184 173.191 332.184C174.937 332.184 176.24 332.683 177.101 333.68C177.963 334.677 178.393 336.083 178.393 337.896V350H175.673V338.576C175.673 337.828 175.594 337.148 175.435 336.536C175.299 335.924 175.005 335.448 174.551 335.108C174.098 334.745 173.418 334.564 172.511 334.564C171.151 334.564 170.075 335.006 169.281 335.89C168.488 336.751 168.091 337.851 168.091 339.188V350H165.371V338.576C165.371 337.828 165.292 337.148 165.133 336.536C164.997 335.924 164.703 335.448 164.249 335.108C163.796 334.745 163.116 334.564 162.209 334.564C160.849 334.564 159.773 335.006 158.979 335.89C158.186 336.751 157.789 337.851 157.789 339.188V350H155.069ZM188.406 325.69H191.772L198.776 347.042H198.81L205.746 325.69H208.942L200.442 350H197.11L188.406 325.69ZM216.012 350.51C214.244 350.51 212.725 350.125 211.456 349.354C210.186 348.561 209.212 347.473 208.532 346.09C207.852 344.707 207.512 343.121 207.512 341.33C207.512 339.517 207.852 337.93 208.532 336.57C209.212 335.187 210.186 334.111 211.456 333.34C212.725 332.547 214.244 332.15 216.012 332.15C217.78 332.15 219.287 332.547 220.534 333.34C221.803 334.111 222.778 335.187 223.458 336.57C224.138 337.93 224.478 339.517 224.478 341.33C224.478 343.121 224.138 344.707 223.458 346.09C222.778 347.473 221.803 348.561 220.534 349.354C219.287 350.125 217.78 350.51 216.012 350.51ZM216.012 348.13C217.304 348.13 218.358 347.824 219.174 347.212C220.012 346.577 220.624 345.75 221.01 344.73C221.418 343.687 221.622 342.554 221.622 341.33C221.622 340.083 221.418 338.95 221.01 337.93C220.624 336.91 220.012 336.094 219.174 335.482C218.358 334.847 217.304 334.53 216.012 334.53C214.72 334.53 213.654 334.847 212.816 335.482C211.977 336.094 211.354 336.91 210.946 337.93C210.56 338.95 210.368 340.083 210.368 341.33C210.368 342.554 210.56 343.687 210.946 344.73C211.354 345.75 211.977 346.577 212.816 347.212C213.654 347.824 214.72 348.13 216.012 348.13ZM227.452 325.69H230.172V350H227.452V325.69ZM236.643 344.084C236.643 345.195 236.926 346.147 237.493 346.94C238.082 347.711 239.057 348.096 240.417 348.096C241.958 348.096 243.193 347.665 244.123 346.804C245.052 345.92 245.517 344.809 245.517 343.472V332.66H248.237V350H245.517V347.926H245.449C244.995 348.538 244.293 349.116 243.341 349.66C242.411 350.204 241.21 350.476 239.737 350.476C238.694 350.476 237.731 350.283 236.847 349.898C235.963 349.49 235.249 348.867 234.705 348.028C234.183 347.167 233.923 346.079 233.923 344.764V332.66H236.643V344.084ZM252.155 350V332.66H254.875V334.734H254.943C255.396 334.122 256.02 333.544 256.813 333C257.606 332.456 258.66 332.184 259.975 332.184C261.222 332.184 262.208 332.445 262.933 332.966C263.681 333.465 264.236 334.201 264.599 335.176H264.667C265.256 334.36 266.004 333.657 266.911 333.068C267.84 332.479 268.962 332.184 270.277 332.184C272.022 332.184 273.326 332.683 274.187 333.68C275.048 334.677 275.479 336.083 275.479 337.896V350H272.759V338.576C272.759 337.828 272.68 337.148 272.521 336.536C272.385 335.924 272.09 335.448 271.637 335.108C271.184 334.745 270.504 334.564 269.597 334.564C268.237 334.564 267.16 335.006 266.367 335.89C265.574 336.751 265.177 337.851 265.177 339.188V350H262.457V338.576C262.457 337.828 262.378 337.148 262.219 336.536C262.083 335.924 261.788 335.448 261.335 335.108C260.882 334.745 260.202 334.564 259.295 334.564C257.935 334.564 256.858 335.006 256.065 335.89C255.272 336.751 254.875 337.851 254.875 339.188V350H252.155ZM286.7 350.51C284.886 350.51 283.345 350.113 282.076 349.32C280.829 348.504 279.877 347.405 279.22 346.022C278.585 344.617 278.268 343.041 278.268 341.296C278.268 339.437 278.608 337.828 279.288 336.468C279.99 335.108 280.976 334.054 282.246 333.306C283.515 332.535 285 332.15 286.7 332.15C288.4 332.15 289.839 332.513 291.018 333.238C292.219 333.941 293.137 334.938 293.772 336.23C294.406 337.499 294.724 338.984 294.724 340.684C294.724 340.933 294.724 341.194 294.724 341.466C294.724 341.715 294.712 341.908 294.69 342.044H281.124C281.146 343.064 281.362 344.05 281.77 345.002C282.178 345.931 282.79 346.691 283.606 347.28C284.422 347.869 285.464 348.164 286.734 348.164C287.867 348.164 288.774 347.96 289.454 347.552C290.156 347.121 290.689 346.634 291.052 346.09C291.414 345.546 291.641 345.07 291.732 344.662H294.486C294.191 345.727 293.715 346.713 293.058 347.62C292.4 348.504 291.55 349.207 290.508 349.728C289.465 350.249 288.196 350.51 286.7 350.51ZM286.564 334.496C285.566 334.496 284.66 334.723 283.844 335.176C283.05 335.607 282.416 336.207 281.94 336.978C281.464 337.749 281.192 338.644 281.124 339.664H291.834C291.834 338.712 291.618 337.851 291.188 337.08C290.757 336.287 290.145 335.663 289.352 335.21C288.581 334.734 287.652 334.496 286.564 334.496Z" fill="black"/>
</svg>
