<svg width="576" height="79" viewBox="0 0 576 79" fill="none" xmlns="http://www.w3.org/2000/svg">
<path d="M575 39.5C575 41.7024 573.361 44.1038 569.592 46.63C565.868 49.1259 560.311 51.5724 553.059 53.9239C538.569 58.6227 517.548 62.8689 491.511 66.44C439.451 73.5802 367.498 78 288 78C208.502 78 136.549 73.5802 84.4891 66.44C58.4516 62.8689 37.4312 58.6227 22.9409 53.9239C15.6889 51.5724 10.1319 49.1259 6.40789 46.63C2.63891 44.1038 1 41.7024 1 39.5C1 37.2976 2.63891 34.8962 6.40789 32.37C10.1319 29.8741 15.6889 27.4276 22.9409 25.0761C37.4312 20.3773 58.4516 16.1311 84.4891 12.56C136.549 5.4198 208.502 1 288 1C367.498 1 439.451 5.4198 491.511 12.56C517.548 16.1311 538.569 20.3773 553.059 25.0761C560.311 27.4276 565.868 29.8741 569.592 32.37C573.361 34.8962 575 37.2976 575 39.5Z" stroke="url(#paint0_linear_2585_65)" stroke-width="2"/>
<defs>
<linearGradient id="paint0_linear_2585_65" x1="326.5" y1="-17" x2="323.28" y2="69.7464" gradientUnits="userSpaceOnUse">
<stop stop-color="white"/>
<stop offset="1" stop-color="white" stop-opacity="0"/>
</linearGradient>
</defs>
</svg>
