<svg width="1414" height="688" viewBox="0 0 1414 688" fill="none" xmlns="http://www.w3.org/2000/svg">
<path d="M1325.22 631.7V605.3H1328.95V617.963L1327.53 616.854H1339.98L1338.56 617.963V605.3H1342.28V631.7H1338.56V619.271L1339.98 620.38H1327.53L1328.95 619.271V631.7H1325.22Z" fill="black"/>
<path d="M1347.59 618.804V607.617H1349.79V609.28H1350.01C1350.28 608.719 1350.69 608.241 1351.2 607.894C1351.73 607.551 1352.35 607.374 1352.97 607.384H1353.06C1353.54 607.355 1354.02 607.44 1354.46 607.633C1354.9 607.826 1355.29 608.12 1355.59 608.493C1356.25 609.436 1356.56 610.573 1356.49 611.719V618.782H1354.28V611.852C1354.34 611.195 1354.17 610.538 1353.81 609.989C1353.64 609.786 1353.42 609.627 1353.18 609.525C1352.93 609.422 1352.67 609.38 1352.4 609.402H1352.31C1351.97 609.383 1351.62 609.439 1351.3 609.567C1350.97 609.695 1350.68 609.892 1350.44 610.145C1349.95 610.75 1349.7 611.525 1349.76 612.307V618.782L1347.59 618.804Z" fill="black"/>
<path fill-rule="evenodd" clip-rule="evenodd" d="M759.495 586.328C772.777 524.345 781 438.668 781 344C781 249.332 772.777 163.655 759.495 101.672C752.852 70.672 744.955 45.6521 736.217 28.4066C731.848 19.7823 727.294 13.1528 722.622 8.69175C717.955 4.23481 713.235 2 708.5 2C703.765 2 699.045 4.23481 694.378 8.69175C689.706 13.1528 685.152 19.7823 680.783 28.4066C672.045 45.6521 664.148 70.672 657.505 101.672C644.223 163.655 636 249.332 636 344C636 438.668 644.223 524.345 657.505 586.328C664.148 617.328 672.045 642.348 680.783 659.593C685.152 668.218 689.706 674.847 694.378 679.308C699.045 683.765 703.765 686 708.5 686C713.235 686 717.955 683.765 722.622 679.308C727.294 674.847 731.848 668.218 736.217 659.593C744.955 642.348 752.852 617.328 759.495 586.328ZM708.5 687C749.093 687 782 533.434 782 344C782 154.566 749.093 1 708.5 1C667.907 1 635 154.566 635 344C635 533.434 667.907 687 708.5 687Z" fill="black"/>
<path fill-rule="evenodd" clip-rule="evenodd" d="M207.926 416.135C335.626 434.585 512.076 446 707 446C901.924 446 1078.37 434.585 1206.07 416.135C1269.93 406.909 1321.56 395.93 1357.2 383.757C1375.02 377.668 1388.79 371.3 1398.08 364.74C1407.41 358.156 1412 351.541 1412 345C1412 338.459 1407.41 331.844 1398.08 325.26C1388.79 318.701 1375.02 312.332 1357.2 306.243C1321.56 294.07 1269.93 283.091 1206.07 273.865C1078.37 255.415 901.924 244 707 244C512.076 244 335.626 255.415 207.926 273.865C144.068 283.091 92.4431 294.07 56.8042 306.243C38.9783 312.332 25.2113 318.7 15.9202 325.26C6.59484 331.844 2 338.459 2 345C2 351.541 6.59484 358.156 15.9202 364.74C25.2113 371.299 38.9783 377.668 56.8042 383.757C92.4431 395.93 144.068 406.909 207.926 416.135ZM0.999996 345C0.999993 401.333 317.087 447 707 447C1096.91 447 1413 401.333 1413 345C1413 288.667 1096.91 243 707 243C317.087 243 0.999998 288.667 0.999996 345Z" fill="black"/>
<path fill-rule="evenodd" clip-rule="evenodd" d="M207.346 587.437C79.4895 525.32 -1.92031e-05 439.315 -1.50367e-05 344C-1.08704e-05 248.685 79.4895 162.68 207.346 100.563C335.27 38.4126 511.926 -3.94309e-05 707 -3.0904e-05C902.074 -2.2377e-05 1078.73 38.4126 1206.65 100.563C1334.51 162.68 1414 248.685 1414 344C1414 439.315 1334.51 525.32 1206.65 587.437C1078.73 649.587 902.074 688 707 688C511.926 688 335.27 649.587 207.346 587.437ZM0.999985 344C0.999977 533.434 317.087 687 707 687C1096.91 687 1413 533.434 1413 344C1413 154.566 1096.91 0.999986 707 0.999969C317.087 0.999952 0.999993 154.566 0.999985 344Z" fill="black"/>
</svg>
