<svg width="1412" height="686" viewBox="0 0 1412 686" fill="none" xmlns="http://www.w3.org/2000/svg">
<g clip-path="url(#clip0_4065_13822)">
<mask id="mask0_4065_13822" style="mask-type:luminance" maskUnits="userSpaceOnUse" x="0" y="0" width="1412" height="686">
<path d="M1412 0H0V686H1412V0Z" fill="white"/>
</mask>
<g mask="url(#mask0_4065_13822)">
<path d="M706 684.951C511.167 684.951 334.831 646.582 207.241 584.594C79.5803 522.572 1.0498 437.09 1.0498 343.001C1.04981 248.912 79.5804 163.43 207.241 101.408C334.831 39.4202 511.167 1.05077 706 1.05078C900.833 1.05079 1077.17 39.4202 1204.76 101.408C1332.42 163.43 1410.95 248.912 1410.95 343.001C1410.95 437.09 1332.42 522.572 1204.76 584.594C1077.17 646.582 900.833 684.951 706 684.951Z" stroke="black" stroke-width="2.1"/>
</g>
<path d="M705 684C700.309 684 695.631 681.772 690.999 677.32C686.362 672.865 681.839 666.24 677.499 657.617C668.819 640.375 660.972 615.356 654.37 584.354C641.172 522.366 633 436.68 633 342C633 247.32 641.172 161.634 654.37 99.6461C660.972 68.6433 668.819 43.6248 677.499 26.3827C681.839 17.76 686.362 11.1353 690.999 6.67916C695.631 2.22742 700.309 0 705 0" stroke="black" stroke-width="2.1"/>
<path d="M0 342C0 348.52 4.57836 355.125 13.9 361.709C23.1858 368.268 36.9485 374.637 54.7738 380.729C90.4108 392.906 142.036 403.891 205.897 413.121C333.603 431.579 510.064 443 705 443C899.936 443 1076.39 431.579 1204.1 413.121C1267.97 403.891 1319.59 392.907 1355.23 380.729C1373.05 374.637 1386.82 368.268 1396.1 361.709C1405.42 355.125 1410 348.52 1410 342" stroke="black" stroke-width="2.1"/>
</g>
<defs>
<clipPath id="clip0_4065_13822">
<rect width="1412" height="686" fill="white"/>
</clipPath>
</defs>
</svg>
