<svg width="1412" height="686" viewBox="0 0 1412 686" fill="none" xmlns="http://www.w3.org/2000/svg">
<path d="M1324.22 631.701V605.301H1327.95V617.963L1326.53 616.854H1338.98L1337.56 617.963V605.301H1341.28V631.701H1337.56V619.271L1338.98 620.38H1326.53L1327.95 619.271V631.701H1324.22Z" fill="black"/>
<path d="M1346.59 618.805V607.617H1348.79V609.28H1349.01C1349.28 608.72 1349.69 608.241 1350.2 607.894C1350.73 607.552 1351.35 607.375 1351.97 607.384H1352.06C1352.54 607.356 1353.02 607.441 1353.46 607.634C1353.9 607.826 1354.29 608.121 1354.59 608.493C1355.25 609.436 1355.56 610.574 1355.49 611.72V618.783H1353.28V611.853C1353.34 611.196 1353.17 610.539 1352.81 609.99C1352.64 609.787 1352.42 609.627 1352.18 609.525C1351.93 609.423 1351.67 609.381 1351.4 609.402H1351.31C1350.97 609.383 1350.62 609.44 1350.3 609.568C1349.97 609.696 1349.68 609.893 1349.44 610.145C1348.95 610.751 1348.7 611.525 1348.76 612.307V618.783L1346.59 618.805Z" fill="black"/>
<path d="M779.95 343C779.95 437.389 771.727 522.812 758.446 584.61C751.803 615.517 743.907 640.459 735.173 657.648C730.806 666.245 726.254 672.849 721.589 677.291C716.928 681.729 712.22 683.95 707.5 683.95C702.78 683.95 698.072 681.729 693.411 677.291C688.746 672.849 684.194 666.245 679.827 657.648C671.093 640.459 663.197 615.517 656.554 584.61C643.273 522.812 635.05 437.389 635.05 343C635.05 248.611 643.273 163.188 656.554 101.39C663.197 70.4826 671.093 45.5409 679.827 28.3517C684.194 19.7555 688.746 13.1511 693.411 8.70866C698.072 4.27058 702.78 2.05 707.5 2.05C712.22 2.05 716.928 4.27058 721.589 8.70866C726.254 13.1511 730.806 19.7555 735.173 28.3517C743.907 45.5409 751.803 70.4826 758.446 101.39C771.727 163.188 779.95 248.611 779.95 343Z" stroke="black" stroke-width="2.1"/>
<path d="M706 444.95C511.354 444.95 335.156 433.535 207.64 415.086C143.874 405.86 92.3262 394.881 56.7422 382.71C38.9435 376.621 25.2013 370.255 15.9293 363.699C6.62158 357.118 2.05004 350.517 2.05004 344C2.05004 337.483 6.62158 330.882 15.9293 324.301C25.2013 317.745 38.9435 311.379 56.7422 305.29C92.3262 293.118 143.874 282.14 207.64 272.914C335.156 254.465 511.354 243.05 706 243.05C900.646 243.05 1076.84 254.465 1204.36 272.914C1268.13 282.14 1319.67 293.119 1355.26 305.29C1373.06 311.379 1386.8 317.745 1396.07 324.301C1405.38 330.882 1409.95 337.483 1409.95 344C1409.95 350.517 1405.38 357.118 1396.07 363.699C1386.8 370.255 1373.06 376.621 1355.26 382.71C1319.67 394.882 1268.13 405.86 1204.36 415.086C1076.84 433.535 900.646 444.95 706 444.95Z" stroke="black" stroke-width="2.1"/>
<path d="M706 684.95C511.167 684.95 334.831 646.581 207.241 584.593C79.5805 522.571 1.05003 437.089 1.05003 343C1.05004 248.911 79.5806 163.429 207.241 101.407C334.831 39.4194 511.167 1.04996 706 1.04997C900.833 1.04998 1077.17 39.4194 1204.76 101.407C1332.42 163.429 1410.95 248.911 1410.95 343C1410.95 437.089 1332.42 522.571 1204.76 584.593C1077.17 646.581 900.833 684.95 706 684.95Z" stroke="black" stroke-width="2.1"/>
</svg>
