<svg width="1412" height="686" viewBox="0 0 1412 686" fill="none" xmlns="http://www.w3.org/2000/svg">
<style>
    path {
        <!-- fill: black; -->
         stroke: black;
        stroke-width: 2.1;
    }
</style>
<g clip-path="url(#clip0_3246_16214)">

<path d="M779.95 343C779.95 437.389 771.727 522.812 758.446 584.61C751.803 615.517 743.907 640.459 735.173 657.648C730.806 666.245 726.254 672.849 721.589 677.291C716.928 681.729 712.22 683.95 707.5 683.95C702.78 683.95 698.072 681.729 693.411 677.291C688.746 672.849 684.194 666.245 679.827 657.648C671.093 640.459 663.197 615.517 656.554 584.61C643.273 522.812 635.05 437.389 635.05 343C635.05 248.611 643.273 163.188 656.554 101.39C663.197 70.4824 671.093 45.5407 679.827 28.3515C684.194 19.7553 688.746 13.1509 693.411 8.70846C698.072 4.27038 702.78 2.0498 707.5 2.0498C712.22 2.0498 716.928 4.27038 721.589 8.70846C726.254 13.1509 730.806 19.7553 735.173 28.3515C743.907 45.5407 751.803 70.4824 758.446 101.39C771.727 163.188 779.95 248.611 779.95 343Z" stroke="black" stroke-width="2.1"/>
<path d="M706 444.95C511.354 444.95 335.156 433.535 207.64 415.086C143.874 405.86 92.326 394.881 56.742 382.71C38.9433 376.621 25.2011 370.255 15.9291 363.699C6.62134 357.118 2.0498 350.517 2.0498 344C2.0498 337.483 6.62134 330.882 15.9291 324.301C25.2011 317.745 38.9433 311.379 56.742 305.29C92.326 293.118 143.874 282.14 207.64 272.914C335.156 254.465 511.354 243.05 706 243.05C900.646 243.05 1076.84 254.465 1204.36 272.914C1268.13 282.14 1319.67 293.119 1355.26 305.29C1373.06 311.379 1386.8 317.745 1396.07 324.301C1405.38 330.882 1409.95 337.483 1409.95 344C1409.95 350.517 1405.38 357.118 1396.07 363.699C1386.8 370.255 1373.06 376.621 1355.26 382.71C1319.67 394.882 1268.13 405.86 1204.36 415.086C1076.84 433.535 900.646 444.95 706 444.95Z" stroke="black" stroke-width="2.1"/>
<path d="M706 684.95C511.167 684.95 334.831 646.581 207.241 584.593C79.5803 522.571 1.0498 437.089 1.0498 343C1.04981 248.911 79.5804 163.429 207.241 101.407C334.831 39.4192 511.167 1.04979 706 1.0498C900.833 1.04981 1077.17 39.4192 1204.76 101.407C1332.42 163.429 1410.95 248.911 1410.95 343C1410.95 437.089 1332.42 522.571 1204.76 584.593C1077.17 646.581 900.833 684.95 706 684.95Z" stroke="black" stroke-width="2.1"/>
</g>
<defs>
<clipPath id="clip0_3246_16214">
<rect width="1412" height="686" fill="white"/>
</clipPath>
</defs>
</svg>
