<svg width="1860" height="429" viewBox="0 0 1860 429" fill="none" xmlns="http://www.w3.org/2000/svg">
<rect x="12" y="325.473" width="8" height="8" fill="black"/>
<rect x="12" y="203.473" width="8" height="8" fill="black"/>
<rect x="252" y="203.473" width="8" height="8" fill="black"/>
<rect x="416" y="203" width="8" height="8" fill="black"/>
<rect x="566" y="220.002" width="8" height="8" transform="rotate(-7.19183 566 220.002)" fill="black"/>
<rect x="649.538" y="203.697" width="8" height="8" transform="rotate(-15.6638 649.538 203.697)" fill="black"/>
<rect x="779" y="69.1504" width="8" height="8" transform="rotate(-23.1855 779 69.1504)" fill="black"/>
<rect x="872.842" y="7.73828" width="8" height="8" transform="rotate(7.92396 872.842 7.73828)" fill="black"/>
<rect x="779" y="227.652" width="8" height="8" transform="rotate(-44.9483 779 227.652)" fill="black"/>
<rect x="714" y="171.652" width="8" height="8" transform="rotate(-44.9483 714 171.652)" fill="black"/>
<rect x="816" y="234.652" width="8" height="8" transform="rotate(-44.9483 816 234.652)" fill="black"/>
<rect x="873" y="202.652" width="8" height="8" transform="rotate(-44.9483 873 202.652)" fill="black"/>
<rect x="886" y="163.652" width="8" height="8" transform="rotate(-44.9483 886 163.652)" fill="black"/>
<rect x="808" y="147.652" width="8" height="8" transform="rotate(-44.9483 808 147.652)" fill="black"/>
<rect x="848.007" y="294.375" width="8" height="8" transform="rotate(-42.1342 848.007 294.375)" fill="black"/>
<rect x="1059.98" y="228.475" width="8" height="8" transform="rotate(-10.7704 1059.98 228.475)" fill="black"/>
<rect x="1238" y="269.494" width="8" height="8" transform="rotate(-10.7704 1238 269.494)" fill="black"/>
<rect x="1287.24" y="332.572" width="8" height="8" transform="rotate(19.4514 1287.24 332.572)" fill="black"/>
<rect x="1095.51" y="165.365" width="8" height="8" transform="rotate(-20.8924 1095.51 165.365)" fill="black"/>
<rect x="1240.21" y="91" width="8" height="8" transform="rotate(40.6252 1240.21 91)" fill="black"/>
<rect x="1343.07" y="224.529" width="8" height="8" transform="rotate(70.38 1343.07 224.529)" fill="black"/>
<rect x="1647.54" y="123" width="8" height="8" transform="rotate(70.38 1647.54 123)" fill="black"/>
<rect x="1516.34" y="319" width="8" height="8" transform="rotate(24.6983 1516.34 319)" fill="black"/>
<rect x="1563.34" y="201" width="8" height="8" transform="rotate(24.6983 1563.34 201)" fill="black"/>
<rect x="919" y="234.514" width="8" height="8" transform="rotate(-18.3129 919 234.514)" fill="black"/>
<rect x="402.457" y="61.873" width="8" height="8" transform="rotate(-33.506 402.457 61.873)" fill="black"/>
<rect x="383.905" y="103.543" width="8" height="8" transform="rotate(-19.2469 383.905 103.543)" fill="black"/>
<rect x="342" y="88.6367" width="8" height="8" transform="rotate(-19.2469 342 88.6367)" fill="black"/>
<rect x="450" y="95.6367" width="8" height="8" transform="rotate(-19.2469 450 95.6367)" fill="black"/>
<rect x="512.568" y="94.4863" width="8" height="8" transform="rotate(-81.847 512.568 94.4863)" fill="black"/>
<rect x="300" y="203.473" width="8" height="8" fill="black"/>
<rect x="336" y="203.473" width="8" height="8" fill="black"/>
<rect x="472.627" y="138.99" width="8" height="8" transform="rotate(72.6661 472.627 138.99)" fill="black"/>
<rect x="605.729" y="122.398" width="8" height="8" transform="rotate(52.2941 605.729 122.398)" fill="black"/>
<rect x="608.354" y="176.369" width="8" height="8" transform="rotate(86.4215 608.354 176.369)" fill="black"/>
<rect x="508.463" y="141.623" width="8" height="8" transform="rotate(-8.33871 508.463 141.623)" fill="black"/>
<rect x="343" y="169.004" width="8" height="8" transform="rotate(-38.7198 343 169.004)" fill="black"/>
<rect x="12" y="294.473" width="8" height="8" fill="black"/>
<rect x="12" y="172.473" width="8" height="8" fill="black"/>
<rect x="252" y="172.473" width="8" height="8" fill="black"/>
<rect x="300" y="172.473" width="8" height="8" fill="black"/>
<rect x="60" y="172.473" width="8" height="8" fill="black"/>
<rect x="60" y="203" width="8" height="8" fill="black"/>
<rect x="60" y="233" width="8" height="8" fill="black"/>
<rect x="156" y="172.473" width="8" height="8" fill="black"/>
<rect x="156" y="203" width="8" height="8" fill="black"/>
<rect x="176.551" y="288.488" width="8" height="8" transform="rotate(14.9412 176.551 288.488)" fill="black"/>
<rect x="124.062" y="340" width="8" height="8" transform="rotate(14.9412 124.062 340)" fill="black"/>
<rect x="60" y="112.473" width="8" height="8" fill="black"/>
<rect x="156" y="112.473" width="8" height="8" fill="black"/>
<rect x="108" y="172.473" width="8" height="8" fill="black"/>
<rect x="108" y="203" width="8" height="8" fill="black"/>
<rect x="118.398" y="255.209" width="8" height="8" transform="rotate(-36.9558 118.398 255.209)" fill="black"/>
<rect x="108" y="303" width="8" height="8" fill="black"/>
<rect x="204" y="172.473" width="8" height="8" fill="black"/>
<rect x="204" y="203" width="8" height="8" fill="black"/>
<rect x="190.15" y="239.654" width="8" height="8" transform="rotate(25.9165 190.15 239.654)" fill="black"/>
<rect x="200" y="325" width="8" height="8" fill="black"/>
<rect x="276" y="356" width="8" height="8" fill="black"/>
<rect x="428.08" y="292.344" width="8" height="8" transform="rotate(45.8142 428.08 292.344)" fill="black"/>
<rect x="463" y="332" width="8" height="8" fill="black"/>
<rect x="676.064" y="312" width="8" height="8" transform="rotate(7.64731 676.064 312)" fill="black"/>
<rect x="220" y="303" width="8" height="8" fill="black"/>
<rect x="284.35" y="289.738" width="8" height="8" transform="rotate(-42.3456 284.35 289.738)" fill="black"/>
<rect x="372.4" y="294.918" width="8" height="8" transform="rotate(-3.71889 372.4 294.918)" fill="black"/>
<rect x="241.065" y="263.234" width="8" height="8" transform="rotate(-15.7336 241.065 263.234)" fill="black"/>
<rect x="304.498" y="225.375" width="8" height="8" transform="rotate(-28.9827 304.498 225.375)" fill="black"/>
<rect x="108" y="112.473" width="8" height="8" fill="black"/>
<rect x="204" y="112.473" width="8" height="8" fill="black"/>
<rect x="12" y="263.473" width="8" height="8" fill="black"/>
<rect x="96" y="263.676" width="8" height="8" transform="rotate(-12.0964 96 263.676)" fill="black"/>
<rect x="12" y="142.473" width="8" height="8" fill="black"/>
<rect x="252" y="142.473" width="8" height="8" fill="black"/>
<rect x="300" y="142.473" width="8" height="8" fill="black"/>
<rect x="60" y="142.473" width="8" height="8" fill="black"/>
<rect x="156" y="142.473" width="8" height="8" fill="black"/>
<rect x="60" y="82.4727" width="8" height="8" fill="black"/>
<rect x="156" y="82.4727" width="8" height="8" fill="black"/>
<rect x="108" y="142.473" width="8" height="8" fill="black"/>
<rect x="204" y="142.473" width="8" height="8" fill="black"/>
<rect x="108" y="82.4727" width="8" height="8" fill="black"/>
<rect x="204" y="82.4727" width="8" height="8" fill="black"/>
<rect x="12" y="233.473" width="8" height="8" fill="black"/>
<rect x="12" y="112.473" width="8" height="8" fill="black"/>
<rect x="252" y="112.473" width="8" height="8" fill="black"/>
<rect x="300" y="112.473" width="8" height="8" fill="black"/>
<rect x="60" y="112.473" width="8" height="8" fill="black"/>
<rect x="156" y="112.473" width="8" height="8" fill="black"/>
<rect x="60" y="52.4727" width="8" height="8" fill="black"/>
<rect x="156" y="52.4727" width="8" height="8" fill="black"/>
<rect x="108" y="112.473" width="8" height="8" fill="black"/>
<rect x="204" y="112.473" width="8" height="8" fill="black"/>
<rect x="108" y="52.4727" width="8" height="8" fill="black"/>
<rect x="204" y="52.4727" width="8" height="8" fill="black"/>
<rect x="12" y="82.4727" width="8" height="8" fill="black"/>
<rect x="252" y="82.4727" width="8" height="8" fill="black"/>
<rect x="300" y="82.4727" width="8" height="8" fill="black"/>
<rect x="28" y="141.473" width="8" height="8" rx="4" fill="black"/>
<rect x="268" y="141.473" width="8" height="8" rx="4" fill="black"/>
<rect x="28" y="52.4727" width="8" height="8" rx="4" fill="black"/>
<rect x="268" y="52.4727" width="8" height="8" rx="4" fill="black"/>
<rect x="172" y="112.473" width="8" height="8" rx="4" fill="black"/>
<rect x="76" y="82.4727" width="8" height="8" rx="4" fill="black"/>
<rect x="92" y="82.4727" width="8" height="8" rx="4" fill="black"/>
<rect x="188" y="203" width="8" height="8" rx="4" fill="black"/>
<rect x="28" y="263" width="8" height="8" rx="4" fill="black"/>
<rect x="124" y="112.473" width="8" height="8" rx="4" fill="black"/>
<rect x="220" y="112.473" width="8" height="8" rx="4" fill="black"/>
<rect x="124" y="52.4727" width="8" height="8" rx="4" fill="black"/>
<rect x="220" y="52.4727" width="8" height="8" rx="4" fill="black"/>
<rect x="188" y="52.4727" width="8" height="8" rx="4" fill="black"/>
<rect x="44" y="82.4727" width="8" height="8" rx="4" fill="black"/>
<rect x="284" y="111.473" width="8" height="8" rx="4" fill="black"/>
<rect x="44" y="203.473" width="8" height="8" rx="4" fill="black"/>
<rect x="44" y="294" width="8" height="8" rx="4" fill="black"/>
<rect x="284" y="142.473" width="8" height="8" rx="4" fill="black"/>
<rect x="92" y="172.473" width="8" height="8" rx="4" fill="black"/>
<rect x="84" y="235" width="8" height="8" rx="4" fill="black"/>
<rect x="92" y="331" width="8" height="8" rx="4" fill="black"/>
<rect x="172" y="203" width="8" height="8" rx="4" fill="black"/>
<rect x="140" y="141.473" width="8" height="8" rx="4" fill="black"/>
<rect x="146" y="237" width="8" height="8" rx="4" fill="black"/>
<rect x="140" y="112.473" width="8" height="8" rx="4" fill="black"/>
<rect x="316" y="51.4727" width="8" height="8" rx="4" fill="black"/>
<rect x="236" y="112.473" width="8" height="8" rx="4" fill="black"/>
<rect x="236" y="172.473" width="8" height="8" rx="4" fill="black"/>
<rect x="12" y="52.4727" width="8" height="8" fill="black"/>
<rect x="252" y="52.4727" width="8" height="8" fill="black"/>
<rect x="300" y="52.4727" width="8" height="8" fill="black"/>
<rect x="30" y="113.473" width="4" height="4" rx="2" fill="black"/>
<rect x="270" y="113.473" width="4" height="4" rx="2" fill="black"/>
<rect x="30" y="84.4727" width="4" height="4" rx="2" fill="black"/>
<rect x="30" y="327.5" width="4" height="4" rx="2" fill="black"/>
<rect x="270" y="84.4727" width="4" height="4" rx="2" fill="black"/>
<rect x="174" y="144.473" width="4" height="4" rx="2" fill="black"/>
<rect x="78" y="54.4727" width="4" height="4" rx="2" fill="black"/>
<rect x="190" y="84.4727" width="4" height="4" rx="2" fill="black"/>
<rect x="126" y="174.473" width="4" height="4" rx="2" fill="black"/>
<rect x="222" y="144.473" width="4" height="4" rx="2" fill="black"/>
<rect x="238" y="205.473" width="4" height="4" rx="2" fill="black"/>
<rect x="126" y="84.4727" width="4" height="4" rx="2" fill="black"/>
<rect x="222" y="84.4727" width="4" height="4" rx="2" fill="black"/>
<rect x="46" y="113.473" width="4" height="4" rx="2" fill="black"/>
<rect x="286" y="84.4727" width="4" height="4" rx="2" fill="black"/>
<rect x="46" y="144.473" width="4" height="4" rx="2" fill="black"/>
<rect x="286" y="205.473" width="4" height="4" rx="2" fill="black"/>
<rect x="94" y="144.473" width="4" height="4" rx="2" fill="black"/>
<rect x="86" y="266" width="4" height="4" rx="2" fill="black"/>
<rect x="94" y="303" width="4" height="4" rx="2" fill="black"/>
<rect x="174" y="174.473" width="4" height="4" rx="2" fill="black"/>
<rect x="190" y="144" width="4" height="4" rx="2" fill="black"/>
<rect x="94" y="113.473" width="4" height="4" rx="2" fill="black"/>
<rect x="142" y="174.473" width="4" height="4" rx="2" fill="black"/>
<rect x="142" y="54.4727" width="4" height="4" rx="2" fill="black"/>
<rect x="318" y="114.473" width="4" height="4" rx="2" fill="black"/>
<rect x="238" y="54.4727" width="4" height="4" rx="2" fill="black"/>
<path d="M0 176.472C44.3333 176.472 264.401 176.472 320.001 176.472C373.001 176.472 353.501 137.973 371.001 137.973C388.501 137.973 374.5 176.472 413 176.472C451.5 176.472 418.5 248.473 486 248.473C546 248.473 518.5 174.377 575.5 180.973C636 187.973 682.5 151.472 722 125.472C761.5 99.4723 818.5 54.9727 847 90.4727C868.248 116.94 805.5 175.473 780.5 200.473C745.5 235.473 709 286.973 753.5 316.973C803.936 350.975 875.5 277.973 905.5 247.973C928.5 224.973 973.5 229.473 966 302.473C958.5 375.473 1115 373.473 1179.5 307.473C1240.16 245.407 1295.5 276.973 1321.5 313.973C1347.5 350.973 1405.5 354.473 1429 313.973C1452.5 273.473 1483.5 266.973 1568.5 321.973C1653.5 376.973 1706.5 345.473 1706.5 313.973C1706.5 282.473 1667.5 250.973 1626.5 282.473C1585.5 313.973 1568.5 288.973 1568.5 268.473C1568.5 247.973 1588.5 225.973 1633 237.473C1677.5 248.973 1721 257.973 1779 237.473C1842.27 215.112 1818 181.045 1772.5 172.473C1738 165.973 1726.5 119.473 1784 121.973C1841.5 124.473 1857.5 108.473 1842.5 91.9727C1827.5 75.4727 1831 58.9727 1862.5 58.4727" stroke="black"/>
<path d="M0 56.4716C0 56.4716 314.5 56.4715 363 56.4715C411.5 56.4715 400 110.472 449.5 110.472C499 110.472 513.5 44.4727 543.5 56.4715C573.744 68.568 498 138.973 531 154.972C564 170.97 671.5 85.4331 637.5 73.9715C619.638 67.9503 595 134.472 644.5 134.472C694 134.472 727.331 31.7576 778 40.9715C816.5 47.9725 795.5 92.9716 778 110.472C760.5 127.972 736.5 154.972 707 184.472C660.999 230.473 647.5 282.471 682 302.971C726 329.116 779 276.972 816.5 239.472C854 201.972 916.5 139.471 931 124.972C945.5 110.472 980.5 86.4718 1015 110.472C1049.5 134.472 1027 187.472 1001 213.472C975 239.472 955 324.471 1044.5 325.471C1134 326.471 1179 198.472 1192.5 144.972C1208.65 80.9725 1130.5 65.9718 1106 110.472C1081.5 154.972 1104.5 193.972 1144 193.972C1183.5 193.972 1217.7 136.003 1232 110.472C1246 85.4715 1274.5 47.9104 1316 64.9715C1361 83.4715 1349.5 159.972 1326 213.472C1302.5 266.972 1251.5 314.971 1192.5 314.971C1133.5 314.971 1047 307.972 984.5 174.472C933.236 64.9715 1039 38.4715 1071 110.472C1106.77 190.951 1206.95 196.972 1274.5 181.972C1342.05 166.972 1415.44 117.973 1445 110.472C1478.5 101.972 1525.5 109.472 1530.5 174.472C1535.85 243.972 1598 255.011 1636 228.472C1659.9 211.778 1734 148.472 1873 193.972" stroke="black"/>
<path d="M10.7751 237.473C10.7751 237.473 -34.7253 237.473 61.2745 237.473C157.274 237.473 171.474 291.473 238.274 291.473C305.074 291.473 296.275 237.473 345.775 237.473C395.275 237.473 391.775 335.973 466.775 335.973C541.775 335.973 516.775 254.973 570.775 254.973C624.775 254.973 610.275 315.473 655.775 315.473C743.398 315.473 740.275 362.973 876.275 356.973C1012.28 350.973 1061.77 314.973 1093.77 335.973C1125.77 356.973 1171.77 367.973 1227.27 341.473C1282.77 314.973 1293.27 356.973 1389.27 356.973C1485.27 356.973 1453.27 270.473 1536.77 317.973C1620.27 365.473 1697.27 322.473 1683.27 291.473C1669.27 260.473 1702.27 250.973 1720.77 272.973C1734.81 289.658 1767.57 356.399 1828.27 342.973C1880.27 331.473 1885.77 326.473 1885.77 326.473" stroke="black"/>
<path d="M0 86.4665C44.1667 86.4665 289.8 86.4665 309 86.4665C333 86.4665 329.5 75.9665 338.5 75.9665C347.5 75.9665 344.5 103.466 357.5 103.466C370.5 103.466 368 75.9665 377.5 75.9665C388.5 75.9665 382.5 122.466 404.5 122.466C426.5 122.466 423 75.9665 440 75.9665C460 75.9665 475.5 210.979 505.5 189.973C521.618 178.687 461.5 68.9727 505.5 68.9727C565 68.9727 533.387 252.892 690.5 128.966C847.613 5.04094 868.999 92.4704 839 122.466C823.966 137.499 750 209.467 729 230.467C694 265.467 734 332.467 796 280.467C858 228.467 913.499 165.968 932 147.467C966.5 112.967 1029.43 125.467 1009 182.467C988.566 239.467 1023 344.467 1121 318.467C1219 292.467 1177.5 197.967 1121 209.467C1064.5 220.967 1079 300.486 1138 288.467C1192 277.467 1232.01 215.802 1250 173.467C1274.22 116.467 1330 117.467 1330 182.467C1330 247.467 1388 307.126 1470 302.467C1558 297.467 1594.33 229.677 1603 182.467C1612 133.467 1659 89.4671 1735 173.467C1795.8 240.667 1849.67 272.134 1869 279.467" stroke="black"/>
<path d="M1864.5 322.47C1780 353.97 1773.5 313.97 1777.5 280.47C1782.69 236.97 1873 41.9701 1676.5 14.4701C1480 -13.0299 1413 195.469 1423 92.9694C1433 -9.53065 1363.29 3.11613 1327.5 26.9729C1263 69.9726 1158 92.9693 1080 55.9693C1002 18.9693 941 36.4694 923 92.9694C905 149.469 922.5 212.469 958 217.969C993.5 223.469 1034 162.969 1037 98.9694C1040 34.9694 1067 22.4693 1087.5 28.9693C1108 35.4693 1117.5 73.9694 1100 102.969C1082.5 131.969 1000.5 160.97 991 48.9697C981.5 -63.0303 766.5 123.97 739 138.97C711.5 153.97 688.568 151.356 682.5 138.97C670.5 114.473 691 42.4726 633 38.9696C568 35.0439 565 128.97 473.5 74.4699C382 19.9699 405 115.97 320 115.97C274.5 115.97 99.8333 115.97 0 115.97" stroke="black"/>
<path d="M0 297.473C20.6999 297.473 40.764 297.473 61 297.473C81.236 297.473 93.5 306.973 110 306.973C140 306.973 146.159 291.973 167.5 291.973C188.841 291.973 205.954 306.973 230.5 306.973C361.5 306.973 350.5 111.973 441.5 174.473C532.5 236.973 501.577 267.478 494.5 274.972C486 283.973 451.5 300.472 418.5 252.972C385.5 205.472 435 150.974 507 174.473C579 197.972 594 147.972 585.5 128.972C577 109.972 583.5 62.9724 652 66.4724C720.5 69.9724 745.5 -59.0274 1054 60.4726C1362.5 179.973 1334.5 82.9725 1339 60.4726C1346 25.4727 1381.5 30.4728 1391 45.4727C1400.5 60.4726 1404.5 93.9727 1385.5 126.973C1366.5 159.973 1411.5 197.473 1480 109.973C1548.5 22.4727 1690 32.9727 1725 50.9727C1760 68.9727 1784.5 108.973 1780 156.473C1776.4 194.473 1836.83 234.306 1867.5 249.473" stroke="black"/>
<path d="M32 116.973V146.973" stroke="black"/>
<path d="M272 116.973V146.973" stroke="black"/>
<path d="M32 55.9727V85.9727" stroke="black"/>
<path d="M32 267L32 329" stroke="black"/>
<path d="M272 55.9727V85.9727" stroke="black"/>
<path d="M176 115.973V145.973" stroke="black"/>
<path d="M80 57.9727V87.9727" stroke="black"/>
<path d="M192 87.4727L192 56.4727" stroke="black"/>
<path d="M128 115.473L128 176.473" stroke="black"/>
<path d="M224 115.973V145.973" stroke="black"/>
<path d="M240 176.473V206.473" stroke="black"/>
<path d="M128 55.9727V85.9727" stroke="black"/>
<path d="M224 55.9727V85.9727" stroke="black"/>
<path d="M48 115.473L48 86.4727" stroke="black"/>
<path d="M48 297L48 268" stroke="black"/>
<path d="M288 115.473L288 86.4727" stroke="black"/>
<path d="M48 207.473L48 146.473" stroke="black"/>
<path d="M288 207.473L288 146.473" stroke="black"/>
<path d="M96 146.473L96 175.473" stroke="black"/>
<path d="M88 238L88 267" stroke="black"/>
<path d="M96 305L96 334" stroke="black"/>
<path d="M176 176.473L176 205.473" stroke="black"/>
<path d="M192 146L192 206" stroke="black"/>
<path d="M96 115.473L96 86.4727" stroke="black"/>
<path d="M144 146.473L144 176.473" stroke="black"/>
<path d="M144 56.4727L144 115.473" stroke="black"/>
<path d="M320 56.4727L320 115.473" stroke="black"/>
<path d="M240 56.4727L240 115.473" stroke="black"/>
<path d="M0 207.477C44.3333 207.477 282.901 207.477 338.501 207.477C378.001 207.477 372.001 176.204 384.501 178.477C397.001 180.75 394.001 207.477 416.5 207.477C455 207.477 454.5 144.977 522 144.977C589.5 144.977 572 201.344 625 207.477C678 213.609 682.5 182.477 722 156.477C761.5 130.477 818.5 85.977 847 121.477C868.248 147.944 805.5 206.477 780.5 231.477C745.5 266.477 708.999 317.977 753.5 347.977C803.936 381.979 875.5 308.977 905.5 278.977C928.5 255.977 973.5 260.477 966 333.477C958.5 406.477 1115 404.477 1179.5 338.477C1240.15 276.411 1295.5 307.977 1321.5 344.977C1347.5 381.977 1405.5 385.477 1429 344.977C1452.5 304.477 1483.5 297.977 1568.5 352.977C1653.5 407.977 1706.5 376.477 1706.5 344.977C1706.5 313.477 1667.5 281.977 1626.5 313.477C1585.5 344.977 1568.5 319.977 1568.5 299.477C1568.5 278.977 1588.5 256.977 1633 268.477C1677.5 279.977 1713.5 288.977 1771.5 268.477C1834.77 246.116 1806.5 220.977 1763 209.477C1729.06 200.504 1726.5 150.477 1784 152.977C1835 155.194 1812.5 204.5 1831 204.5C1849.5 204.5 1831 169.504 1862.5 169.004" stroke="black"/>
<path d="M0 329.103C15.2958 329.103 37.583 329.103 62.5 329.103C96.5 329.103 113.348 345.973 138.5 345.973C162.541 345.973 181 329.103 202.999 329.103C255.999 329.103 246.499 359.103 279.999 359.103C313.499 359.103 312.999 329.103 351.499 329.103C389.999 329.103 389.499 391.603 456.999 391.603C524.499 391.603 518.999 335.699 575.999 329.103C636.499 322.103 682.5 354.103 722 380.103C761.5 406.103 818.5 450.603 847 415.103C868.248 388.636 805.5 330.103 780.5 305.103C745.5 270.103 708.999 218.603 753.5 188.603C803.936 154.601 875.5 227.603 905.5 257.603C928.5 280.603 973.5 276.103 966 203.103C958.5 130.103 1115 132.103 1179.5 198.103C1240.15 260.169 1295.5 228.603 1321.5 191.603C1347.5 154.603 1405.5 151.103 1429 191.603C1452.5 232.103 1483.5 238.603 1568.5 183.603C1653.5 128.603 1706.5 160.103 1706.5 191.603C1706.5 223.103 1667.5 254.603 1626.5 223.103C1585.5 191.603 1568.5 216.603 1568.5 237.103C1568.5 257.603 1616 299.103 1633 268.103C1650 237.103 1562 168.473 1597 77.4727C1667 -104.527 1903 95.4727 1779 95.4727C1743.89 95.4727 1726.5 73.4727 1784 70.9727C1841.5 68.4727 1857.5 84.4727 1842.5 100.973C1827.5 117.473 1831 133.973 1862.5 134.473" stroke="black"/>
<path d="M0 146.13C36.8333 146.13 289.4 146.13 309 146.13C333.5 146.13 297.308 211.473 294.5 238.473C291.692 265.473 314.5 290.243 343 279.13C396.644 258.213 334.5 155.63 439 203.13C543.5 250.63 526 319.13 508 343.13C490 367.13 448 377.13 409 354.13C370 331.13 376.5 284.13 377.5 272.13C378.5 260.13 400 242.63 416 279.13C432 315.63 469 325.13 486.5 312.13C504 299.13 495.469 273.802 523 245.473C557.5 209.973 627 215.973 644 257.973C664.036 307.473 610.5 410.13 810 337.63C1009.5 265.13 940 356.63 932 364.63C924 372.63 919.5 407.63 980 395.63C1040.5 383.63 1118 316.63 1057 295.13C996 273.63 1040.5 206.13 1116 241.13C1191.5 276.13 1235 204.63 1254.5 176.13C1274 147.63 1339.5 133.63 1401 181.63C1462.5 229.63 1571 222.13 1509.5 264.13C1448 306.13 1333.96 291.63 1374 241.13C1414.04 190.63 1531 199.63 1547.5 201.13C1564 202.63 1660.5 234.13 1514.5 295.13C1368.5 356.13 1390 271.131 1445.5 244.63C1482.88 226.78 1532.5 199.63 1557.5 176.13C1582.5 152.63 1611.5 269.13 1709 181.63C1806.5 94.1304 1853.5 187.63 1814 229.63C1774.5 271.63 1672.5 280.131 1709 236.631C1738.2 201.831 1830.83 211.464 1873.5 220.631" stroke="black"/>
<path d="M0 267.486C85.3062 267.486 68.3349 267.486 90 267.486C124.5 267.486 127 245.061 153.5 240.473C199.449 232.518 207 267.486 234.5 267.486C288.5 267.486 290 215.986 351.5 215.986C358 215.986 392.5 217.486 416.5 251.486C440.5 285.486 466.5 250.486 454.5 215.986C442.5 181.486 418 91.9855 553 103.486C688 114.986 795.5 122.986 878.5 108.986C961.5 94.9855 843.5 143.986 899 137.986C954.5 131.986 956 181.486 941.5 208.486C927 235.486 952.5 277.486 997.5 271.486C1042.5 265.486 1187 260.986 1225.5 380.986C1264 500.986 1464.5 298.986 1547.5 252.486C1630.5 205.986 1676.5 272.986 1635.5 333.986C1594.5 394.986 1823 376.986 1861 373.986" stroke="black"/>
<rect x="959" y="126" width="8" height="8" rx="4" fill="black"/>
<rect x="961" y="102" width="4" height="4" rx="2" fill="black"/>
<path d="M963 104L963 131" stroke="black"/>
<rect x="1309.17" y="198.539" width="8" height="8" rx="4" transform="rotate(-16.7929 1309.17 198.539)" fill="black"/>
<rect x="1303" y="171.156" width="4" height="4" rx="2" transform="rotate(-16.7929 1303 171.156)" fill="black"/>
<path d="M1305.93 173.93L1314.59 202.65" stroke="black"/>
<rect x="1368" y="7" width="8" height="8" rx="4" fill="black"/>
<rect x="1370" y="33" width="4" height="4" rx="2" fill="black"/>
<path d="M1372 11L1372 34" stroke="black"/>
<rect x="1675" y="11" width="8" height="8" rx="4" fill="black"/>
<rect x="1677" y="38" width="4" height="4" rx="2" fill="black"/>
<path d="M1679 15L1679 39" stroke="black"/>
<rect x="463" y="313" width="8" height="8" rx="4" fill="black"/>
<rect x="465" y="283" width="4" height="4" rx="2" fill="black"/>
<path d="M467 285L467 318" stroke="black"/>
</svg>
