<svg width="121" height="30" viewBox="0 0 121 30" fill="none" xmlns="http://www.w3.org/2000/svg">
<path d="M52.8563 23.6768C52.8528 24.0389 52.7056 24.3852 52.4465 24.6413C52.1875 24.8974 51.8371 25.0428 51.4708 25.0463C51.286 25.0516 51.102 25.02 50.9299 24.9534C50.7578 24.8868 50.601 24.7865 50.4689 24.6587C50.3369 24.5309 50.2322 24.378 50.1612 24.2093C50.0903 24.0406 50.0544 23.8595 50.0559 23.6768V17.7774C50.0587 17.6278 50.0315 17.4792 49.9757 17.3401C49.92 17.201 49.8369 17.0742 49.7312 16.9671C49.6283 16.8584 49.5033 16.7723 49.3644 16.7145C49.2255 16.6567 49.0759 16.6285 48.9252 16.6318H44.1165C43.9658 16.6284 43.8161 16.6565 43.6772 16.7143C43.5383 16.7721 43.4133 16.8582 43.3105 16.9671C43.2045 17.0741 43.1212 17.2008 43.0653 17.3399C43.0094 17.479 42.9821 17.6277 42.985 17.7774V23.6768C42.9868 23.8567 42.9514 24.0351 42.881 24.2009C42.8105 24.3668 42.7064 24.5166 42.5751 24.6412C42.444 24.7735 42.2869 24.8777 42.1133 24.9474C41.9398 25.0171 41.7536 25.0508 41.5664 25.0463C41.3819 25.0511 41.1986 25.0175 41.0281 24.9477C40.8577 24.8779 40.7039 24.7735 40.5769 24.6412C40.449 24.5148 40.3481 24.3643 40.28 24.1987C40.212 24.033 40.1782 23.8556 40.1808 23.6768V6.8432C40.1783 6.66446 40.2121 6.48703 40.2802 6.3214C40.3482 6.15578 40.4491 6.0053 40.5769 5.87884C40.7039 5.74657 40.8577 5.64215 41.0281 5.57236C41.1986 5.50257 41.3819 5.46896 41.5664 5.4737C41.7536 5.46924 41.9398 5.50289 42.1133 5.57259C42.2869 5.64229 42.444 5.74654 42.5751 5.87884C42.7063 6.00345 42.8104 6.15329 42.8809 6.31914C42.9514 6.48498 42.9868 6.66332 42.985 6.8432V12.7417C42.9814 12.8923 43.0084 13.042 43.0643 13.1821C43.1202 13.3222 43.2039 13.4498 43.3105 13.5574C43.4133 13.6663 43.5383 13.7525 43.6772 13.8103C43.8161 13.8681 43.9658 13.8962 44.1165 13.8928H48.9252C49.0759 13.896 49.2255 13.8678 49.3644 13.8101C49.5033 13.7523 49.6283 13.6662 49.7312 13.5574C49.8375 13.4497 49.921 13.322 49.9767 13.1819C50.0325 13.0419 50.0594 12.8922 50.0559 12.7417V6.8432C50.0544 6.6605 50.0903 6.47939 50.1612 6.31068C50.2322 6.14198 50.3369 5.98915 50.4689 5.86131C50.601 5.73348 50.7578 5.63328 50.9299 5.56668C51.102 5.50009 51.286 5.46846 51.4708 5.4737C51.8371 5.47725 52.1875 5.62266 52.4465 5.87873C52.7056 6.1348 52.8528 6.48108 52.8563 6.8432V23.6768Z" fill="black"/>
<path d="M70.7155 23.6765C70.7119 24.0386 70.5648 24.3849 70.3057 24.6409C70.0467 24.897 69.6963 25.0424 69.3299 25.0459C69.1427 25.0504 68.9565 25.0168 68.783 24.9471C68.6094 24.8774 68.4523 24.7731 68.3212 24.6408C68.1899 24.5162 68.0859 24.3664 68.0154 24.2005C67.9449 24.0347 67.9095 23.8563 67.9114 23.6765V18.3643C67.9129 18.2211 67.8849 18.079 67.8289 17.9468C67.7729 17.8146 67.6902 17.6952 67.5858 17.5958C67.4806 17.4908 67.3549 17.4082 67.2163 17.3529C67.0777 17.2976 66.9292 17.2707 66.7798 17.274H61.9739C61.8243 17.2706 61.6756 17.2974 61.5368 17.3527C61.3981 17.408 61.2722 17.4907 61.1669 17.5958C61.0626 17.6952 60.9801 17.8147 60.9242 17.9469C60.8684 18.0791 60.8405 18.2211 60.8423 18.3643V23.6765C60.844 23.8563 60.8085 24.0346 60.7381 24.2005C60.6676 24.3663 60.5636 24.5161 60.4324 24.6408C60.3013 24.773 60.1441 24.8771 59.9706 24.9468C59.7971 25.0165 59.6109 25.0503 59.4237 25.0459C59.2392 25.0506 59.0557 25.017 58.8851 24.9472C58.7145 24.8774 58.5606 24.773 58.4334 24.6408C58.3056 24.5143 58.2048 24.3638 58.1367 24.1982C58.0687 24.0326 58.0349 23.8552 58.0372 23.6765V9.75402C58.0372 9.32562 58.1595 8.99027 58.404 8.74797L61.3457 5.8966C61.473 5.7634 61.6265 5.65742 61.7969 5.58524C61.9672 5.51306 62.1507 5.47621 62.3361 5.47696H66.38C66.5678 5.47027 66.7551 5.50153 66.9302 5.56886C67.1054 5.63618 67.2648 5.73815 67.3988 5.8685L70.2836 8.74797C70.42 8.87818 70.5279 9.03462 70.6008 9.20764C70.6737 9.38067 70.7099 9.56662 70.7073 9.75402L70.7155 23.6765ZM67.9159 10.6767C67.9217 10.5701 67.9016 10.4637 67.8573 10.3664C67.8129 10.2692 67.7456 10.1838 67.661 10.1175L66.049 8.49601C65.9704 8.42086 65.8772 8.36226 65.7751 8.32378C65.673 8.28529 65.564 8.26773 65.4547 8.27214H63.3053C63.1962 8.26764 63.0873 8.28517 62.9853 8.32366C62.8833 8.36216 62.7903 8.4208 62.712 8.49601L61.0991 10.1175C61.0146 10.1838 60.9474 10.2692 60.9032 10.3665C60.859 10.4638 60.8391 10.5702 60.845 10.6767V13.3885C60.8404 13.5342 60.8669 13.6793 60.9228 13.8142C60.9788 13.9492 61.0629 14.0709 61.1697 14.1716C61.277 14.2729 61.4035 14.3523 61.542 14.405C61.6805 14.4578 61.8282 14.4828 61.9766 14.4788H66.7844C66.9326 14.4828 67.0802 14.4577 67.2185 14.405C67.3569 14.3522 67.4833 14.2729 67.5904 14.1716C67.6973 14.071 67.7816 13.9493 67.8376 13.8143C67.8937 13.6794 67.9204 13.5343 67.9159 13.3885V10.6767Z" fill="black"/>
<path d="M76.9082 25.0451C76.5418 25.0415 76.1915 24.8961 75.9324 24.64C75.6734 24.384 75.5262 24.0377 75.5226 23.6756C75.5196 23.4892 75.5543 23.3041 75.6247 23.1312C75.6951 22.9583 75.7998 22.801 75.9325 22.6686C76.0566 22.5354 76.2075 22.4293 76.3755 22.3572C76.5436 22.285 76.725 22.2485 76.9082 22.2499H78.1003C78.2441 22.252 78.3869 22.2258 78.5204 22.1729C78.6539 22.12 78.7754 22.0414 78.8779 21.9417C78.9847 21.8413 79.0689 21.7197 79.125 21.5849C79.1811 21.4502 79.2078 21.3052 79.2034 21.1595V9.36159C79.2078 9.21593 79.1811 9.07098 79.125 8.9362C79.0689 8.80143 78.9847 8.67986 78.8779 8.57941C78.7753 8.47987 78.6537 8.40138 78.5203 8.34849C78.3868 8.2956 78.2441 8.26935 78.1003 8.27125H76.9082C76.725 8.27264 76.5436 8.2361 76.3755 8.16398C76.2075 8.09186 76.0566 7.98577 75.9325 7.85252C75.7998 7.72015 75.6951 7.56288 75.6247 7.38995C75.5543 7.21703 75.5196 7.03194 75.5226 6.84557C75.5262 6.48345 75.6734 6.13717 75.9324 5.8811C76.1915 5.62503 76.5418 5.47962 76.9082 5.47607H84.3184C84.6849 5.47938 85.0355 5.6247 85.2948 5.88079C85.554 6.13688 85.7013 6.4833 85.7049 6.84557C85.7077 7.03191 85.6729 7.21693 85.6025 7.38983C85.5321 7.56273 85.4276 7.72003 85.295 7.85252C85.1708 7.98579 85.0197 8.0919 84.8515 8.16401C84.6833 8.23613 84.5017 8.27266 84.3184 8.27125H83.1263C82.9805 8.26646 82.8352 8.29131 82.6995 8.34427C82.5638 8.39724 82.4406 8.47717 82.3374 8.57914C82.2343 8.6811 82.1534 8.80293 82.0998 8.93705C82.0462 9.07118 82.0211 9.21475 82.0259 9.35887V21.1623C82.0211 21.3064 82.0462 21.45 82.0998 21.5841C82.1534 21.7182 82.2343 21.84 82.3374 21.942C82.4406 22.044 82.5638 22.1239 82.6995 22.1769C82.8352 22.2298 82.9805 22.2547 83.1263 22.2499H84.3184C84.5017 22.2485 84.6833 22.285 84.8515 22.3571C85.0197 22.4292 85.1708 22.5353 85.295 22.6686C85.4276 22.8011 85.5321 22.9584 85.6025 23.1313C85.6729 23.3042 85.7077 23.4892 85.7049 23.6756C85.7013 24.0378 85.554 24.3843 85.2948 24.6403C85.0355 24.8964 84.6849 25.0418 84.3184 25.0451H76.9082Z" fill="black"/>
<path d="M94.2322 25.0455C94.0379 25.05 93.8447 25.0151 93.6646 24.9429C93.4845 24.8707 93.3212 24.7628 93.185 24.6258L90.8375 22.3337C90.593 22.092 90.4707 21.7566 90.4707 21.3276V9.16621C90.4724 8.80767 90.6024 8.46128 90.8375 8.18826L93.185 5.89611C93.3212 5.75911 93.4845 5.65117 93.6646 5.579C93.8447 5.50682 94.0379 5.47193 94.2322 5.47647H99.4077C99.5974 5.47382 99.7856 5.50969 99.9607 5.58187C100.136 5.65406 100.294 5.76101 100.426 5.89611L102.746 8.18826C102.885 8.32063 102.991 8.48321 103.056 8.66318C103.112 8.82521 103.14 8.99512 103.141 9.16621V21.3276C103.147 21.513 103.116 21.6979 103.048 21.8709C102.98 22.0439 102.877 22.2013 102.746 22.3337L102.208 22.8648C101.982 23.0515 101.869 23.3234 101.868 23.6805C101.866 23.8231 101.895 23.9644 101.954 24.0946C102.013 24.2248 102.099 24.3408 102.208 24.4346L102.746 24.9657C102.887 25.1018 102.994 25.2697 103.056 25.4551C103.111 25.6223 103.14 25.7969 103.141 25.9727C103.145 26.1577 103.111 26.3417 103.041 26.5132C102.97 26.6847 102.865 26.8401 102.731 26.9696C102.605 27.0994 102.453 27.2023 102.285 27.272C102.118 27.3417 101.937 27.3766 101.755 27.3748C101.568 27.375 101.383 27.3465 101.205 27.2905C101.017 27.23 100.847 27.1245 100.71 26.9832L99.0409 25.3065C98.969 25.2285 98.8817 25.1659 98.7844 25.1226C98.6871 25.0793 98.5818 25.0561 98.4751 25.0545L94.2322 25.0455ZM100.086 20.9923C100.17 20.919 100.236 20.8283 100.28 20.7268C100.324 20.6253 100.345 20.5154 100.341 20.4049V10.117C100.341 9.85594 100.256 9.66017 100.086 9.52966L99.04 8.49551C98.966 8.42212 98.8777 8.36442 98.7804 8.32593C98.6831 8.28743 98.5789 8.26896 98.4742 8.27165H95.1373C95.0325 8.26885 94.9283 8.28727 94.831 8.32577C94.7337 8.36427 94.6453 8.42203 94.5715 8.49551L93.5243 9.52966C93.3549 9.66017 93.2703 9.85594 93.2703 10.117V20.4049C93.2662 20.5153 93.2869 20.6252 93.3308 20.7267C93.3747 20.8282 93.4408 20.9189 93.5243 20.9923L94.5715 21.9983C94.6411 22.0791 94.7279 22.1435 94.8257 22.1871C94.9236 22.2307 95.03 22.2523 95.1373 22.2503H98.4742C98.582 22.256 98.6896 22.2361 98.7881 22.1923C98.8865 22.1484 98.9729 22.0819 99.04 21.9983L100.086 20.9923Z" fill="black"/>
<path d="M111.128 20.4057C111.124 20.5161 111.145 20.626 111.189 20.7275C111.233 20.8291 111.299 20.9197 111.383 20.993L112.429 21.999C112.499 22.0798 112.585 22.1443 112.683 22.1878C112.781 22.2314 112.888 22.253 112.995 22.251H116.333C116.44 22.2567 116.548 22.2368 116.646 22.193C116.744 22.1492 116.831 22.0826 116.898 21.999L117.945 20.993C118.028 20.9196 118.094 20.8289 118.138 20.7274C118.182 20.6259 118.203 20.516 118.199 20.4057V6.84306C118.197 6.66319 118.232 6.48484 118.303 6.319C118.373 6.15316 118.477 6.00332 118.609 5.8787C118.739 5.74705 118.896 5.64319 119.068 5.57352C119.241 5.50385 119.426 5.46983 119.613 5.47357C119.979 5.47687 120.33 5.62219 120.589 5.87828C120.848 6.13437 120.996 6.48079 120.999 6.84306V21.3519C120.999 21.5233 120.97 21.6936 120.914 21.8558C120.85 22.0361 120.743 22.1988 120.603 22.3308L118.284 24.6229C118.148 24.7598 117.985 24.8677 117.805 24.9398C117.625 25.012 117.432 25.047 117.238 25.0426H112.061C111.872 25.0452 111.683 25.0093 111.508 24.9371C111.333 24.865 111.175 24.758 111.044 24.6229L108.696 22.3308C108.46 22.0577 108.33 21.7108 108.329 21.3519V6.84306C108.327 6.6644 108.361 6.48707 108.428 6.32147C108.496 6.15586 108.597 6.00533 108.724 5.8787C108.852 5.7465 109.006 5.64214 109.176 5.57236C109.347 5.50257 109.53 5.46892 109.715 5.47357C109.901 5.46973 110.087 5.5037 110.259 5.57338C110.432 5.64305 110.588 5.74696 110.719 5.8787C110.85 6.00332 110.954 6.15316 111.025 6.319C111.095 6.48484 111.131 6.66319 111.129 6.84306L111.128 20.4057Z" fill="black"/>
</svg>
