<svg width="18" height="18" viewBox="0 0 18 18" fill="none" xmlns="http://www.w3.org/2000/svg">
<path fill-rule="evenodd" clip-rule="evenodd" d="M2.61553 11.4964C0.0664449 8.9473 0.0664449 4.81441 2.61553 2.26533C5.16462 -0.283759 9.29751 -0.283759 11.8466 2.26533C14.1871 4.60584 14.3786 8.28158 12.4211 10.8406L17.3847 15.8042L16.1539 17.035L11.1902 12.0713C8.63125 14.0284 4.95587 13.8367 2.61553 11.4964ZM3.84566 10.2656C1.97633 8.39625 1.97633 5.36547 3.84566 3.49614C5.71499 1.62681 8.74578 1.6268 10.6151 3.49614C12.4844 5.36547 12.4844 8.39625 10.6151 10.2656C8.74578 12.1349 5.71499 12.1349 3.84566 10.2656Z" fill="white"/>
</svg>
