<svg width="923" height="112" viewBox="0 0 923 112" fill="none" xmlns="http://www.w3.org/2000/svg">
<rect opacity="0.35" width="923" height="112" rx="15" fill="#D9D9D9"/>
<mask id="mask0_2278_3746" style="mask-type:alpha" maskUnits="userSpaceOnUse" x="0" y="0" width="923" height="112">
<rect width="923" height="112" rx="15" fill="#D9D9D9"/>
</mask>
<g mask="url(#mask0_2278_3746)">
<g opacity="0.35">
<path d="M48.5055 53.8689V55.9193H53.4482V56.7358C53.4482 58.2897 52.7924 59.8063 51.3621 60.4135C50.8314 60.6339 50.2942 60.7905 49.7486 60.8835C49.6147 60.9063 49.4808 60.9252 49.3469 60.9403C49.2015 60.9566 49.056 60.9686 48.9105 60.9761C48.7882 60.9824 48.6642 60.9856 48.5402 60.9856C47.4327 60.9856 46.3846 60.7314 45.3994 60.2228C44.8853 59.9577 44.434 59.6191 44.0472 59.2071C43.6918 58.8288 43.3892 58.3884 43.1396 57.8862C42.6272 56.8373 42.3709 55.534 42.3709 53.9763C42.3709 52.7128 42.5858 51.5405 43.014 50.4598C43.2653 49.8319 43.6174 49.2557 44.0687 48.7311C44.5266 48.2066 45.1266 47.7855 45.8689 47.4676C46.6111 47.1417 47.4889 46.9789 48.5055 46.9789C48.8527 46.9789 49.1866 47.0047 49.5073 47.0562C49.9735 47.1312 50.4115 47.2603 50.8231 47.4438C51.1438 47.5832 51.4315 47.7445 51.6844 47.928L51.7919 48.0085L51.9307 48.1226L52.0778 48.2579C52.2068 48.3838 52.3241 48.5178 52.4283 48.6596C52.706 49.0379 52.9507 49.5217 53.1606 50.1109L53.2532 50.3807C53.2929 50.5023 53.3309 50.628 53.3672 50.7577L55.3741 50.1855C55.0848 49.0093 54.6599 48.0558 54.1012 47.3245C53.9739 47.1568 53.8351 46.9976 53.6846 46.847C53.5094 46.673 53.321 46.5104 53.1176 46.3591C52.9655 46.2468 52.8052 46.1407 52.6366 46.0408C52.3721 45.885 52.0894 45.7448 51.7852 45.62C50.8066 45.2067 49.7106 45 48.494 45C46.821 45 45.3415 45.3577 44.0571 46.0728C42.7726 46.7881 41.7874 47.8848 41.0981 49.3629C40.4187 50.8331 40.0781 52.4187 40.0781 54.1194C40.0781 55.836 40.422 57.3895 41.1096 58.7803L41.1956 58.9483L41.3229 59.1811C41.4485 59.4047 41.5841 59.6191 41.7296 59.8243C42.0684 60.301 42.4586 60.7276 42.8983 61.1044C43.2801 61.4326 43.7 61.7228 44.1596 61.975C45.5135 62.7063 47.0161 63.0719 48.6659 63.0719C49.8892 63.0719 51.0827 62.8452 52.2448 62.3924C54.5833 61.4648 55.627 58.8862 55.627 56.3704V53.8571L48.5055 53.8689Z" fill="black"/>
<path fill-rule="evenodd" clip-rule="evenodd" d="M62.274 62.6427C62.5848 62.5211 62.9006 62.3617 63.2213 62.1643C63.3915 62.0599 63.5618 61.9449 63.7337 61.8195C63.9817 61.639 64.2329 61.4367 64.4875 61.2122C64.504 61.3774 64.5272 61.5368 64.5553 61.6904C64.5718 61.781 64.5917 61.8698 64.6131 61.9565L64.666 62.1576C64.6859 62.2246 64.7057 62.2904 64.7289 62.3548L64.7818 62.5011C64.8181 62.595 64.8578 62.6859 64.8991 62.7737H67.0564C66.7952 62.2891 66.62 61.7843 66.5274 61.2599C66.4448 60.7274 66.4018 59.4638 66.4018 57.469V54.6081C66.4018 53.6545 66.3671 52.9948 66.2993 52.6292C66.177 52.0413 65.9621 51.5564 65.6562 51.1749C65.4612 50.9255 65.195 50.7036 64.8578 50.5096C64.6677 50.4009 64.4561 50.3008 64.223 50.2093C64.0709 50.1496 63.9073 50.097 63.7337 50.0512C63.6345 50.0252 63.532 50.0016 63.4262 49.9801C62.9254 49.8785 62.3451 49.8278 61.6888 49.8278C60.6424 49.8278 59.72 49.9788 58.9249 50.2808C58.8059 50.3251 58.6918 50.3721 58.5811 50.4224L58.3761 50.5208L58.1529 50.6419L57.9959 50.7386L57.8752 50.819C57.571 51.0318 57.3131 51.2776 57.1032 51.5564C56.6817 52.1048 56.3808 52.8279 56.1973 53.7261L58.2141 54.012C58.3364 53.5211 58.4934 53.1123 58.6852 52.7854C58.8439 52.5141 59.0274 52.299 59.2357 52.1405C59.4291 51.9919 59.6671 51.8741 59.9482 51.7873C60.3432 51.6651 60.8243 51.6041 61.3913 51.6041C61.8475 51.6041 62.2542 51.6507 62.6113 51.744C63.0692 51.8634 63.4461 52.0591 63.742 52.3313C64.1321 52.6889 64.3272 53.3048 64.3272 54.1789L64.3156 54.7391C63.8461 54.9097 63.2196 55.0663 62.436 55.2087C61.9071 55.305 61.307 55.395 60.6342 55.4783C60.1812 55.5355 59.7928 55.5937 59.4671 55.6532C59.2026 55.7013 58.9811 55.7503 58.7993 55.8001C58.2488 55.9591 57.7529 56.1934 57.3082 56.5034C56.9941 56.7273 56.7213 57.005 56.4899 57.3367C56.4006 57.4643 56.318 57.5999 56.2419 57.7434L56.1841 57.8551L56.1213 57.9973C56.0882 58.0735 56.0585 58.1509 56.032 58.2295C55.9659 58.4243 55.9163 58.6262 55.8849 58.8355L55.8617 59.0194L55.8469 59.2286L55.8419 59.4359C55.8419 60.493 56.2006 61.3632 56.9197 62.0466C57.6371 62.7222 58.6654 63.0598 60.0044 63.0598C60.4606 63.0598 60.9003 63.0158 61.3219 62.9277C61.6492 62.8592 61.9666 62.7643 62.274 62.6427ZM60.9433 57.2306C62.4426 57.008 63.5651 56.738 64.3156 56.4201V57.2067L64.3123 57.4263L64.309 57.6248C64.3024 57.7988 64.2908 57.9638 64.2743 58.1195C64.2544 58.3283 64.2263 58.5206 64.19 58.6967C64.1371 58.9489 64.0676 59.1676 63.9833 59.3525C63.6924 59.9804 63.2378 60.4771 62.6179 60.8427C61.998 61.2002 61.2921 61.3791 60.497 61.3791C60.1812 61.3791 59.8953 61.3497 59.639 61.291C59.4539 61.2483 59.282 61.1899 59.1266 61.1158C58.953 61.0326 58.7976 60.9295 58.6621 60.8068C58.2488 60.4253 58.0422 59.9487 58.0422 59.3764C58.0422 59.0028 58.138 58.6651 58.3298 58.3631C58.5199 58.0531 58.7926 57.8188 59.1431 57.6598C59.4952 57.5008 60.0953 57.3578 60.9433 57.2306Z" fill="black"/>
<path d="M66.6729 58.9949L68.7144 58.661C68.7756 59.116 68.8946 59.5141 69.0715 59.8552C69.1128 59.9366 69.1591 60.0146 69.2071 60.0894C69.2451 60.1474 69.2847 60.2034 69.3261 60.2576L69.4186 60.3684C69.4947 60.4567 69.5773 60.5392 69.6666 60.6161C70.1939 61.0691 70.9279 61.2956 71.8685 61.2956C72.8157 61.2956 73.5199 61.0969 73.9778 60.6997C74.1762 60.5233 74.3316 60.3343 74.444 60.1323C74.5911 59.8702 74.6655 59.5865 74.6655 59.281C74.6655 58.7962 74.4639 58.4149 74.0588 58.1367L73.9497 58.0718L73.8092 58.0022L73.591 57.9113C73.2158 57.7653 72.6686 57.5981 71.9479 57.4095C70.4353 57.0121 69.3839 56.6703 68.7954 56.3842C68.2136 56.0903 67.7705 55.6888 67.4647 55.1804C67.1672 54.6637 67.0167 54.0955 67.0167 53.4756C67.0167 52.9115 67.1391 52.3908 67.3837 51.9141C67.6366 51.4292 67.9772 51.028 68.4053 50.71C68.726 50.4636 69.1624 50.257 69.7129 50.0901C70.27 49.9152 70.8667 49.8278 71.5015 49.8278C72.457 49.8278 73.2935 49.9709 74.0126 50.257C74.7383 50.5431 75.2739 50.9326 75.6177 51.4252C75.9615 51.91 76.1979 52.5618 76.3285 53.3802L74.3101 53.6663C74.2192 53.0146 73.9514 52.5061 73.5084 52.1405C73.072 51.7749 72.4521 51.5921 71.6503 51.5921C70.7014 51.5921 70.0253 51.7551 69.6203 52.081C69.2153 52.4067 69.012 52.7882 69.012 53.2253C69.012 53.5035 69.0963 53.7538 69.2649 53.9763C69.3674 54.1164 69.5046 54.2416 69.6765 54.3523L69.741 54.3909L69.865 54.4594C69.9245 54.4906 69.989 54.5202 70.0567 54.5486C70.2634 54.6279 70.8701 54.8107 71.8801 55.0968C73.3398 55.5022 74.3564 55.836 74.93 56.0983C75.5103 56.3524 75.9648 56.726 76.2938 57.2188C76.6228 57.7116 76.7864 58.3234 76.7864 59.0546C76.7864 59.7697 76.5848 60.4453 76.1797 61.081C75.7814 61.7089 75.2044 62.1976 74.4473 62.5473C73.6919 62.8891 72.8356 63.0598 71.8801 63.0598C70.2964 63.0598 69.0897 62.7181 68.2565 62.0347C67.8548 61.7031 67.5242 61.2936 67.2647 60.8066C66.9886 60.29 66.7919 59.6862 66.6729 58.9949Z" fill="black"/>
<path fill-rule="evenodd" clip-rule="evenodd" d="M77.127 50.1139V67.6256H79.1917V61.4625C79.5438 61.9235 79.9901 62.305 80.5323 62.6068C81.0828 62.9088 81.7027 63.0598 82.3904 63.0598C83.331 63.0598 84.2253 62.7857 85.0733 62.2373C85.9296 61.6812 86.5793 60.8863 87.024 59.8533C87.4736 58.8121 87.7001 57.6439 87.7001 56.3485C87.7001 55.1406 87.4967 54.032 87.0917 53.0225C86.6867 52.0054 86.0867 51.2187 85.2915 50.6624C85.1642 50.5728 85.0336 50.4905 84.8997 50.4153C84.7791 50.3476 84.6551 50.2858 84.5278 50.2297C84.3708 50.1597 84.2088 50.0989 84.0435 50.0473C83.574 49.901 83.0731 49.8278 82.5392 49.8278C81.744 49.8278 81.0679 49.9908 80.5108 50.3167L80.372 50.4003L80.2215 50.4991C80.0694 50.6039 79.924 50.7214 79.7835 50.8516C79.5074 51.1057 79.2495 51.4082 79.0082 51.759V50.1139H77.127ZM79.9488 60.1274C79.314 59.3487 78.9966 58.1446 78.9966 56.5155C78.9966 54.8863 79.3322 53.6466 80.005 52.7961C80.2629 52.4702 80.5356 52.2062 80.8233 52.0041C81.2927 51.6739 81.8002 51.5087 82.3441 51.5087C83.2318 51.5087 83.9922 51.91 84.627 52.7128C85.2684 53.5153 85.5907 54.7232 85.5907 56.3365C85.5907 58.0293 85.2618 59.281 84.6038 60.0917C83.9542 60.8943 83.1706 61.2956 82.2532 61.2956C81.3506 61.2956 80.5836 60.9063 79.9488 60.1274Z" fill="black"/>
<path fill-rule="evenodd" clip-rule="evenodd" d="M96.0332 61.2122C95.2679 61.8876 94.5306 62.3645 93.8198 62.6427C93.1156 62.9209 92.3584 63.0598 91.5484 63.0598C90.2111 63.0598 89.1829 62.7222 88.4638 62.0466C87.7464 61.3632 87.386 60.493 87.386 59.4359C87.386 58.8161 87.5199 58.2518 87.7877 57.7434C88.0637 57.2267 88.4192 56.8134 88.8539 56.5034C89.2969 56.1934 89.7945 55.9591 90.345 55.8001C90.75 55.6888 91.3616 55.5817 92.1799 55.4783C93.8462 55.2717 95.0728 55.0253 95.8597 54.7391L95.8712 54.1789C95.8712 54.0717 95.8679 53.9684 95.863 53.8689C95.858 53.7873 95.8498 53.7082 95.8415 53.6318C95.7754 53.0427 95.5902 52.609 95.2877 52.3313C94.7604 51.8464 93.9768 51.6041 92.937 51.6041C91.965 51.6041 91.2476 51.7828 90.7814 52.1405C90.5649 52.3057 90.3748 52.5319 90.2111 52.8193C90.0276 53.1405 89.8772 53.5381 89.7598 54.012L87.7414 53.7261C87.9249 52.8279 88.2274 52.1048 88.6473 51.5564C89.0688 51 89.6755 50.5749 90.4706 50.2808C90.9236 50.109 91.4162 49.9859 91.9501 49.912C92.3551 49.8559 92.7833 49.8278 93.2346 49.8278C94.2744 49.8278 95.1191 49.955 95.7688 50.2093C96.4184 50.4636 96.8962 50.7854 97.202 51.1749C97.5078 51.5564 97.721 52.0413 97.8434 52.6292C97.9128 52.9948 97.9475 53.6545 97.9475 54.6081V57.469C97.9475 59.4638 97.9888 60.7274 98.0731 61.2599C98.1657 61.7843 98.3409 62.2891 98.6005 62.7737H96.4449C96.2316 62.3288 96.0928 61.8081 96.0332 61.2122ZM95.8597 56.4201C95.1108 56.738 93.9867 57.008 92.489 57.2306C91.641 57.3578 91.0409 57.5008 90.6888 57.6598C90.3367 57.8188 90.0656 58.0531 89.8755 58.3631C89.7995 58.4821 89.7383 58.6065 89.692 58.7364C89.6226 58.9367 89.5879 59.15 89.5879 59.3764C89.5879 59.9487 89.7945 60.4253 90.2078 60.8068C90.4392 61.0172 90.7285 61.1695 91.0773 61.2638C91.36 61.3407 91.6823 61.3791 92.0427 61.3791C92.2758 61.3791 92.5006 61.3639 92.7188 61.3329C92.8726 61.3112 93.023 61.2818 93.1685 61.2449C93.5222 61.1555 93.8528 61.0215 94.1636 60.8427C94.7819 60.4771 95.2381 59.9804 95.5274 59.3525C95.7489 58.8677 95.8597 58.1526 95.8597 57.2067V56.4201Z" fill="black"/>
<path d="M99.022 50.1139V62.7737H101.085V56.146C101.085 55.2399 101.201 54.4055 101.429 53.6425C101.583 53.1418 101.839 52.7525 102.198 52.4743C102.558 52.1882 102.963 52.0451 103.413 52.0451C103.918 52.0451 104.423 52.4791 104.634 53.139L108.203 62.7976C108.119 63.0281 108.058 63.2029 108.02 63.3221C107.729 64.1724 107.519 64.7049 107.388 64.9195C107.213 65.2056 106.987 65.4282 106.712 65.5872C106.436 65.7461 106.069 65.8254 105.611 65.8254C105.276 65.8254 104.881 65.7618 104.431 65.6349L104.659 67.6494C105.148 67.8243 105.591 67.9117 105.99 67.9117C106.208 67.9117 106.415 67.8934 106.613 67.8567C106.684 67.8436 106.753 67.8279 106.821 67.8101C106.899 67.7899 106.975 67.7669 107.048 67.7409C107.277 67.6597 107.491 67.5497 107.687 67.411C108.16 67.0851 108.582 66.5684 108.949 65.8613C109.223 65.3367 109.61 64.379 110.106 62.9883L114.74 50.1139H112.675L110.071 57.4929C109.744 58.4308 109.46 59.3923 109.223 60.3776C108.964 59.3525 108.669 58.3751 108.34 57.4452L106.46 52.6263C105.925 51.2569 104.987 49.8278 103.517 49.8278C103.036 49.8278 102.591 49.9709 102.186 50.257C102.024 50.3741 101.855 50.5423 101.68 50.7616C101.426 51.0787 101.159 51.5025 100.878 52.0333V50.1139H99.022Z" fill="black"/>
<path fill-rule="evenodd" clip-rule="evenodd" d="M121.225 62.0612C121.585 61.8257 121.952 61.5428 122.325 61.2122C122.359 61.5288 122.413 61.8242 122.489 62.0981C122.555 62.34 122.64 62.5651 122.739 62.7737H124.894C124.635 62.2891 124.46 61.7843 124.367 61.2599C124.354 61.1783 124.342 61.0795 124.331 60.9635L124.303 60.5931L124.286 60.2683L124.263 59.5407C124.248 58.9712 124.241 58.2806 124.241 57.469V54.6081C124.241 54.1873 124.235 53.8238 124.222 53.5175C124.203 53.1295 124.175 52.8335 124.137 52.6292C124.074 52.3293 123.988 52.0563 123.879 51.8101C123.774 51.5736 123.646 51.3618 123.496 51.1749C123.19 50.7854 122.712 50.4636 122.063 50.2093C121.413 49.955 120.568 49.8278 119.528 49.8278C118.48 49.8278 117.56 49.9788 116.765 50.2808C115.969 50.5749 115.363 51 114.941 51.5564C114.521 52.1048 114.219 52.8279 114.035 53.7261L116.054 54.012L116.131 53.7261C116.166 53.6094 116.202 53.4979 116.242 53.3918C116.272 53.3106 116.303 53.2326 116.336 53.1577C116.374 53.0681 116.416 52.983 116.459 52.9025C116.632 52.5753 116.837 52.3214 117.074 52.1405C117.54 51.7828 118.259 51.6041 119.229 51.6041C120.269 51.6041 121.053 51.8464 121.58 52.3313C121.767 52.5025 121.909 52.733 122.006 53.0228C122.112 53.3381 122.165 53.7235 122.165 54.1789L122.154 54.7391C121.367 55.0253 120.14 55.2717 118.474 55.4783C117.656 55.5817 117.044 55.6888 116.639 55.8001C116.292 55.9004 115.964 56.0308 115.66 56.1913C115.482 56.2852 115.311 56.3891 115.148 56.5034C114.711 56.8134 114.356 57.2267 114.082 57.7434C113.814 58.2518 113.68 58.8161 113.68 59.4359C113.68 60.493 114.04 61.3632 114.758 62.0466C115.477 62.7222 116.505 63.0598 117.842 63.0598C118.347 63.0598 118.831 63.0059 119.294 62.8981C119.575 62.8328 119.848 62.7477 120.114 62.6427C120.477 62.5007 120.848 62.3067 121.225 62.0612ZM118.783 57.2306C119.484 57.1264 120.104 57.0117 120.641 56.8864C121.251 56.7445 121.755 56.5891 122.154 56.4201V57.2067C122.154 58.1526 122.043 58.8677 121.821 59.3525C121.53 59.9804 121.076 60.4771 120.458 60.8427C119.838 61.2002 119.13 61.3791 118.335 61.3791C117.851 61.3791 117.436 61.3095 117.092 61.1705L116.943 61.1046L116.86 61.061L116.758 61.0008C116.665 60.9428 116.581 60.8782 116.502 60.8068L116.398 60.7033C116.35 60.6541 116.305 60.6034 116.265 60.5512C116.164 60.4189 116.082 60.2769 116.021 60.1257C115.928 59.8973 115.882 59.6475 115.882 59.3764C115.882 59.0028 115.978 58.6651 116.168 58.3631C116.36 58.0531 116.631 57.8188 116.983 57.6598C117.335 57.5008 117.935 57.3578 118.783 57.2306Z" fill="black"/>
<path d="M125.337 62.7737V50.1139H127.195V51.9141C128.09 50.5234 129.382 49.8278 131.072 49.8278C131.31 49.8278 131.541 49.8424 131.766 49.8716C132.236 49.9326 132.677 50.0572 133.09 50.2452C133.709 50.5154 134.171 50.8729 134.477 51.318C134.783 51.7631 134.996 52.2915 135.119 52.9035L135.142 53.041L135.165 53.2101L135.178 53.3422L135.205 53.7031L135.223 54.1218C135.229 54.38 135.234 54.6693 135.234 54.9896V62.7737H133.17V55.073C133.17 54.8195 133.163 54.5847 133.15 54.3686C133.135 54.1355 133.113 53.9241 133.082 53.7347C133.044 53.4941 132.993 53.2885 132.928 53.1179C132.768 52.681 132.482 52.3351 132.069 52.081C131.816 51.9169 131.533 51.8041 131.222 51.7427C131.037 51.7059 130.842 51.6875 130.636 51.6875C129.756 51.6875 128.996 51.9777 128.354 52.5577C127.719 53.1379 127.402 54.2386 127.402 55.8598V62.7737H125.337Z" fill="black"/>
<path d="M135.509 50.379V51.8881H136.96V50.379H135.509Z" fill="black"/>
<path fill-rule="evenodd" clip-rule="evenodd" d="M142.285 47.871L140.853 48.1395C140.805 47.8425 140.695 47.6186 140.523 47.4682C140.445 47.3984 140.356 47.3449 140.255 47.3076C140.137 47.2644 140.007 47.2427 139.861 47.2427C139.499 47.2427 139.21 47.3733 138.993 47.6347C138.947 47.6901 138.906 47.7537 138.871 47.8255C138.82 47.9275 138.779 48.0459 138.747 48.1806C138.732 48.2444 138.719 48.3118 138.709 48.3829C138.684 48.5473 138.673 48.7309 138.673 48.9344L138.676 49.0903C138.679 49.2403 138.688 49.3797 138.704 49.5084C138.722 49.648 138.746 49.7752 138.775 49.8897L138.798 49.9642L138.82 50.0295C138.868 50.1638 138.927 50.2768 138.998 50.3683C139.083 50.475 139.177 50.5614 139.283 50.6273C139.347 50.6669 139.415 50.6991 139.486 50.724C139.607 50.7661 139.737 50.7872 139.881 50.7872C140.157 50.7872 140.384 50.7066 140.559 50.5455C140.734 50.3807 140.858 50.0997 140.931 49.7023L142.205 49.9279C142.136 49.6323 142.101 49.3084 142.101 48.9558C142.101 48.6826 142.136 48.4141 142.207 48.1503C142.267 47.9303 142.351 47.7138 142.458 47.5005C142.572 47.276 142.708 47.0768 142.867 46.9033C143.04 46.7142 143.239 46.5553 143.465 46.4264C143.903 46.1793 144.391 46.0558 144.928 46.0558C145.758 46.0558 146.437 46.3368 146.968 46.899C147.499 47.4575 147.763 48.1647 147.763 49.0203C147.763 49.8832 147.495 50.5992 146.958 51.1685C146.424 51.7341 145.75 52.017 144.938 52.017C144.435 52.017 143.954 51.8988 143.496 51.6625C143.042 51.4262 142.696 51.0808 142.458 50.626C142.394 50.5008 142.336 50.3644 142.288 50.2243C142.129 50.7723 141.867 51.1962 141.505 51.4961C141.339 51.6318 141.152 51.7409 140.946 51.8236C140.622 51.9525 140.245 52.017 139.815 52.017C139.012 52.017 138.372 51.7538 137.893 51.2275C137.418 50.7012 137.18 49.9726 137.18 49.0418C137.18 48.1002 137.42 47.3679 137.898 46.8453C138.377 46.319 139.025 46.0558 139.84 46.0558C140.509 46.0558 141.038 46.2062 141.432 46.5069C141.827 46.804 142.111 47.2588 142.285 47.871ZM143.978 50.336C143.718 50.0353 143.589 49.602 143.589 49.0364C143.589 48.77 143.617 48.5329 143.675 48.3251C143.739 48.0921 143.84 47.8959 143.978 47.7368C144.235 47.436 144.553 47.2856 144.933 47.2856C145.112 47.2856 145.277 47.3192 145.427 47.3864C145.505 47.4208 145.579 47.4639 145.649 47.5159C145.731 47.5774 145.811 47.6511 145.884 47.7368C146.039 47.9172 146.146 48.1443 146.209 48.4177C146.232 48.5185 146.249 48.6257 146.259 48.7389C146.267 48.8304 146.27 48.926 146.27 49.0257C146.27 49.5986 146.141 50.0353 145.884 50.336C145.627 50.6368 145.312 50.7872 144.933 50.7872C144.553 50.7872 144.235 50.6368 143.978 50.336Z" fill="black"/>
</g>
<g opacity="0.35">
<path d="M264.854 62.5761V50.4126H268.793C269.98 50.4126 271.019 50.6734 271.91 51.1951C272.811 51.7168 273.513 52.437 274.016 53.3556C274.53 54.2629 274.786 55.3063 274.786 56.4858C274.786 57.6653 274.53 58.7144 274.016 59.633C273.513 60.5517 272.811 61.2718 271.91 61.7935C271.019 62.3152 269.98 62.5761 268.793 62.5761H264.854ZM266.224 61.3682H268.793C269.729 61.3682 270.534 61.1641 271.207 60.7558C271.892 60.3475 272.423 59.7748 272.8 59.0376C273.177 58.3004 273.365 57.4498 273.365 56.4858C273.365 55.5218 273.177 54.6769 272.8 53.951C272.423 53.2139 271.892 52.6411 271.207 52.2328C270.534 51.8245 269.729 51.6204 268.793 51.6204H266.224V61.3682Z" fill="black"/>
<path d="M279.666 62.8483C279.073 62.8483 278.548 62.7349 278.091 62.508C277.634 62.2812 277.275 61.9693 277.012 61.5724C276.761 61.1641 276.635 60.7048 276.635 60.1944C276.635 59.3438 276.961 58.669 277.611 58.17C278.274 57.671 279.158 57.4215 280.266 57.4215H282.629V57.3534C282.629 56.6503 282.412 56.0945 281.978 55.6863C281.556 55.2666 280.973 55.0568 280.231 55.0568C279.261 55.0568 278.439 55.4594 277.766 56.2647L276.909 55.4311C277.868 54.433 279.004 53.934 280.317 53.934C281.036 53.934 281.664 54.0758 282.201 54.3593C282.737 54.6315 283.154 55.0228 283.451 55.5331C283.748 56.0322 283.896 56.6219 283.896 57.3024V62.5761H282.646V61.4363C282.326 61.8673 281.91 62.2132 281.396 62.474C280.882 62.7235 280.306 62.8483 279.666 62.8483ZM279.855 61.7595C280.517 61.7595 281.093 61.5951 281.584 61.2662C282.075 60.9259 282.423 60.478 282.629 59.9222V58.4762H280.42C279.655 58.4762 279.061 58.6237 278.639 58.9185C278.216 59.2021 278.005 59.6103 278.005 60.1434C278.005 60.6311 278.171 61.0223 278.502 61.3172C278.844 61.6121 279.295 61.7595 279.855 61.7595Z" fill="black"/>
<path d="M291.036 62.5761H289.153C288.559 62.5761 288.108 62.4173 287.8 62.0998C287.491 61.7709 287.337 61.3059 287.337 60.7048V55.329H285.728V54.2062H287.337V51.7565H288.656V54.2062H290.916V55.329H288.656V60.5857C288.656 61.1641 288.93 61.4533 289.478 61.4533H291.036V62.5761Z" fill="black"/>
<path d="M296.488 62.8483C295.677 62.8483 294.953 62.6555 294.313 62.2699C293.674 61.8843 293.172 61.3569 292.806 60.6878C292.452 60.0186 292.276 59.2531 292.276 58.3912C292.276 57.5292 292.452 56.7637 292.806 56.0945C293.172 55.4254 293.674 54.898 294.313 54.5124C294.953 54.1268 295.677 53.934 296.488 53.934C297.31 53.934 298.041 54.1268 298.68 54.5124C299.319 54.898 299.816 55.4254 300.17 56.0945C300.535 56.7637 300.718 57.5292 300.718 58.3912C300.718 59.2531 300.535 60.0186 300.17 60.6878C299.816 61.3569 299.319 61.8843 298.68 62.2699C298.041 62.6555 297.31 62.8483 296.488 62.8483ZM296.488 61.7085C297.059 61.7085 297.555 61.5667 297.978 61.2832C298.4 60.9997 298.731 60.6084 298.971 60.1094C299.211 59.6103 299.331 59.0376 299.331 58.3912C299.331 57.7334 299.211 57.1606 298.971 56.6729C298.731 56.1739 298.4 55.7827 297.978 55.4991C297.555 55.2156 297.059 55.0738 296.488 55.0738C295.929 55.0738 295.438 55.2156 295.015 55.4991C294.593 55.7827 294.262 56.1739 294.022 56.6729C293.782 57.1606 293.663 57.7334 293.663 58.3912C293.663 59.0376 293.782 59.6103 294.022 60.1094C294.262 60.6084 294.593 60.9997 295.015 61.2832C295.438 61.5667 295.929 61.7085 296.488 61.7085Z" fill="black"/>
<path d="M303.013 62.5761H301.455L304.589 58.238L301.746 54.2062H303.287L305.428 57.4725L307.602 54.2062H309.109L306.284 58.238L309.418 62.5761H307.842L305.428 59.0376L303.013 62.5761Z" fill="black"/>
<path d="M311.651 62.7802C311.365 62.7802 311.125 62.6838 310.931 62.491C310.749 62.2982 310.657 62.0601 310.657 61.7765C310.657 61.493 310.749 61.2548 310.931 61.062C311.125 60.8692 311.365 60.7728 311.651 60.7728C311.936 60.7728 312.17 60.8692 312.353 61.062C312.547 61.2548 312.644 61.493 312.644 61.7765C312.644 62.0601 312.547 62.2982 312.353 62.491C312.17 62.6838 311.936 62.7802 311.651 62.7802Z" fill="black"/>
<path d="M325.113 62.5761H323.675L322.408 59.2077H317.014L315.746 62.5761H314.359L319 50.4126H320.473L325.113 62.5761ZM317.459 58.0169H321.962L319.719 51.9947L317.459 58.0169Z" fill="black"/>
<path d="M328.78 51.042C328.78 51.3142 328.689 51.541 328.506 51.7225C328.335 51.8926 328.118 51.9777 327.856 51.9777C327.593 51.9777 327.37 51.8926 327.188 51.7225C327.017 51.541 326.931 51.3142 326.931 51.042C326.931 50.7698 327.017 50.5487 327.188 50.3785C327.37 50.1971 327.593 50.1063 327.856 50.1063C328.118 50.1063 328.335 50.1971 328.506 50.3785C328.689 50.5487 328.78 50.7698 328.78 51.042ZM328.523 62.5761H327.205V54.2062H328.523V62.5761Z" fill="black"/>
<path d="M236.056 46H246.434L236.056 66.6205H225.678L236.056 46Z" fill="black"/>
<path d="M241.245 56.3103L246.434 66.6205H256.812L251.623 56.3103H241.245Z" fill="black"/>
</g>
<g opacity="0.35">
<path d="M427.5 48.9946L425.65 50.2215C424.738 48.5666 423.661 47.8818 422.087 47.8818C420.126 47.8818 418.608 49.2799 418.608 51.2201C418.608 51.6196 418.718 52.2188 419.132 52.7609C420.071 53.9592 422.115 54.6726 423.91 55.5285C426.174 56.6128 428.245 58.0679 428.245 61.2636C428.245 64.9443 425.373 67.9117 421.701 67.9117C418.414 67.9117 415.901 65.7717 415.211 62.3478L417.475 61.6916C417.834 64.0883 419.547 65.6861 421.645 65.6861C423.965 65.6861 425.926 63.8315 425.926 61.4919C425.926 59.0095 424.186 58.125 421.065 56.7554C417.365 55.1576 416.288 53.4457 416.288 51.1345C416.288 47.8533 418.967 45.6563 422.115 45.6563C424.462 45.6563 426.368 46.8546 427.5 48.9946Z" fill="black"/>
<path d="M431.631 46.0272H435.276C437.237 46.0272 438.48 46.2554 439.391 46.6834C441.269 47.5679 442.567 49.6223 442.567 52.019C442.567 53.5598 442.07 55.1861 440.937 56.356C439.888 57.4402 438.314 58.125 435.884 58.125H433.951V67.5408H431.631V46.0272ZM433.951 48.2527V55.8995H435.193C437.651 55.8995 440.247 55.4144 440.247 52.019C440.247 49.7364 439.198 48.4239 435.994 48.2813C435.359 48.2527 434.807 48.2527 433.951 48.2527Z" fill="black"/>
<path d="M443.348 67.5408L452.959 45L462.32 67.5408H459.752L457.294 61.4348H448.402L445.889 67.5408H443.348ZM452.903 50.5924L449.341 59.2092H456.383L452.903 50.5924Z" fill="black"/>
<path d="M464.283 46.0272H478.063L466.685 65.3152H477.759V67.5408H462.847L474.197 48.2527H464.283V46.0272Z" fill="black"/>
<path d="M480.795 46.0272H483.115V67.5408H480.795V46.0272Z" fill="black"/>
<path d="M508.003 56.8125C508.003 62.8329 503.253 67.9117 497.15 67.9117C491.158 67.9117 486.298 62.89 486.298 56.8125C486.298 50.7351 491.13 45.6563 497.15 45.6563C503.171 45.6563 508.003 50.7351 508.003 56.8125ZM497.15 65.6861C501.873 65.6861 505.684 61.606 505.684 56.784C505.684 51.9905 502.011 47.8818 497.123 47.8818C492.401 47.8818 488.617 51.9334 488.617 56.784C488.617 61.6345 492.483 65.6861 497.15 65.6861Z" fill="black"/>
</g>
<g opacity="0.35">
<path d="M624.947 45V46.7683H621.921V54.9863H619.794V46.7683H616.755V45H624.947Z" fill="black"/>
<path d="M631.806 50.6503V54.9863H629.81V50.4945C629.81 50.097 629.741 49.7763 629.604 49.5324C629.425 49.1892 629.087 49.0175 628.588 49.0175C628.071 49.0175 627.678 49.1892 627.408 49.5324C627.143 49.8712 627.01 50.3567 627.01 50.9891V54.9863H625.061V45.0339H627.01V48.5636C627.294 48.1345 627.621 47.8364 627.991 47.6693C628.366 47.4977 628.76 47.4119 629.171 47.4119C629.633 47.4119 630.052 47.4909 630.427 47.649C630.807 47.8071 631.118 48.0487 631.36 48.3739C631.566 48.6494 631.692 48.934 631.738 49.2276C631.783 49.5166 631.806 49.9909 631.806 50.6503Z" fill="black"/>
<path d="M639.056 52.8183C639.006 53.2564 638.775 53.7013 638.363 54.153C637.723 54.8711 636.826 55.2302 635.674 55.2302C634.722 55.2302 633.883 54.9276 633.156 54.3223C632.428 53.7171 632.065 52.7325 632.065 51.3685C632.065 50.0902 632.392 49.1101 633.046 48.4281C633.704 47.7461 634.558 47.4051 635.605 47.4051C636.227 47.4051 636.788 47.5203 637.286 47.7506C637.785 47.981 638.196 48.3446 638.521 48.8414C638.814 49.2795 639.004 49.7876 639.091 50.3658C639.141 50.7045 639.162 51.1923 639.153 51.8291H634.034C634.061 52.5699 634.297 53.0893 634.741 53.3874C635.01 53.5726 635.335 53.6652 635.715 53.6652C636.117 53.6652 636.445 53.5522 636.696 53.3264C636.833 53.2045 636.955 53.0351 637.06 52.8183H639.056ZM637.122 50.5555C637.089 50.0451 636.932 49.6589 636.648 49.3969C636.369 49.1305 636.021 48.9972 635.605 48.9972C635.152 48.9972 634.8 49.1372 634.548 49.4173C634.301 49.6973 634.146 50.0767 634.082 50.5555H637.122Z" fill="black"/>
<path d="M648.562 51.1381V45H650.709V51.1381C650.709 52.1995 650.542 53.0261 650.208 53.6177C649.586 54.7017 648.399 55.2437 646.647 55.2437C644.895 55.2437 643.706 54.7017 643.079 53.6177C642.745 53.0261 642.578 52.1995 642.578 51.1381V45H644.726V51.1381C644.726 51.8246 644.808 52.326 644.973 52.6421C645.229 53.2022 645.787 53.4822 646.647 53.4822C647.503 53.4822 648.058 53.2022 648.315 52.6421C648.479 52.326 648.562 51.8246 648.562 51.1381Z" fill="black"/>
<path d="M655.112 49.0311C654.449 49.0311 653.993 49.3089 653.746 49.8644C653.618 50.158 653.554 50.5329 653.554 50.9891V54.9863H651.606V47.6151H653.493V48.6923C653.744 48.3129 653.982 48.0397 654.206 47.8726C654.609 47.5745 655.119 47.4254 655.736 47.4254C656.509 47.4254 657.141 47.6264 657.63 48.0284C658.124 48.4259 658.371 49.0876 658.371 50.0135V54.9863H656.368V50.4945C656.368 50.1061 656.315 49.808 656.21 49.6002C656.018 49.2208 655.652 49.0311 655.112 49.0311Z" fill="black"/>
<path d="M664.352 47.9403C664.937 48.3107 665.274 48.9475 665.361 49.8509H663.405C663.378 49.6024 663.307 49.406 663.192 49.2614C662.977 48.9995 662.611 48.8685 662.094 48.8685C661.669 48.8685 661.365 48.934 661.182 49.065C661.003 49.196 660.914 49.3495 660.914 49.5257C660.914 49.747 661.01 49.9073 661.202 50.0067C661.395 50.1106 662.074 50.289 663.24 50.5419C664.018 50.7226 664.601 50.9958 664.99 51.3617C665.374 51.732 665.566 52.195 665.566 52.7505C665.566 53.4822 665.29 54.0807 664.736 54.5459C664.187 55.0066 663.336 55.2369 662.184 55.2369C661.008 55.2369 660.139 54.993 659.576 54.5053C659.018 54.0129 658.739 53.3874 658.739 52.6286H660.722C660.763 52.9719 660.853 53.2158 660.99 53.3603C661.232 53.6177 661.681 53.7465 662.335 53.7465C662.719 53.7465 663.023 53.69 663.247 53.5771C663.476 53.4642 663.59 53.2948 663.59 53.069C663.59 52.8522 663.499 52.6873 663.316 52.5744C663.133 52.4615 662.454 52.2673 661.278 51.9917C660.432 51.784 659.835 51.5243 659.487 51.2126C659.139 50.9055 658.966 50.4629 658.966 49.8847C658.966 49.2027 659.236 48.6178 659.775 48.13C660.32 47.6377 661.084 47.3916 662.067 47.3916C663 47.3916 663.762 47.5745 664.352 47.9403Z" fill="black"/>
<path d="M672.302 48.3942C672.906 49.0311 673.208 49.966 673.208 51.1991C673.208 52.4999 672.91 53.4913 672.316 54.1733C671.726 54.8553 670.964 55.1963 670.031 55.1963C669.436 55.1963 668.942 55.0495 668.549 54.7559C668.334 54.5933 668.123 54.3562 667.917 54.0446V57.8927H665.983V47.6016H667.856V48.6923C668.066 48.3717 668.29 48.1187 668.528 47.9336C668.963 47.6038 669.48 47.439 670.079 47.439C670.953 47.439 671.694 47.7574 672.302 48.3942ZM671.19 51.2939C671.19 50.7248 671.058 50.2212 670.792 49.7831C670.532 49.345 670.106 49.1259 669.516 49.1259C668.807 49.1259 668.32 49.4579 668.055 50.1219C667.917 50.4742 667.849 50.9213 667.849 51.4633C667.849 52.3215 668.08 52.9244 668.542 53.2722C668.816 53.4755 669.141 53.5771 669.516 53.5771C670.061 53.5771 670.475 53.3693 670.758 52.9538C671.046 52.5383 671.19 51.985 671.19 51.2939Z" fill="black"/>
<path d="M679.882 48.5365C680.513 49.3179 680.828 50.2416 680.828 51.3075C680.828 52.3915 680.513 53.3196 679.882 54.092C679.25 54.8598 678.292 55.2437 677.007 55.2437C675.721 55.2437 674.763 54.8598 674.132 54.092C673.5 53.3196 673.185 52.3915 673.185 51.3075C673.185 50.2416 673.5 49.3179 674.132 48.5365C674.763 47.7551 675.721 47.3645 677.007 47.3645C678.292 47.3645 679.25 47.7551 679.882 48.5365ZM677 48.9972C676.428 48.9972 675.986 49.1982 675.675 49.6002C675.369 49.9977 675.216 50.5667 675.216 51.3075C675.216 52.0482 675.369 52.6196 675.675 53.0215C675.986 53.4235 676.428 53.6245 677 53.6245C677.571 53.6245 678.011 53.4235 678.317 53.0215C678.624 52.6196 678.777 52.0482 678.777 51.3075C678.777 50.5667 678.624 49.9977 678.317 49.6002C678.011 49.1982 677.571 48.9972 677 48.9972Z" fill="black"/>
<path d="M688.113 54.9863H685.753L683.962 51.8291L683.152 52.6625V54.9863H681.231V45.0339H683.152V50.4132L685.588 47.6355H688.01L685.396 50.4606L688.113 54.9863Z" fill="black"/>
<path d="M694.492 52.8183C694.441 53.2564 694.21 53.7013 693.799 54.153C693.158 54.8711 692.262 55.2302 691.109 55.2302C690.157 55.2302 689.318 54.9276 688.591 54.3223C687.863 53.7171 687.5 52.7325 687.5 51.3685C687.5 50.0902 687.827 49.1101 688.481 48.4281C689.14 47.7461 689.993 47.4051 691.04 47.4051C691.662 47.4051 692.223 47.5203 692.721 47.7506C693.22 47.981 693.632 48.3446 693.956 48.8414C694.249 49.2795 694.439 49.7876 694.526 50.3658C694.576 50.7045 694.597 51.1923 694.588 51.8291H689.469C689.496 52.5699 689.732 53.0893 690.176 53.3874C690.446 53.5726 690.77 53.6652 691.15 53.6652C691.553 53.6652 691.88 53.5522 692.131 53.3264C692.269 53.2045 692.39 53.0351 692.495 52.8183H694.492ZM692.557 50.5555C692.525 50.0451 692.367 49.6589 692.083 49.3969C691.804 49.1305 691.457 48.9972 691.04 48.9972C690.587 48.9972 690.235 49.1372 689.984 49.4173C689.737 49.6973 689.581 50.0767 689.517 50.5555H692.557Z" fill="black"/>
<path d="M698.448 49.0311C697.785 49.0311 697.33 49.3089 697.083 49.8644C696.955 50.158 696.891 50.5329 696.891 50.9891V54.9863H694.942V47.6151H696.829V48.6923C697.081 48.3129 697.318 48.0397 697.543 47.8726C697.945 47.5745 698.455 47.4254 699.073 47.4254C699.846 47.4254 700.477 47.6264 700.966 48.0284C701.46 48.4259 701.708 49.0876 701.708 50.0135V54.9863H699.704V50.4945C699.704 50.1061 699.651 49.808 699.546 49.6002C699.354 49.2208 698.988 49.0311 698.448 49.0311Z" fill="black"/>
<path d="M627.438 56.5224H629.586L626.738 66.5087H624.721L623.499 60.6687L623.143 58.7378L622.786 60.6687L621.564 66.5087H619.602L616.734 56.5224H618.978L620.316 62.2404L620.604 63.8326L620.899 62.2743L622.038 56.5224H624.268L625.469 62.2404L625.777 63.8326L626.086 62.3014L627.438 56.5224Z" fill="black"/>
<path d="M635.717 60.0589C636.349 60.8403 636.664 61.7639 636.664 62.8299C636.664 63.9139 636.349 64.842 635.717 65.6144C635.086 66.3822 634.128 66.7661 632.842 66.7661C631.557 66.7661 630.599 66.3822 629.967 65.6144C629.336 64.842 629.021 63.9139 629.021 62.8299C629.021 61.7639 629.336 60.8403 629.967 60.0589C630.599 59.2775 631.557 58.8868 632.842 58.8868C634.128 58.8868 635.086 59.2775 635.717 60.0589ZM632.836 60.5196C632.264 60.5196 631.822 60.7206 631.511 61.1226C631.205 61.52 631.052 62.0891 631.052 62.8299C631.052 63.5706 631.205 64.1419 631.511 64.5439C631.822 64.9459 632.264 65.1469 632.836 65.1469C633.407 65.1469 633.846 64.9459 634.153 64.5439C634.459 64.1419 634.613 63.5706 634.613 62.8299C634.613 62.0891 634.459 61.52 634.153 61.1226C633.846 60.7206 633.407 60.5196 632.836 60.5196Z" fill="black"/>
<path d="M640.847 60.9058C640.061 60.9058 639.532 61.1587 639.262 61.6646C639.111 61.9491 639.036 62.3872 639.036 62.9789V66.5087H637.067V59.124H638.933V60.4112C639.235 59.9189 639.498 59.5824 639.722 59.4017C640.088 59.0991 640.564 58.9478 641.149 58.9478C641.186 58.9478 641.216 58.9501 641.238 58.9546C641.266 58.9546 641.323 58.9569 641.41 58.9614V60.9397C641.286 60.9261 641.177 60.9171 641.081 60.9126C640.985 60.908 640.907 60.9058 640.847 60.9058Z" fill="black"/>
<path d="M648.386 56.5359V66.5087H646.485V65.4856C646.206 65.9238 645.888 66.2422 645.531 66.4409C645.174 66.6396 644.731 66.739 644.2 66.739C643.326 66.739 642.59 66.3912 641.991 65.6957C641.396 64.9956 641.099 64.099 641.099 63.006C641.099 61.7459 641.391 60.7545 641.977 60.0318C642.567 59.3091 643.354 58.9478 644.337 58.9478C644.79 58.9478 645.193 59.0472 645.545 59.2459C645.897 59.4401 646.183 59.7111 646.403 60.0589V56.5359H648.386ZM643.116 62.8637C643.116 63.5457 643.253 64.09 643.528 64.4965C643.798 64.9075 644.209 65.113 644.763 65.113C645.316 65.113 645.737 64.9098 646.025 64.5033C646.313 64.0968 646.458 63.5706 646.458 62.9247C646.458 62.0214 646.227 61.3755 645.765 60.9871C645.481 60.7522 645.152 60.6348 644.777 60.6348C644.205 60.6348 643.784 60.8493 643.514 61.2784C643.249 61.703 643.116 62.2314 643.116 62.8637Z" fill="black"/>
<path d="M655.942 65.0656C656.441 65.0656 656.846 65.0114 657.157 64.903C657.747 64.6952 658.042 64.3091 658.042 63.7445C658.042 63.4148 657.895 63.1596 657.603 62.9789C657.31 62.8028 656.85 62.6469 656.223 62.5114L655.153 62.2743C654.101 62.0395 653.374 61.7843 652.971 61.5087C652.29 61.0481 651.949 60.3277 651.949 59.3475C651.949 58.4532 652.278 57.7103 652.937 57.1186C653.596 56.5269 654.563 56.2311 655.839 56.2311C656.905 56.2311 657.813 56.5111 658.563 57.0712C659.318 57.6267 659.714 58.4352 659.75 59.4966H657.719C657.683 58.8959 657.417 58.4691 656.923 58.2161C656.594 58.049 656.185 57.9655 655.695 57.9655C655.151 57.9655 654.716 58.0739 654.391 58.2906C654.067 58.5074 653.904 58.8101 653.904 59.1985C653.904 59.5553 654.064 59.8218 654.385 59.9979C654.59 60.1154 655.03 60.2531 655.702 60.4112L657.445 60.8245C658.209 61.0051 658.785 61.2468 659.174 61.5494C659.778 62.0191 660.08 62.6989 660.08 63.5887C660.08 64.501 659.725 65.2598 659.016 65.865C658.312 66.4658 657.314 66.7661 656.024 66.7661C654.707 66.7661 653.671 66.4703 652.916 65.8786C652.161 65.2824 651.784 64.4649 651.784 63.4261H653.801C653.865 63.8822 653.991 64.2232 654.179 64.4491C654.522 64.8601 655.11 65.0656 655.942 65.0656Z" fill="black"/>
<path d="M663.927 65.1333V66.5764L663 66.6103C662.076 66.6419 661.445 66.4838 661.106 66.136C660.887 65.9147 660.777 65.5737 660.777 65.113V60.567H659.734V59.1917H660.777V57.1321H662.712V59.1917H663.927V60.567H662.712V64.4694C662.712 64.772 662.751 64.9617 662.829 65.0385C662.906 65.1108 663.144 65.1469 663.542 65.1469C663.602 65.1469 663.663 65.1469 663.728 65.1469C663.796 65.1424 663.862 65.1379 663.927 65.1333Z" fill="black"/>
<path d="M668.995 65.4653C668.976 65.4879 668.931 65.5557 668.857 65.6686C668.784 65.7815 668.697 65.8808 668.597 65.9667C668.29 66.2377 667.993 66.4228 667.705 66.5222C667.421 66.6216 667.087 66.6713 666.703 66.6713C665.596 66.6713 664.85 66.2783 664.466 65.4924C664.251 65.0588 664.144 64.4197 664.144 63.5751V59.124H666.147V63.5751C666.147 63.9952 666.197 64.3113 666.298 64.5236C666.477 64.8985 666.826 65.0859 667.348 65.0859C668.016 65.0859 668.473 64.8194 668.72 64.2865C668.848 63.9974 668.912 63.6158 668.912 63.1415V59.124H670.895V66.5087H668.995V65.4653Z" fill="black"/>
<path d="M678.612 56.5359V66.5087H676.711V65.4856C676.432 65.9238 676.115 66.2422 675.758 66.4409C675.401 66.6396 674.957 66.739 674.427 66.739C673.553 66.739 672.816 66.3912 672.217 65.6957C671.623 64.9956 671.325 64.099 671.325 63.006C671.325 61.7459 671.618 60.7545 672.203 60.0318C672.794 59.3091 673.58 58.9478 674.564 58.9478C675.017 58.9478 675.419 59.0472 675.771 59.2459C676.124 59.4401 676.41 59.7111 676.629 60.0589V56.5359H678.612ZM673.342 62.8637C673.342 63.5457 673.48 64.09 673.754 64.4965C674.024 64.9075 674.436 65.113 674.989 65.113C675.543 65.113 675.964 64.9098 676.252 64.5033C676.54 64.0968 676.684 63.5706 676.684 62.9247C676.684 62.0214 676.453 61.3755 675.991 60.9871C675.707 60.7522 675.378 60.6348 675.003 60.6348C674.431 60.6348 674.01 60.8493 673.74 61.2784C673.475 61.703 673.342 62.2314 673.342 62.8637Z" fill="black"/>
<path d="M681.423 59.124V66.5087H679.44V59.124H681.423ZM681.423 56.4614V58.2432H679.44V56.4614H681.423Z" fill="black"/>
<path d="M688.577 60.0589C689.208 60.8403 689.524 61.7639 689.524 62.8299C689.524 63.9139 689.208 64.842 688.577 65.6144C687.946 66.3822 686.987 66.7661 685.702 66.7661C684.417 66.7661 683.458 66.3822 682.827 65.6144C682.196 64.842 681.88 63.9139 681.88 62.8299C681.88 61.7639 682.196 60.8403 682.827 60.0589C683.458 59.2775 684.417 58.8868 685.702 58.8868C686.987 58.8868 687.946 59.2775 688.577 60.0589ZM685.695 60.5196C685.123 60.5196 684.682 60.7206 684.371 61.1226C684.064 61.52 683.911 62.0891 683.911 62.8299C683.911 63.5706 684.064 64.1419 684.371 64.5439C684.682 64.9459 685.123 65.1469 685.695 65.1469C686.267 65.1469 686.706 64.9459 687.013 64.5439C687.319 64.1419 687.472 63.5706 687.472 62.8299C687.472 62.0891 687.319 61.52 687.013 61.1226C686.706 60.7206 686.267 60.5196 685.695 60.5196Z" fill="black"/>
<path fill-rule="evenodd" clip-rule="evenodd" d="M614.166 45.5401H592.877V66.3184H614.166V45.5401ZM608.258 47.018C605.043 46.5957 598.414 46.3567 597.611 48.7793C596.607 51.8076 596.372 53.1363 597.611 53.6307C598.849 54.1251 598.583 55.3921 597.062 56.4427C595.541 57.4933 594.443 58.9302 595.494 59.2083C595.964 59.3327 596.616 59.1912 597.193 59.066C597.906 58.9113 598.504 58.7814 598.504 59.2083C598.504 59.7452 598.338 59.8642 598.052 60.0683C597.927 60.1579 597.778 60.2639 597.611 60.4289C597.354 60.6813 597.532 60.6712 597.795 60.6561C598.094 60.6389 598.504 60.6154 598.504 60.9697C598.504 61.3018 598.144 61.3559 597.783 61.41C597.423 61.4641 597.062 61.5182 597.062 61.8503C597.062 62.1973 597.763 62.2282 598.433 62.2578C599.046 62.2848 599.634 62.3107 599.634 62.5765C599.634 62.7701 599.075 63.1359 598.472 63.5306C597.344 64.2698 596.06 65.1104 598.003 65.1104C600.982 65.1104 610.203 63.7816 610.657 58.1577C610.867 55.5636 610.933 56.3258 611.032 57.4557C611.146 58.7753 611.305 60.5965 611.786 58.1577C612.68 53.6307 612.272 48.3003 609.371 51.1587C610.14 50.072 610.993 47.7225 608.258 47.018Z" fill="black"/>
</g>
<g opacity="0.35">
<path d="M787.686 46.0251V52.4153C787.861 52.4153 793.195 52.3281 793.458 52.2844C794.093 52.1754 794.268 52.0009 794.466 51.3248C794.531 51.1067 794.619 50.6705 794.641 50.2561C794.641 50.1471 794.707 50.1035 794.794 50.1035L795.342 50.1253C795.452 50.1253 795.496 50.2125 795.474 50.2998C795.408 50.6705 795.408 52.4589 795.408 52.7861C795.408 53.5494 795.496 54.5963 795.539 55.0543C795.539 55.1633 795.496 55.207 795.408 55.2288L794.926 55.2942C794.816 55.316 794.772 55.2506 794.751 55.0979C794.707 54.8144 794.575 54.3128 794.509 54.0728C794.378 53.6148 794.137 53.2877 793.567 53.2223C792.537 53.1132 788.037 53.1132 787.686 53.1132V54.4654C787.686 55.6431 787.73 57.7587 787.73 58.1949C787.752 59.329 788.3 59.7652 788.979 59.896C789.417 59.9833 790.053 60.0487 790.601 60.0487C790.973 60.0487 792.069 60.0269 792.529 59.9833C792.902 59.9397 793.866 59.6998 794.436 59.2199C794.699 59.0018 795.926 57.4315 796.233 56.9299C796.299 56.8209 796.364 56.7336 796.496 56.7991L796.846 56.9954C796.956 57.0608 796.956 57.1262 796.89 57.3007L795.729 60.5067C795.663 60.703 795.51 60.8339 795.247 60.8339C795.137 60.8339 794.655 60.8121 793.34 60.7902C792.025 60.7902 789.899 60.7684 786.481 60.7684C785.67 60.7684 785.056 60.7902 784.618 60.7902C784.158 60.8121 783.873 60.8339 783.676 60.8339C783.544 60.8339 783.479 60.7902 783.479 60.6812V60.0923C783.479 60.0051 783.544 59.9833 783.698 59.9833H784.574C785.582 59.9833 785.67 59.8306 785.67 59.0237V51.7174C785.67 49.9072 785.626 47.181 785.604 46.9629C785.517 46.265 785.297 46.1123 784.487 46.1123H783.698C783.588 46.1123 783.522 46.0905 783.522 45.9596V45.3708C783.522 45.3053 783.566 45.2617 783.676 45.2617C784.158 45.2617 784.925 45.3271 786.371 45.3271H787.335C789.505 45.3271 794.165 45.3053 796.334 45.3053C796.685 45.3053 797.101 45.2617 797.211 45.2617C797.321 45.2617 797.364 45.3053 797.386 45.3708L798.504 48.8821C798.526 48.9694 798.526 49.0348 798.438 49.0784L798.109 49.2529C798.044 49.2965 797.956 49.2311 797.934 49.1875C797.89 49.1002 796.269 47.0283 795.743 46.7012C795.282 46.3958 794.669 46.1341 794.077 46.1123L787.686 46.0251Z" fill="black"/>
<path d="M804.109 54.967H798.697C798.653 55.1633 798.631 55.5123 798.631 56.0139C798.631 58.1513 799.99 59.7652 801.743 59.7652C803.079 59.7652 804.022 59.0018 804.394 58.2821C804.438 58.1949 804.526 58.1513 804.592 58.1731L804.876 58.3257C804.942 58.3476 804.986 58.413 804.876 58.6529C804.482 59.5253 803.342 61.0301 801.392 61.0301C800.143 61.0301 798.762 60.6594 797.952 59.4817C797.184 58.3694 796.987 57.5624 796.987 56.0357C796.987 55.1851 797.206 53.7239 798.368 52.568C799.31 51.6083 800.406 51.4121 801.502 51.4121C804.022 51.4121 804.723 53.7675 804.723 54.6181C804.723 54.9234 804.46 54.967 804.109 54.967ZM798.784 54.3128H802.181C802.597 54.3128 802.773 54.2037 802.773 54.0074C802.773 53.5058 802.51 52.0664 801.085 52.0664C800.121 52.0664 799.201 52.6988 798.784 54.3128Z" fill="black"/>
<path d="M812.279 59.6779V55.1851C812.279 53.5712 811.972 53.1568 811.621 52.8297C811.336 52.568 810.701 52.4371 810.219 52.4371C809.649 52.4371 808.729 52.7206 808.115 53.7021C807.852 54.1383 807.808 54.5527 807.808 55.1633V59.4817C807.808 59.8306 807.94 60.0487 808.247 60.0487H809.035C809.233 60.0487 809.255 60.0923 809.255 60.245V60.594C809.255 60.7466 809.233 60.8339 809.079 60.8339C808.882 60.8339 808.29 60.7684 807.085 60.7684C805.924 60.7684 805.222 60.8339 805.047 60.8339C804.916 60.8339 804.872 60.7902 804.872 60.6376V60.245C804.872 60.0705 804.916 60.0487 805.135 60.0487H805.88C806.077 60.0487 806.187 59.9179 806.208 59.5035C806.23 59.1327 806.23 58.7401 806.23 58.3694V54.4872C806.23 54.051 806.143 53.6585 805.617 53.3749L805.157 53.135C805.047 53.0696 805.003 53.026 805.003 52.9606V52.7861C805.003 52.7206 805.091 52.6334 805.135 52.6116L807.063 51.6302C807.238 51.5429 807.392 51.4993 807.48 51.4993C807.611 51.4993 807.677 51.652 807.677 51.8046L807.764 53.0696H807.83C808.488 52.1754 809.781 51.4121 811.052 51.4121C812.191 51.4121 813.068 52.0664 813.528 53.0914H813.637C814.295 52.2408 815.544 51.4121 816.859 51.4121C817.626 51.4121 818.305 51.5429 818.831 52.0664C819.335 52.5898 819.883 53.0696 819.883 54.7489V59.6125C819.883 59.9397 820.08 60.0487 820.343 60.0487H820.935C821.132 60.0487 821.176 60.0923 821.176 60.245V60.6158C821.176 60.7684 821.132 60.8339 821.023 60.8339C820.869 60.8339 820.256 60.7684 819.204 60.7684C818.108 60.7684 817.319 60.8339 817.166 60.8339C817.034 60.8339 816.99 60.7684 816.99 60.6158V60.245C816.99 60.0923 817.034 60.0487 817.275 60.0487H817.823C818.064 60.0487 818.24 59.9397 818.261 59.6343C818.305 59.1327 818.305 58.3476 818.305 57.8677V54.6399C818.305 53.9202 818.174 53.2877 817.67 52.8951C817.275 52.5898 816.706 52.4371 816.048 52.4371C815.391 52.4371 814.492 52.9387 814.142 53.5712C813.813 54.2037 813.835 54.7926 813.835 55.774V59.5471C813.835 59.8306 813.944 60.0487 814.273 60.0487H815.018C815.215 60.0487 815.259 60.0923 815.259 60.245V60.594C815.259 60.7684 815.215 60.8339 815.106 60.8339C814.952 60.8339 814.383 60.7684 813.155 60.7684C811.972 60.7684 811.227 60.8339 811.095 60.8339C810.986 60.8339 810.942 60.7684 810.942 60.6158V60.2668C810.942 60.0923 810.964 60.0487 811.161 60.0487H811.797C812.147 60.0487 812.279 59.9615 812.279 59.6779Z" fill="black"/>
<path d="M821.892 57.0608V49.013C821.892 47.5517 821.651 47.2464 820.862 46.9847L820.643 46.9193C820.402 46.8538 820.358 46.8102 820.358 46.7448V46.5703C820.358 46.5049 820.402 46.4613 820.533 46.3958C821.169 46.1123 822.308 45.5452 822.856 45.1963C823.01 45.0872 823.185 45 823.316 45C823.47 45 823.514 45.109 823.492 45.3708C823.47 45.5452 823.47 48.0316 823.47 49.9726V52.5025C824.171 51.8264 825.42 51.4121 826.494 51.4121C828.422 51.4121 830.504 52.9606 830.504 56.0793C830.504 58.6311 828.444 61.0301 825.946 61.0301C824.719 61.0301 823.864 60.7684 823.36 60.4631L822.484 60.9429C822.396 61.0083 822.33 61.0301 822.199 61.0083L821.936 60.9429C821.848 60.9211 821.826 60.8775 821.848 60.7684C821.892 60.4631 821.892 58.6529 821.892 57.0608ZM823.47 53.2441V56.0793C823.47 57.8895 823.535 58.5438 823.798 59.2418C824.018 59.7652 824.938 60.3322 825.88 60.3322C827.195 60.3322 828.817 59.438 828.817 56.581C828.817 54.4654 827.699 52.4589 825.552 52.4589C824.741 52.4589 823.952 52.7425 823.47 53.2441Z" fill="black"/>
<path d="M832.058 57.0172V54.967C832.058 53.8547 831.883 53.6367 831.269 53.3095L830.853 53.0914C830.721 53.0478 830.678 53.026 830.678 52.9387V52.8079C830.678 52.7206 830.721 52.677 830.853 52.6116L833.022 51.4993C833.154 51.4339 833.242 51.4121 833.329 51.4121C833.461 51.4121 833.483 51.5429 833.483 51.6738L833.592 53.2223H833.68C834.337 52.219 835.367 51.3248 836.31 51.3248C837.055 51.3248 837.427 51.7828 837.427 52.2844C837.427 52.9169 836.901 53.3531 836.507 53.3531C836.266 53.3531 836.047 53.2659 835.871 53.1786C835.696 53.0696 835.433 53.0042 835.148 53.0042C834.797 53.0042 834.228 53.2223 833.855 53.9202C833.724 54.1601 833.636 54.5527 833.636 54.6181V59.1545C833.636 59.8306 833.789 60.0487 834.25 60.0487H835.28C835.411 60.0487 835.433 60.1141 835.433 60.245V60.6376C835.433 60.7684 835.411 60.8339 835.323 60.8339C835.192 60.8339 834.184 60.7684 833 60.7684C831.642 60.7684 830.721 60.8339 830.59 60.8339C830.502 60.8339 830.458 60.7902 830.458 60.6158V60.245C830.458 60.0923 830.502 60.0487 830.699 60.0487H831.554C831.883 60.0487 832.036 59.9179 832.036 59.6343C832.058 58.9146 832.058 58.1513 832.058 57.0172Z" fill="black"/>
<path d="M843.696 54.967H838.283C838.239 55.1633 838.217 55.5123 838.217 56.0139C838.217 58.1513 839.576 59.7652 841.329 59.7652C842.666 59.7652 843.608 59.0018 843.981 58.2821C844.025 58.1949 844.112 58.1513 844.178 58.1731L844.463 58.3257C844.529 58.3476 844.573 58.413 844.463 58.6529C844.069 59.5253 842.929 61.0301 840.979 61.0301C839.729 61.0301 838.349 60.6594 837.538 59.4817C836.771 58.3694 836.574 57.5624 836.574 56.0357C836.574 55.1851 836.793 53.7239 837.954 52.568C838.897 51.6083 839.992 51.4121 841.088 51.4121C843.608 51.4121 844.31 53.7675 844.31 54.6181C844.31 54.9234 844.047 54.967 843.696 54.967ZM838.371 54.3128H841.767C842.184 54.3128 842.359 54.2037 842.359 54.0074C842.359 53.5058 842.096 52.0664 840.672 52.0664C839.708 52.0664 838.787 52.6988 838.371 54.3128Z" fill="black"/>
<path d="M851.602 54.967H846.189C846.146 55.1633 846.124 55.5123 846.124 56.0139C846.124 58.1513 847.482 59.7652 849.236 59.7652C850.572 59.7652 851.515 59.0018 851.887 58.2821C851.931 58.1949 852.019 58.1513 852.084 58.1731L852.369 58.3257C852.435 58.3476 852.479 58.413 852.369 58.6529C851.975 59.5253 850.835 61.0301 848.885 61.0301C847.636 61.0301 846.255 60.6594 845.444 59.4817C844.677 58.3694 844.48 57.5624 844.48 56.0357C844.48 55.1851 844.699 53.7239 845.861 52.568C846.803 51.6083 847.899 51.4121 848.994 51.4121C851.515 51.4121 852.216 53.7675 852.216 54.6181C852.216 54.9234 851.953 54.967 851.602 54.967ZM846.277 54.3128H849.674C850.09 54.3128 850.266 54.2037 850.266 54.0074C850.266 53.5058 850.003 52.0664 848.578 52.0664C847.614 52.0664 846.693 52.6988 846.277 54.3128Z" fill="black"/>
<path d="M861.065 56.581V61.5536C861.065 62.9058 861.13 64.7596 861.174 65.3485C861.196 65.7411 861.328 65.981 861.634 65.981H862.314C862.467 65.981 862.533 66.0246 862.533 66.1118V66.5916C862.533 66.7225 862.489 66.7661 862.379 66.7661C862.182 66.7661 861.371 66.7007 860.254 66.7007C858.873 66.7007 858.128 66.7661 857.953 66.7661C857.821 66.7661 857.777 66.7225 857.777 66.5698V66.1336C857.777 66.0246 857.821 65.981 858.018 65.981H858.917C859.29 65.981 859.399 65.8283 859.443 65.523C859.487 65.1958 859.487 61.968 859.487 60.5285V59.9833H859.443C858.851 60.4195 857.909 61.0301 856.309 61.0301C854.753 61.0301 852.386 60.2014 852.386 56.4501C852.386 55.207 853.066 53.4404 854.249 52.4589C855.148 51.6738 856.156 51.4121 857.142 51.4121C858.04 51.4121 858.807 51.5865 859.75 51.8919L860.911 51.4121C860.999 51.3903 861.043 51.3684 861.108 51.4339L861.306 51.5865C861.349 51.6302 861.371 51.6956 861.306 51.9137C861.218 52.2626 861.152 53.1132 861.13 53.3531C861.087 53.8329 861.065 54.9234 861.065 56.581ZM859.487 59.1545V54.1165C859.311 52.5898 857.821 52.11 856.967 52.11C855.038 52.11 854.074 54.4218 854.074 55.7086C854.074 57.7805 854.753 58.6093 855.235 59.2199C855.761 59.8306 856.528 60.136 857.164 60.136C858.194 60.136 859.07 59.6561 859.487 59.1545Z" fill="black"/>
<path d="M870.418 54.7053V56.3411C870.418 57.3879 870.418 58.4566 870.462 58.9146C870.528 59.5907 870.769 59.6779 871.032 59.6779C871.163 59.6779 871.492 59.6779 871.755 59.6125C871.93 59.5689 871.996 59.6125 872.018 59.6998L872.083 59.9833C872.105 60.1141 872.062 60.1578 871.974 60.1796L869.673 60.9429C869.541 60.9865 869.41 61.0301 869.235 61.0301C869.147 61.0301 869.059 60.9865 869.037 60.7684L868.862 59.5035H868.818C868.205 60.354 866.934 61.0301 865.838 61.0301C865.224 61.0301 864.501 60.9647 863.778 60.0269C862.879 58.871 862.923 58.1513 862.923 55.7522V53.2005C862.901 52.5898 862.594 52.4371 862.09 52.3717C861.718 52.3499 861.608 52.3281 861.608 52.219V51.8264C861.608 51.6956 861.652 51.652 861.849 51.652H863.8C863.931 51.652 864.019 51.6302 864.107 51.6083C864.194 51.6083 864.282 51.5865 864.348 51.5865C864.501 51.5865 864.611 51.6956 864.589 51.8483C864.567 52.0445 864.501 53.0696 864.501 54.3564V55.9267C864.501 56.7991 864.282 58.1949 864.983 59.1981C865.531 59.9833 866.145 60.0269 866.736 60.0269C867.328 60.0269 868.205 59.4598 868.621 58.9364C868.709 58.8274 868.84 58.5438 868.84 58.3476V53.135C868.796 52.5244 868.446 52.4153 867.898 52.3717C867.525 52.3717 867.416 52.3281 867.416 52.219V51.8483C867.416 51.6738 867.46 51.652 867.679 51.652H869.717C869.87 51.652 869.98 51.6302 870.089 51.6083C870.199 51.6083 870.286 51.5865 870.352 51.5865C870.484 51.5865 870.571 51.6956 870.549 51.8046C870.528 52.0009 870.418 52.568 870.418 54.7053Z" fill="black"/>
<path d="M878.874 54.967H873.461C873.417 55.1633 873.395 55.5123 873.395 56.0139C873.395 58.1513 874.754 59.7652 876.507 59.7652C877.844 59.7652 878.786 59.0018 879.159 58.2821C879.203 58.1949 879.29 58.1513 879.356 58.1731L879.641 58.3257C879.707 58.3476 879.75 58.413 879.641 58.6529C879.246 59.5253 878.107 61.0301 876.156 61.0301C874.907 61.0301 873.527 60.6594 872.716 59.4817C871.949 58.3694 871.752 57.5624 871.752 56.0357C871.752 55.1851 871.971 53.7239 873.132 52.568C874.075 51.6083 875.17 51.4121 876.266 51.4121C878.786 51.4121 879.487 53.7675 879.487 54.6181C879.487 54.9234 879.225 54.967 878.874 54.967ZM873.549 54.3128H876.945C877.362 54.3128 877.537 54.2037 877.537 54.0074C877.537 53.5058 877.274 52.0664 875.85 52.0664C874.885 52.0664 873.965 52.6988 873.549 54.3128Z" fill="black"/>
</g>
</g>
</svg>
