<svg width="987" height="681" viewBox="0 0 987 681" fill="none" xmlns="http://www.w3.org/2000/svg">
<line opacity="0.35" x1="95" y1="652.5" x2="956" y2="652.5" stroke="black"/>
<line opacity="0.35" x1="275.5" y1="75" x2="275.5" y2="653" stroke="black"/>
<line opacity="0.35" x1="455.5" y1="75" x2="455.5" y2="653" stroke="black"/>
<line opacity="0.35" x1="635.5" y1="75" x2="635.5" y2="653" stroke="black"/>
<line opacity="0.35" x1="815.5" y1="75" x2="815.5" y2="653" stroke="black"/>
<line opacity="0.35" x1="95" y1="74.5" x2="956" y2="74.5" stroke="black"/>
<line opacity="0.35" x1="95" y1="267.5" x2="956" y2="267.5" stroke="black"/>
<line opacity="0.5" x1="95" y1="459.5" x2="956" y2="459.5" stroke="black"/>
<path d="M78.354 653.196C75.708 653.196 74.63 650.914 74.63 648.17C74.63 645.426 75.708 643.13 78.354 643.13C81 643.13 82.078 645.426 82.078 648.17C82.078 650.914 81 653.196 78.354 653.196ZM78.354 652.076C80.202 652.076 80.762 650.228 80.762 648.17C80.762 646.112 80.202 644.25 78.354 644.25C76.506 644.25 75.946 646.112 75.946 648.17C75.946 650.228 76.506 652.076 78.354 652.076Z" fill="black"/>
<path d="M100.432 678.196C97.492 678.196 95.532 675.998 95.532 672.988C95.532 669.978 97.492 667.794 100.432 667.794C103.372 667.794 105.332 669.978 105.332 672.988C105.332 675.998 103.372 678.196 100.432 678.196ZM100.432 677.076C102.952 677.076 104.016 675.144 104.016 672.988C104.016 670.832 102.952 668.914 100.432 668.914C97.912 668.914 96.848 670.832 96.848 672.988C96.848 675.144 97.912 677.076 100.432 677.076ZM109.747 678.196C107.661 678.196 106.289 676.67 106.289 674.43C106.289 672.19 107.661 670.664 109.747 670.664C111.511 670.664 112.715 671.84 112.883 673.436H111.707C111.651 672.652 111.175 671.644 109.747 671.644C108.053 671.644 107.465 673.086 107.465 674.43C107.465 675.774 108.053 677.216 109.747 677.216C111.189 677.216 111.651 676.222 111.707 675.368H112.883C112.785 676.992 111.511 678.196 109.747 678.196ZM116.95 670.86V671.84H115.55V676.138C115.55 676.894 115.732 677.09 116.362 677.09C116.6 677.09 116.712 677.076 116.95 677.048V678C116.628 678.056 116.46 678.07 116.208 678.07C115.158 678.07 114.43 677.706 114.43 676.082V671.84H113.38V670.86H114.43V668.48H115.55V670.86H116.95ZM121.082 678.21C118.898 678.21 117.582 676.656 117.582 674.43C117.582 672.204 118.898 670.65 121.082 670.65C123.252 670.65 124.568 672.204 124.568 674.43C124.568 676.656 123.252 678.21 121.082 678.21ZM121.082 677.23C122.678 677.23 123.392 675.956 123.392 674.43C123.392 672.904 122.678 671.63 121.082 671.63C119.472 671.63 118.758 672.904 118.758 674.43C118.758 675.956 119.472 677.23 121.082 677.23ZM129.182 670.664C130.974 670.664 132.402 672.078 132.402 674.43C132.402 676.782 130.974 678.196 129.182 678.196C128.034 678.196 127.362 677.692 126.942 677.076H126.914V678H125.794V667.99H126.914V671.742H126.942C127.362 671.196 128.034 670.664 129.182 670.664ZM129.07 677.216C130.54 677.216 131.226 675.83 131.226 674.43C131.226 673.03 130.54 671.644 129.07 671.644C127.74 671.644 126.914 672.75 126.914 674.43C126.914 676.11 127.74 677.216 129.07 677.216ZM140.04 674.164C140.04 674.374 140.04 674.612 140.026 674.724H134.44C134.468 675.984 135.168 677.244 136.75 677.244C138.15 677.244 138.682 676.306 138.808 675.802H139.942C139.578 677.132 138.57 678.21 136.736 678.21C134.482 678.21 133.264 676.586 133.264 674.416C133.264 672.134 134.622 670.65 136.736 670.65C138.822 670.65 140.04 672.078 140.04 674.164ZM134.44 673.744H138.85C138.85 672.568 138.01 671.616 136.68 671.616C135.448 671.616 134.51 672.498 134.44 673.744ZM144.393 670.664C144.659 670.664 144.855 670.678 145.051 670.706V671.826C144.883 671.798 144.757 671.784 144.589 671.784C143.273 671.784 142.391 672.82 142.391 674.192V678H141.271V670.86H142.391V672.274H142.419C142.797 671.336 143.371 670.664 144.393 670.664ZM154.967 678H148.261C148.261 676.25 149.367 674.878 151.145 673.842C152.951 672.792 153.791 672.456 153.791 671.042C153.791 670.23 153.483 669.25 151.999 669.25C150.305 669.25 149.857 670.384 149.857 671.714H148.541C148.541 669.712 149.633 668.13 152.027 668.13C153.679 668.13 155.107 669.18 155.107 671.028C155.107 672.904 153.595 673.8 152.181 674.612C151.089 675.242 150.053 675.844 149.787 676.852V676.88H154.967V678ZM160.03 678.196C157.384 678.196 156.306 675.914 156.306 673.17C156.306 670.426 157.384 668.13 160.03 668.13C162.676 668.13 163.754 670.426 163.754 673.17C163.754 675.914 162.676 678.196 160.03 678.196ZM160.03 677.076C161.878 677.076 162.438 675.228 162.438 673.17C162.438 671.112 161.878 669.25 160.03 669.25C158.182 669.25 157.622 671.112 157.622 673.17C157.622 675.228 158.182 677.076 160.03 677.076ZM171.497 678H164.791C164.791 676.25 165.897 674.878 167.675 673.842C169.481 672.792 170.321 672.456 170.321 671.042C170.321 670.23 170.013 669.25 168.529 669.25C166.835 669.25 166.387 670.384 166.387 671.714H165.071C165.071 669.712 166.163 668.13 168.557 668.13C170.209 668.13 171.637 669.18 171.637 671.028C171.637 672.904 170.125 673.8 168.711 674.612C167.619 675.242 166.583 675.844 166.317 676.852V676.88H171.497V678ZM179.317 678H172.611C172.611 676.25 173.717 674.878 175.495 673.842C177.301 672.792 178.141 672.456 178.141 671.042C178.141 670.23 177.833 669.25 176.349 669.25C174.655 669.25 174.207 670.384 174.207 671.714H172.891C172.891 669.712 173.983 668.13 176.377 668.13C178.029 668.13 179.457 669.18 179.457 671.028C179.457 672.904 177.945 673.8 176.531 674.612C175.439 675.242 174.403 675.844 174.137 676.852V676.88H179.317V678Z" fill="black"/>
<path d="M236.164 678.196C233.91 678.196 233.252 676.572 233.252 674.948V674.668H234.512V674.948C234.512 676.152 234.708 677.076 236.164 677.076C237.62 677.076 237.83 676.152 237.83 674.948V667.99H239.09V674.948C239.09 676.572 238.418 678.196 236.164 678.196ZM242.69 678.196C241.248 678.196 240.338 677.37 240.338 676.166C240.338 674.528 241.542 674.08 243.39 673.744C244.608 673.52 245.168 673.38 245.168 672.68C245.168 672.12 244.86 671.63 243.684 671.63C242.326 671.63 241.934 672.036 241.864 673.072H240.688C240.758 671.7 241.626 670.65 243.726 670.65C245.056 670.65 246.26 671.21 246.26 672.96V676.39C246.26 676.95 246.344 677.23 246.624 677.23C246.666 677.23 246.708 677.23 246.792 677.216V678C246.61 678.042 246.442 678.07 246.246 678.07C245.63 678.07 245.252 677.832 245.182 676.95H245.154C244.692 677.72 243.88 678.196 242.69 678.196ZM242.802 677.216C244.146 677.216 245.168 676.614 245.168 675.242V674.108C244.958 674.332 244.258 674.514 243.488 674.668C242.102 674.948 241.514 675.284 241.514 676.11C241.514 676.81 241.878 677.216 242.802 677.216ZM251.517 670.664C252.819 670.664 253.911 671.378 253.911 673.016V678H252.791V673.296C252.791 672.372 252.357 671.644 251.237 671.644C249.977 671.644 249.137 672.442 249.137 673.548V678H248.017V670.86H249.137V671.714H249.165C249.543 671.21 250.299 670.664 251.517 670.664ZM260.2 675.312V670.86H261.32V678H260.2V677.146H260.172C259.794 677.65 259.038 678.196 257.82 678.196C256.518 678.196 255.426 677.482 255.426 675.844V670.86H256.546V675.564C256.546 676.488 256.98 677.216 258.1 677.216C259.36 677.216 260.2 676.418 260.2 675.312ZM264.921 678.196C263.479 678.196 262.569 677.37 262.569 676.166C262.569 674.528 263.773 674.08 265.621 673.744C266.839 673.52 267.399 673.38 267.399 672.68C267.399 672.12 267.091 671.63 265.915 671.63C264.557 671.63 264.165 672.036 264.095 673.072H262.919C262.989 671.7 263.857 670.65 265.957 670.65C267.287 670.65 268.491 671.21 268.491 672.96V676.39C268.491 676.95 268.575 677.23 268.855 677.23C268.897 677.23 268.939 677.23 269.023 677.216V678C268.841 678.042 268.673 678.07 268.477 678.07C267.861 678.07 267.483 677.832 267.413 676.95H267.385C266.923 677.72 266.111 678.196 264.921 678.196ZM265.033 677.216C266.377 677.216 267.399 676.614 267.399 675.242V674.108C267.189 674.332 266.489 674.514 265.719 674.668C264.333 674.948 263.745 675.284 263.745 676.11C263.745 676.81 264.109 677.216 265.033 677.216ZM273.37 670.664C273.636 670.664 273.832 670.678 274.028 670.706V671.826C273.86 671.798 273.734 671.784 273.566 671.784C272.25 671.784 271.368 672.82 271.368 674.192V678H270.248V670.86H271.368V672.274H271.396C271.774 671.336 272.348 670.664 273.37 670.664ZM275.706 680.506C275.454 680.506 275.286 680.492 274.964 680.436V679.484C275.202 679.512 275.314 679.526 275.524 679.526C276.112 679.526 276.756 679.162 277.064 677.93L274.166 670.86H275.426L277.624 676.544H277.652L279.752 670.86H280.956L278.072 678.21C277.358 680.016 276.672 680.506 275.706 680.506ZM290.807 678H284.101C284.101 676.25 285.207 674.878 286.985 673.842C288.791 672.792 289.631 672.456 289.631 671.042C289.631 670.23 289.323 669.25 287.839 669.25C286.145 669.25 285.697 670.384 285.697 671.714H284.381C284.381 669.712 285.473 668.13 287.867 668.13C289.519 668.13 290.947 669.18 290.947 671.028C290.947 672.904 289.435 673.8 288.021 674.612C286.929 675.242 285.893 675.844 285.627 676.852V676.88H290.807V678ZM295.87 678.196C293.224 678.196 292.146 675.914 292.146 673.17C292.146 670.426 293.224 668.13 295.87 668.13C298.516 668.13 299.594 670.426 299.594 673.17C299.594 675.914 298.516 678.196 295.87 678.196ZM295.87 677.076C297.718 677.076 298.278 675.228 298.278 673.17C298.278 671.112 297.718 669.25 295.87 669.25C294.022 669.25 293.462 671.112 293.462 673.17C293.462 675.228 294.022 677.076 295.87 677.076ZM307.337 678H300.631C300.631 676.25 301.737 674.878 303.515 673.842C305.321 672.792 306.161 672.456 306.161 671.042C306.161 670.23 305.853 669.25 304.369 669.25C302.675 669.25 302.227 670.384 302.227 671.714H300.911C300.911 669.712 302.003 668.13 304.397 668.13C306.049 668.13 307.477 669.18 307.477 671.028C307.477 672.904 305.965 673.8 304.551 674.612C303.459 675.242 302.423 675.844 302.157 676.852V676.88H307.337V678ZM312.371 678.196C309.907 678.196 308.535 676.908 308.535 674.724H309.851C309.851 676.124 310.439 677.076 312.273 677.076C313.939 677.076 314.485 676.39 314.485 675.284C314.485 673.828 313.435 673.506 312.497 673.506H311.461V672.386H312.441C313.435 672.386 314.135 671.924 314.135 670.804C314.135 670.02 313.659 669.25 312.343 669.25C310.453 669.25 310.103 670.272 310.103 671.224H308.787C308.787 669.446 309.949 668.13 312.343 668.13C313.995 668.13 315.451 669.096 315.451 670.804C315.451 671.826 314.947 672.47 313.967 672.862V672.89C315.269 673.296 315.801 674.15 315.801 675.284C315.801 677.132 314.443 678.196 312.371 678.196Z" fill="black"/>
<path d="M424.4 678H423.098L426.794 667.99H428.208L431.932 678H430.574L429.692 675.494H425.282L424.4 678ZM427.48 669.152L425.702 674.374H429.286L427.508 669.152H427.48ZM436.21 670.664C438.002 670.664 439.43 672.078 439.43 674.43C439.43 676.782 438.002 678.196 436.21 678.196C435.062 678.196 434.39 677.692 433.97 677.076H433.942V680.478H432.822V670.86H433.942V671.742H433.97C434.39 671.196 435.062 670.664 436.21 670.664ZM436.098 677.216C437.568 677.216 438.254 675.83 438.254 674.43C438.254 673.03 437.568 671.644 436.098 671.644C434.768 671.644 433.942 672.75 433.942 674.43C433.942 676.11 434.768 677.216 436.098 677.216ZM443.791 670.664C444.057 670.664 444.253 670.678 444.449 670.706V671.826C444.281 671.798 444.155 671.784 443.987 671.784C442.671 671.784 441.789 672.82 441.789 674.192V678H440.669V670.86H441.789V672.274H441.817C442.195 671.336 442.769 670.664 443.791 670.664ZM446.618 669.474H445.274V668.13H446.618V669.474ZM446.506 678H445.386V670.86H446.506V678ZM449.254 678H448.134V667.99H449.254V678ZM460.176 678H453.47C453.47 676.25 454.576 674.878 456.354 673.842C458.16 672.792 459 672.456 459 671.042C459 670.23 458.692 669.25 457.208 669.25C455.514 669.25 455.066 670.384 455.066 671.714H453.75C453.75 669.712 454.842 668.13 457.236 668.13C458.888 668.13 460.316 669.18 460.316 671.028C460.316 672.904 458.804 673.8 457.39 674.612C456.298 675.242 455.262 675.844 454.996 676.852V676.88H460.176V678ZM465.239 678.196C462.593 678.196 461.515 675.914 461.515 673.17C461.515 670.426 462.593 668.13 465.239 668.13C467.885 668.13 468.963 670.426 468.963 673.17C468.963 675.914 467.885 678.196 465.239 678.196ZM465.239 677.076C467.087 677.076 467.647 675.228 467.647 673.17C467.647 671.112 467.087 669.25 465.239 669.25C463.391 669.25 462.831 671.112 462.831 673.17C462.831 675.228 463.391 677.076 465.239 677.076ZM476.706 678H470C470 676.25 471.106 674.878 472.884 673.842C474.69 672.792 475.53 672.456 475.53 671.042C475.53 670.23 475.222 669.25 473.738 669.25C472.044 669.25 471.596 670.384 471.596 671.714H470.28C470.28 669.712 471.372 668.13 473.766 668.13C475.418 668.13 476.846 669.18 476.846 671.028C476.846 672.904 475.334 673.8 473.92 674.612C472.828 675.242 471.792 675.844 471.526 676.852V676.88H476.706V678ZM481.74 678.196C479.276 678.196 477.904 676.908 477.904 674.724H479.22C479.22 676.124 479.808 677.076 481.642 677.076C483.308 677.076 483.854 676.39 483.854 675.284C483.854 673.828 482.804 673.506 481.866 673.506H480.83V672.386H481.81C482.804 672.386 483.504 671.924 483.504 670.804C483.504 670.02 483.028 669.25 481.712 669.25C479.822 669.25 479.472 670.272 479.472 671.224H478.156C478.156 669.446 479.318 668.13 481.712 668.13C483.364 668.13 484.82 669.096 484.82 670.804C484.82 671.826 484.316 672.47 483.336 672.862V672.89C484.638 673.296 485.17 674.15 485.17 675.284C485.17 677.132 483.812 678.196 481.74 678.196Z" fill="black"/>
<path d="M608.164 678.196C605.91 678.196 605.252 676.572 605.252 674.948V674.668H606.512V674.948C606.512 676.152 606.708 677.076 608.164 677.076C609.62 677.076 609.83 676.152 609.83 674.948V667.99H611.09V674.948C611.09 676.572 610.418 678.196 608.164 678.196ZM617.434 675.312V670.86H618.554V678H617.434V677.146H617.406C617.028 677.65 616.272 678.196 615.054 678.196C613.752 678.196 612.66 677.482 612.66 675.844V670.86H613.78V675.564C613.78 676.488 614.214 677.216 615.334 677.216C616.594 677.216 617.434 676.418 617.434 675.312ZM621.301 678H620.181V667.99H621.301V678ZM623.671 680.506C623.419 680.506 623.251 680.492 622.929 680.436V679.484C623.167 679.512 623.279 679.526 623.489 679.526C624.077 679.526 624.721 679.162 625.029 677.93L622.131 670.86H623.391L625.589 676.544H625.617L627.717 670.86H628.921L626.037 678.21C625.323 680.016 624.637 680.506 623.671 680.506ZM638.772 678H632.066C632.066 676.25 633.172 674.878 634.95 673.842C636.756 672.792 637.596 672.456 637.596 671.042C637.596 670.23 637.288 669.25 635.804 669.25C634.11 669.25 633.662 670.384 633.662 671.714H632.346C632.346 669.712 633.438 668.13 635.832 668.13C637.484 668.13 638.912 669.18 638.912 671.028C638.912 672.904 637.4 673.8 635.986 674.612C634.894 675.242 633.858 675.844 633.592 676.852V676.88H638.772V678ZM643.834 678.196C641.188 678.196 640.11 675.914 640.11 673.17C640.11 670.426 641.188 668.13 643.834 668.13C646.48 668.13 647.558 670.426 647.558 673.17C647.558 675.914 646.48 678.196 643.834 678.196ZM643.834 677.076C645.682 677.076 646.242 675.228 646.242 673.17C646.242 671.112 645.682 669.25 643.834 669.25C641.986 669.25 641.426 671.112 641.426 673.17C641.426 675.228 641.986 677.076 643.834 677.076ZM655.301 678H648.595C648.595 676.25 649.701 674.878 651.479 673.842C653.285 672.792 654.125 672.456 654.125 671.042C654.125 670.23 653.817 669.25 652.333 669.25C650.639 669.25 650.191 670.384 650.191 671.714H648.875C648.875 669.712 649.967 668.13 652.361 668.13C654.013 668.13 655.441 669.18 655.441 671.028C655.441 672.904 653.929 673.8 652.515 674.612C651.423 675.242 650.387 675.844 650.121 676.852V676.88H655.301V678ZM660.336 678.196C657.872 678.196 656.5 676.908 656.5 674.724H657.816C657.816 676.124 658.404 677.076 660.238 677.076C661.904 677.076 662.45 676.39 662.45 675.284C662.45 673.828 661.4 673.506 660.462 673.506H659.426V672.386H660.406C661.4 672.386 662.1 671.924 662.1 670.804C662.1 670.02 661.624 669.25 660.308 669.25C658.418 669.25 658.068 670.272 658.068 671.224H656.752C656.752 669.446 657.914 668.13 660.308 668.13C661.96 668.13 663.416 669.096 663.416 670.804C663.416 671.826 662.912 672.47 661.932 672.862V672.89C663.234 673.296 663.766 674.15 663.766 675.284C663.766 677.132 662.408 678.196 660.336 678.196Z" fill="black"/>
<path d="M766.506 383H765.246V372.99H769.222C771.056 372.99 772.47 373.802 772.47 375.902C772.47 378.002 771.056 378.814 769.222 378.814H766.506V383ZM766.506 377.694H769.306C770.552 377.694 771.154 377.12 771.154 375.902C771.154 374.684 770.552 374.11 769.306 374.11H766.506V377.694ZM777.094 375.664C778.396 375.664 779.488 376.378 779.488 378.016V383H778.368V378.296C778.368 377.372 777.934 376.644 776.814 376.644C775.554 376.644 774.714 377.442 774.714 378.548V383H773.594V372.99H774.714V376.714H774.742C775.12 376.21 775.876 375.664 777.094 375.664ZM784.772 383H781.146V372.99H784.772C787.53 372.99 789.224 374.782 789.224 378.002C789.224 381.222 787.53 383 784.772 383ZM782.406 381.88H784.772C787.32 381.88 787.908 379.962 787.908 378.002C787.908 376.042 787.32 374.11 784.772 374.11H782.406V381.88Z" fill="#F54550"/>
<path d="M849.647 130H848.345L852.041 119.99H853.455L857.179 130H855.821L854.939 127.494H850.529L849.647 130ZM852.727 121.152L850.949 126.374H854.533L852.755 121.152H852.727ZM859.189 130H858.069V119.99H859.189V130ZM861.937 130H860.817V119.99H861.937V130Z" fill="#236CE6"/>
<path d="M560.741 488H559.481V477.99H563.457C565.291 477.99 566.705 478.802 566.705 480.902C566.705 483.002 565.291 483.814 563.457 483.814H560.741V488ZM560.741 482.694H563.541C564.787 482.694 565.389 482.12 565.389 480.902C565.389 479.684 564.787 479.11 563.541 479.11H560.741V482.694ZM570.582 488.21C568.398 488.21 567.082 486.656 567.082 484.43C567.082 482.204 568.398 480.65 570.582 480.65C572.752 480.65 574.068 482.204 574.068 484.43C574.068 486.656 572.752 488.21 570.582 488.21ZM570.582 487.23C572.178 487.23 572.892 485.956 572.892 484.43C572.892 482.904 572.178 481.63 570.582 481.63C568.972 481.63 568.258 482.904 568.258 484.43C568.258 485.956 568.972 487.23 570.582 487.23ZM577.996 488.196C575.938 488.196 574.832 487.09 574.79 485.62H575.966C576.022 486.488 576.526 487.216 577.996 487.216C579.368 487.216 579.69 486.586 579.69 486.04C579.69 485.06 578.668 484.962 577.786 484.766C576.54 484.486 575.07 484.15 575.07 482.666C575.07 481.462 576.036 480.664 577.674 480.664C579.522 480.664 580.474 481.672 580.586 482.904H579.41C579.298 482.358 579.018 481.644 577.688 481.644C576.68 481.644 576.246 482.05 576.246 482.624C576.246 483.45 577.156 483.534 578.15 483.758C579.424 484.052 580.866 484.416 580.866 485.998C580.866 487.342 579.816 488.196 577.996 488.196ZM584.879 480.86V481.84H583.479V486.138C583.479 486.894 583.661 487.09 584.291 487.09C584.529 487.09 584.641 487.076 584.879 487.048V488C584.557 488.056 584.389 488.07 584.137 488.07C583.087 488.07 582.359 487.706 582.359 486.082V481.84H581.309V480.86H582.359V478.48H583.479V480.86H584.879ZM589.104 484.99H585.352V483.87H589.104V484.99ZM594.348 488H590.722V477.99H594.348C597.106 477.99 598.8 479.782 598.8 483.002C598.8 486.222 597.106 488 594.348 488ZM591.982 486.88H594.348C596.896 486.88 597.484 484.962 597.484 483.002C597.484 481.042 596.896 479.11 594.348 479.11H591.982V486.88ZM603.285 488.21C601.101 488.21 599.785 486.656 599.785 484.43C599.785 482.204 601.101 480.65 603.285 480.65C605.455 480.65 606.771 482.204 606.771 484.43C606.771 486.656 605.455 488.21 603.285 488.21ZM603.285 487.23C604.881 487.23 605.595 485.956 605.595 484.43C605.595 482.904 604.881 481.63 603.285 481.63C601.675 481.63 600.961 482.904 600.961 484.43C600.961 485.956 601.675 487.23 603.285 487.23ZM611.064 488.196C608.978 488.196 607.606 486.67 607.606 484.43C607.606 482.19 608.978 480.664 611.064 480.664C612.828 480.664 614.032 481.84 614.2 483.436H613.024C612.968 482.652 612.492 481.644 611.064 481.644C609.37 481.644 608.782 483.086 608.782 484.43C608.782 485.774 609.37 487.216 611.064 487.216C612.506 487.216 612.968 486.222 613.024 485.368H614.2C614.102 486.992 612.828 488.196 611.064 488.196Z" fill="#FF7E3D"/>
<path d="M776.432 678.196C773.492 678.196 771.532 675.998 771.532 672.988C771.532 669.978 773.492 667.794 776.432 667.794C779.372 667.794 781.332 669.978 781.332 672.988C781.332 675.998 779.372 678.196 776.432 678.196ZM776.432 677.076C778.952 677.076 780.016 675.144 780.016 672.988C780.016 670.832 778.952 668.914 776.432 668.914C773.912 668.914 772.848 670.832 772.848 672.988C772.848 675.144 773.912 677.076 776.432 677.076ZM785.747 678.196C783.661 678.196 782.289 676.67 782.289 674.43C782.289 672.19 783.661 670.664 785.747 670.664C787.511 670.664 788.715 671.84 788.883 673.436H787.707C787.651 672.652 787.175 671.644 785.747 671.644C784.053 671.644 783.465 673.086 783.465 674.43C783.465 675.774 784.053 677.216 785.747 677.216C787.189 677.216 787.651 676.222 787.707 675.368H788.883C788.785 676.992 787.511 678.196 785.747 678.196ZM792.95 670.86V671.84H791.55V676.138C791.55 676.894 791.732 677.09 792.362 677.09C792.6 677.09 792.712 677.076 792.95 677.048V678C792.628 678.056 792.46 678.07 792.208 678.07C791.158 678.07 790.43 677.706 790.43 676.082V671.84H789.38V670.86H790.43V668.48H791.55V670.86H792.95ZM797.082 678.21C794.898 678.21 793.582 676.656 793.582 674.43C793.582 672.204 794.898 670.65 797.082 670.65C799.252 670.65 800.568 672.204 800.568 674.43C800.568 676.656 799.252 678.21 797.082 678.21ZM797.082 677.23C798.678 677.23 799.392 675.956 799.392 674.43C799.392 672.904 798.678 671.63 797.082 671.63C795.472 671.63 794.758 672.904 794.758 674.43C794.758 675.956 795.472 677.23 797.082 677.23ZM805.182 670.664C806.974 670.664 808.402 672.078 808.402 674.43C808.402 676.782 806.974 678.196 805.182 678.196C804.034 678.196 803.362 677.692 802.942 677.076H802.914V678H801.794V667.99H802.914V671.742H802.942C803.362 671.196 804.034 670.664 805.182 670.664ZM805.07 677.216C806.54 677.216 807.226 675.83 807.226 674.43C807.226 673.03 806.54 671.644 805.07 671.644C803.74 671.644 802.914 672.75 802.914 674.43C802.914 676.11 803.74 677.216 805.07 677.216ZM816.04 674.164C816.04 674.374 816.04 674.612 816.026 674.724H810.44C810.468 675.984 811.168 677.244 812.75 677.244C814.15 677.244 814.682 676.306 814.808 675.802H815.942C815.578 677.132 814.57 678.21 812.736 678.21C810.482 678.21 809.264 676.586 809.264 674.416C809.264 672.134 810.622 670.65 812.736 670.65C814.822 670.65 816.04 672.078 816.04 674.164ZM810.44 673.744H814.85C814.85 672.568 814.01 671.616 812.68 671.616C811.448 671.616 810.51 672.498 810.44 673.744ZM820.393 670.664C820.659 670.664 820.855 670.678 821.051 670.706V671.826C820.883 671.798 820.757 671.784 820.589 671.784C819.273 671.784 818.391 672.82 818.391 674.192V678H817.271V670.86H818.391V672.274H818.419C818.797 671.336 819.371 670.664 820.393 670.664ZM830.967 678H824.261C824.261 676.25 825.367 674.878 827.145 673.842C828.951 672.792 829.791 672.456 829.791 671.042C829.791 670.23 829.483 669.25 827.999 669.25C826.305 669.25 825.857 670.384 825.857 671.714H824.541C824.541 669.712 825.633 668.13 828.027 668.13C829.679 668.13 831.107 669.18 831.107 671.028C831.107 672.904 829.595 673.8 828.181 674.612C827.089 675.242 826.053 675.844 825.787 676.852V676.88H830.967V678ZM836.03 678.196C833.384 678.196 832.306 675.914 832.306 673.17C832.306 670.426 833.384 668.13 836.03 668.13C838.676 668.13 839.754 670.426 839.754 673.17C839.754 675.914 838.676 678.196 836.03 678.196ZM836.03 677.076C837.878 677.076 838.438 675.228 838.438 673.17C838.438 671.112 837.878 669.25 836.03 669.25C834.182 669.25 833.622 671.112 833.622 673.17C833.622 675.228 834.182 677.076 836.03 677.076ZM847.497 678H840.791C840.791 676.25 841.897 674.878 843.675 673.842C845.481 672.792 846.321 672.456 846.321 671.042C846.321 670.23 846.013 669.25 844.529 669.25C842.835 669.25 842.387 670.384 842.387 671.714H841.071C841.071 669.712 842.163 668.13 844.557 668.13C846.209 668.13 847.637 669.18 847.637 671.028C847.637 672.904 846.125 673.8 844.711 674.612C843.619 675.242 842.583 675.844 842.317 676.852V676.88H847.497V678ZM852.531 678.196C850.067 678.196 848.695 676.908 848.695 674.724H850.011C850.011 676.124 850.599 677.076 852.433 677.076C854.099 677.076 854.645 676.39 854.645 675.284C854.645 673.828 853.595 673.506 852.657 673.506H851.621V672.386H852.601C853.595 672.386 854.295 671.924 854.295 670.804C854.295 670.02 853.819 669.25 852.503 669.25C850.613 669.25 850.263 670.272 850.263 671.224H848.947C848.947 669.446 850.109 668.13 852.503 668.13C854.155 668.13 855.611 669.096 855.611 670.804C855.611 671.826 855.107 672.47 854.127 672.862V672.89C855.429 673.296 855.961 674.15 855.961 675.284C855.961 677.132 854.603 678.196 852.531 678.196Z" fill="black"/>
<path d="M75.004 461.196C72.792 461.196 71.56 459.768 71.504 458.214H72.82C72.932 459.152 73.436 460.076 74.948 460.076C76.278 460.076 77.16 459.25 77.16 457.696C77.16 456.24 76.334 455.624 75.088 455.624C74.22 455.624 73.464 455.904 72.974 456.534H71.63L72.638 451.326H77.958V452.446H73.66L73.086 455.372V455.4C73.576 454.84 74.304 454.504 75.382 454.504C77.202 454.504 78.476 455.904 78.476 457.696C78.476 459.782 76.95 461.196 75.004 461.196Z" fill="black"/>
<path d="M73.198 271V263.622C72.778 264.028 72.05 264.098 71.182 264.098V263.048C72.988 262.992 73.324 262.488 73.478 261.326H74.458V271H73.198ZM79.9067 271.196C77.2607 271.196 76.1827 268.914 76.1827 266.17C76.1827 263.426 77.2607 261.13 79.9067 261.13C82.5527 261.13 83.6307 263.426 83.6307 266.17C83.6307 268.914 82.5527 271.196 79.9067 271.196ZM79.9067 270.076C81.7547 270.076 82.3147 268.228 82.3147 266.17C82.3147 264.112 81.7547 262.25 79.9067 262.25C78.0587 262.25 77.4987 264.112 77.4987 266.17C77.4987 268.228 78.0587 270.076 79.9067 270.076Z" fill="black"/>
<path d="M425.898 614.365C441.519 607.595 530.735 575.309 547.76 575.309C564.784 575.309 600.93 534.572 640.763 521.182C672.056 510.663 714.05 510.651 724.145 507.263C734.241 503.876 741.014 497.046 752.474 491.799C820.417 460.687 880.011 530.681 943.826 491.799C984.463 467.038 1021 397.498 1021 397.498" stroke="#FF7E3D"/>
<rect x="946.996" y="486.918" width="8.22246" height="8.22246" rx="4.11123" transform="rotate(90 946.996 486.918)" fill="#FF7E3D"/>
<rect x="755.824" y="487.945" width="8.22246" height="8.22246" rx="4.11123" transform="rotate(90 755.824 487.945)" fill="#FF7E3D"/>
<rect x="728.074" y="502.334" width="8.22246" height="8.22246" rx="4.11123" transform="rotate(90 728.074 502.334)" fill="#FF7E3D"/>
<rect x="644.822" y="517.752" width="8.22246" height="8.22246" rx="4.11123" transform="rotate(90 644.822 517.752)" fill="#FF7E3D"/>
<rect x="550.264" y="571.197" width="8.22246" height="8.22246" rx="4.11123" transform="rotate(90 550.264 571.197)" fill="#FF7E3D"/>
<path d="M1021 362.551C1005.58 384.649 967.554 425.247 944.93 454.026C922.305 482.804 821.091 426.275 752.073 454.026C717.612 454.026 446.97 614.364 423.898 614.364C405.431 614.364 183.401 614.364 95.5 614.364" stroke="#F54550"/>
<rect x="755.826" y="449.914" width="8.22246" height="8.22246" rx="4.11123" transform="rotate(90 755.826 449.914)" fill="#F54550"/>
<rect x="948.025" y="449.914" width="8.22246" height="8.22246" rx="4.11123" transform="rotate(90 948.025 449.914)" fill="#F54550"/>
<rect x="427.955" y="609.225" width="8.22246" height="8.22246" rx="4.11123" transform="rotate(90 427.955 609.225)" fill="#F54550"/>
<path d="M1021 92C1021 92 968.763 172.083 953.132 172.083C937.5 172.083 919.961 172.083 891.48 172.083C863 172.083 773 292.709 703.418 292.709C633.835 292.709 662.5 292.709 635.549 292.709C608.599 292.709 624 410.5 579.079 406.828C534.158 403.156 433 555.5 320.039 572C220.048 586.606 180.298 565.951 95.5 569.339" stroke="#236CE6"/>
<rect x="895" y="168" width="8" height="8" rx="4" transform="rotate(90 895 168)" fill="#236CE6"/>
<rect x="956" y="168" width="8" height="8" rx="4" transform="rotate(90 956 168)" fill="#236CE6"/>
<rect x="639" y="289" width="8" height="8" rx="4" transform="rotate(90 639 289)" fill="#236CE6"/>
<rect x="583" y="403" width="8" height="8" rx="4" transform="rotate(90 583 403)" fill="#236CE6"/>
<rect x="324" y="568" width="8" height="8" rx="4" transform="rotate(90 324 568)" fill="#236CE6"/>
<path d="M73.198 77V69.622C72.778 70.028 72.05 70.098 71.182 70.098V69.048C72.988 68.992 73.324 68.488 73.478 67.326H74.458V77H73.198ZM79.5567 77.196C77.3447 77.196 76.1127 75.768 76.0567 74.214H77.3727C77.4847 75.152 77.9887 76.076 79.5007 76.076C80.8307 76.076 81.7127 75.25 81.7127 73.696C81.7127 72.24 80.8867 71.624 79.6407 71.624C78.7727 71.624 78.0167 71.904 77.5267 72.534H76.1827L77.1907 67.326H82.5107V68.446H78.2127L77.6387 71.372V71.4C78.1287 70.84 78.8567 70.504 79.9347 70.504C81.7547 70.504 83.0287 71.904 83.0287 73.696C83.0287 75.782 81.5027 77.196 79.5567 77.196Z" fill="black"/>
<path d="M38 394.704L38 395.964L27.99 395.964L27.99 394.704L32.246 394.704L32.246 389.356L27.99 389.356L27.99 388.096L38 388.096L38 389.356L33.366 389.356L33.366 394.704L38 394.704ZM34.164 380.001C34.374 380.001 34.612 380.001 34.724 380.015L34.724 385.601C35.984 385.573 37.244 384.873 37.244 383.291C37.244 381.891 36.306 381.359 35.802 381.233L35.802 380.099C37.132 380.463 38.21 381.471 38.21 383.305C38.21 385.559 36.586 386.777 34.416 386.777C32.134 386.777 30.65 385.419 30.65 383.305C30.65 381.219 32.078 380.001 34.164 380.001ZM33.744 385.601L33.744 381.191C32.568 381.191 31.616 382.031 31.616 383.361C31.616 384.593 32.498 385.531 33.744 385.601ZM38.196 376.796C38.196 378.238 37.37 379.148 36.166 379.148C34.528 379.148 34.08 377.944 33.744 376.096C33.52 374.878 33.38 374.318 32.68 374.318C32.12 374.318 31.63 374.626 31.63 375.802C31.63 377.16 32.036 377.552 33.072 377.622L33.072 378.798C31.7 378.728 30.65 377.86 30.65 375.76C30.65 374.43 31.21 373.226 32.96 373.226L36.39 373.226C36.95 373.226 37.23 373.142 37.23 372.862C37.23 372.82 37.23 372.778 37.216 372.694L38 372.694C38.042 372.876 38.07 373.044 38.07 373.24C38.07 373.856 37.832 374.234 36.95 374.304L36.95 374.332C37.72 374.794 38.196 375.606 38.196 376.796ZM37.216 376.684C37.216 375.34 36.614 374.318 35.242 374.318L34.108 374.318C34.332 374.528 34.514 375.228 34.668 375.998C34.948 377.384 35.284 377.972 36.11 377.972C36.81 377.972 37.216 377.608 37.216 376.684ZM31.784 366.428L27.99 366.428L27.99 365.308L38 365.308L38 366.428L37.118 366.428L37.118 366.456C37.664 366.876 38.196 367.548 38.196 368.696C38.196 370.488 36.782 371.916 34.43 371.916C32.078 371.916 30.664 370.488 30.664 368.696C30.664 367.548 31.168 366.876 31.784 366.456L31.784 366.428ZM37.216 368.584C37.216 367.254 36.11 366.428 34.43 366.428C32.75 366.428 31.644 367.254 31.644 368.584C31.644 370.054 33.03 370.74 34.43 370.74C35.83 370.74 37.216 370.054 37.216 368.584ZM38.196 360.624C38.196 362.71 36.67 364.082 34.43 364.082C32.19 364.082 30.664 362.71 30.664 360.624C30.664 358.86 31.84 357.656 33.436 357.488L33.436 358.664C32.652 358.72 31.644 359.196 31.644 360.624C31.644 362.318 33.086 362.906 34.43 362.906C35.774 362.906 37.216 362.318 37.216 360.624C37.216 359.182 36.222 358.72 35.368 358.664L35.368 357.488C36.992 357.586 38.196 358.86 38.196 360.624ZM38.21 353.213C38.21 355.397 36.656 356.713 34.43 356.713C32.204 356.713 30.65 355.397 30.65 353.213C30.65 351.043 32.204 349.727 34.43 349.727C36.656 349.727 38.21 351.043 38.21 353.213ZM37.23 353.213C37.23 351.617 35.956 350.903 34.43 350.903C32.904 350.903 31.63 351.617 31.63 353.213C31.63 354.823 32.904 355.537 34.43 355.537C35.956 355.537 37.23 354.823 37.23 353.213ZM35.312 343.782L30.86 343.782L30.86 342.662L38 342.662L38 343.782L37.146 343.782L37.146 343.81C37.65 344.188 38.196 344.944 38.196 346.162C38.196 347.464 37.482 348.556 35.844 348.556L30.86 348.556L30.86 347.436L35.564 347.436C36.488 347.436 37.216 347.002 37.216 345.882C37.216 344.622 36.418 343.782 35.312 343.782ZM30.664 337.536C30.664 336.234 31.378 335.142 33.016 335.142L38 335.142L38 336.262L33.296 336.262C32.372 336.262 31.644 336.696 31.644 337.816C31.644 339.076 32.442 339.916 33.548 339.916L38 339.916L38 341.036L30.86 341.036L30.86 339.916L31.714 339.916L31.714 339.888C31.21 339.51 30.664 338.754 30.664 337.536ZM30.86 330.685L31.84 330.685L31.84 332.085L36.138 332.085C36.894 332.085 37.09 331.903 37.09 331.273C37.09 331.035 37.076 330.923 37.048 330.685L38 330.685C38.056 331.007 38.07 331.175 38.07 331.427C38.07 332.477 37.706 333.205 36.082 333.205L31.84 333.205L31.84 334.255L30.86 334.255L30.86 333.205L28.48 333.205L28.48 332.085L30.86 332.085L30.86 330.685Z" fill="black"/>
<line opacity="0.35" x1="778.5" y1="391" x2="778.5" y2="447" stroke="#F54550"/>
<line opacity="0.35" x1="856.5" y1="138" x2="856.5" y2="194" stroke="#236CE6"/>
<line opacity="0.35" x1="587.5" y1="496" x2="587.5" y2="552" stroke="#FF7E3D"/>
</svg>
