<svg width="375" height="410" viewBox="0 0 375 410" fill="none" xmlns="http://www.w3.org/2000/svg">
<line opacity="0.35" x1="32" y1="3.7307" x2="360" y2="3.7307" stroke="black" stroke-width="0.538603"/>
<path opacity="0.35" d="M32 95L360 95" stroke="black" stroke-width="0.538603"/>
<line opacity="0.35" x1="95.2693" y1="4" x2="95.2693" y2="367" stroke="black" stroke-width="0.538603"/>
<line opacity="0.35" x1="32.2693" y1="4" x2="32.2693" y2="367" stroke="black" stroke-width="0.538603"/>
<line opacity="0.35" x1="157.269" y1="4" x2="157.269" y2="367" stroke="black" stroke-width="0.538603"/>
<line opacity="0.35" x1="219.269" y1="4" x2="219.269" y2="367" stroke="black" stroke-width="0.538603"/>
<line opacity="0.35" x1="280.269" y1="4" x2="280.269" y2="367" stroke="black" stroke-width="0.538603"/>
<line opacity="0.35" x1="342.269" y1="4" x2="342.269" y2="367" stroke="black" stroke-width="0.538603"/>
<path opacity="0.35" d="M32 367L359.5 367" stroke="black" stroke-width="0.538603"/>
<path opacity="0.35" d="M32 186H359" stroke="black" stroke-width="0.538603"/>
<path opacity="0.35" d="M32 277L359 277" stroke="black" stroke-width="0.538603"/>
<path d="M19.3369 396.663C18.8031 396.982 18.1927 397.142 17.5059 397.142C16.819 397.142 16.2087 396.982 15.6748 396.663C15.141 396.341 14.7292 395.898 14.4395 395.335C14.1497 394.772 14.0049 394.134 14.0049 393.421C14.0049 392.708 14.1497 392.072 14.4395 391.512C14.7292 390.949 15.141 390.507 15.6748 390.188C16.2087 389.869 16.819 389.71 17.5059 389.71C18.1927 389.71 18.8031 389.869 19.3369 390.188C19.8708 390.507 20.2826 390.949 20.5723 391.512C20.862 392.072 21.0068 392.708 21.0068 393.421C21.0068 394.134 20.862 394.772 20.5723 395.335C20.2826 395.898 19.8708 396.341 19.3369 396.663ZM17.5059 396.341C17.9421 396.341 18.3294 396.263 18.668 396.106C19.0065 395.947 19.2783 395.73 19.4834 395.457C19.6885 395.18 19.8431 394.871 19.9473 394.529C20.0514 394.184 20.1035 393.815 20.1035 393.421C20.1035 393.027 20.0514 392.659 19.9473 392.317C19.8431 391.972 19.6885 391.665 19.4834 391.395C19.2783 391.121 19.0065 390.906 18.668 390.75C18.3294 390.59 17.9421 390.511 17.5059 390.511C17.1543 390.511 16.8337 390.563 16.5439 390.667C16.2542 390.771 16.0085 390.913 15.8066 391.092C15.6081 391.271 15.4388 391.484 15.2988 391.731C15.1621 391.979 15.0612 392.244 14.9961 392.527C14.9342 392.811 14.9033 393.108 14.9033 393.421C14.9033 393.733 14.9342 394.031 14.9961 394.314C15.0612 394.598 15.1621 394.865 15.2988 395.115C15.4388 395.363 15.6081 395.577 15.8066 395.76C16.0085 395.939 16.2542 396.08 16.5439 396.185C16.8337 396.289 17.1543 396.341 17.5059 396.341ZM25.5771 393.738C25.5674 393.589 25.5332 393.442 25.4746 393.299C25.4193 393.156 25.3363 393.019 25.2256 392.889C25.1182 392.758 24.9701 392.654 24.7812 392.576C24.5957 392.498 24.3809 392.459 24.1367 392.459C23.9023 392.459 23.6891 392.498 23.4971 392.576C23.3083 392.651 23.1504 392.754 23.0234 392.884C22.8997 393.011 22.7939 393.162 22.7061 393.338C22.6214 393.51 22.5596 393.689 22.5205 393.875C22.4847 394.061 22.4668 394.253 22.4668 394.451C22.4668 394.702 22.4977 394.941 22.5596 395.169C22.6214 395.397 22.7158 395.608 22.8428 395.804C22.9697 395.996 23.1439 396.15 23.3652 396.268C23.5898 396.382 23.847 396.438 24.1367 396.438C24.3841 396.438 24.6006 396.399 24.7861 396.321C24.9749 396.243 25.123 396.139 25.2305 396.009C25.3379 395.875 25.4193 395.735 25.4746 395.589C25.5332 395.439 25.5674 395.283 25.5771 395.12H26.3779C26.3421 395.706 26.1159 396.189 25.6992 396.57C25.2826 396.951 24.7617 397.142 24.1367 397.142C23.3945 397.142 22.7972 396.894 22.3447 396.399C21.8923 395.905 21.666 395.255 21.666 394.451C21.666 393.647 21.8923 392.998 22.3447 392.503C22.7972 392.008 23.3945 391.761 24.1367 391.761C24.7552 391.761 25.2679 391.946 25.6748 392.317C26.0817 392.685 26.3161 393.159 26.3779 393.738H25.5771ZM29.3613 392.601H28.3604V395.672C28.3604 395.949 28.4368 396.129 28.5898 396.214C28.7428 396.299 29 396.328 29.3613 396.302V397C29.1823 397.039 28.9821 397.059 28.7607 397.059C28.3831 397.059 28.0885 396.963 27.877 396.771C27.6686 396.575 27.5645 396.235 27.5645 395.75V392.601H26.8125V391.902H27.5645V390.198H28.3604V391.902H29.3613V392.601ZM32.3594 397.142C31.5911 397.142 30.9824 396.896 30.5332 396.404C30.084 395.91 29.8594 395.258 29.8594 394.451C29.8594 393.644 30.084 392.994 30.5332 392.503C30.9824 392.008 31.5911 391.761 32.3594 391.761C33.1243 391.761 33.7298 392.008 34.1758 392.503C34.625 392.998 34.8496 393.647 34.8496 394.451C34.8496 395.255 34.625 395.905 34.1758 396.399C33.7298 396.894 33.1243 397.142 32.3594 397.142ZM32.3594 396.438C32.903 396.438 33.3197 396.251 33.6094 395.877C33.9023 395.503 34.0488 395.027 34.0488 394.451C34.0488 393.875 33.9023 393.4 33.6094 393.025C33.3197 392.648 32.903 392.459 32.3594 392.459C31.8092 392.459 31.3877 392.648 31.0947 393.025C30.805 393.4 30.6602 393.875 30.6602 394.451C30.6602 395.027 30.805 395.503 31.0947 395.877C31.3877 396.251 31.8092 396.438 32.3594 396.438ZM38.0771 391.761C38.3962 391.761 38.6956 391.823 38.9756 391.946C39.2555 392.07 39.498 392.246 39.7031 392.474C39.9115 392.701 40.0758 392.986 40.1963 393.328C40.3167 393.667 40.377 394.041 40.377 394.451C40.377 394.861 40.3167 395.237 40.1963 395.579C40.0758 395.918 39.9115 396.201 39.7031 396.429C39.498 396.657 39.2555 396.832 38.9756 396.956C38.6956 397.08 38.3962 397.142 38.0771 397.142C37.4033 397.142 36.8711 396.884 36.4805 396.37H36.4561V397H35.6602V389.852H36.4561V392.562H36.4805C36.8418 392.028 37.374 391.761 38.0771 391.761ZM37.999 396.438C38.3343 396.438 38.624 396.341 38.8682 396.146C39.1123 395.95 39.2913 395.706 39.4053 395.413C39.5192 395.117 39.5762 394.796 39.5762 394.451C39.5762 394.106 39.5192 393.785 39.4053 393.489C39.2913 393.193 39.1123 392.947 38.8682 392.752C38.624 392.557 38.3343 392.459 37.999 392.459C37.527 392.459 37.151 392.64 36.8711 393.001C36.5944 393.362 36.4561 393.846 36.4561 394.451C36.4561 395.053 36.5944 395.535 36.8711 395.896C37.1478 396.258 37.5238 396.438 37.999 396.438ZM43.3555 396.438C43.5508 396.438 43.7298 396.414 43.8926 396.365C44.0553 396.316 44.1888 396.256 44.293 396.185C44.4004 396.113 44.4932 396.03 44.5713 395.936C44.6527 395.841 44.7129 395.753 44.752 395.672C44.7943 395.587 44.8252 395.506 44.8447 395.428H45.6455C45.5055 395.939 45.2435 396.352 44.8594 396.668C44.4785 396.984 43.987 397.142 43.3848 397.142C42.6198 397.142 42.0127 396.896 41.5635 396.404C41.1175 395.913 40.8945 395.262 40.8945 394.451C40.8945 393.608 41.1143 392.949 41.5537 392.474C41.9964 391.998 42.5938 391.761 43.3457 391.761C44.1335 391.761 44.7259 392.013 45.123 392.518C45.5234 393.022 45.7236 393.737 45.7236 394.661H41.6953C41.6953 394.977 41.7539 395.267 41.8711 395.53C41.9915 395.794 42.1803 396.012 42.4375 396.185C42.6947 396.354 43.0007 396.438 43.3555 396.438ZM43.3457 392.459C42.8704 392.459 42.4766 392.605 42.1641 392.898C41.8516 393.188 41.6953 393.541 41.6953 393.958H44.9277C44.9277 393.538 44.7812 393.183 44.4883 392.894C44.1953 392.604 43.8145 392.459 43.3457 392.459ZM48.7461 391.761C48.9186 391.761 49.0765 391.771 49.2197 391.79V392.591H49.2002C48.6566 392.503 48.2057 392.625 47.8477 392.957C47.4928 393.286 47.3154 393.727 47.3154 394.28V397H46.5195V391.902H47.3154V392.908H47.3398C47.4863 392.544 47.6702 392.262 47.8916 392.063C48.1162 391.862 48.401 391.761 48.7461 391.761ZM21.5 403.508H20.5967C20.5967 403.143 20.6471 402.808 20.748 402.502C20.849 402.196 20.9987 401.927 21.1973 401.696C21.3958 401.462 21.6562 401.28 21.9785 401.149C22.3008 401.016 22.6702 400.949 23.0869 400.949C23.4873 400.949 23.8519 401.029 24.1807 401.188C24.5094 401.345 24.7764 401.582 24.9814 401.901C25.1865 402.22 25.2891 402.593 25.2891 403.02C25.2891 403.342 25.2272 403.638 25.1035 403.908C24.9798 404.175 24.8154 404.405 24.6104 404.597C24.4053 404.785 24.1774 404.963 23.9268 405.129C23.6794 405.295 23.4255 405.453 23.165 405.603C22.9046 405.749 22.6605 405.897 22.4326 406.047C22.2048 406.193 22.0046 406.364 21.832 406.56C21.6628 406.752 21.5488 406.958 21.4902 407.18V407.199H25.1865V408H20.3965C20.3965 406.825 21.0833 405.835 22.457 405.031C22.5514 404.976 22.6719 404.906 22.8184 404.821C22.9681 404.737 23.0804 404.673 23.1553 404.631C23.2301 404.589 23.3245 404.532 23.4385 404.46C23.5557 404.388 23.6419 404.331 23.6973 404.289C23.7526 404.247 23.821 404.193 23.9023 404.128C23.9837 404.063 24.0439 404.004 24.083 403.952C24.1221 403.9 24.166 403.838 24.2148 403.767C24.2637 403.695 24.2979 403.623 24.3174 403.552C24.3369 403.48 24.3532 403.4 24.3662 403.312C24.3825 403.225 24.3906 403.13 24.3906 403.029C24.3906 402.87 24.3695 402.72 24.3271 402.58C24.2881 402.44 24.2214 402.305 24.127 402.175C24.0358 402.045 23.8991 401.942 23.7168 401.867C23.5345 401.789 23.318 401.75 23.0674 401.75C22.0225 401.75 21.5 402.336 21.5 403.508ZM29.7471 407.956C29.4476 408.08 29.1139 408.142 28.7461 408.142C28.3783 408.142 28.0446 408.08 27.7451 407.956C27.4456 407.832 27.1934 407.661 26.9883 407.443C26.7865 407.225 26.6156 406.965 26.4756 406.662C26.3389 406.356 26.2396 406.027 26.1777 405.676C26.1159 405.324 26.085 404.948 26.085 404.548C26.085 404.147 26.1159 403.771 26.1777 403.42C26.2396 403.068 26.3389 402.741 26.4756 402.438C26.6156 402.132 26.7865 401.87 26.9883 401.652C27.1934 401.434 27.4456 401.263 27.7451 401.14C28.0446 401.013 28.3783 400.949 28.7461 400.949C29.1139 400.949 29.4476 401.013 29.7471 401.14C30.0465 401.263 30.2972 401.434 30.499 401.652C30.7041 401.87 30.875 402.132 31.0117 402.438C31.1517 402.741 31.2526 403.068 31.3145 403.42C31.3763 403.771 31.4072 404.147 31.4072 404.548C31.4072 404.948 31.3763 405.324 31.3145 405.676C31.2526 406.027 31.1517 406.356 31.0117 406.662C30.875 406.965 30.7041 407.225 30.499 407.443C30.2972 407.661 30.0465 407.832 29.7471 407.956ZM28.7461 407.341C29.0651 407.341 29.3402 407.266 29.5713 407.116C29.8057 406.966 29.988 406.758 30.1182 406.491C30.2516 406.224 30.3493 405.931 30.4111 405.612C30.473 405.29 30.5039 404.935 30.5039 404.548C30.5039 404.16 30.473 403.807 30.4111 403.488C30.3493 403.166 30.2516 402.871 30.1182 402.604C29.988 402.338 29.8057 402.129 29.5713 401.979C29.3402 401.826 29.0651 401.75 28.7461 401.75C28.4271 401.75 28.1504 401.826 27.916 401.979C27.6816 402.129 27.4977 402.338 27.3643 402.604C27.234 402.871 27.138 403.166 27.0762 403.488C27.0143 403.811 26.9834 404.164 26.9834 404.548C26.9834 404.854 27.0013 405.14 27.0371 405.407C27.0762 405.671 27.138 405.923 27.2227 406.164C27.3105 406.405 27.4212 406.612 27.5547 406.784C27.6882 406.953 27.8558 407.089 28.0576 407.189C28.2594 407.29 28.4889 407.341 28.7461 407.341ZM33.209 403.508H32.3057C32.3057 403.143 32.3561 402.808 32.457 402.502C32.5579 402.196 32.7077 401.927 32.9062 401.696C33.1048 401.462 33.3652 401.28 33.6875 401.149C34.0098 401.016 34.3792 400.949 34.7959 400.949C35.1963 400.949 35.5609 401.029 35.8896 401.188C36.2184 401.345 36.4854 401.582 36.6904 401.901C36.8955 402.22 36.998 402.593 36.998 403.02C36.998 403.342 36.9362 403.638 36.8125 403.908C36.6888 404.175 36.5244 404.405 36.3193 404.597C36.1143 404.785 35.8864 404.963 35.6357 405.129C35.3883 405.295 35.1344 405.453 34.874 405.603C34.6136 405.749 34.3695 405.897 34.1416 406.047C33.9137 406.193 33.7135 406.364 33.541 406.56C33.3717 406.752 33.2578 406.958 33.1992 407.18V407.199H36.8955V408H32.1055C32.1055 406.825 32.7923 405.835 34.166 405.031C34.2604 404.976 34.3809 404.906 34.5273 404.821C34.6771 404.737 34.7894 404.673 34.8643 404.631C34.9391 404.589 35.0335 404.532 35.1475 404.46C35.2646 404.388 35.3509 404.331 35.4062 404.289C35.4616 404.247 35.5299 404.193 35.6113 404.128C35.6927 404.063 35.7529 404.004 35.792 403.952C35.8311 403.9 35.875 403.838 35.9238 403.767C35.9727 403.695 36.0068 403.623 36.0264 403.552C36.0459 403.48 36.0622 403.4 36.0752 403.312C36.0915 403.225 36.0996 403.13 36.0996 403.029C36.0996 402.87 36.0785 402.72 36.0361 402.58C35.9971 402.44 35.9303 402.305 35.8359 402.175C35.7448 402.045 35.6081 401.942 35.4258 401.867C35.2435 401.789 35.027 401.75 34.7764 401.75C33.7314 401.75 33.209 402.336 33.209 403.508ZM38.7656 403.508H37.8623C37.8623 403.143 37.9128 402.808 38.0137 402.502C38.1146 402.196 38.2643 401.927 38.4629 401.696C38.6615 401.462 38.9219 401.28 39.2441 401.149C39.5664 401.016 39.9359 400.949 40.3525 400.949C40.7529 400.949 41.1175 401.029 41.4463 401.188C41.7751 401.345 42.042 401.582 42.2471 401.901C42.4521 402.22 42.5547 402.593 42.5547 403.02C42.5547 403.342 42.4928 403.638 42.3691 403.908C42.2454 404.175 42.0811 404.405 41.876 404.597C41.6709 404.785 41.443 404.963 41.1924 405.129C40.945 405.295 40.6911 405.453 40.4307 405.603C40.1702 405.749 39.9261 405.897 39.6982 406.047C39.4704 406.193 39.2702 406.364 39.0977 406.56C38.9284 406.752 38.8145 406.958 38.7559 407.18V407.199H42.4521V408H37.6621C37.6621 406.825 38.349 405.835 39.7227 405.031C39.8171 404.976 39.9375 404.906 40.084 404.821C40.2337 404.737 40.346 404.673 40.4209 404.631C40.4958 404.589 40.5902 404.532 40.7041 404.46C40.8213 404.388 40.9076 404.331 40.9629 404.289C41.0182 404.247 41.0866 404.193 41.168 404.128C41.2493 404.063 41.3096 404.004 41.3486 403.952C41.3877 403.9 41.4316 403.838 41.4805 403.767C41.5293 403.695 41.5635 403.623 41.583 403.552C41.6025 403.48 41.6188 403.4 41.6318 403.312C41.6481 403.225 41.6562 403.13 41.6562 403.029C41.6562 402.87 41.6351 402.72 41.5928 402.58C41.5537 402.44 41.487 402.305 41.3926 402.175C41.3014 402.045 41.1647 401.942 40.9824 401.867C40.8001 401.789 40.5837 401.75 40.333 401.75C39.2881 401.75 38.7656 402.336 38.7656 403.508Z" fill="black"/>
<path d="M24.9004 369.956C24.6009 370.08 24.2673 370.142 23.8994 370.142C23.5316 370.142 23.1979 370.08 22.8984 369.956C22.599 369.832 22.3467 369.661 22.1416 369.443C21.9398 369.225 21.7689 368.965 21.6289 368.662C21.4922 368.356 21.3929 368.027 21.3311 367.676C21.2692 367.324 21.2383 366.948 21.2383 366.548C21.2383 366.147 21.2692 365.771 21.3311 365.42C21.3929 365.068 21.4922 364.741 21.6289 364.438C21.7689 364.132 21.9398 363.87 22.1416 363.652C22.3467 363.434 22.599 363.263 22.8984 363.14C23.1979 363.013 23.5316 362.949 23.8994 362.949C24.2673 362.949 24.6009 363.013 24.9004 363.14C25.1999 363.263 25.4505 363.434 25.6523 363.652C25.8574 363.87 26.0283 364.132 26.165 364.438C26.305 364.741 26.4059 365.068 26.4678 365.42C26.5296 365.771 26.5605 366.147 26.5605 366.548C26.5605 366.948 26.5296 367.324 26.4678 367.676C26.4059 368.027 26.305 368.356 26.165 368.662C26.0283 368.965 25.8574 369.225 25.6523 369.443C25.4505 369.661 25.1999 369.832 24.9004 369.956ZM23.8994 369.341C24.2184 369.341 24.4935 369.266 24.7246 369.116C24.959 368.966 25.1413 368.758 25.2715 368.491C25.4049 368.224 25.5026 367.931 25.5645 367.612C25.6263 367.29 25.6572 366.935 25.6572 366.548C25.6572 366.16 25.6263 365.807 25.5645 365.488C25.5026 365.166 25.4049 364.871 25.2715 364.604C25.1413 364.338 24.959 364.129 24.7246 363.979C24.4935 363.826 24.2184 363.75 23.8994 363.75C23.5804 363.75 23.3037 363.826 23.0693 363.979C22.835 364.129 22.651 364.338 22.5176 364.604C22.3874 364.871 22.2913 365.166 22.2295 365.488C22.1676 365.811 22.1367 366.164 22.1367 366.548C22.1367 366.854 22.1546 367.14 22.1904 367.407C22.2295 367.671 22.2913 367.923 22.376 368.164C22.4639 368.405 22.5745 368.612 22.708 368.784C22.8415 368.953 23.0091 369.089 23.2109 369.189C23.4128 369.29 23.6423 369.341 23.8994 369.341Z" fill="black"/>
<path d="M27.9355 276.214C28.459 276.214 28.8907 276.392 29.2308 276.748C29.5709 277.104 29.7409 277.546 29.7409 278.075C29.7409 278.471 29.6506 278.826 29.4699 279.139C29.2919 279.453 29.0488 279.694 28.7406 279.864C28.4351 280.032 28.0936 280.116 27.7163 280.116C27.4028 280.116 27.1172 280.068 26.8595 279.972C26.6018 279.876 26.3892 279.748 26.2218 279.586C26.0544 279.421 25.9229 279.235 25.8273 279.028C25.7343 278.82 25.6838 278.602 25.6758 278.374H26.4091C26.4251 278.52 26.4596 278.654 26.5127 278.776C26.5659 278.899 26.6403 279.013 26.7359 279.119C26.8342 279.225 26.9631 279.309 27.1225 279.37C27.2846 279.431 27.4719 279.462 27.6845 279.462C28.083 279.462 28.4032 279.341 28.645 279.099C28.8867 278.858 29.0076 278.516 29.0076 278.075C29.0076 277.669 28.896 277.366 28.6729 277.166C28.4497 276.967 28.1468 276.867 27.7642 276.867C27.2195 276.867 26.809 277.044 26.5327 277.398H25.7515L26.3374 274.361H29.4381V275.014H26.9312L26.6004 276.72V276.736C26.906 276.388 27.351 276.214 27.9355 276.214Z" fill="black"/>
<path d="M20.7349 183.361H21.3048V189H20.5715V184.779C20.5051 184.843 20.4347 184.896 20.3603 184.939C20.2885 184.981 20.2221 185.015 20.161 185.038C20.0999 185.06 20.0202 185.076 19.9219 185.086C19.8262 185.097 19.7465 185.104 19.6827 185.106C19.6216 185.106 19.526 185.106 19.3958 185.106V184.576C19.6376 184.576 19.8422 184.548 20.0096 184.492C20.1769 184.437 20.3098 184.353 20.4081 184.241C20.5064 184.127 20.5795 184.001 20.6273 183.863C20.6778 183.725 20.7136 183.557 20.7349 183.361ZM25.2863 188.964C25.0418 189.065 24.7695 189.116 24.4693 189.116C24.169 189.116 23.8967 189.065 23.6522 188.964C23.4078 188.863 23.2019 188.724 23.0345 188.546C22.8698 188.368 22.7303 188.155 22.616 187.908C22.5044 187.658 22.4234 187.39 22.3729 187.103C22.3224 186.816 22.2972 186.509 22.2972 186.182C22.2972 185.855 22.3224 185.549 22.3729 185.262C22.4234 184.975 22.5044 184.708 22.616 184.461C22.7303 184.211 22.8698 183.997 23.0345 183.819C23.2019 183.641 23.4078 183.501 23.6522 183.4C23.8967 183.297 24.169 183.245 24.4693 183.245C24.7695 183.245 25.0418 183.297 25.2863 183.4C25.5307 183.501 25.7353 183.641 25.9 183.819C26.0674 183.997 26.2069 184.211 26.3185 184.461C26.4327 184.708 26.5151 184.975 26.5656 185.262C26.6161 185.549 26.6413 185.855 26.6413 186.182C26.6413 186.509 26.6161 186.816 26.5656 187.103C26.5151 187.39 26.4327 187.658 26.3185 187.908C26.2069 188.155 26.0674 188.368 25.9 188.546C25.7353 188.724 25.5307 188.863 25.2863 188.964ZM24.4693 188.462C24.7296 188.462 24.9541 188.401 25.1428 188.279C25.3341 188.156 25.4829 187.986 25.5892 187.769C25.6981 187.551 25.7778 187.312 25.8283 187.051C25.8788 186.788 25.904 186.498 25.904 186.182C25.904 185.866 25.8788 185.578 25.8283 185.317C25.7778 185.054 25.6981 184.814 25.5892 184.596C25.4829 184.378 25.3341 184.208 25.1428 184.086C24.9541 183.961 24.7296 183.899 24.4693 183.899C24.2089 183.899 23.983 183.961 23.7917 184.086C23.6004 184.208 23.4503 184.378 23.3414 184.596C23.2351 184.814 23.1567 185.054 23.1062 185.317C23.0558 185.58 23.0305 185.869 23.0305 186.182C23.0305 186.432 23.0451 186.666 23.0743 186.884C23.1062 187.099 23.1567 187.305 23.2258 187.501C23.2975 187.698 23.3879 187.867 23.4968 188.008C23.6057 188.146 23.7426 188.256 23.9073 188.338C24.072 188.421 24.2594 188.462 24.4693 188.462Z" fill="black"/>
<path d="M22.6181 93.3606H23.188V99H22.4547V94.7794C22.3883 94.8432 22.3178 94.8963 22.2435 94.9388C22.1717 94.9814 22.1053 95.0146 22.0442 95.0385C21.9831 95.0597 21.9034 95.0757 21.8051 95.0863C21.7094 95.0969 21.6297 95.1036 21.5659 95.1062C21.5048 95.1062 21.4092 95.1062 21.279 95.1062V94.5762C21.5208 94.5762 21.7253 94.5483 21.8927 94.4925C22.0601 94.4367 22.193 94.353 22.2913 94.2414C22.3896 94.1271 22.4627 94.0009 22.5105 93.8628C22.561 93.7246 22.5968 93.5572 22.6181 93.3606ZM26.2687 95.2138C26.7922 95.2138 27.2239 95.3919 27.564 95.7479C27.9041 96.1039 28.0741 96.5463 28.0741 97.075C28.0741 97.4709 27.9838 97.8256 27.8031 98.1391C27.6251 98.4527 27.382 98.6945 27.0738 98.8645C26.7682 99.0319 26.4268 99.1156 26.0495 99.1156C25.736 99.1156 25.4504 99.0678 25.1927 98.9721C24.935 98.8765 24.7224 98.7476 24.555 98.5855C24.3876 98.4208 24.2561 98.2348 24.1604 98.0276C24.0675 97.8203 24.017 97.6024 24.009 97.3739H24.7423C24.7583 97.5201 24.7928 97.6543 24.8459 97.7765C24.8991 97.8987 24.9735 98.0129 25.0691 98.1192C25.1674 98.2255 25.2963 98.3092 25.4557 98.3703C25.6178 98.4314 25.8051 98.462 26.0177 98.462C26.4162 98.462 26.7364 98.3411 26.9781 98.0993C27.2199 97.8575 27.3408 97.5161 27.3408 97.075C27.3408 96.6685 27.2292 96.3656 27.006 96.1664C26.7829 95.9671 26.48 95.8675 26.0974 95.8675C25.5527 95.8675 25.1422 96.0441 24.8659 96.3975H24.0847L24.6706 93.3606H27.7712V94.0142H25.2644L24.9336 95.72V95.7359C25.2392 95.3879 25.6842 95.2138 26.2687 95.2138Z" fill="black"/>
<path d="M20.5549 4.3334H19.8176C19.8176 4.03582 19.8587 3.76216 19.9411 3.5124C20.0235 3.26265 20.1457 3.04345 20.3078 2.85481C20.4698 2.66351 20.6824 2.51472 20.9454 2.40844C21.2085 2.2995 21.51 2.24504 21.8501 2.24504C22.1769 2.24504 22.4745 2.31013 22.7429 2.44032C23.0112 2.56786 23.2291 2.76181 23.3965 3.02219C23.5639 3.28258 23.6476 3.5868 23.6476 3.93486C23.6476 4.1979 23.5971 4.43968 23.4961 4.66021C23.3952 4.87808 23.261 5.06539 23.0936 5.22215C22.9262 5.37626 22.7402 5.52106 22.5356 5.65657C22.3337 5.79207 22.1265 5.92093 21.9139 6.04315C21.7013 6.16272 21.5021 6.28361 21.3161 6.40583C21.1301 6.52539 20.9667 6.66488 20.8259 6.8243C20.6877 6.98106 20.5947 7.14977 20.5469 7.33045V7.34639H23.5639V8H19.6542C19.6542 7.04084 20.2148 6.23312 21.336 5.57686C21.4131 5.53169 21.5114 5.47456 21.6309 5.40548C21.7532 5.3364 21.8448 5.28459 21.9059 5.25005C21.967 5.21551 22.0441 5.16901 22.1371 5.11056C22.2327 5.05211 22.3031 5.00561 22.3483 4.97107C22.3935 4.93653 22.4493 4.89269 22.5157 4.83955C22.5821 4.78641 22.6313 4.73859 22.6632 4.69608C22.695 4.65357 22.7309 4.60308 22.7708 4.54463C22.8106 4.48618 22.8385 4.42772 22.8545 4.36927C22.8704 4.31082 22.8837 4.24572 22.8943 4.17398C22.9076 4.10225 22.9142 4.0252 22.9142 3.94283C22.9142 3.81264 22.897 3.69042 22.8624 3.57617C22.8305 3.46192 22.7761 3.35166 22.699 3.24538C22.6246 3.1391 22.513 3.05541 22.3643 2.9943C22.2155 2.93053 22.0388 2.89865 21.8342 2.89865C20.9813 2.89865 20.5549 3.3769 20.5549 4.3334ZM27.2863 7.96413C27.0418 8.0651 26.7695 8.11558 26.4693 8.11558C26.169 8.11558 25.8967 8.0651 25.6522 7.96413C25.4078 7.86317 25.2019 7.72368 25.0345 7.54566C24.8698 7.36764 24.7303 7.15509 24.616 6.90799C24.5044 6.65824 24.4234 6.38989 24.3729 6.10293C24.3224 5.81598 24.2972 5.5091 24.2972 5.1823C24.2972 4.85549 24.3224 4.54862 24.3729 4.26166C24.4234 3.97471 24.5044 3.70769 24.616 3.46059C24.7303 3.21084 24.8698 2.99695 25.0345 2.81894C25.2019 2.64092 25.4078 2.50143 25.6522 2.40047C25.8967 2.29685 26.169 2.24504 26.4693 2.24504C26.7695 2.24504 27.0418 2.29685 27.2863 2.40047C27.5307 2.50143 27.7353 2.64092 27.9 2.81894C28.0674 2.99695 28.2069 3.21084 28.3185 3.46059C28.4327 3.70769 28.5151 3.97471 28.5656 4.26166C28.6161 4.54862 28.6413 4.85549 28.6413 5.1823C28.6413 5.5091 28.6161 5.81598 28.5656 6.10293C28.5151 6.38989 28.4327 6.65824 28.3185 6.90799C28.2069 7.15509 28.0674 7.36764 27.9 7.54566C27.7353 7.72368 27.5307 7.86317 27.2863 7.96413ZM26.4693 7.46197C26.7296 7.46197 26.9541 7.40086 27.1428 7.27864C27.3341 7.15642 27.4829 6.98637 27.5892 6.7685C27.6981 6.55063 27.7778 6.31151 27.8283 6.05112C27.8788 5.78808 27.904 5.49848 27.904 5.1823C27.904 4.86612 27.8788 4.57784 27.8283 4.31746C27.7778 4.05442 27.6981 3.81397 27.5892 3.5961C27.4829 3.37823 27.3341 3.20818 27.1428 3.08596C26.9541 2.96108 26.7296 2.89865 26.4693 2.89865C26.2089 2.89865 25.983 2.96108 25.7917 3.08596C25.6004 3.20818 25.4503 3.37823 25.3414 3.5961C25.2351 3.81397 25.1567 4.05442 25.1062 4.31746C25.0557 4.5805 25.0305 4.86878 25.0305 5.1823C25.0305 5.43205 25.0451 5.66587 25.0743 5.88374C25.1062 6.09895 25.1567 6.30486 25.2258 6.50148C25.2975 6.69809 25.3879 6.86681 25.4968 7.00763C25.6057 7.14579 25.7426 7.25605 25.9073 7.33842C26.072 7.42078 26.2594 7.46197 26.4693 7.46197Z" fill="black"/>
<path d="M82.3633 393.822C82.3633 394.066 82.3421 394.296 82.2998 394.511C82.2607 394.726 82.1908 394.936 82.0898 395.141C81.9889 395.342 81.8604 395.517 81.7041 395.663C81.5511 395.806 81.3525 395.922 81.1084 396.01C80.8643 396.098 80.5859 396.142 80.2734 396.142C79.9609 396.142 79.6826 396.098 79.4385 396.01C79.1943 395.922 78.9958 395.806 78.8428 395.663C78.6898 395.517 78.5628 395.342 78.4619 395.141C78.3643 394.936 78.2943 394.726 78.252 394.511C78.2129 394.296 78.1934 394.066 78.1934 393.822V393.622H79.0918V393.822C79.0918 394.014 79.0983 394.179 79.1113 394.315C79.1276 394.452 79.1602 394.589 79.209 394.726C79.2578 394.862 79.3245 394.973 79.4092 395.058C79.4938 395.142 79.6077 395.211 79.751 395.263C79.8975 395.315 80.0716 395.341 80.2734 395.341C80.4753 395.341 80.6494 395.315 80.7959 395.263C80.9424 395.211 81.0579 395.142 81.1426 395.058C81.2272 394.973 81.2939 394.862 81.3428 394.726C81.3916 394.589 81.4242 394.452 81.4404 394.315C81.4567 394.175 81.4648 394.011 81.4648 393.822V388.852H82.3633V393.822ZM86.6162 392.201C86.6162 391.706 86.2695 391.459 85.5762 391.459C85.0977 391.459 84.7607 391.535 84.5654 391.688C84.3701 391.841 84.2594 392.105 84.2334 392.479H83.4326C83.4587 391.955 83.6458 391.539 83.9941 391.229C84.3457 390.917 84.873 390.761 85.5762 390.761C85.778 390.761 85.9652 390.777 86.1377 390.81C86.3135 390.842 86.4811 390.897 86.6406 390.976C86.8001 391.054 86.9352 391.153 87.0459 391.273C87.1566 391.394 87.2445 391.549 87.3096 391.737C87.3779 391.923 87.4121 392.134 87.4121 392.372V394.848C87.4121 395.069 87.4495 395.225 87.5244 395.316C87.5993 395.404 87.7555 395.435 87.9932 395.409V395.971C87.8337 396.023 87.6774 396.049 87.5244 396.049C87.2673 396.049 87.0687 396.002 86.9287 395.907C86.7887 395.81 86.6846 395.627 86.6162 395.36H86.5967C86.2451 395.881 85.6673 396.142 84.8633 396.142C84.3522 396.142 83.9437 396.008 83.6377 395.741C83.335 395.474 83.1836 395.124 83.1836 394.691C83.1836 394.464 83.2178 394.263 83.2861 394.091C83.3577 393.918 83.4505 393.775 83.5645 393.661C83.6784 393.547 83.8346 393.446 84.0332 393.358C84.2318 393.267 84.4303 393.196 84.6289 393.144C84.8275 393.091 85.0732 393.038 85.3662 392.982C85.8415 392.895 86.1686 392.802 86.3477 392.704C86.5267 392.606 86.6162 392.439 86.6162 392.201ZM84.9463 395.438C85.4508 395.438 85.8545 395.321 86.1572 395.087C86.4632 394.853 86.6162 394.501 86.6162 394.032V393.178C86.486 393.308 86.0921 393.441 85.4346 393.578C84.917 393.689 84.5459 393.822 84.3213 393.979C84.0967 394.135 83.9844 394.359 83.9844 394.652C83.9844 395.176 84.305 395.438 84.9463 395.438ZM91.0938 390.761C91.3314 390.761 91.5511 390.795 91.7529 390.863C91.9548 390.928 92.1354 391.028 92.2949 391.161C92.4544 391.291 92.5781 391.467 92.666 391.688C92.7572 391.907 92.8027 392.157 92.8027 392.44V396H92.002V392.641C92.002 392.286 91.9124 392.001 91.7334 391.786C91.5544 391.568 91.2744 391.459 90.8936 391.459C90.4476 391.459 90.0846 391.588 89.8047 391.845C89.528 392.099 89.3896 392.424 89.3896 392.821V396H88.5938V390.902H89.3896V391.508H89.4141C89.5703 391.296 89.7884 391.119 90.0684 390.976C90.3516 390.832 90.6934 390.761 91.0938 390.761ZM97.2559 390.902H98.0566V396H97.2559V395.39H97.2363C97.0801 395.601 96.8604 395.78 96.5771 395.927C96.2939 396.07 95.9538 396.142 95.5566 396.142C95.319 396.142 95.0977 396.107 94.8926 396.039C94.6908 395.974 94.5101 395.876 94.3506 395.746C94.1943 395.613 94.0706 395.437 93.9795 395.219C93.8883 394.997 93.8428 394.745 93.8428 394.462V390.902H94.6436V394.262C94.6436 394.617 94.7331 394.901 94.9121 395.116C95.0944 395.331 95.376 395.438 95.7568 395.438C96.2028 395.438 96.5641 395.312 96.8408 395.058C97.1175 394.804 97.2559 394.478 97.2559 394.081V390.902ZM102.28 392.201C102.28 391.706 101.934 391.459 101.24 391.459C100.762 391.459 100.425 391.535 100.229 391.688C100.034 391.841 99.9235 392.105 99.8975 392.479H99.0967C99.1227 391.955 99.3099 391.539 99.6582 391.229C100.01 390.917 100.537 390.761 101.24 390.761C101.442 390.761 101.629 390.777 101.802 390.81C101.978 390.842 102.145 390.897 102.305 390.976C102.464 391.054 102.599 391.153 102.71 391.273C102.821 391.394 102.909 391.549 102.974 391.737C103.042 391.923 103.076 392.134 103.076 392.372V394.848C103.076 395.069 103.114 395.225 103.188 395.316C103.263 395.404 103.42 395.435 103.657 395.409V395.971C103.498 396.023 103.341 396.049 103.188 396.049C102.931 396.049 102.733 396.002 102.593 395.907C102.453 395.81 102.349 395.627 102.28 395.36H102.261C101.909 395.881 101.331 396.142 100.527 396.142C100.016 396.142 99.6077 396.008 99.3018 395.741C98.999 395.474 98.8477 395.124 98.8477 394.691C98.8477 394.464 98.8818 394.263 98.9502 394.091C99.0218 393.918 99.1146 393.775 99.2285 393.661C99.3424 393.547 99.4987 393.446 99.6973 393.358C99.8958 393.267 100.094 393.196 100.293 393.144C100.492 393.091 100.737 393.038 101.03 392.982C101.506 392.895 101.833 392.802 102.012 392.704C102.191 392.606 102.28 392.439 102.28 392.201ZM100.61 395.438C101.115 395.438 101.519 395.321 101.821 395.087C102.127 394.853 102.28 394.501 102.28 394.032V393.178C102.15 393.308 101.756 393.441 101.099 393.578C100.581 393.689 100.21 393.822 99.9854 393.979C99.7607 394.135 99.6484 394.359 99.6484 394.652C99.6484 395.176 99.9691 395.438 100.61 395.438ZM106.484 390.761C106.657 390.761 106.815 390.771 106.958 390.79V391.591H106.938C106.395 391.503 105.944 391.625 105.586 391.957C105.231 392.286 105.054 392.727 105.054 393.28V396H104.258V390.902H105.054V391.908H105.078C105.225 391.544 105.409 391.262 105.63 391.063C105.854 390.862 106.139 390.761 106.484 390.761ZM112.002 390.902L109.824 396.42C109.681 396.778 109.562 397.025 109.468 397.162C109.214 397.53 108.859 397.715 108.403 397.719C108.169 397.719 107.943 397.686 107.725 397.621V397.021H107.842C108.083 397.043 108.281 397.035 108.438 396.996C108.594 396.96 108.735 396.876 108.862 396.742C108.94 396.658 109.006 396.56 109.058 396.449C109.11 396.342 109.144 396.21 109.16 396.054C109.18 395.897 109.154 395.74 109.082 395.58L107.153 390.902H108.052L109.614 395.058H109.634L111.104 390.902H112.002ZM84.9316 402.508H84.0283C84.0283 402.143 84.0788 401.808 84.1797 401.502C84.2806 401.196 84.4303 400.927 84.6289 400.696C84.8275 400.462 85.0879 400.28 85.4102 400.149C85.7324 400.016 86.1019 399.949 86.5186 399.949C86.9189 399.949 87.2835 400.029 87.6123 400.188C87.9411 400.345 88.208 400.582 88.4131 400.901C88.6182 401.22 88.7207 401.593 88.7207 402.02C88.7207 402.342 88.6589 402.638 88.5352 402.908C88.4115 403.175 88.2471 403.405 88.042 403.597C87.8369 403.785 87.609 403.963 87.3584 404.129C87.111 404.295 86.8571 404.453 86.5967 404.603C86.3363 404.749 86.0921 404.897 85.8643 405.047C85.6364 405.193 85.4362 405.364 85.2637 405.56C85.0944 405.752 84.9805 405.958 84.9219 406.18V406.199H88.6182V407H83.8281C83.8281 405.825 84.515 404.835 85.8887 404.031C85.9831 403.976 86.1035 403.906 86.25 403.821C86.3997 403.737 86.512 403.673 86.5869 403.631C86.6618 403.589 86.7562 403.532 86.8701 403.46C86.9873 403.388 87.0736 403.331 87.1289 403.289C87.1842 403.247 87.2526 403.193 87.334 403.128C87.4154 403.063 87.4756 403.004 87.5146 402.952C87.5537 402.9 87.5977 402.838 87.6465 402.767C87.6953 402.695 87.7295 402.623 87.749 402.552C87.7686 402.48 87.7848 402.4 87.7979 402.312C87.8141 402.225 87.8223 402.13 87.8223 402.029C87.8223 401.87 87.8011 401.72 87.7588 401.58C87.7197 401.44 87.653 401.305 87.5586 401.175C87.4674 401.045 87.3307 400.942 87.1484 400.867C86.9661 400.789 86.7497 400.75 86.499 400.75C85.4541 400.75 84.9316 401.336 84.9316 402.508ZM93.1787 406.956C92.8792 407.08 92.5456 407.142 92.1777 407.142C91.8099 407.142 91.4762 407.08 91.1768 406.956C90.8773 406.832 90.625 406.661 90.4199 406.443C90.2181 406.225 90.0472 405.965 89.9072 405.662C89.7705 405.356 89.6712 405.027 89.6094 404.676C89.5475 404.324 89.5166 403.948 89.5166 403.548C89.5166 403.147 89.5475 402.771 89.6094 402.42C89.6712 402.068 89.7705 401.741 89.9072 401.438C90.0472 401.132 90.2181 400.87 90.4199 400.652C90.625 400.434 90.8773 400.263 91.1768 400.14C91.4762 400.013 91.8099 399.949 92.1777 399.949C92.5456 399.949 92.8792 400.013 93.1787 400.14C93.4782 400.263 93.7288 400.434 93.9307 400.652C94.1357 400.87 94.3066 401.132 94.4434 401.438C94.5833 401.741 94.6842 402.068 94.7461 402.42C94.8079 402.771 94.8389 403.147 94.8389 403.548C94.8389 403.948 94.8079 404.324 94.7461 404.676C94.6842 405.027 94.5833 405.356 94.4434 405.662C94.3066 405.965 94.1357 406.225 93.9307 406.443C93.7288 406.661 93.4782 406.832 93.1787 406.956ZM92.1777 406.341C92.4967 406.341 92.7718 406.266 93.0029 406.116C93.2373 405.966 93.4196 405.758 93.5498 405.491C93.6833 405.224 93.7809 404.931 93.8428 404.612C93.9046 404.29 93.9355 403.935 93.9355 403.548C93.9355 403.16 93.9046 402.807 93.8428 402.488C93.7809 402.166 93.6833 401.871 93.5498 401.604C93.4196 401.338 93.2373 401.129 93.0029 400.979C92.7718 400.826 92.4967 400.75 92.1777 400.75C91.8587 400.75 91.582 400.826 91.3477 400.979C91.1133 401.129 90.9294 401.338 90.7959 401.604C90.6657 401.871 90.5697 402.166 90.5078 402.488C90.446 402.811 90.415 403.164 90.415 403.548C90.415 403.854 90.4329 404.14 90.4688 404.407C90.5078 404.671 90.5697 404.923 90.6543 405.164C90.7422 405.405 90.8529 405.612 90.9863 405.784C91.1198 405.953 91.2874 406.089 91.4893 406.189C91.6911 406.29 91.9206 406.341 92.1777 406.341ZM96.6406 402.508H95.7373C95.7373 402.143 95.7878 401.808 95.8887 401.502C95.9896 401.196 96.1393 400.927 96.3379 400.696C96.5365 400.462 96.7969 400.28 97.1191 400.149C97.4414 400.016 97.8109 399.949 98.2275 399.949C98.6279 399.949 98.9925 400.029 99.3213 400.188C99.6501 400.345 99.917 400.582 100.122 400.901C100.327 401.22 100.43 401.593 100.43 402.02C100.43 402.342 100.368 402.638 100.244 402.908C100.12 403.175 99.9561 403.405 99.751 403.597C99.5459 403.785 99.318 403.963 99.0674 404.129C98.82 404.295 98.5661 404.453 98.3057 404.603C98.0452 404.749 97.8011 404.897 97.5732 405.047C97.3454 405.193 97.1452 405.364 96.9727 405.56C96.8034 405.752 96.6895 405.958 96.6309 406.18V406.199H100.327V407H95.5371C95.5371 405.825 96.224 404.835 97.5977 404.031C97.6921 403.976 97.8125 403.906 97.959 403.821C98.1087 403.737 98.221 403.673 98.2959 403.631C98.3708 403.589 98.4652 403.532 98.5791 403.46C98.6963 403.388 98.7826 403.331 98.8379 403.289C98.8932 403.247 98.9616 403.193 99.043 403.128C99.1243 403.063 99.1846 403.004 99.2236 402.952C99.2627 402.9 99.3066 402.838 99.3555 402.767C99.4043 402.695 99.4385 402.623 99.458 402.552C99.4775 402.48 99.4938 402.4 99.5068 402.312C99.5231 402.225 99.5312 402.13 99.5312 402.029C99.5312 401.87 99.5101 401.72 99.4678 401.58C99.4287 401.44 99.362 401.305 99.2676 401.175C99.1764 401.045 99.0397 400.942 98.8574 400.867C98.6751 400.789 98.4587 400.75 98.208 400.75C97.1631 400.75 96.6406 401.336 96.6406 402.508ZM102.046 402.161H101.147C101.147 401.5 101.364 400.966 101.797 400.56C102.233 400.153 102.863 399.949 103.687 399.949C104.087 399.949 104.453 400.022 104.785 400.169C105.117 400.312 105.387 400.532 105.596 400.828C105.804 401.121 105.908 401.465 105.908 401.858C105.908 402.555 105.553 403.045 104.844 403.328V403.348C105.312 403.475 105.648 403.685 105.85 403.978C106.055 404.267 106.157 404.629 106.157 405.062C106.157 405.729 105.938 406.243 105.498 406.604C105.059 406.963 104.461 407.142 103.706 407.142C102.83 407.142 102.155 406.925 101.68 406.492C101.204 406.056 100.967 405.446 100.967 404.661H101.865C101.865 405.781 102.456 406.341 103.638 406.341C104.217 406.341 104.631 406.235 104.878 406.023C105.129 405.812 105.254 405.491 105.254 405.062C105.254 404.215 104.767 403.792 103.794 403.792H103.057V402.991H103.755C104.132 402.991 104.435 402.898 104.663 402.713C104.891 402.524 105.005 402.239 105.005 401.858C105.005 401.549 104.894 401.287 104.673 401.072C104.455 400.857 104.126 400.75 103.687 400.75C102.593 400.75 102.046 401.22 102.046 402.161Z" fill="black"/>
<path d="M152.098 395.208H148.948L148.318 397H147.386L150.027 389.852H151.028L153.66 397H152.728L152.098 395.208ZM149.246 394.412H151.81L150.54 390.682H150.521L149.246 394.412ZM156.751 391.761C157.067 391.761 157.363 391.823 157.64 391.946C157.916 392.07 158.157 392.246 158.362 392.474C158.571 392.701 158.733 392.986 158.851 393.328C158.971 393.667 159.031 394.041 159.031 394.451C159.031 394.861 158.971 395.237 158.851 395.579C158.733 395.918 158.571 396.201 158.362 396.429C158.157 396.657 157.916 396.832 157.64 396.956C157.363 397.08 157.067 397.142 156.751 397.142C156.035 397.142 155.496 396.875 155.135 396.341H155.11V398.719H154.314V391.902H155.11V392.532H155.135C155.525 392.018 156.064 391.761 156.751 391.761ZM156.653 396.438C156.989 396.438 157.278 396.341 157.522 396.146C157.767 395.95 157.946 395.706 158.06 395.413C158.174 395.117 158.23 394.796 158.23 394.451C158.23 394.106 158.174 393.785 158.06 393.489C157.946 393.193 157.767 392.947 157.522 392.752C157.278 392.557 156.989 392.459 156.653 392.459C156.181 392.459 155.805 392.64 155.525 393.001C155.249 393.362 155.11 393.846 155.11 394.451C155.11 395.053 155.249 395.535 155.525 395.896C155.802 396.258 156.178 396.438 156.653 396.438ZM162.098 391.761C162.27 391.761 162.428 391.771 162.571 391.79V392.591H162.552C162.008 392.503 161.557 392.625 161.199 392.957C160.844 393.286 160.667 393.727 160.667 394.28V397H159.871V391.902H160.667V392.908H160.691C160.838 392.544 161.022 392.262 161.243 392.063C161.468 391.862 161.753 391.761 162.098 391.761ZM163.797 390.911C163.676 390.911 163.562 390.867 163.455 390.779C163.351 390.688 163.299 390.571 163.299 390.428C163.299 390.285 163.351 390.169 163.455 390.081C163.559 389.993 163.673 389.949 163.797 389.949C163.924 389.949 164.038 389.993 164.139 390.081C164.243 390.169 164.295 390.285 164.295 390.428C164.295 390.571 164.243 390.688 164.139 390.779C164.038 390.867 163.924 390.911 163.797 390.911ZM163.396 391.902H164.197V397H163.396V391.902ZM165.33 389.852H166.131V397H165.33V389.852ZM146.932 403.508H146.028C146.028 403.143 146.079 402.808 146.18 402.502C146.281 402.196 146.43 401.927 146.629 401.696C146.827 401.462 147.088 401.28 147.41 401.149C147.732 401.016 148.102 400.949 148.519 400.949C148.919 400.949 149.284 401.029 149.612 401.188C149.941 401.345 150.208 401.582 150.413 401.901C150.618 402.22 150.721 402.593 150.721 403.02C150.721 403.342 150.659 403.638 150.535 403.908C150.411 404.175 150.247 404.405 150.042 404.597C149.837 404.785 149.609 404.963 149.358 405.129C149.111 405.295 148.857 405.453 148.597 405.603C148.336 405.749 148.092 405.897 147.864 406.047C147.636 406.193 147.436 406.364 147.264 406.56C147.094 406.752 146.98 406.958 146.922 407.18V407.199H150.618V408H145.828C145.828 406.825 146.515 405.835 147.889 405.031C147.983 404.976 148.104 404.906 148.25 404.821C148.4 404.737 148.512 404.673 148.587 404.631C148.662 404.589 148.756 404.532 148.87 404.46C148.987 404.388 149.074 404.331 149.129 404.289C149.184 404.247 149.253 404.193 149.334 404.128C149.415 404.063 149.476 404.004 149.515 403.952C149.554 403.9 149.598 403.838 149.646 403.767C149.695 403.695 149.729 403.623 149.749 403.552C149.769 403.48 149.785 403.4 149.798 403.312C149.814 403.225 149.822 403.13 149.822 403.029C149.822 402.87 149.801 402.72 149.759 402.58C149.72 402.44 149.653 402.305 149.559 402.175C149.467 402.045 149.331 401.942 149.148 401.867C148.966 401.789 148.75 401.75 148.499 401.75C147.454 401.75 146.932 402.336 146.932 403.508ZM155.179 407.956C154.879 408.08 154.546 408.142 154.178 408.142C153.81 408.142 153.476 408.08 153.177 407.956C152.877 407.832 152.625 407.661 152.42 407.443C152.218 407.225 152.047 406.965 151.907 406.662C151.771 406.356 151.671 406.027 151.609 405.676C151.548 405.324 151.517 404.948 151.517 404.548C151.517 404.147 151.548 403.771 151.609 403.42C151.671 403.068 151.771 402.741 151.907 402.438C152.047 402.132 152.218 401.87 152.42 401.652C152.625 401.434 152.877 401.263 153.177 401.14C153.476 401.013 153.81 400.949 154.178 400.949C154.546 400.949 154.879 401.013 155.179 401.14C155.478 401.263 155.729 401.434 155.931 401.652C156.136 401.87 156.307 402.132 156.443 402.438C156.583 402.741 156.684 403.068 156.746 403.42C156.808 403.771 156.839 404.147 156.839 404.548C156.839 404.948 156.808 405.324 156.746 405.676C156.684 406.027 156.583 406.356 156.443 406.662C156.307 406.965 156.136 407.225 155.931 407.443C155.729 407.661 155.478 407.832 155.179 407.956ZM154.178 407.341C154.497 407.341 154.772 407.266 155.003 407.116C155.237 406.966 155.42 406.758 155.55 406.491C155.683 406.224 155.781 405.931 155.843 405.612C155.905 405.29 155.936 404.935 155.936 404.548C155.936 404.16 155.905 403.807 155.843 403.488C155.781 403.166 155.683 402.871 155.55 402.604C155.42 402.338 155.237 402.129 155.003 401.979C154.772 401.826 154.497 401.75 154.178 401.75C153.859 401.75 153.582 401.826 153.348 401.979C153.113 402.129 152.929 402.338 152.796 402.604C152.666 402.871 152.57 403.166 152.508 403.488C152.446 403.811 152.415 404.164 152.415 404.548C152.415 404.854 152.433 405.14 152.469 405.407C152.508 405.671 152.57 405.923 152.654 406.164C152.742 406.405 152.853 406.612 152.986 406.784C153.12 406.953 153.287 407.089 153.489 407.189C153.691 407.29 153.921 407.341 154.178 407.341ZM158.641 403.508H157.737C157.737 403.143 157.788 402.808 157.889 402.502C157.99 402.196 158.139 401.927 158.338 401.696C158.536 401.462 158.797 401.28 159.119 401.149C159.441 401.016 159.811 400.949 160.228 400.949C160.628 400.949 160.993 401.029 161.321 401.188C161.65 401.345 161.917 401.582 162.122 401.901C162.327 402.22 162.43 402.593 162.43 403.02C162.43 403.342 162.368 403.638 162.244 403.908C162.12 404.175 161.956 404.405 161.751 404.597C161.546 404.785 161.318 404.963 161.067 405.129C160.82 405.295 160.566 405.453 160.306 405.603C160.045 405.749 159.801 405.897 159.573 406.047C159.345 406.193 159.145 406.364 158.973 406.56C158.803 406.752 158.689 406.958 158.631 407.18V407.199H162.327V408H157.537C157.537 406.825 158.224 405.835 159.598 405.031C159.692 404.976 159.812 404.906 159.959 404.821C160.109 404.737 160.221 404.673 160.296 404.631C160.371 404.589 160.465 404.532 160.579 404.46C160.696 404.388 160.783 404.331 160.838 404.289C160.893 404.247 160.962 404.193 161.043 404.128C161.124 404.063 161.185 404.004 161.224 403.952C161.263 403.9 161.307 403.838 161.355 403.767C161.404 403.695 161.438 403.623 161.458 403.552C161.478 403.48 161.494 403.4 161.507 403.312C161.523 403.225 161.531 403.13 161.531 403.029C161.531 402.87 161.51 402.72 161.468 402.58C161.429 402.44 161.362 402.305 161.268 402.175C161.176 402.045 161.04 401.942 160.857 401.867C160.675 401.789 160.459 401.75 160.208 401.75C159.163 401.75 158.641 402.336 158.641 403.508ZM164.046 403.161H163.147C163.147 402.5 163.364 401.966 163.797 401.56C164.233 401.153 164.863 400.949 165.687 400.949C166.087 400.949 166.453 401.022 166.785 401.169C167.117 401.312 167.387 401.532 167.596 401.828C167.804 402.121 167.908 402.465 167.908 402.858C167.908 403.555 167.553 404.045 166.844 404.328V404.348C167.312 404.475 167.648 404.685 167.85 404.978C168.055 405.267 168.157 405.629 168.157 406.062C168.157 406.729 167.938 407.243 167.498 407.604C167.059 407.963 166.461 408.142 165.706 408.142C164.83 408.142 164.155 407.925 163.68 407.492C163.204 407.056 162.967 406.446 162.967 405.661H163.865C163.865 406.781 164.456 407.341 165.638 407.341C166.217 407.341 166.631 407.235 166.878 407.023C167.129 406.812 167.254 406.491 167.254 406.062C167.254 405.215 166.767 404.792 165.794 404.792H165.057V403.991H165.755C166.132 403.991 166.435 403.898 166.663 403.713C166.891 403.524 167.005 403.239 167.005 402.858C167.005 402.549 166.894 402.287 166.673 402.072C166.455 401.857 166.126 401.75 165.687 401.75C164.593 401.75 164.046 402.22 164.046 403.161Z" fill="black"/>
<path d="M214.335 394.822C214.335 395.066 214.314 395.296 214.271 395.511C214.232 395.726 214.162 395.936 214.062 396.141C213.961 396.342 213.832 396.517 213.676 396.663C213.523 396.806 213.324 396.922 213.08 397.01C212.836 397.098 212.558 397.142 212.245 397.142C211.933 397.142 211.654 397.098 211.41 397.01C211.166 396.922 210.967 396.806 210.814 396.663C210.661 396.517 210.535 396.342 210.434 396.141C210.336 395.936 210.266 395.726 210.224 395.511C210.185 395.296 210.165 395.066 210.165 394.822V394.622H211.063V394.822C211.063 395.014 211.07 395.179 211.083 395.315C211.099 395.452 211.132 395.589 211.181 395.726C211.229 395.862 211.296 395.973 211.381 396.058C211.465 396.142 211.579 396.211 211.723 396.263C211.869 396.315 212.043 396.341 212.245 396.341C212.447 396.341 212.621 396.315 212.768 396.263C212.914 396.211 213.03 396.142 213.114 396.058C213.199 395.973 213.266 395.862 213.314 395.726C213.363 395.589 213.396 395.452 213.412 395.315C213.428 395.175 213.437 395.011 213.437 394.822V389.852H214.335V394.822ZM218.847 391.902H219.647V397H218.847V396.39H218.827C218.671 396.601 218.451 396.78 218.168 396.927C217.885 397.07 217.545 397.142 217.147 397.142C216.91 397.142 216.688 397.107 216.483 397.039C216.282 396.974 216.101 396.876 215.941 396.746C215.785 396.613 215.661 396.437 215.57 396.219C215.479 395.997 215.434 395.745 215.434 395.462V391.902H216.234V395.262C216.234 395.617 216.324 395.901 216.503 396.116C216.685 396.331 216.967 396.438 217.348 396.438C217.794 396.438 218.155 396.312 218.432 396.058C218.708 395.804 218.847 395.478 218.847 395.081V391.902ZM220.78 389.852H221.581V397H220.78V389.852ZM227.03 391.902L224.853 397.42C224.709 397.778 224.59 398.025 224.496 398.162C224.242 398.53 223.887 398.715 223.432 398.719C223.197 398.719 222.971 398.686 222.753 398.621V398.021H222.87C223.111 398.043 223.31 398.035 223.466 397.996C223.622 397.96 223.764 397.876 223.891 397.742C223.969 397.658 224.034 397.56 224.086 397.449C224.138 397.342 224.172 397.21 224.188 397.054C224.208 396.897 224.182 396.74 224.11 396.58L222.182 391.902H223.08L224.643 396.058H224.662L226.132 391.902H227.03ZM208.432 403.508H207.528C207.528 403.143 207.579 402.808 207.68 402.502C207.781 402.196 207.93 401.927 208.129 401.696C208.327 401.462 208.588 401.28 208.91 401.149C209.232 401.016 209.602 400.949 210.019 400.949C210.419 400.949 210.784 401.029 211.112 401.188C211.441 401.345 211.708 401.582 211.913 401.901C212.118 402.22 212.221 402.593 212.221 403.02C212.221 403.342 212.159 403.638 212.035 403.908C211.911 404.175 211.747 404.405 211.542 404.597C211.337 404.785 211.109 404.963 210.858 405.129C210.611 405.295 210.357 405.453 210.097 405.603C209.836 405.749 209.592 405.897 209.364 406.047C209.136 406.193 208.936 406.364 208.764 406.56C208.594 406.752 208.48 406.958 208.422 407.18V407.199H212.118V408H207.328C207.328 406.825 208.015 405.835 209.389 405.031C209.483 404.976 209.604 404.906 209.75 404.821C209.9 404.737 210.012 404.673 210.087 404.631C210.162 404.589 210.256 404.532 210.37 404.46C210.487 404.388 210.574 404.331 210.629 404.289C210.684 404.247 210.753 404.193 210.834 404.128C210.915 404.063 210.976 404.004 211.015 403.952C211.054 403.9 211.098 403.838 211.146 403.767C211.195 403.695 211.229 403.623 211.249 403.552C211.269 403.48 211.285 403.4 211.298 403.312C211.314 403.225 211.322 403.13 211.322 403.029C211.322 402.87 211.301 402.72 211.259 402.58C211.22 402.44 211.153 402.305 211.059 402.175C210.967 402.045 210.831 401.942 210.648 401.867C210.466 401.789 210.25 401.75 209.999 401.75C208.954 401.75 208.432 402.336 208.432 403.508ZM216.679 407.956C216.379 408.08 216.046 408.142 215.678 408.142C215.31 408.142 214.976 408.08 214.677 407.956C214.377 407.832 214.125 407.661 213.92 407.443C213.718 407.225 213.547 406.965 213.407 406.662C213.271 406.356 213.171 406.027 213.109 405.676C213.048 405.324 213.017 404.948 213.017 404.548C213.017 404.147 213.048 403.771 213.109 403.42C213.171 403.068 213.271 402.741 213.407 402.438C213.547 402.132 213.718 401.87 213.92 401.652C214.125 401.434 214.377 401.263 214.677 401.14C214.976 401.013 215.31 400.949 215.678 400.949C216.046 400.949 216.379 401.013 216.679 401.14C216.978 401.263 217.229 401.434 217.431 401.652C217.636 401.87 217.807 402.132 217.943 402.438C218.083 402.741 218.184 403.068 218.246 403.42C218.308 403.771 218.339 404.147 218.339 404.548C218.339 404.948 218.308 405.324 218.246 405.676C218.184 406.027 218.083 406.356 217.943 406.662C217.807 406.965 217.636 407.225 217.431 407.443C217.229 407.661 216.978 407.832 216.679 407.956ZM215.678 407.341C215.997 407.341 216.272 407.266 216.503 407.116C216.737 406.966 216.92 406.758 217.05 406.491C217.183 406.224 217.281 405.931 217.343 405.612C217.405 405.29 217.436 404.935 217.436 404.548C217.436 404.16 217.405 403.807 217.343 403.488C217.281 403.166 217.183 402.871 217.05 402.604C216.92 402.338 216.737 402.129 216.503 401.979C216.272 401.826 215.997 401.75 215.678 401.75C215.359 401.75 215.082 401.826 214.848 401.979C214.613 402.129 214.429 402.338 214.296 402.604C214.166 402.871 214.07 403.166 214.008 403.488C213.946 403.811 213.915 404.164 213.915 404.548C213.915 404.854 213.933 405.14 213.969 405.407C214.008 405.671 214.07 405.923 214.154 406.164C214.242 406.405 214.353 406.612 214.486 406.784C214.62 406.953 214.787 407.089 214.989 407.189C215.191 407.29 215.421 407.341 215.678 407.341ZM220.141 403.508H219.237C219.237 403.143 219.288 402.808 219.389 402.502C219.49 402.196 219.639 401.927 219.838 401.696C220.036 401.462 220.297 401.28 220.619 401.149C220.941 401.016 221.311 400.949 221.728 400.949C222.128 400.949 222.493 401.029 222.821 401.188C223.15 401.345 223.417 401.582 223.622 401.901C223.827 402.22 223.93 402.593 223.93 403.02C223.93 403.342 223.868 403.638 223.744 403.908C223.62 404.175 223.456 404.405 223.251 404.597C223.046 404.785 222.818 404.963 222.567 405.129C222.32 405.295 222.066 405.453 221.806 405.603C221.545 405.749 221.301 405.897 221.073 406.047C220.845 406.193 220.645 406.364 220.473 406.56C220.303 406.752 220.189 406.958 220.131 407.18V407.199H223.827V408H219.037C219.037 406.825 219.724 405.835 221.098 405.031C221.192 404.976 221.312 404.906 221.459 404.821C221.609 404.737 221.721 404.673 221.796 404.631C221.871 404.589 221.965 404.532 222.079 404.46C222.196 404.388 222.283 404.331 222.338 404.289C222.393 404.247 222.462 404.193 222.543 404.128C222.624 404.063 222.685 404.004 222.724 403.952C222.763 403.9 222.807 403.838 222.855 403.767C222.904 403.695 222.938 403.623 222.958 403.552C222.978 403.48 222.994 403.4 223.007 403.312C223.023 403.225 223.031 403.13 223.031 403.029C223.031 402.87 223.01 402.72 222.968 402.58C222.929 402.44 222.862 402.305 222.768 402.175C222.676 402.045 222.54 401.942 222.357 401.867C222.175 401.789 221.959 401.75 221.708 401.75C220.663 401.75 220.141 402.336 220.141 403.508ZM225.546 403.161H224.647C224.647 402.5 224.864 401.966 225.297 401.56C225.733 401.153 226.363 400.949 227.187 400.949C227.587 400.949 227.953 401.022 228.285 401.169C228.617 401.312 228.887 401.532 229.096 401.828C229.304 402.121 229.408 402.465 229.408 402.858C229.408 403.555 229.053 404.045 228.344 404.328V404.348C228.812 404.475 229.148 404.685 229.35 404.978C229.555 405.267 229.657 405.629 229.657 406.062C229.657 406.729 229.438 407.243 228.998 407.604C228.559 407.963 227.961 408.142 227.206 408.142C226.33 408.142 225.655 407.925 225.18 407.492C224.704 407.056 224.467 406.446 224.467 405.661H225.365C225.365 406.781 225.956 407.341 227.138 407.341C227.717 407.341 228.131 407.235 228.378 407.023C228.629 406.812 228.754 406.491 228.754 406.062C228.754 405.215 228.267 404.792 227.294 404.792H226.557V403.991H227.255C227.632 403.991 227.935 403.898 228.163 403.713C228.391 403.524 228.505 403.239 228.505 402.858C228.505 402.549 228.394 402.287 228.173 402.072C227.955 401.857 227.626 401.75 227.187 401.75C226.093 401.75 225.546 402.22 225.546 403.161Z" fill="black"/>
<path d="M267.337 396.663C266.803 396.982 266.193 397.142 265.506 397.142C264.819 397.142 264.209 396.982 263.675 396.663C263.141 396.341 262.729 395.898 262.439 395.335C262.15 394.772 262.005 394.134 262.005 393.421C262.005 392.708 262.15 392.072 262.439 391.512C262.729 390.949 263.141 390.507 263.675 390.188C264.209 389.869 264.819 389.71 265.506 389.71C266.193 389.71 266.803 389.869 267.337 390.188C267.871 390.507 268.283 390.949 268.572 391.512C268.862 392.072 269.007 392.708 269.007 393.421C269.007 394.134 268.862 394.772 268.572 395.335C268.283 395.898 267.871 396.341 267.337 396.663ZM265.506 396.341C265.942 396.341 266.329 396.263 266.668 396.106C267.007 395.947 267.278 395.73 267.483 395.457C267.688 395.18 267.843 394.871 267.947 394.529C268.051 394.184 268.104 393.815 268.104 393.421C268.104 393.027 268.051 392.659 267.947 392.317C267.843 391.972 267.688 391.665 267.483 391.395C267.278 391.121 267.007 390.906 266.668 390.75C266.329 390.59 265.942 390.511 265.506 390.511C265.154 390.511 264.834 390.563 264.544 390.667C264.254 390.771 264.008 390.913 263.807 391.092C263.608 391.271 263.439 391.484 263.299 391.731C263.162 391.979 263.061 392.244 262.996 392.527C262.934 392.811 262.903 393.108 262.903 393.421C262.903 393.733 262.934 394.031 262.996 394.314C263.061 394.598 263.162 394.865 263.299 395.115C263.439 395.363 263.608 395.577 263.807 395.76C264.008 395.939 264.254 396.08 264.544 396.185C264.834 396.289 265.154 396.341 265.506 396.341ZM273.577 393.738C273.567 393.589 273.533 393.442 273.475 393.299C273.419 393.156 273.336 393.019 273.226 392.889C273.118 392.758 272.97 392.654 272.781 392.576C272.596 392.498 272.381 392.459 272.137 392.459C271.902 392.459 271.689 392.498 271.497 392.576C271.308 392.651 271.15 392.754 271.023 392.884C270.9 393.011 270.794 393.162 270.706 393.338C270.621 393.51 270.56 393.689 270.521 393.875C270.485 394.061 270.467 394.253 270.467 394.451C270.467 394.702 270.498 394.941 270.56 395.169C270.621 395.397 270.716 395.608 270.843 395.804C270.97 395.996 271.144 396.15 271.365 396.268C271.59 396.382 271.847 396.438 272.137 396.438C272.384 396.438 272.601 396.399 272.786 396.321C272.975 396.243 273.123 396.139 273.23 396.009C273.338 395.875 273.419 395.735 273.475 395.589C273.533 395.439 273.567 395.283 273.577 395.12H274.378C274.342 395.706 274.116 396.189 273.699 396.57C273.283 396.951 272.762 397.142 272.137 397.142C271.395 397.142 270.797 396.894 270.345 396.399C269.892 395.905 269.666 395.255 269.666 394.451C269.666 393.647 269.892 392.998 270.345 392.503C270.797 392.008 271.395 391.761 272.137 391.761C272.755 391.761 273.268 391.946 273.675 392.317C274.082 392.685 274.316 393.159 274.378 393.738H273.577ZM277.361 392.601H276.36V395.672C276.36 395.949 276.437 396.129 276.59 396.214C276.743 396.299 277 396.328 277.361 396.302V397C277.182 397.039 276.982 397.059 276.761 397.059C276.383 397.059 276.089 396.963 275.877 396.771C275.669 396.575 275.564 396.235 275.564 395.75V392.601H274.812V391.902H275.564V390.198H276.36V391.902H277.361V392.601ZM280.359 397.142C279.591 397.142 278.982 396.896 278.533 396.404C278.084 395.91 277.859 395.258 277.859 394.451C277.859 393.644 278.084 392.994 278.533 392.503C278.982 392.008 279.591 391.761 280.359 391.761C281.124 391.761 281.73 392.008 282.176 392.503C282.625 392.998 282.85 393.647 282.85 394.451C282.85 395.255 282.625 395.905 282.176 396.399C281.73 396.894 281.124 397.142 280.359 397.142ZM280.359 396.438C280.903 396.438 281.32 396.251 281.609 395.877C281.902 395.503 282.049 395.027 282.049 394.451C282.049 393.875 281.902 393.4 281.609 393.025C281.32 392.648 280.903 392.459 280.359 392.459C279.809 392.459 279.388 392.648 279.095 393.025C278.805 393.4 278.66 393.875 278.66 394.451C278.66 395.027 278.805 395.503 279.095 395.877C279.388 396.251 279.809 396.438 280.359 396.438ZM286.077 391.761C286.396 391.761 286.696 391.823 286.976 391.946C287.256 392.07 287.498 392.246 287.703 392.474C287.911 392.701 288.076 392.986 288.196 393.328C288.317 393.667 288.377 394.041 288.377 394.451C288.377 394.861 288.317 395.237 288.196 395.579C288.076 395.918 287.911 396.201 287.703 396.429C287.498 396.657 287.256 396.832 286.976 396.956C286.696 397.08 286.396 397.142 286.077 397.142C285.403 397.142 284.871 396.884 284.48 396.37H284.456V397H283.66V389.852H284.456V392.562H284.48C284.842 392.028 285.374 391.761 286.077 391.761ZM285.999 396.438C286.334 396.438 286.624 396.341 286.868 396.146C287.112 395.95 287.291 395.706 287.405 395.413C287.519 395.117 287.576 394.796 287.576 394.451C287.576 394.106 287.519 393.785 287.405 393.489C287.291 393.193 287.112 392.947 286.868 392.752C286.624 392.557 286.334 392.459 285.999 392.459C285.527 392.459 285.151 392.64 284.871 393.001C284.594 393.362 284.456 393.846 284.456 394.451C284.456 395.053 284.594 395.535 284.871 395.896C285.148 396.258 285.524 396.438 285.999 396.438ZM291.355 396.438C291.551 396.438 291.73 396.414 291.893 396.365C292.055 396.316 292.189 396.256 292.293 396.185C292.4 396.113 292.493 396.03 292.571 395.936C292.653 395.841 292.713 395.753 292.752 395.672C292.794 395.587 292.825 395.506 292.845 395.428H293.646C293.506 395.939 293.243 396.352 292.859 396.668C292.479 396.984 291.987 397.142 291.385 397.142C290.62 397.142 290.013 396.896 289.563 396.404C289.118 395.913 288.895 395.262 288.895 394.451C288.895 393.608 289.114 392.949 289.554 392.474C289.996 391.998 290.594 391.761 291.346 391.761C292.133 391.761 292.726 392.013 293.123 392.518C293.523 393.022 293.724 393.737 293.724 394.661H289.695C289.695 394.977 289.754 395.267 289.871 395.53C289.992 395.794 290.18 396.012 290.438 396.185C290.695 396.354 291.001 396.438 291.355 396.438ZM291.346 392.459C290.87 392.459 290.477 392.605 290.164 392.898C289.852 393.188 289.695 393.541 289.695 393.958H292.928C292.928 393.538 292.781 393.183 292.488 392.894C292.195 392.604 291.814 392.459 291.346 392.459ZM296.746 391.761C296.919 391.761 297.076 391.771 297.22 391.79V392.591H297.2C296.657 392.503 296.206 392.625 295.848 392.957C295.493 393.286 295.315 393.727 295.315 394.28V397H294.52V391.902H295.315V392.908H295.34C295.486 392.544 295.67 392.262 295.892 392.063C296.116 391.862 296.401 391.761 296.746 391.761ZM269.432 403.508H268.528C268.528 403.143 268.579 402.808 268.68 402.502C268.781 402.196 268.93 401.927 269.129 401.696C269.327 401.462 269.588 401.28 269.91 401.149C270.232 401.016 270.602 400.949 271.019 400.949C271.419 400.949 271.784 401.029 272.112 401.188C272.441 401.345 272.708 401.582 272.913 401.901C273.118 402.22 273.221 402.593 273.221 403.02C273.221 403.342 273.159 403.638 273.035 403.908C272.911 404.175 272.747 404.405 272.542 404.597C272.337 404.785 272.109 404.963 271.858 405.129C271.611 405.295 271.357 405.453 271.097 405.603C270.836 405.749 270.592 405.897 270.364 406.047C270.136 406.193 269.936 406.364 269.764 406.56C269.594 406.752 269.48 406.958 269.422 407.18V407.199H273.118V408H268.328C268.328 406.825 269.015 405.835 270.389 405.031C270.483 404.976 270.604 404.906 270.75 404.821C270.9 404.737 271.012 404.673 271.087 404.631C271.162 404.589 271.256 404.532 271.37 404.46C271.487 404.388 271.574 404.331 271.629 404.289C271.684 404.247 271.753 404.193 271.834 404.128C271.915 404.063 271.976 404.004 272.015 403.952C272.054 403.9 272.098 403.838 272.146 403.767C272.195 403.695 272.229 403.623 272.249 403.552C272.269 403.48 272.285 403.4 272.298 403.312C272.314 403.225 272.322 403.13 272.322 403.029C272.322 402.87 272.301 402.72 272.259 402.58C272.22 402.44 272.153 402.305 272.059 402.175C271.967 402.045 271.831 401.942 271.648 401.867C271.466 401.789 271.25 401.75 270.999 401.75C269.954 401.75 269.432 402.336 269.432 403.508ZM277.679 407.956C277.379 408.08 277.046 408.142 276.678 408.142C276.31 408.142 275.976 408.08 275.677 407.956C275.377 407.832 275.125 407.661 274.92 407.443C274.718 407.225 274.547 406.965 274.407 406.662C274.271 406.356 274.171 406.027 274.109 405.676C274.048 405.324 274.017 404.948 274.017 404.548C274.017 404.147 274.048 403.771 274.109 403.42C274.171 403.068 274.271 402.741 274.407 402.438C274.547 402.132 274.718 401.87 274.92 401.652C275.125 401.434 275.377 401.263 275.677 401.14C275.976 401.013 276.31 400.949 276.678 400.949C277.046 400.949 277.379 401.013 277.679 401.14C277.978 401.263 278.229 401.434 278.431 401.652C278.636 401.87 278.807 402.132 278.943 402.438C279.083 402.741 279.184 403.068 279.246 403.42C279.308 403.771 279.339 404.147 279.339 404.548C279.339 404.948 279.308 405.324 279.246 405.676C279.184 406.027 279.083 406.356 278.943 406.662C278.807 406.965 278.636 407.225 278.431 407.443C278.229 407.661 277.978 407.832 277.679 407.956ZM276.678 407.341C276.997 407.341 277.272 407.266 277.503 407.116C277.737 406.966 277.92 406.758 278.05 406.491C278.183 406.224 278.281 405.931 278.343 405.612C278.405 405.29 278.436 404.935 278.436 404.548C278.436 404.16 278.405 403.807 278.343 403.488C278.281 403.166 278.183 402.871 278.05 402.604C277.92 402.338 277.737 402.129 277.503 401.979C277.272 401.826 276.997 401.75 276.678 401.75C276.359 401.75 276.082 401.826 275.848 401.979C275.613 402.129 275.429 402.338 275.296 402.604C275.166 402.871 275.07 403.166 275.008 403.488C274.946 403.811 274.915 404.164 274.915 404.548C274.915 404.854 274.933 405.14 274.969 405.407C275.008 405.671 275.07 405.923 275.154 406.164C275.242 406.405 275.353 406.612 275.486 406.784C275.62 406.953 275.787 407.089 275.989 407.189C276.191 407.29 276.421 407.341 276.678 407.341ZM281.141 403.508H280.237C280.237 403.143 280.288 402.808 280.389 402.502C280.49 402.196 280.639 401.927 280.838 401.696C281.036 401.462 281.297 401.28 281.619 401.149C281.941 401.016 282.311 400.949 282.728 400.949C283.128 400.949 283.493 401.029 283.821 401.188C284.15 401.345 284.417 401.582 284.622 401.901C284.827 402.22 284.93 402.593 284.93 403.02C284.93 403.342 284.868 403.638 284.744 403.908C284.62 404.175 284.456 404.405 284.251 404.597C284.046 404.785 283.818 404.963 283.567 405.129C283.32 405.295 283.066 405.453 282.806 405.603C282.545 405.749 282.301 405.897 282.073 406.047C281.845 406.193 281.645 406.364 281.473 406.56C281.303 406.752 281.189 406.958 281.131 407.18V407.199H284.827V408H280.037C280.037 406.825 280.724 405.835 282.098 405.031C282.192 404.976 282.312 404.906 282.459 404.821C282.609 404.737 282.721 404.673 282.796 404.631C282.871 404.589 282.965 404.532 283.079 404.46C283.196 404.388 283.283 404.331 283.338 404.289C283.393 404.247 283.462 404.193 283.543 404.128C283.624 404.063 283.685 404.004 283.724 403.952C283.763 403.9 283.807 403.838 283.855 403.767C283.904 403.695 283.938 403.623 283.958 403.552C283.978 403.48 283.994 403.4 284.007 403.312C284.023 403.225 284.031 403.13 284.031 403.029C284.031 402.87 284.01 402.72 283.968 402.58C283.929 402.44 283.862 402.305 283.768 402.175C283.676 402.045 283.54 401.942 283.357 401.867C283.175 401.789 282.959 401.75 282.708 401.75C281.663 401.75 281.141 402.336 281.141 403.508ZM286.546 403.161H285.647C285.647 402.5 285.864 401.966 286.297 401.56C286.733 401.153 287.363 400.949 288.187 400.949C288.587 400.949 288.953 401.022 289.285 401.169C289.617 401.312 289.887 401.532 290.096 401.828C290.304 402.121 290.408 402.465 290.408 402.858C290.408 403.555 290.053 404.045 289.344 404.328V404.348C289.812 404.475 290.148 404.685 290.35 404.978C290.555 405.267 290.657 405.629 290.657 406.062C290.657 406.729 290.438 407.243 289.998 407.604C289.559 407.963 288.961 408.142 288.206 408.142C287.33 408.142 286.655 407.925 286.18 407.492C285.704 407.056 285.467 406.446 285.467 405.661H286.365C286.365 406.781 286.956 407.341 288.138 407.341C288.717 407.341 289.131 407.235 289.378 407.023C289.629 406.812 289.754 406.491 289.754 406.062C289.754 405.215 289.267 404.792 288.294 404.792H287.557V403.991H288.255C288.632 403.991 288.935 403.898 289.163 403.713C289.391 403.524 289.505 403.239 289.505 402.858C289.505 402.549 289.394 402.287 289.173 402.072C288.955 401.857 288.626 401.75 288.187 401.75C287.093 401.75 286.546 402.22 286.546 403.161Z" fill="black"/>
<path d="M331.363 394.822C331.363 395.066 331.342 395.296 331.3 395.511C331.261 395.726 331.191 395.936 331.09 396.141C330.989 396.342 330.86 396.517 330.704 396.663C330.551 396.806 330.353 396.922 330.108 397.01C329.864 397.098 329.586 397.142 329.273 397.142C328.961 397.142 328.683 397.098 328.438 397.01C328.194 396.922 327.996 396.806 327.843 396.663C327.69 396.517 327.563 396.342 327.462 396.141C327.364 395.936 327.294 395.726 327.252 395.511C327.213 395.296 327.193 395.066 327.193 394.822V394.622H328.092V394.822C328.092 395.014 328.098 395.179 328.111 395.315C328.128 395.452 328.16 395.589 328.209 395.726C328.258 395.862 328.325 395.973 328.409 396.058C328.494 396.142 328.608 396.211 328.751 396.263C328.897 396.315 329.072 396.341 329.273 396.341C329.475 396.341 329.649 396.315 329.796 396.263C329.942 396.211 330.058 396.142 330.143 396.058C330.227 395.973 330.294 395.862 330.343 395.726C330.392 395.589 330.424 395.452 330.44 395.315C330.457 395.175 330.465 395.011 330.465 394.822V389.852H331.363V394.822ZM335.616 393.201C335.616 392.706 335.27 392.459 334.576 392.459C334.098 392.459 333.761 392.535 333.565 392.688C333.37 392.841 333.259 393.105 333.233 393.479H332.433C332.459 392.955 332.646 392.539 332.994 392.229C333.346 391.917 333.873 391.761 334.576 391.761C334.778 391.761 334.965 391.777 335.138 391.81C335.313 391.842 335.481 391.897 335.641 391.976C335.8 392.054 335.935 392.153 336.046 392.273C336.157 392.394 336.244 392.549 336.31 392.737C336.378 392.923 336.412 393.134 336.412 393.372V395.848C336.412 396.069 336.45 396.225 336.524 396.316C336.599 396.404 336.756 396.435 336.993 396.409V396.971C336.834 397.023 336.677 397.049 336.524 397.049C336.267 397.049 336.069 397.002 335.929 396.907C335.789 396.81 335.685 396.627 335.616 396.36H335.597C335.245 396.881 334.667 397.142 333.863 397.142C333.352 397.142 332.944 397.008 332.638 396.741C332.335 396.474 332.184 396.124 332.184 395.691C332.184 395.464 332.218 395.263 332.286 395.091C332.358 394.918 332.451 394.775 332.564 394.661C332.678 394.547 332.835 394.446 333.033 394.358C333.232 394.267 333.43 394.196 333.629 394.144C333.827 394.091 334.073 394.038 334.366 393.982C334.841 393.895 335.169 393.802 335.348 393.704C335.527 393.606 335.616 393.439 335.616 393.201ZM333.946 396.438C334.451 396.438 334.854 396.321 335.157 396.087C335.463 395.853 335.616 395.501 335.616 395.032V394.178C335.486 394.308 335.092 394.441 334.435 394.578C333.917 394.689 333.546 394.822 333.321 394.979C333.097 395.135 332.984 395.359 332.984 395.652C332.984 396.176 333.305 396.438 333.946 396.438ZM340.094 391.761C340.331 391.761 340.551 391.795 340.753 391.863C340.955 391.928 341.135 392.028 341.295 392.161C341.454 392.291 341.578 392.467 341.666 392.688C341.757 392.907 341.803 393.157 341.803 393.44V397H341.002V393.641C341.002 393.286 340.912 393.001 340.733 392.786C340.554 392.568 340.274 392.459 339.894 392.459C339.448 392.459 339.085 392.588 338.805 392.845C338.528 393.099 338.39 393.424 338.39 393.821V397H337.594V391.902H338.39V392.508H338.414C338.57 392.296 338.788 392.119 339.068 391.976C339.352 391.832 339.693 391.761 340.094 391.761ZM346.256 391.902H347.057V397H346.256V396.39H346.236C346.08 396.601 345.86 396.78 345.577 396.927C345.294 397.07 344.954 397.142 344.557 397.142C344.319 397.142 344.098 397.107 343.893 397.039C343.691 396.974 343.51 396.876 343.351 396.746C343.194 396.613 343.071 396.437 342.979 396.219C342.888 395.997 342.843 395.745 342.843 395.462V391.902H343.644V395.262C343.644 395.617 343.733 395.901 343.912 396.116C344.094 396.331 344.376 396.438 344.757 396.438C345.203 396.438 345.564 396.312 345.841 396.058C346.118 395.804 346.256 395.478 346.256 395.081V391.902ZM351.28 393.201C351.28 392.706 350.934 392.459 350.24 392.459C349.762 392.459 349.425 392.535 349.229 392.688C349.034 392.841 348.924 393.105 348.897 393.479H348.097C348.123 392.955 348.31 392.539 348.658 392.229C349.01 391.917 349.537 391.761 350.24 391.761C350.442 391.761 350.629 391.777 350.802 391.81C350.978 391.842 351.145 391.897 351.305 391.976C351.464 392.054 351.599 392.153 351.71 392.273C351.821 392.394 351.909 392.549 351.974 392.737C352.042 392.923 352.076 393.134 352.076 393.372V395.848C352.076 396.069 352.114 396.225 352.188 396.316C352.263 396.404 352.42 396.435 352.657 396.409V396.971C352.498 397.023 352.341 397.049 352.188 397.049C351.931 397.049 351.733 397.002 351.593 396.907C351.453 396.81 351.349 396.627 351.28 396.36H351.261C350.909 396.881 350.331 397.142 349.527 397.142C349.016 397.142 348.608 397.008 348.302 396.741C347.999 396.474 347.848 396.124 347.848 395.691C347.848 395.464 347.882 395.263 347.95 395.091C348.022 394.918 348.115 394.775 348.229 394.661C348.342 394.547 348.499 394.446 348.697 394.358C348.896 394.267 349.094 394.196 349.293 394.144C349.492 394.091 349.737 394.038 350.03 393.982C350.506 393.895 350.833 393.802 351.012 393.704C351.191 393.606 351.28 393.439 351.28 393.201ZM349.61 396.438C350.115 396.438 350.519 396.321 350.821 396.087C351.127 395.853 351.28 395.501 351.28 395.032V394.178C351.15 394.308 350.756 394.441 350.099 394.578C349.581 394.689 349.21 394.822 348.985 394.979C348.761 395.135 348.648 395.359 348.648 395.652C348.648 396.176 348.969 396.438 349.61 396.438ZM355.484 391.761C355.657 391.761 355.815 391.771 355.958 391.79V392.591H355.938C355.395 392.503 354.944 392.625 354.586 392.957C354.231 393.286 354.054 393.727 354.054 394.28V397H353.258V391.902H354.054V392.908H354.078C354.225 392.544 354.409 392.262 354.63 392.063C354.854 391.862 355.139 391.761 355.484 391.761ZM361.002 391.902L358.824 397.42C358.681 397.778 358.562 398.025 358.468 398.162C358.214 398.53 357.859 398.715 357.403 398.719C357.169 398.719 356.943 398.686 356.725 398.621V398.021H356.842C357.083 398.043 357.281 398.035 357.438 397.996C357.594 397.96 357.735 397.876 357.862 397.742C357.94 397.658 358.006 397.56 358.058 397.449C358.11 397.342 358.144 397.21 358.16 397.054C358.18 396.897 358.154 396.74 358.082 396.58L356.153 391.902H357.052L358.614 396.058H358.634L360.104 391.902H361.002ZM334.098 403.508H333.194C333.194 403.143 333.245 402.808 333.346 402.502C333.447 402.196 333.596 401.927 333.795 401.696C333.993 401.462 334.254 401.28 334.576 401.149C334.898 401.016 335.268 400.949 335.685 400.949C336.085 400.949 336.45 401.029 336.778 401.188C337.107 401.345 337.374 401.582 337.579 401.901C337.784 402.22 337.887 402.593 337.887 403.02C337.887 403.342 337.825 403.638 337.701 403.908C337.577 404.175 337.413 404.405 337.208 404.597C337.003 404.785 336.775 404.963 336.524 405.129C336.277 405.295 336.023 405.453 335.763 405.603C335.502 405.749 335.258 405.897 335.03 406.047C334.802 406.193 334.602 406.364 334.43 406.56C334.26 406.752 334.146 406.958 334.088 407.18V407.199H337.784V408H332.994C332.994 406.825 333.681 405.835 335.055 405.031C335.149 404.976 335.27 404.906 335.416 404.821C335.566 404.737 335.678 404.673 335.753 404.631C335.828 404.589 335.922 404.532 336.036 404.46C336.153 404.388 336.24 404.331 336.295 404.289C336.35 404.247 336.419 404.193 336.5 404.128C336.581 404.063 336.642 404.004 336.681 403.952C336.72 403.9 336.764 403.838 336.812 403.767C336.861 403.695 336.896 403.623 336.915 403.552C336.935 403.48 336.951 403.4 336.964 403.312C336.98 403.225 336.988 403.13 336.988 403.029C336.988 402.87 336.967 402.72 336.925 402.58C336.886 402.44 336.819 402.305 336.725 402.175C336.633 402.045 336.497 401.942 336.314 401.867C336.132 401.789 335.916 401.75 335.665 401.75C334.62 401.75 334.098 402.336 334.098 403.508ZM342.345 407.956C342.045 408.08 341.712 408.142 341.344 408.142C340.976 408.142 340.642 408.08 340.343 407.956C340.043 407.832 339.791 407.661 339.586 407.443C339.384 407.225 339.213 406.965 339.073 406.662C338.937 406.356 338.837 406.027 338.775 405.676C338.714 405.324 338.683 404.948 338.683 404.548C338.683 404.147 338.714 403.771 338.775 403.42C338.837 403.068 338.937 402.741 339.073 402.438C339.213 402.132 339.384 401.87 339.586 401.652C339.791 401.434 340.043 401.263 340.343 401.14C340.642 401.013 340.976 400.949 341.344 400.949C341.712 400.949 342.045 401.013 342.345 401.14C342.644 401.263 342.895 401.434 343.097 401.652C343.302 401.87 343.473 402.132 343.609 402.438C343.749 402.741 343.85 403.068 343.912 403.42C343.974 403.771 344.005 404.147 344.005 404.548C344.005 404.948 343.974 405.324 343.912 405.676C343.85 406.027 343.749 406.356 343.609 406.662C343.473 406.965 343.302 407.225 343.097 407.443C342.895 407.661 342.644 407.832 342.345 407.956ZM341.344 407.341C341.663 407.341 341.938 407.266 342.169 407.116C342.403 406.966 342.586 406.758 342.716 406.491C342.849 406.224 342.947 405.931 343.009 405.612C343.071 405.29 343.102 404.935 343.102 404.548C343.102 404.16 343.071 403.807 343.009 403.488C342.947 403.166 342.849 402.871 342.716 402.604C342.586 402.338 342.403 402.129 342.169 401.979C341.938 401.826 341.663 401.75 341.344 401.75C341.025 401.75 340.748 401.826 340.514 401.979C340.279 402.129 340.095 402.338 339.962 402.604C339.832 402.871 339.736 403.166 339.674 403.488C339.612 403.811 339.581 404.164 339.581 404.548C339.581 404.854 339.599 405.14 339.635 405.407C339.674 405.671 339.736 405.923 339.82 406.164C339.908 406.405 340.019 406.612 340.152 406.784C340.286 406.953 340.453 407.089 340.655 407.189C340.857 407.29 341.087 407.341 341.344 407.341ZM345.807 403.508H344.903C344.903 403.143 344.954 402.808 345.055 402.502C345.156 402.196 345.305 401.927 345.504 401.696C345.702 401.462 345.963 401.28 346.285 401.149C346.607 401.016 346.977 400.949 347.394 400.949C347.794 400.949 348.159 401.029 348.487 401.188C348.816 401.345 349.083 401.582 349.288 401.901C349.493 402.22 349.596 402.593 349.596 403.02C349.596 403.342 349.534 403.638 349.41 403.908C349.286 404.175 349.122 404.405 348.917 404.597C348.712 404.785 348.484 404.963 348.233 405.129C347.986 405.295 347.732 405.453 347.472 405.603C347.211 405.749 346.967 405.897 346.739 406.047C346.511 406.193 346.311 406.364 346.139 406.56C345.969 406.752 345.855 406.958 345.797 407.18V407.199H349.493V408H344.703C344.703 406.825 345.39 405.835 346.764 405.031C346.858 404.976 346.979 404.906 347.125 404.821C347.275 404.737 347.387 404.673 347.462 404.631C347.537 404.589 347.631 404.532 347.745 404.46C347.862 404.388 347.949 404.331 348.004 404.289C348.059 404.247 348.128 404.193 348.209 404.128C348.29 404.063 348.351 404.004 348.39 403.952C348.429 403.9 348.473 403.838 348.521 403.767C348.57 403.695 348.604 403.623 348.624 403.552C348.644 403.48 348.66 403.4 348.673 403.312C348.689 403.225 348.697 403.13 348.697 403.029C348.697 402.87 348.676 402.72 348.634 402.58C348.595 402.44 348.528 402.305 348.434 402.175C348.342 402.045 348.206 401.942 348.023 401.867C347.841 401.789 347.625 401.75 347.374 401.75C346.329 401.75 345.807 402.336 345.807 403.508ZM354.142 408H353.238V406.379H349.908V405.578L353.238 401.091H354.142V405.578H355.089V406.379H354.142V408ZM353.238 402.341L350.831 405.578H353.238V402.341Z" fill="black"/>
<path d="M32.5 334.88C32.5 334.88 113.681 335.15 116.341 334.88C119.001 334.611 170.779 285.088 178.227 278.359C185.674 271.63 193.299 267.593 198.264 262.749C203.229 257.904 206.244 205.958 218.833 205.958C231.423 205.958 230.299 181.739 239.58 169.085C253.301 150.377 273.803 133.288 280.187 132.48C286.57 131.673 292.422 95.0688 301.82 95.0688C311.218 95.0688 313.701 95.0688 322.744 95.0688C331.787 95.0688 338.348 59.5411 344.2 59.5411C350.052 59.5411 360.159 59.5411 363.173 59.5411C366.188 59.5411 374.5 46 374.5 46" stroke="#236CE6" stroke-width="0.538603"/>
<path d="M32.5 354H156.5C156.5 354 214.5 299.509 218 297.005C221.5 294.5 235.792 297.005 239.7 297.005C243.608 297.005 280.2 261.248 280.2 261.248C280.2 261.248 295.655 242.16 301.694 242.16C307.734 242.16 320.701 241.891 322.122 241.891C323.543 241.891 338.82 224.147 342.373 224.147C345.925 224.147 360.669 224.147 364.399 224.147C368.13 224.147 374.5 209.5 374.5 209.5" stroke="#FF455B" stroke-width="0.538603"/>
<rect x="345" y="58" width="5" height="5" rx="2.5" transform="rotate(90 345 58)" fill="#236CE6"/>
<rect x="326" y="92" width="5" height="5" rx="2.5" transform="rotate(90 326 92)" fill="#236CE6"/>
<rect x="302" y="93" width="5" height="5" rx="2.5" transform="rotate(90 302 93)" fill="#236CE6"/>
<rect x="283" y="130" width="5" height="5" rx="2.5" transform="rotate(90 283 130)" fill="#236CE6"/>
<rect x="239" y="171" width="5" height="5" rx="2.5" transform="rotate(90 239 171)" fill="#236CE6"/>
<rect x="220" y="204" width="5" height="5" rx="2.5" transform="rotate(90 220 204)" fill="#236CE6"/>
<rect x="200" y="260" width="5" height="5" rx="2.5" transform="rotate(90 200 260)" fill="#236CE6"/>
<rect x="181" y="274" width="5" height="5" rx="2.5" transform="rotate(90 181 274)" fill="#236CE6"/>
<rect x="117" y="333" width="5" height="5" rx="2.5" transform="rotate(90 117 333)" fill="#236CE6"/>
<rect x="282" y="259" width="5" height="5" rx="2.5" transform="rotate(90 282 259)" fill="#FF455B"/>
<rect x="302" y="240" width="5" height="5" rx="2.5" transform="rotate(90 302 240)" fill="#FF455B"/>
<rect x="243" y="294" width="5" height="5" rx="2.5" transform="rotate(90 243 294)" fill="#FF455B"/>
<rect x="222" y="294" width="5" height="5" rx="2.5" transform="rotate(90 222 294)" fill="#FF455B"/>
<rect x="160" y="350" width="5" height="5" rx="2.5" transform="rotate(90 160 350)" fill="#FF455B"/>
<rect x="324" y="239" width="5" height="5" rx="2.5" transform="rotate(90 324 239)" fill="#FF455B"/>
<rect x="345" y="222" width="5" height="5" rx="2.5" transform="rotate(90 345 222)" fill="#FF455B"/>
<rect x="367" y="222" width="5" height="5" rx="2.5" transform="rotate(90 367 222)" fill="#FF455B"/>
<path d="M1.85156 203.331L1.85156 202.428L4.88867 202.428L4.88867 198.609L1.85156 198.609L1.85156 197.711L9 197.711L9 198.609L5.68945 198.609L5.68945 202.428L9 202.428L9 203.331L1.85156 203.331ZM8.43848 194.22C8.43848 194.024 8.41406 193.845 8.36523 193.683C8.31641 193.52 8.25618 193.386 8.18457 193.282C8.11296 193.175 8.02995 193.082 7.93555 193.004C7.84115 192.923 7.75325 192.862 7.67187 192.823C7.58724 192.781 7.50586 192.75 7.42773 192.73L7.42773 191.93C7.9388 192.07 8.35221 192.332 8.66797 192.716C8.98372 193.097 9.1416 193.588 9.1416 194.19C9.1416 194.955 8.89583 195.562 8.4043 196.012C7.91276 196.458 7.26172 196.681 6.45117 196.681C5.60807 196.681 4.94889 196.461 4.47363 196.021C3.99837 195.579 3.76074 194.981 3.76074 194.229C3.76074 193.442 4.01302 192.849 4.51758 192.452C5.02213 192.052 5.73665 191.852 6.66113 191.852L6.66113 195.88C6.97689 195.88 7.2666 195.821 7.53027 195.704C7.79394 195.584 8.01204 195.395 8.18457 195.138C8.35384 194.881 8.43848 194.575 8.43848 194.22ZM4.45898 194.229C4.45898 194.705 4.60547 195.099 4.89844 195.411C5.18815 195.724 5.54134 195.88 5.95801 195.88L5.95801 192.647C5.53809 192.647 5.18327 192.794 4.89355 193.087C4.60384 193.38 4.45898 193.761 4.45898 194.229ZM5.20117 187.936C4.70638 187.936 4.45898 188.282 4.45898 188.976C4.45898 189.454 4.53548 189.791 4.68848 189.986C4.84147 190.182 5.10514 190.292 5.47949 190.318L5.47949 191.119C4.9554 191.093 4.53874 190.906 4.22949 190.558C3.91699 190.206 3.76074 189.679 3.76074 188.976C3.76074 188.774 3.77702 188.587 3.80957 188.414C3.84212 188.238 3.89746 188.071 3.97559 187.911C4.05371 187.752 4.15299 187.617 4.27344 187.506C4.39388 187.395 4.5485 187.307 4.7373 187.242C4.92285 187.174 5.13444 187.14 5.37207 187.14L7.84766 187.14C8.06901 187.14 8.22526 187.102 8.31641 187.027C8.4043 186.952 8.43522 186.796 8.40918 186.559L8.9707 186.559C9.02279 186.718 9.04883 186.874 9.04883 187.027C9.04883 187.285 9.00163 187.483 8.90723 187.623C8.80957 187.763 8.62728 187.867 8.36035 187.936L8.36035 187.955C8.88118 188.307 9.1416 188.884 9.1416 189.688C9.1416 190.2 9.00814 190.608 8.74121 190.914C8.47428 191.217 8.12435 191.368 7.69141 191.368C7.46354 191.368 7.26335 191.334 7.09082 191.266C6.91829 191.194 6.77506 191.101 6.66113 190.987C6.5472 190.873 6.44629 190.717 6.3584 190.519C6.26725 190.32 6.19564 190.121 6.14355 189.923C6.09147 189.724 6.03776 189.479 5.98242 189.186C5.89453 188.71 5.80176 188.383 5.7041 188.204C5.60644 188.025 5.4388 187.936 5.20117 187.936ZM8.43848 189.605C8.43848 189.101 8.32129 188.697 8.08691 188.395C7.85254 188.089 7.50098 187.936 7.03223 187.936L6.17773 187.936C6.30794 188.066 6.44141 188.46 6.57812 189.117C6.6888 189.635 6.82227 190.006 6.97852 190.23C7.13477 190.455 7.35937 190.567 7.65234 190.567C8.17643 190.567 8.43848 190.247 8.43848 189.605ZM1.85156 182.33L1.85156 181.529L9 181.529L9 182.33L8.37012 182.33L8.37012 182.35C8.88444 182.74 9.1416 183.274 9.1416 183.951C9.1416 184.27 9.07975 184.57 8.95605 184.85C8.83236 185.13 8.65657 185.374 8.42871 185.582C8.20085 185.787 7.91764 185.95 7.5791 186.07C7.2373 186.191 6.86133 186.251 6.45117 186.251C6.04101 186.251 5.66667 186.191 5.32812 186.07C4.98633 185.95 4.7015 185.787 4.47363 185.582C4.24577 185.374 4.06999 185.13 3.94629 184.85C3.82259 184.57 3.76074 184.27 3.76074 183.951C3.76074 183.245 4.02767 182.711 4.56152 182.35L4.56152 182.33L1.85156 182.33ZM8.43848 183.868C8.43848 183.396 8.25944 183.022 7.90137 182.745C7.54004 182.468 7.05664 182.33 6.45117 182.33C5.8457 182.33 5.3623 182.468 5.00098 182.745C4.63965 183.022 4.45898 183.396 4.45898 183.868C4.45898 184.122 4.51595 184.352 4.62988 184.557C4.74056 184.762 4.8903 184.928 5.0791 185.055C5.2679 185.182 5.48112 185.279 5.71875 185.348C5.95312 185.416 6.19726 185.45 6.45117 185.45C6.79622 185.45 7.11686 185.393 7.41309 185.279C7.70605 185.165 7.95019 184.986 8.14551 184.742C8.34082 184.495 8.43848 184.203 8.43848 183.868ZM5.73828 176.812C5.58854 176.822 5.44206 176.856 5.29883 176.915C5.1556 176.97 5.01888 177.053 4.88867 177.164C4.75846 177.271 4.6543 177.42 4.57617 177.608C4.49805 177.794 4.45898 178.009 4.45898 178.253C4.45898 178.487 4.49805 178.701 4.57617 178.893C4.65104 179.081 4.75358 179.239 4.88379 179.366C5.01074 179.49 5.16211 179.596 5.33789 179.684C5.51042 179.768 5.68945 179.83 5.875 179.869C6.06055 179.905 6.2526 179.923 6.45117 179.923C6.70182 179.923 6.94108 179.892 7.16894 179.83C7.39681 179.768 7.6084 179.674 7.80371 179.547C7.99577 179.42 8.15039 179.246 8.26758 179.024C8.38151 178.8 8.43848 178.543 8.43848 178.253C8.43848 178.006 8.39941 177.789 8.32129 177.604C8.24316 177.415 8.139 177.267 8.00879 177.159C7.87532 177.052 7.73535 176.97 7.58887 176.915C7.43913 176.856 7.28288 176.822 7.12012 176.812L7.12012 176.012C7.70605 176.048 8.18945 176.274 8.57031 176.69C8.95117 177.107 9.1416 177.628 9.1416 178.253C9.1416 178.995 8.8942 179.592 8.39941 180.045C7.90462 180.497 7.25521 180.724 6.45117 180.724C5.64713 180.724 4.99772 180.497 4.50293 180.045C4.00814 179.592 3.76074 178.995 3.76074 178.253C3.76074 177.634 3.94629 177.122 4.31738 176.715C4.68522 176.308 5.15885 176.074 5.73828 176.012L5.73828 176.812ZM9.1416 173.038C9.1416 173.806 8.89583 174.415 8.4043 174.864C7.9095 175.313 7.25846 175.538 6.45117 175.538C5.64388 175.538 4.99446 175.313 4.50293 174.864C4.00814 174.415 3.76074 173.806 3.76074 173.038C3.76074 172.273 4.00814 171.668 4.50293 171.222C4.99772 170.772 5.64713 170.548 6.45117 170.548C7.25521 170.548 7.90462 170.772 8.39941 171.222C8.8942 171.668 9.1416 172.273 9.1416 173.038ZM8.43848 173.038C8.43848 172.494 8.2513 172.078 7.87695 171.788C7.5026 171.495 7.02734 171.349 6.45117 171.349C5.875 171.349 5.39974 171.495 5.02539 171.788C4.64779 172.078 4.45898 172.494 4.45898 173.038C4.45898 173.588 4.64779 174.01 5.02539 174.303C5.39974 174.592 5.875 174.737 6.45117 174.737C7.02734 174.737 7.5026 174.592 7.87695 174.303C8.2513 174.01 8.43848 173.588 8.43848 173.038ZM3.90234 166.358L3.90234 165.558L9 165.558L9 166.358L8.38965 166.358L8.38965 166.378C8.60124 166.534 8.78027 166.754 8.92676 167.037C9.06999 167.32 9.1416 167.66 9.1416 168.058C9.1416 168.295 9.10742 168.517 9.03906 168.722C8.97396 168.924 8.8763 169.104 8.74609 169.264C8.61263 169.42 8.43685 169.544 8.21875 169.635C7.99739 169.726 7.74512 169.771 7.46191 169.771L3.90234 169.771L3.90234 168.971L7.26172 168.971C7.61653 168.971 7.90137 168.881 8.11621 168.702C8.33105 168.52 8.43848 168.238 8.43847 167.857C8.43847 167.411 8.31152 167.05 8.05762 166.773C7.80371 166.497 7.47819 166.358 7.08105 166.358L3.90234 166.358ZM3.76074 161.954C3.76074 161.716 3.79492 161.497 3.86328 161.295C3.92838 161.093 4.02767 160.912 4.16113 160.753C4.29134 160.593 4.46712 160.47 4.68847 160.382C4.90657 160.291 5.15722 160.245 5.44043 160.245L9 160.245L9 161.046L5.64062 161.046C5.28581 161.046 5.00097 161.135 4.78613 161.314C4.56803 161.493 4.45898 161.773 4.45898 162.154C4.45898 162.6 4.58756 162.963 4.84472 163.243C5.09863 163.52 5.42415 163.658 5.82129 163.658L9 163.658L9 164.454L3.90234 164.454L3.90234 163.658L4.50781 163.658L4.50781 163.634C4.29622 163.478 4.11881 163.259 3.97558 162.979C3.83235 162.696 3.76074 162.354 3.76074 161.954ZM4.60058 157.052L4.60058 158.053L7.67187 158.053C7.94857 158.053 8.12923 157.976 8.21387 157.823C8.2985 157.67 8.3278 157.413 8.30176 157.052L9 157.052C9.03906 157.231 9.05859 157.431 9.05859 157.652C9.05859 158.03 8.96256 158.325 8.77051 158.536C8.57519 158.744 8.23502 158.849 7.75 158.849L4.60058 158.849L4.60058 159.601L3.90234 159.601L3.90234 158.849L2.19824 158.849L2.19824 158.053L3.90234 158.053L3.90234 157.052L4.60058 157.052Z" fill="black"/>
<path d="M311.221 59.5373H308.65L308.136 61H307.375L309.531 55.1653H310.348L312.496 61H311.735L311.221 59.5373ZM308.894 58.8877H310.986L309.95 55.8429H309.934L308.894 58.8877ZM313.054 55.1653H313.708V61H313.054V55.1653ZM314.577 55.1653H315.23V61H314.577V55.1653Z" fill="#236CE6"/>
<line opacity="0.35" x1="311.269" y1="65" x2="311.269" y2="95" stroke="#236CE6" stroke-width="0.538603"/>
<path d="M327.141 196V190.165H329.461C329.737 190.165 329.987 190.197 330.21 190.261C330.433 190.325 330.631 190.423 330.804 190.556C330.979 190.686 331.115 190.863 331.21 191.086C331.306 191.306 331.354 191.566 331.354 191.863C331.354 192.161 331.306 192.421 331.21 192.644C331.115 192.865 330.979 193.041 330.804 193.174C330.631 193.305 330.433 193.401 330.21 193.465C329.987 193.529 329.737 193.561 329.461 193.561H327.878V196H327.141ZM327.878 190.819V192.907H329.54C329.904 192.907 330.175 192.822 330.353 192.652C330.531 192.48 330.62 192.216 330.62 191.863C330.62 191.51 330.531 191.248 330.353 191.078C330.175 190.905 329.904 190.819 329.54 190.819H327.878ZM334.004 191.724C334.198 191.724 334.377 191.752 334.542 191.807C334.707 191.86 334.854 191.942 334.984 192.05C335.115 192.157 335.216 192.3 335.287 192.481C335.362 192.659 335.399 192.863 335.399 193.095V196H334.745V193.258C334.745 192.968 334.672 192.736 334.526 192.561C334.38 192.383 334.151 192.294 333.841 192.294C333.477 192.294 333.18 192.398 332.952 192.608C332.726 192.816 332.613 193.081 332.613 193.405V196H331.963V190.165H332.613V192.333H332.633C332.761 192.161 332.939 192.016 333.167 191.899C333.398 191.782 333.677 191.724 334.004 191.724ZM336.371 196V190.165H338.488C339.298 190.165 339.933 190.42 340.393 190.931C340.852 191.438 341.082 192.157 341.082 193.087C341.082 194.017 340.852 194.735 340.393 195.243C339.933 195.748 339.298 196 338.488 196H336.371ZM337.109 190.819V195.346H338.488C338.775 195.346 339.028 195.304 339.249 195.219C339.472 195.134 339.651 195.022 339.787 194.884C339.922 194.743 340.033 194.573 340.118 194.374C340.205 194.175 340.265 193.971 340.297 193.764C340.332 193.557 340.349 193.331 340.349 193.087C340.349 192.842 340.332 192.616 340.297 192.409C340.265 192.202 340.205 191.999 340.118 191.799C340.033 191.597 339.922 191.426 339.787 191.285C339.651 191.144 339.472 191.031 339.249 190.946C339.028 190.861 338.775 190.819 338.488 190.819H337.109Z" fill="#FF455B"/>
<line opacity="0.35" x1="334.269" y1="200" x2="334.269" y2="230" stroke="#FF455B" stroke-width="0.538603"/>
</svg>
