<svg width="85" height="85" viewBox="0 0 85 85" fill="none" xmlns="http://www.w3.org/2000/svg">
<path d="M37.152 71.6978C27.1059 66.17 18.8373 57.9014 13.3094 47.8553C11.7979 45.0176 11.7979 39.989 13.3094 37.1513C18.8381 27.105 27.1064 18.8355 37.152 13.3055C39.9929 11.794 45.0182 11.794 47.8559 13.3055C57.9031 18.8345 66.1728 27.1041 71.7017 37.1513C73.2132 39.989 73.2132 45.0176 71.7017 47.8553C66.1726 57.9015 57.9029 66.17 47.8559 71.6978C45.0182 73.2126 39.9897 73.2093 37.152 71.6978Z" fill="#D9D9D9"/>
<path d="M78.1441 81.8919C79.827 81.1712 81.1679 79.8303 81.8887 78.1473C83.9495 73.0473 87.1773 61.3389 82.8638 57.0385C77.2079 51.3826 70.6776 56.4209 63.5394 63.559C56.4013 70.6971 51.363 77.2274 57.0189 82.8833C61.3389 87.1838 73.0505 83.956 78.1441 81.8919Z" fill="#D9D9D9"/>
<path d="M2.12304 27.9687C7.77894 33.6246 14.3125 28.5863 21.4506 21.4481C28.5888 14.31 33.6271 7.77971 27.9679 2.12381C23.6675 -2.17663 11.9591 1.05114 6.85903 3.09896C5.1761 3.81973 3.83523 5.16064 3.11446 6.84356C1.05038 11.9566 -2.1774 23.6683 2.12304 27.9687Z" fill="#D9D9D9"/>
<path d="M81.8945 6.85647C81.1699 5.17387 79.8272 3.83351 78.1434 3.11187C73.0433 1.05104 61.3317 -2.17673 57.015 2.13671C51.3591 7.79262 56.3974 14.3262 63.5356 21.461C70.6737 28.5959 77.1877 33.6375 82.8599 27.9816C87.1831 23.6681 83.9553 11.9565 81.8945 6.85647Z" fill="#D9D9D9"/>
<path d="M27.9687 82.8827C33.6278 77.2268 28.5863 70.6933 21.4514 63.5584C14.3165 56.4235 7.77971 51.3819 2.12381 57.0378C-2.17663 61.3383 1.05114 73.0466 3.09896 78.1467C3.81775 79.831 5.1593 81.1725 6.84357 81.8913C11.9599 83.9554 23.6683 87.1831 27.9687 82.8827Z" fill="#D9D9D9"/>
</svg>
