<svg width="86" height="86" viewBox="0 0 86 86" fill="none" xmlns="http://www.w3.org/2000/svg">
<path d="M36.9846 41.0161C38.0026 40.8693 38.9457 40.397 39.6729 39.6697C40.4002 38.9425 40.8725 37.9994 41.0193 36.9814C42.0655 30.3069 42.2364 14.3878 34.2542 6.40559C23.7542 -4.09091 16.1381 0.756318 8.44881 8.44561C0.759516 16.1349 -4.08771 23.751 6.41227 34.251C14.391 42.2297 30.3101 42.0553 36.9846 41.0161Z" fill="#D9D9D9"/>
<path d="M51.4872 79.3237C61.9837 89.8237 69.6033 84.9764 77.2926 77.2871C84.9819 69.5979 89.8465 61.9818 79.3326 51.4818C71.3504 43.5031 55.4347 43.6774 48.7567 44.7166C47.7363 44.8607 46.79 45.3318 46.06 46.0593C45.33 46.7867 44.8557 47.7313 44.7081 48.7513C43.6794 55.4258 43.505 71.3449 51.4872 79.3237Z" fill="#D9D9D9"/>
<path d="M41.0183 48.7504C40.8709 47.7327 40.3984 46.7899 39.6713 46.0628C38.9441 45.3356 38.0013 44.8631 36.9836 44.7157C30.3091 43.6696 14.39 43.5022 6.41123 51.4809C-4.08875 61.9809 0.761962 69.597 8.44777 77.2863C16.1336 84.9756 23.7566 89.8228 34.2531 79.3228C42.2353 71.3441 42.061 55.425 41.0183 48.7504Z" fill="#D9D9D9"/>
<path d="M79.3306 34.2481C89.8271 23.7516 84.9799 16.1355 77.2906 8.44275C69.6013 0.749964 61.9852 -4.09377 51.4852 6.40273C43.503 14.3849 43.6774 30.3041 44.7165 36.9786C44.8644 37.9961 45.3371 38.9386 46.0642 39.6656C46.7912 40.3927 47.7337 40.8654 48.7513 41.0133C55.4327 42.0559 71.3484 42.2303 79.3306 34.2481Z" fill="#D9D9D9"/>
</svg>
