<svg width="85" height="85" viewBox="0 0 85 85" fill="none" xmlns="http://www.w3.org/2000/svg">
<path d="M82.4374 63.5561C81.5746 62.339 80.7881 61.0694 80.0827 59.7548C77.2617 54.4802 75.7763 48.5946 75.7563 42.6131C75.7364 36.6315 77.1825 30.7362 79.9683 25.4429C80.7387 23.9702 81.6121 22.5539 82.5821 21.2043C83.6172 19.7858 84.3411 18.1647 84.7063 16.447C85.0715 14.7294 85.0698 12.954 84.7013 11.237C84.0969 8.56978 82.7486 6.12855 80.813 4.19647C78.8773 2.2644 76.4336 0.920664 73.7652 0.321116C70.2096 -0.476132 66.5294 0.52295 63.549 2.62204C58.013 6.5244 51.4996 8.80793 44.7388 9.21671C37.9779 9.62548 31.2368 8.14335 25.271 4.93641C23.9592 4.23172 22.693 3.44525 21.4798 2.58167C18.7483 0.650781 15.4248 -0.385306 12.1181 0.132738C9.41816 0.559414 6.89439 1.74236 4.83921 3.54452C2.78402 5.34668 1.28153 7.69428 0.50582 10.3153C-0.0143461 12.1454 -0.111411 14.0698 0.221949 15.9429C0.555309 17.816 1.31035 19.5887 2.42997 21.127C3.45123 22.5387 4.36864 24.0227 5.17494 25.5673C7.90802 30.821 9.32654 36.659 9.30896 42.581C9.29139 48.503 7.83822 54.3325 5.07401 59.5698C4.2875 61.0637 3.39491 62.4993 2.40307 63.8655C1.36286 65.2866 0.636058 66.9123 0.270732 68.6352C-0.0945942 70.358 -0.0901429 72.1387 0.28379 73.8597C0.859081 76.3785 2.09851 78.6972 3.87323 80.5749C5.64795 82.4525 7.89317 83.8206 10.3755 84.5368C12.2011 85.0435 14.1176 85.1309 15.9817 84.7924C17.8457 84.454 19.6092 83.6984 21.1401 82.5824C27.3591 78.0962 34.8327 75.6818 42.501 75.6818C50.1692 75.6818 57.6428 78.0962 63.8618 82.5824C65.3998 83.7038 67.173 84.4601 69.0469 84.7941C70.9208 85.1281 72.8461 85.0309 74.6768 84.5099C77.2982 83.7331 79.6457 82.2294 81.4473 80.173C83.2489 78.1165 84.4308 75.5916 84.8561 72.8909C85.3977 69.6044 84.3717 66.2775 82.4374 63.5561ZM58.1298 53.3365C57.5276 55.3077 55.2502 57.5784 53.2823 58.1805C46.2327 60.2287 38.7457 60.2287 31.6961 58.1805C29.7282 57.5784 27.4576 55.3077 26.852 53.3365C24.8034 46.288 24.8034 38.802 26.852 31.7536C27.4508 29.7789 29.7282 27.5083 31.6961 26.9028C38.7471 24.8642 46.2313 24.8642 53.2823 26.9028C55.2502 27.5083 57.5276 29.7789 58.1298 31.7536C60.1717 38.803 60.1717 46.2871 58.1298 53.3365Z" fill="#D9D9D9"/>
</svg>
