<svg width="33" height="27" viewBox="0 0 33 27" fill="none" xmlns="http://www.w3.org/2000/svg">
<g clip-path="url(#clip0_1012_2474)">
<path d="M0.858398 26.6998V0.299805H4.59052V12.962L3.1703 11.8533H15.6217L14.2015 12.962V0.299805H17.9226V26.6998H14.2015V14.2704L15.6217 15.3792H3.1703L4.59052 14.2704V26.6998H0.858398Z" fill="black"/>
<path d="M23.2295 13.8038V2.6162H25.4313V4.27936H25.6516C25.918 3.71877 26.3285 3.24022 26.8405 2.89339C27.3684 2.55095 27.9851 2.37353 28.613 2.3834H28.7012C29.1801 2.35458 29.659 2.43998 30.0989 2.63264C30.5389 2.8253 30.9275 3.11978 31.2332 3.49217C31.8842 4.43518 32.1986 5.57256 32.125 6.71869V13.7816H29.9232V6.85174C29.9799 6.1947 29.8129 5.53779 29.4497 4.989C29.2778 4.7856 29.0605 4.62625 28.8155 4.52407C28.5705 4.4219 28.3048 4.37987 28.0405 4.40138H27.9525C27.6058 4.38219 27.2591 4.43856 26.9361 4.56678C26.6131 4.69499 26.3214 4.892 26.081 5.14424C25.5858 5.74969 25.3413 6.52407 25.3984 7.30637V13.7816L23.2295 13.8038Z" fill="black"/>
</g>
<defs>
<clipPath id="clip0_1012_2474">
<rect width="31.2" height="26.4" fill="white" transform="translate(0.900391 0.299805)"/>
</clipPath>
</defs>
</svg>
